<?xml version="1.0" encoding="UTF-8"?>
<svg id="Capa_1" data-name="Capa 1" xmlns="http://www.w3.org/2000/svg" viewBox="0 0 595.28 242.56">
  <defs>
    <style>
      .cls-1, .cls-2, .cls-3 {
        fill: #e7ebf7;
      }

      .cls-4, .cls-5, .cls-6 {
        fill: #f1f2fa;
      }

      .cls-7, .cls-8, .cls-9 {
        fill: #a08384;
      }

      .cls-10, .cls-11, .cls-12 {
        fill: #8f726e;
      }

      .cls-13, .cls-14, .cls-15 {
        fill: #d8e0f3;
      }

      .cls-16, .cls-17, .cls-18 {
        fill: #b2c2e2;
      }

      .cls-19, .cls-20, .cls-21 {
        fill: #c9d5ee;
      }

      .cls-22, .cls-23, .cls-24 {
        fill: #d0d9f0;
      }

      .cls-25, .cls-26, .cls-27 {
        fill: #c5a6a3;
      }

      .cls-28, .cls-29, .cls-30 {
        fill: #c59b92;
      }

      .cls-31, .cls-32, .cls-33 {
        fill: #d6bfbe;
      }

      .cls-34, .cls-35, .cls-36 {
        fill: #3a3d4a;
      }

      .cls-37 {
        fill: #6188c6;
      }

      .cls-38, .cls-39 {
        fill: #777778;
      }

      .cls-35, .cls-40, .cls-39, .cls-41, .cls-32, .cls-26, .cls-29, .cls-23, .cls-20, .cls-14, .cls-17, .cls-8, .cls-42, .cls-11, .cls-2, .cls-43, .cls-5 {
        opacity: .82;
      }

      .cls-40 {
        fill: #71bae8;
      }

      .cls-41 {
        fill: #53a0d8;
      }

      .cls-42, .cls-44 {
        fill: #92aacf;
      }

      .cls-43 {
        fill: #fefefe;
      }

      .cls-36, .cls-45, .cls-33, .cls-30, .cls-27, .cls-24, .cls-21, .cls-18, .cls-15, .cls-46, .cls-44, .cls-12, .cls-9, .cls-3, .cls-6 {
        opacity: .28;
      }

      .cls-45 {
        fill: #78c0ec;
      }

      .cls-46 {
        fill: #7ec4ee;
      }
    </style>
  </defs>
  <rect class="cls-37" y="77.97" width="595.28" height="92.78"/>
  <path class="cls-3" d="M71.13,186.09c8.67-3.56,17.44-6.92,25.97-10.73,7.95-3.55,7.35-5.31,4.4-12.72-5.83-14.64-15.63-28.73-10.6-45.5,.65-2.16,1.83-4.19,2.76-6.28,1.66,3.3,3.25,6.63,4.97,9.9,5.15,9.8,17.37,13.89,28.83,9.71,.06,.93,0,1.88,.23,2.78,.26,1.01,.77,1.97,1.17,2.96-.83,2.55-1.65,5.1-2.48,7.65,.71,.19,1.43,.38,2.14,.56,1.12-1.69,2.24-3.38,3.24-4.89,1.76,1.36,3.18,2.46,4.61,3.56,.06,1.37,.12,2.73,.19,4.1-.74,1.9-2.33,3.92-2.03,5.67,.64,3.72,2.27,7.29,3.5,10.93,.25,2.73-.02,7.66,.84,7.83,5.09,1.01,2.2,3.73,2.17,5.82-7.64,.35-15.27,.7-22.91,1.04l-.31,.68c4.75,1.14,9.51,2.27,15.68,3.75-4.5,1.26-7.59,2.13-10.68,2.99-2.85-.4-5.85-1.49-8.51-1.01-2.9,.53-5.34,3.3-8.22,3.71-9.07,1.3-18.26,1.96-27.4,2.87-2.1,.49-4.21,.97-6.31,1.46-.42-2.28-.83-4.56-1.25-6.84Z"/>
  <path class="cls-6" d="M96.8,68.07c.08-.84,.15-1.68,.23-2.52,0-1.83,0-3.67-.01-5.5,.26-9.14,7.24-17.87,16.42-20.43,2.6-.73,5.27-1.27,7.91-1.9,3.66,3.5,7.31,7,10.97,10.5-2.44,1.19-4.89,2.37-7.09,3.44,.79,3.35,1.55,6.61,2.32,9.86-.88,.48-1.77,.96-2.65,1.45-2.06-2.89-4.12-5.79-6.19-8.68-.4,.35-.81,.71-1.21,1.06,.76,4.79,1.53,9.58,2.29,14.37-.76,1.53-1.51,3.06-2.43,4.91,2.59-.27,4.75-.49,6.91-.72,0,.9,.01,1.81,.02,2.71-2.02,3.69-4.03,7.38-6.05,11.07h0c-7.13-1.32-14.52-2-16.69-10.38-.4-1.54-4.19-2.35-6.42-3.49,.01-.45,.09-.89,.24-1.32,.48-1.48,.95-2.95,1.43-4.43Z"/>
  <path class="cls-3" d="M118.24,87.69c2.02-3.69,4.03-7.38,6.05-11.07,3.56,0,7.13,.02,10.69,.03,.22,1.51,.43,3.02,.65,4.54,.73-.38,1.45-.75,2.18-1.13-.94-1.14-1.88-2.28-2.82-3.42,2.31-3.79,4.62-7.58,6.94-11.37,.82,2.95,1.65,5.9,2.47,8.85,2.41,2.74,4.82,5.48,7.23,8.22,.56,2.7,1.13,5.41,1.69,8.12-2.61,2.32-5.22,4.63-7.83,6.95-.34-.06-.68-.1-1.03-.12-.56-.45-1.11-.91-1.67-1.36l-.12-.05c-4.66-.09-9.32-.17-13.97-.26-.87,.02-1.74,.04-2.61,.07-5.15-.81-10.3-1.63-15.45-2.44-1.48-1.76-2.96-3.53-4.44-5.29-.75,.72-1.5,1.44-2.25,2.16,2.22,1.52,4.44,3.03,6.66,4.55,1.55,.9,3.1,1.79,4.66,2.69-1.14,2.04-2.29,4.08-3.43,6.11-.94-.55-1.88-1.1-2.82-1.64-.55-.5-1.09-1-1.64-1.51l.12,.07c-.83-.39-1.66-.79-2.5-1.18-1.16-.26-2.32-.52-3.48-.79-1.01-.34-2.02-.68-3.03-1.02-.98-5.07-1.96-10.15-2.94-15.22,1.76,.26,3.51,.52,5.27,.78,.3-.52,.6-1.03,.89-1.55-2.62-1.59-5.25-3.17-7.87-4.76,.42-.94,.85-1.87,1.27-2.81,2.23,1.15,6.02,1.96,6.42,3.49,2.17,8.38,9.56,9.05,16.69,10.38,.62,.71,1.23,1.41,1.85,2.12l.5-.45c-.78-.56-1.56-1.11-2.34-1.67Zm7.07-1.72c-.43-.16-.94-.54-1.25-.43-.3,.11-.4,.71-.58,1.09,.42,.16,.94,.54,1.25,.43,.31-.11,.4-.71,.59-1.1Zm3.17-3.27c-.18,.38-.61,.85-.49,1.13,.12,.28,.87,.57,1.18,.47,.3-.1,.63-.79,.51-1.06-.12-.28-.78-.36-1.2-.53Z"/>
  <path class="cls-36" d="M101.53,98.39c1.16,.26,2.32,.52,3.48,.79,.83,.39,1.66,.79,2.49,1.18,0,0-.12-.07-.12-.07,.55,.5,1.09,1,1.64,1.51,.94,.55,1.88,1.1,2.82,1.65,2.48,1.07,4.85,2.51,7.46,3.13,8.43,2.02,16.94,3.73,25.42,5.57,2.71,7.65,5.63,15.26,8.04,22.99,1.02,3.3,4.92,7.08-1.04,10.59-2.01-3.5-3.64-7.1-6.04-10.21-1.32-1.72-3.93-2.61-5.96-3.88-3.06-4.64-6.11-9.29-9.17-13.93-4.11-1.67-8.21-3.35-12.32-5.02-6.94-3.27-13.89-6.54-20.83-9.81,.46-1.26,.93-2.52,1.39-3.78,.92-.23,1.84-.46,2.76-.69Z"/>
  <path class="cls-6" d="M97.38,102.86c6.94,3.27,13.89,6.54,20.83,9.81-1.22,.8-2.43,1.61-4.51,2.98,3.93,2.49,7.24,4.58,10.54,6.67,1.07,2.71,2.15,5.43,3.22,8.14-11.46,4.18-23.67,.09-28.83-9.71-1.72-3.27-3.32-6.6-4.97-9.9,.13-.81,.26-1.62,.39-2.43,.4-.58,.8-1.16,1.2-1.74,.71-1.28,1.42-2.55,2.13-3.83Z"/>
  <path class="cls-21" d="M141.04,177.43c.03-2.09,2.92-4.81-2.17-5.82-.86-.17-.59-5.1-.84-7.83,1.96-.44,3.92-.88,5.88-1.31,.14,7.24,.47,14.48,.33,21.71-.05,2.86-1.15,5.71-1.77,8.57,0,0,.06,.04,.06,.04-.46,.48-.93,.96-1.39,1.43-.48,2.31-.97,4.63-1.45,6.94-.12,1.82-.24,3.64-.36,5.46-.95,2.33-1.9,4.66-2.85,6.98-3.77,.75-7.54,1.5-11.32,2.25-.29-.64-.57-1.28-.86-1.92,3.54-1.59,7.08-3.18,10.62-4.77,.06-.62,.12-1.24,.19-1.87-3.08-.66-6.16-1.31-9.24-1.97,4.51-7.13,9.14-14.19,13.44-21.42,1.12-1.88,1.18-4.29,1.72-6.46Z"/>
  <path class="cls-36" d="M128.08,29.3c-.2-5.28-2.31-11.3-.22-15.68,4.57-9.6,19.97-10.62,28.59-2.87-6.04-.25-6,4.55-7.83,7.79-1.76-.01-3.71,.43-5.24-.11-5.68-2.01-8.03-.67-8.84,5.04-.3,2.16-4.2,3.9-6.46,5.83Z"/>
  <path class="cls-12" d="M148.61,18.54c1.83-3.25,1.79-8.04,7.83-7.79,1.34,3.81,2.68,7.62,4.02,11.42-.45,1.05-1.59,2.39-1.22,3.1,3.61,7.04-3.35,11.52-5.41,17.03-.71,1.89-6.84,2.12-10.49,3.1-.25-.2-.49-.39-.73-.58,.55-2.41,1.1-4.81,1.65-7.22,2.52,.87,5.04,1.73,7.88,2.71,.46-3.56,.92-7.09,1.38-10.63-.09-2.36,.31-4.85-.46-7.01-.41-1.15-2.82-1.71-4.33-2.53l-.11-1.6Z"/>
  <path class="cls-36" d="M144.4,74.11c-.82-2.95-1.65-5.9-2.47-8.85-3.2-5.68-6.41-11.36-9.61-17.04-3.66-3.5-7.31-7-10.97-10.5,.98-2.64,1-6.21,5.91-5.05,0,0,.07-.2,.07-.2,2.51,3.7,5.02,7.4,7.53,11.1,1.6,1.87,3.2,3.74,4.8,5.61,.7-.42,1.39-.84,2.09-1.26,.64,.92,1.28,1.84,1.92,2.75,1.56,6,3.12,11.99,4.68,17.99-1.32,1.81-2.63,3.63-3.95,5.44Z"/>
  <path class="cls-33" d="M71.13,186.09c.42,2.28,.83,4.56,1.25,6.84,.58,1.83,1.15,3.65,1.73,5.48-1.87,3.82-3.73,7.63-5.6,11.45-1.06-.25-2.12-.5-3.18-.75,.84-6.85,1.68-13.71,2.52-20.56,0,0,.04,.09,.04,.09,.56-.8,1.11-1.6,1.67-2.4,.52-.04,1.04-.09,1.57-.13Z"/>
  <path class="cls-9" d="M148.61,18.54c.04,.53,.07,1.06,.11,1.6-2.31,.91-4.62,1.82-7.21,2.84-.8,2.12-1.82,4.8-2.84,7.49-.5-.55-1-1.1-1.5-1.65-1.3,.69-2.6,1.38-3.91,2.07-1.98,.53-3.96,1.06-5.94,1.59,0,0-.07,.2-.07,.2,.27-1.12,.54-2.25,.82-3.37,2.26-1.93,6.16-3.67,6.47-5.83,.81-5.71,3.16-7.05,8.84-5.04,1.53,.54,3.48,.1,5.24,.11Z"/>
  <path class="cls-6" d="M93.85,76.63c2.62,1.59,5.25,3.17,7.87,4.76-.3,.52-.59,1.03-.89,1.55-1.76-.26-3.52-.52-5.27-.78-.57-1.84-1.14-3.68-1.71-5.53Z"/>
  <path class="cls-3" d="M97.02,60.05c0,1.83,0,3.67,.01,5.5,0-1.83,0-3.67-.01-5.5Z"/>
  <path class="cls-3" d="M96.8,68.07c-.48,1.48-.95,2.95-1.43,4.43,.48-1.48,.95-2.95,1.43-4.43Z"/>
  <path class="cls-27" d="M69.57,186.23c-.56,.8-1.11,1.6-1.67,2.4,.08-.83,.16-1.67,.24-2.5,.49-.07,.96-.04,1.43,.1Z"/>
  <path class="cls-24" d="M101.53,98.39c-.92,.23-1.84,.46-2.76,.69-.09-.57-.18-1.14-.27-1.71,1.01,.34,2.02,.68,3.03,1.02Z"/>
  <path class="cls-3" d="M95.26,106.69c-.4,.58-.8,1.16-1.2,1.74,.4-.58,.8-1.16,1.2-1.74Z"/>
  <path class="cls-46" d="M141.15,194.21c.46-.48,.93-.96,1.39-1.43-.46,.48-.93,.96-1.39,1.43Z"/>
  <path class="cls-4" d="M465.57,72.14c5.07-1.85,10.13-3.7,15.2-5.55,5.72-2.72,11.44-5.45,17.16-8.18,7.46-1.84,14.93-3.67,22.4-5.5,1.01,3.52,2.02,7.05,3.02,10.57-7.53,4.55-14.48,10.55-22.74,13.24-9.19,2.99-16.25,7.64-22.88,13.64-5.73,5.18-11.79,10.07-17.71,15.09-.39-.37-.79-.75-1.18-1.12,1.29-3.85,2.58-7.7,3.87-11.55-.55-.12-1.09-.25-1.64-.37-3.11,5.12-6.21,10.25-9.32,15.37-1.01,1.85-2.02,3.71-3.03,5.56,0,0,.01,0,.01,0-.51,.46-1.01,.92-1.52,1.38,0,0-.03-.02-.03-.02-1.34-.24-2.68-.48-4.45-.8,1.58-2.47,2.83-4.43,4.08-6.38-.4-.3-.8-.61-1.2-.91-2.06,1.61-4.12,3.22-6.44,5.04-.86-2.32-1.57-4.22-2.27-6.11,.69,.91,1.38,1.82,2.07,2.72-3.83,2.17-7.66,4.33-11.49,6.49-4.13-.36-8.57,.03-12.32-1.26-4.82-1.65-9.08-4.65-13.57-7.07,3.01-2.33,6.01-4.67,9.02-7,2.54-.18,5.18-.04,7.6-.62,3.59-.87,7.14-2.04,10.51-3.47,3.32-1.4,6.73-2.92,9.49-5.05,3.82-2.94,7.08-6.49,10.57-9.78,5.6-2.8,11.19-5.59,16.79-8.39Z"/>
  <path class="cls-31" d="M523.35,63.48c-1.01-3.52-2.02-7.05-3.03-10.58,2.6-1.43,5.2-2.86,7.8-4.29,5.07-3.3,10.15-6.59,15.22-9.89,1.85-.1,3.7-.21,5.63-.32-.49,3.07-.92,5.71-1.34,8.35-2.79,5.18-1.97,12.59-10.61,14.15-4.07,.91-8.13,1.81-12.2,2.72-.49-.05-.98-.11-1.48-.16Z"/>
  <path class="cls-25" d="M547.63,46.76c.43-2.64,.85-5.29,1.34-8.35-1.93,.11-3.78,.21-5.63,.32,.28-3.37,.55-6.73,.88-10.74,9.38,6.63,9.92,10.73,3.41,18.78Z"/>
  <path class="cls-1" d="M486.67,99.22c-4.84,2.72-9.67,5.43-14.52,8.14-1.21,.15-2.42,.31-3.62,.47,.05-1.12-.41-2.67,.23-3.29,4.91-4.78,9.98-9.42,15.09-14.02,7.92-7.13,17.39-10.87,28.65-10.55-2.47,2.22-4.95,4.45-7.42,6.66-6.14,4.19-12.27,8.38-18.4,12.58Z"/>
  <path class="cls-38" d="M427.28,224.08c2.59,.86,5.19,1.72,7.78,2.57,1.25,.55,2.49,1.09,3.74,1.64-1.24,.97-2.47,1.94-3.71,2.9-2.62,0-5.24,0-7.81,0v-7.12Z"/>
  <path class="cls-2" d="M234.93,98.08c-3.69-2.76-7.78-5.18-10.92-8.38-2.05-2.09-4.1-5.47-3.74-7.99,1.28-8.94,3.59-17.76,5.51-26.63,1.55,3.77,2.75,7.69,4.71,11.27,5.25,9.58,14.55,13.8,24.66,10.49-2.26-8.58-4.55-17.3-6.86-26.09,2.19-2.35,4.97-5.34,7.76-8.33,.33-.25,.7-.35,1.12-.31,1.13,1.54,2.26,3.09,3.39,4.63-1.17,.18-2.35,.36-3.65,.55,2.21,4.37,4.97,8.17,5.97,12.32,.86,3.57-.3,7.54-.61,11.93,3.88-2.36,7.89-4.79,11.89-7.22,6.95-5.22,11.73-1.31,16.37,3.2,.02,1.89,.04,3.77,.06,5.66-3.33,1.96-6.67,3.92-10,5.88-.28-2.28-.57-4.56-.99-7.96-6.09,6.45-11.07,11.73-16.05,17.01-1.9,.14-3.79,.27-5.69,.41-3.82-.97-7.64-1.94-12.78-3.25,2.27,2.89,3.44,4.38,4.62,5.87-4.93,2.31-9.86,4.63-14.79,6.94Z"/>
  <path class="cls-5" d="M285.54,82.3c8.41-2.7,16.69-5.87,25.3-7.9,4.21-.99,9.03,.14,13.58,.31,.34,7.05,.69,14.1,1.03,21.16,.95-.04,1.9-.09,2.85-.13v-11.38c6.75,9.15,6.36,16.66,1.6,26.15-3.38-4.44-5.95-7.81-8.52-11.18-1.14-.54-2.32-1.58-3.42-1.51-2.1,.12-4.16,.87-6.65,1.45,.95-4.63,1.65-8.07,2.35-11.5-.7-.15-1.4-.31-2.1-.46-2.96,3.92-5.71,8-9.01,11.67-1.05,1.17-3.27,5.98-5.47,.37,.38-.49,.75-.98,1.13-1.47-.19-.11-.39-.23-.58-.34-.19,.6-.38,1.2-.57,1.8-2.03,1.85-4.06,3.69-6.09,5.54-4.08,4.06-8.17,8.11-12.25,12.17-1.5,.19-3.01,.37-4.51,.56,1.49-2.96,2.99-5.93,4.48-8.89-.47-.22-.95-.44-1.42-.66-2.44,1.77-4.87,3.55-8.49,6.18-.98-8.89-2.01-15.98,3.94-22.06,3.06-2.27,6.11-4.54,9.16-6.81,1.22-1.02,2.44-2.03,3.66-3.05Z"/>
  <path class="cls-2" d="M321.38,99.33c2.57,3.37,5.13,6.74,8.52,11.18,4.77-9.48,5.15-17-1.6-26.15v11.38c-.95,.04-1.9,.09-2.85,.13-.34-7.05-.69-14.11-1.03-21.16,1.87,1.52,3.74,3.03,5.6,4.56,1.68,2.12,3.37,4.22,5.05,6.33,1.51,1.86,3.03,3.73,4.54,5.59,4.05,4.62,8.11,9.25,12.16,13.87,7.95,7.25,3.23,13.21-2.35,19.08-1.72,1.82-3.44,3.65-5.16,5.47-1.46,.54-2.92,1.08-4.39,1.62-2.44-3.26-4.43-6.92-7.45-9.65-2.64-2.39-6.43-3.73-9.72-5.53-.98-.89-1.95-1.78-2.93-2.67,1.48-1.03,2.96-2.05,5.12-3.55-2.92-1.93-5.23-3.47-8.12-5.39,1.58-1.75,3.09-3.44,4.61-5.12Z"/>
  <path class="cls-29" d="M240.94,30.26c.16-1.89,.33-3.78,.49-5.68,3.38-3.79,6.76-7.58,10.66-11.94,7.59,5.64,11.36,.68,14.42-5.78,.96,.46,1.92,.92,2.88,1.38l.09,.07c.88,.81,1.77,1.63,2.65,2.44,.17,.44,.34,.88,.51,1.33-1.76,3.26-4.05,6.38-5.13,9.81-1.33,4.21-1.65,8.68-2.19,11.82-4.37,2.08-8.44-4.85-10.89,2l.05-.05c-2.17,.05-4.33,.1-6.5,.16-.89-.02-1.79-.04-2.68-.06-1.46-1.83-2.91-3.66-4.37-5.49Z"/>
  <path class="cls-35" d="M266.52,6.86c-3.06,6.46-6.83,11.42-14.42,5.78-3.9,4.36-7.28,8.15-10.66,11.94-.46-4.97-.93-9.94-1.39-14.9,4.49-3.23,8.97-6.45,13.46-9.68,4.63,.92,9.43,1.42,13.8,2.96,1.96,.69,3.04,3.47,4.52,5.3-.77,.01-1.55,.03-2.33,.05,0,0-.09-.07-.09-.07-.96-.46-1.92-.92-2.88-1.38Z"/>
  <path class="cls-11" d="M254.44,35.71c2.44-6.85,6.52,.08,10.89-2,.54-3.14,.86-7.61,2.19-11.82,1.08-3.43,3.38-6.55,5.13-9.81,1.83,8.83,1.37,17.46-5.24,24.56-2.41,2.59-6.77,3.69-10.24,5.47-.42-.04-.79,.06-1.12,.31-2.69-2.2-5.37-4.39-8.06-6.59,2.17-.05,4.33-.1,6.5-.16,.19,.12,.38,.24,.57,.36-.21-.11-.41-.21-.62-.32Z"/>
  <path class="cls-32" d="M290.53,67.52c-4.64-4.51-9.43-8.43-16.37-3.2,.04-1.21,.09-2.42,.13-3.64,.51-.14,1.02-.28,1.53-.41,.88-1.18,1.77-2.37,2.65-3.56,.64-.36,1.3-.71,1.93-1.09,9.97-6.14,11.42-5.68,15.85,4.78-1.96,2.44-3.84,4.78-5.72,7.12Z"/>
  <path class="cls-17" d="M274.29,60.68c-.04,1.21-.09,2.43-.13,3.64-4.01,2.43-8.01,4.86-11.9,7.21,.31-4.39,1.47-8.36,.61-11.93-1-4.15-3.76-7.95-5.97-12.32,1.3-.2,2.48-.37,3.65-.55,4.58,4.65,9.16,9.3,13.74,13.95Z"/>
  <path class="cls-35" d="M285.54,82.3c-1.22,1.02-2.44,2.03-3.66,3.05-1.22-.76-2.43-1.51-3.64-2.27,.78-1.34,1.57-2.68,2.35-4.02,3.33-1.96,6.67-3.92,10-5.88-1.69,3.04-3.37,6.08-5.05,9.12Z"/>
  <path class="cls-17" d="M278.48,56.71c-.89,1.19-1.77,2.37-2.65,3.56,.89-1.19,1.77-2.37,2.65-3.56Z"/>
  <path class="cls-11" d="M269.49,8.31c.78-.02,1.56-.03,2.33-.05,.1,.83,.21,1.66,.32,2.49-.88-.81-1.77-1.63-2.65-2.44Z"/>
  <path class="cls-2" d="M244.11,203.92c.11-2.61,.22-5.21,.33-7.82,1.28-5.53,2.56-11.05,3.84-16.58,3.62-1.65,8.23-2.53,10.66-5.1,6.76-7.16,15.33-13.41,17.18-23.62,.11-.61,1.94-.97,2.96-1.44,0,1.28,0,2.56,0,3.84-.57,3.27-1.15,6.54-1.72,9.82-.1,1.37-.19,2.74-.29,4.11-.41,.51-.81,1.03-1.22,1.54,.2,7.79,.41,15.59,.61,23.38-.08,3.24-.15,6.47-.22,9.71-.13,5.06-.26,10.11-.39,15.17-.13,5.17-2.87,7.46-8.67,6.85-2.74-.29-5.55-.01-8.33,0-3.98,.53-7.95,1.07-11.93,1.6-.9-.06-1.8-.12-2.69-.18-.07-2.75-.13-5.49-.2-8.24,.02-3.08,.05-6.15,.07-9.23,0-1.27,.02-2.54,.03-3.8Z"/>
  <path class="cls-14" d="M279.08,149.35c-1.03,.48-2.85,.83-2.97,1.44-1.85,10.21-10.42,16.47-17.18,23.62-2.43,2.58-7.04,3.45-10.66,5.1,2.64-10.71,6.95-21.47-1.35-31.79-.42-1.35-.84-2.71-1.26-4.06,3.35-1.64,6.7-3.29,10.05-4.93-.29-.43-.57-.86-.86-1.29-2.68,.21-5.37,.42-8.05,.63-.66-.87-1.32-1.75-1.97-2.62,1.87-.41,3.79-.67,5.59-1.25,2.91-.94,5.74-2.08,8.6-3.14,8.16-1.59,16.32-2.3,24.47,.04-.96,5.21-1.92,10.42-2.88,15.62-.33-.68-.66-1.36-1.72-3.52v6s.17,.15,.17,.15Zm-16.9,12.42c1.06,.43,2.13,.87,3.19,1.3,4.65-9.75,9.29-19.49,13.94-29.24l-2.87-1.15c-8.64,8.08-9.37,19.45-14.26,29.09Zm-2.57-25.74c-.38-.03-.76-.06-1.13-.09,.18,.13,.34,.35,.53,.37,.19,.01,.4-.17,.6-.28Z"/>
  <path class="cls-34" d="M386.85,43.98c.23-1.76,.47-3.52,.7-5.28,6.7-1.49,4.59-5.55,2.98-9.13-2.61-5.78-4.05-11.25,1.07-16.67,4.99-5.28,11.66-5.11,18-4.31,3.25,.41,8.65,.87,7.89,6.38,0,0,.02,.14,.02,.14-1.59-.45-3.17-.89-5.48-1.54,.92,10.95-8.77,7.05-12.62,8.31-3.08,5.55-5.43,9.8-8.15,14.71,3.83,1.54,7.87,3.17,11.9,4.79,.51,1,1.02,2,1.52,2.99-5.94-.13-11.88-.26-17.81-.39Z"/>
  <path class="cls-10" d="M404.66,44.37c-.51-1-1.02-2-1.52-2.99,.49-1.34,.99-2.69,1.52-4.14,3.69,.97,7.31,1.92,12.38,3.26,0-5.14,1.33-9.6-.33-12.78-2.2-4.21-1.03-6.81,1.58-9.79l.09-.07c.85,.67,1.71,1.34,2.56,2.02,.08,4.51,.55,9.04,.14,13.51-.5,5.42-2.37,10.18-10.06,10.06-.78-.01-1.59,1.63-2.38,2.51-1.33-.53-2.66-1.06-4-1.58Z"/>
  <path class="cls-10" d="M417.5,15.1s-.02-.14-.02-.14c.3,.96,.61,1.93,.91,2.89,0,0-.09,.07-.09,.07-.27-.94-.53-1.88-.8-2.82Z"/>
  <path class="cls-1" d="M411.59,208.15c-.38-3.45-.76-6.9-1.15-10.36,.04-2.31,.08-4.62,.12-6.93,.08-1.82,.34-3.64,.19-5.44-.5-6.24-2.64-12.2,2.55-18.39,1.88-2.24-1.49-8.13-2.47-12.36-1.08-4.53-2.15-9.05-3.23-13.58,2.3-.48,4.63-1.43,6.91-1.35,5.85,.19,11.68,.84,17.51,1.31,.02,8.58,.04,17.16-9.48,21.98,.64,1.94,1.25,3.79,1.87,5.63-.83,1.11-1.66,2.22-3.31,4.45,4.52-.38,9.33-4.35,9.54,4.09,3.92-4.31,6.45-7.09,8.97-9.86,.41,3.18,.82,6.36,1.24,9.54-4.92,3.64-9.84,7.27-14.76,10.91,.59,.8,1.18,1.61,1.77,2.41,2.75-.45,5.5-.91,7.94-1.31-1.27,5.34-2.46,10.33-3.58,15.04-2.67,.68-5.27,1.35-7.87,2.01-4.25,.73-8.51,1.46-12.76,2.2Z"/>
  <path class="cls-19" d="M432.02,141.05c-5.84-.47-11.67-1.12-17.51-1.31-2.28-.08-4.6,.87-6.91,1.35-1.48-4.64-2.97-9.27-4.45-13.91,4.53-.48,9.05-.95,13.58-1.43,.02,.48,.05,.97,.07,1.45-.71,.6-1.42,1.2-2.13,1.8,.32,.2,.64,.4,.96,.61,.39-.8,.78-1.6,1.17-2.4,4.39-1.12,8.78-2.23,14.4-3.66-3.22-1.62-5.04-2.53-6.86-3.44,1.04-1.78,2.09-3.56,3.13-5.34,3.83-2.16,7.66-4.33,11.49-6.49-.69-.91-1.38-1.82-2.07-2.72,.71,1.9,1.41,3.79,2.27,6.11,2.32-1.82,4.38-3.43,6.44-5.04,.4,.3,.8,.61,1.2,.91-1.25,1.95-2.5,3.91-4.08,6.38,1.77,.32,3.11,.56,4.45,.8,.04,1,.08,2,.11,3-1.07,4.82-2.06,9.66-3.25,14.46-.85,3.43-1.95,6.8-2.94,10.2-1.8-7.41-5.91-1.7-9.08-1.32Z"/>
  <path class="cls-1" d="M416.73,125.76c-4.53,.48-9.06,.95-13.58,1.43-2.03-1.87-4.07-3.74-6.1-5.61-.57-3.16-1.15-6.33-1.72-9.49,2.09-1.88,4.17-3.76,6.26-5.64,4.5,2.42,8.76,5.41,13.57,7.07,3.75,1.29,8.19,.9,12.32,1.26-1.04,1.78-2.09,3.56-3.13,5.34-2.54,1.88-5.08,3.76-7.61,5.65Z"/>
  <path class="cls-27" d="M67.86,188.54c-.84,6.85-1.68,13.71-2.52,20.56,1.06,.25,2.12,.5,3.18,.75,1.87-3.82,3.73-7.63,5.6-11.45,1.91,2.13,3.82,4.26,5.72,6.4-1.15,2.87-2.73,5.66-3.31,8.62-.52,2.62,.08,5.41,.18,8.13-2.12,.38-4.23,.77-8.25,1.51-1.56-5.96-3.1-11.87-4.65-17.78,.35-4.6,.69-9.21,1.03-13.81,1-.98,2.01-1.95,3.01-2.93Z"/>
  <path class="cls-43" d="M247.99,35.82c2.69,2.2,5.37,4.39,8.06,6.59-2.79,2.99-5.57,5.98-7.76,8.33,2.31,8.79,4.61,17.51,6.86,26.09-10.11,3.32-19.42-.91-24.66-10.49-1.96-3.58-3.16-7.5-4.71-11.27,.11-7.89,2.8-14.49,11.02-18.35,.78-.41,1.56-.82,2.34-1.24,2.06,.09,4.11,.17,6.17,.26,.89,.02,1.79,.04,2.68,.06Z"/>
  <path class="cls-2" d="M240.68,128.44c-1.86-4.65-3.71-9.29-5.56-13.94,.41-3.43,.82-6.85,1.23-10.28,.81-.47,1.63-.94,2.45-1.41,3.64,2.52,7.22,5.13,10.96,7.52,2.47,1.58,5.18,2.84,7.78,4.24-4.5,4.84-12.65,6.35-14.77,13.41-.09,.3-1.36,.31-2.08,.46Z"/>
  <path class="cls-35" d="M238.8,102.81c-.82,.47-1.63,.94-2.45,1.41-.47-2.04-.95-4.09-1.42-6.13,4.93-2.31,9.86-4.63,14.79-6.94,0,0,.07,.04,.07,.04-1.88,1.65-3.92,3.18-5.61,4.98-1.95,2.09-3.6,4.42-5.38,6.64Z"/>
  <path class="cls-39" d="M245.31,35.75c-2.06-.09-4.11-.17-6.17-.26-.15-.85-.3-1.7-.44-2.55,.75-.9,1.5-1.79,2.25-2.68,1.46,1.83,2.91,3.66,4.37,5.49Z"/>
  <path class="cls-29" d="M238.7,32.94c.15,.85,.3,1.7,.44,2.55-.78,.41-1.57,.83-2.34,1.24,.64-1.26,1.27-2.53,1.9-3.79Z"/>
  <path class="cls-15" d="M125.88,205.31c3.08,.66,6.16,1.31,9.24,1.97-.06,.62-.12,1.24-.19,1.87-3.54,1.59-7.08,3.18-10.62,4.77,.29,.64,.57,1.28,.86,1.92,3.77-.75,7.54-1.5,11.32-2.25-.56,2.67-1.12,5.35-1.68,8.03-.55,.96-1.11,1.91-1.66,2.87-.13,3.37-.25,6.73-.37,10.1-3.85,.52-7.7,1.04-11.55,1.55-6.39-.53-12.78-1.05-19.17-1.57-.1-1.36-.19-2.73-.29-4.09,1.01-3.27,2.02-6.54,3.03-9.81,7.02-5.12,14.05-10.23,21.08-15.35Z"/>
  <path class="cls-27" d="M121.23,236.14c3.85-.52,7.7-1.04,11.55-1.56,2.53,.95,5.07,1.9,7.62,2.85,.7,1.32,1.4,2.65,2.1,3.97-.26,.26-.49,.53-.69,.83-3.2,.1-6.4,.21-9.6,.32-1.06-.45-2.12-.91-3.18-1.36-2.6-1.68-5.2-3.37-7.8-5.05Z"/>
  <path class="cls-7" d="M411.59,208.15c4.25-.73,8.51-1.46,12.76-2.19,.07,.45,.2,.88,.39,1.3,.85,5.61,1.69,11.22,2.54,16.83,0,2.38,0,4.76,0,7.12,2.57,0,5.19,0,7.81,0-7.62,2.51-14.9,6.78-23.56,3.65,.25-1.97,.5-3.95,.74-5.93-.09,3.36,.81,5.09,5.27,3.84,6.51-1.82,7.29-3.85,3.92-12.89l-.02-.05c-.64-1.34-1.29-2.67-1.93-4.01-.94-1.74-1.88-3.48-2.81-5.21-1.01,1.95-2.01,3.9-3.02,5.85-.7-2.77-1.39-5.53-2.09-8.3Z"/>
  <path class="cls-8" d="M246.9,225.37c3.98-.53,7.95-1.07,11.93-1.6-.58,4.8,2.98,6.26,7.11,7.27,1.29,.36,2.58,.71,3.88,1.07,.85,.14,1.7,.29,2.56,.43,1.61,1.32,3.22,2.63,4.83,3.95-1.41,.37-2.82,.74-4.21,1.12-4.69-.51-9.4-1.03-14.1-1.54,.15-7.41-6.05-8.92-11.98-10.69Z"/>
  <path class="cls-39" d="M258.88,236.06c4.71,.51,9.41,1.03,14.1,1.54-10.53,.87-21.05,1.75-31.57,2.62,.24-.72,.48-1.45,.72-2.17,5.58-.67,11.17-1.33,16.75-1.99Z"/>
  <path class="cls-26" d="M258.88,236.06c-5.58,.66-11.17,1.33-16.75,1.99,.26-3.27,.52-6.55,.78-9.83,.43-1.01,.87-2.03,1.3-3.04,.9,.06,1.8,.12,2.69,.18,5.93,1.77,12.14,3.29,11.98,10.69Z"/>
  <path class="cls-40" d="M244.11,203.92c0,1.27-.02,2.53-.03,3.8,0-1.27,.02-2.54,.03-3.8Z"/>
  <path class="cls-26" d="M350.33,142.51c-1.01,.46-2.03,.92-3.04,1.38-9.82,1.01-9.22-5.58-9.9-11.23,.83-.48,1.66-.96,2.48-1.43,1.46-.54,2.92-1.08,4.39-1.62-4.84,7.55-4.43,10.31,2.27,10.62,6.52,.3,13.11-.87,20.53-1.46-2.04-2.21-3.27-3.55-4.51-4.89,4.48-.76,8.96-1.53,13.43-2.29-.54,1.65-1.08,3.31-1.61,4.96-.93,1.42-1.87,2.83-2.8,4.25-.49,.45-.98,.89-1.47,1.34-6.59,.12-13.18,.25-19.77,.37Z"/>
  <path class="cls-32" d="M362.55,133.88c1.24,1.34,2.47,2.68,4.51,4.89-7.42,.59-14.02,1.76-20.53,1.46-6.7-.31-7.11-3.07-2.27-10.62,1.72-1.83,3.45-3.65,5.16-5.47,4.37,3.25,8.75,6.5,13.13,9.74Zm-14.36-.36c-.42-.16-.94-.54-1.24-.43-.3,.11-.39,.71-.57,1.09,.42,.17,.94,.55,1.24,.44,.3-.11,.39-.71,.58-1.09Z"/>
  <path class="cls-1" d="M379,92.56c-4.08-13.03-6.4-26.01,1.19-38.73,1.46,2.6,.2,6.09,4.44,7.96,2.27,1,3.65,4.35,4.67,6.89,2.29,5.71,3.79,11.69,6.22,17.33,2,4.64,5.46,4.85,9.1,1.09,.51-.47,1.02-.93,1.53-1.4,0,0-.01,.01-.01,.01,.51-.46,1.02-.93,1.53-1.39,0,0,0,0,0,0,0-.47,0-.95,0-1.42,0-.9,0-1.81,.01-2.71,5.13-.38,4.51-3.88,4.58-7,.54,.94,1.07,1.88,1.61,2.81,2.16,6.95-2.99,10.58-7.76,14.54-1.81,1.5-2.91,3.71-4.33,5.59-3.46,2.6-6.92,5.2-10.37,7.8-6.7-1.48-10.7-5.39-12.4-11.37Z"/>
  <path class="cls-34" d="M391.4,103.93c3.46-2.6,6.92-5.2,10.37-7.8,3.89-.66,7.79-1.31,11.68-1.97-.95,1.76-1.9,3.52-2.85,5.28-3.01,2.33-6.01,4.67-9.02,7-2.09,1.88-4.17,3.76-6.26,5.64-1.31-2.72-2.62-5.43-3.92-8.15Z"/>
  <path class="cls-4" d="M404.62,87.09c-3.63,3.76-7.09,3.55-9.1-1.09-2.44-5.65-3.93-11.63-6.22-17.33-1.02-2.54-2.4-5.89-4.67-6.89-4.24-1.86-2.98-5.35-4.44-7.96-2.62-5.99,3.41-7.14,6.66-9.84,5.94,.13,11.88,.26,17.81,.39,1.33,.53,2.67,1.05,4,1.58,1.67,1.75,3.34,3.5,5.01,5.25,.05,5.54,.09,11.08,.13,16.62-1.1-.88-2.21-1.76-4.11-3.27-.26,2.76-.41,4.3-.55,5.84-4.8,.62-8.47,4.99-6.39,7.87,1.84-.59,3.72-1.2,6.59-2.13-.83,2.01-1.25,3.02-1.67,4.04,0,.9,0,1.81-.01,2.71,0,.47,0,.95,0,1.42,0,0,0,0,0,0-.51,.46-1.02,.93-1.53,1.39,0,0,.01-.01,.01-.01-.51,.47-1.02,.93-1.53,1.4Zm3.43-27.36c-.67,.56-1.39,.89-1.49,1.33-.12,.52,.3,1.14,.48,1.71,.63-.37,1.47-.63,1.82-1.16,.2-.3-.42-1.04-.81-1.88Z"/>
  <path class="cls-18" d="M125.88,205.31c-7.03,5.12-14.05,10.23-21.08,15.35,.47-1.39,.94-2.79,1.41-4.18,5.31-6.62,10.62-13.24,15.94-19.86-.3-.27-.59-.55-.89-.82-5.04,2.72-10.08,5.44-15.12,8.17-2.03,.9-4.06,1.8-6.1,2.7,1.51-1.99,2.72-4.26,4.59-5.91,2.24-1.98,5.04-3.44,7.59-5.12,2.1-1.08,4.19-2.17,6.29-3.25-3.44-4.84,3.46-3.99,4.31-6.48,3.09-.87,6.18-1.73,10.68-2.99-6.17-1.47-10.93-2.61-15.68-3.75l.31-.68c7.64-.35,15.27-.69,22.91-1.04-.54,2.16-.6,4.57-1.72,6.46-4.29,7.23-8.93,14.3-13.44,21.42Z"/>
  <path class="cls-15" d="M112.23,195.63c-2.56,1.68-5.35,3.14-7.59,5.12-1.87,1.65-3.09,3.92-4.59,5.91,0,0-.08,.06-.08,.06-1.54,1.31-3.07,2.62-4.61,3.93-4.26,3.98-7.87,2.66-11.2-1.13-1.4-1.6-2.87-3.15-4.32-4.72-1.91-2.14-3.82-4.27-5.73-6.4-.57-1.83-1.15-3.65-1.73-5.48,2.1-.49,4.21-.97,6.31-1.46,1.18,.92,2.3,2.56,3.54,2.64,9.98,.67,19.99,1.05,29.99,1.52Z"/>
  <path class="cls-44" d="M106.14,203.97c5.04-2.72,10.08-5.44,15.12-8.17,.3,.27,.59,.55,.89,.82-5.31,6.62-10.63,13.24-15.94,19.86-.02-4.17-.05-8.34-.07-12.51Z"/>
  <path class="cls-18" d="M95.36,210.66c1.54-1.31,3.07-2.62,4.61-3.93-1.54,1.31-3.07,2.62-4.61,3.93Z"/>
  <path class="cls-23" d="M240.68,128.44c.72-.15,1.99-.16,2.08-.46,2.12-7.06,10.28-8.57,14.77-13.41,1.73-.94,3.69-1.65,5.15-2.86,3.86-3.21,3.58-13.49-.34-15.23-4.14-1.85-8.37-3.53-12.57-5.29,0,0-.07-.04-.07-.04-1.18-1.49-2.35-2.99-4.62-5.87,5.13,1.3,8.95,2.28,12.77,3.24,1.67,1.1,3.21,2.81,5.06,3.17,3.16,.61,6.52,.36,9.8,.47-5.95,6.09-4.92,13.18-3.94,22.07,3.62-2.64,6.06-4.41,8.49-6.18,.47,.22,.95,.44,1.42,.66-1.49,2.96-2.99,5.93-4.48,8.89-6.44,3.51-12.89,7.02-19.71,10.74,1.8,1.09,3.17,1.92,4.54,2.75-2.86,1.06-5.69,2.21-8.6,3.14-1.8,.58-3.72,.84-5.59,1.25-1.39-2.34-2.78-4.68-4.16-7.02Z"/>
  <path class="cls-20" d="M246.82,138.08c2.68-.21,5.37-.42,8.05-.63,.29,.43,.57,.86,.86,1.29-3.35,1.64-6.7,3.29-10.05,4.93,.38-1.86,.76-3.73,1.14-5.59Z"/>
  <path class="cls-13" d="M447.29,117.71c-.04-1-.07-2-.11-3,0,0,.03,.02,.03,.02,.51-.46,1.01-.92,1.52-1.38,0,0-.01,0-.01,0,1.01-1.85,2.02-3.71,3.03-5.56,3.11-5.12,6.21-10.25,9.32-15.37,.55,.12,1.09,.25,1.64,.37-1.29,3.85-2.58,7.7-3.87,11.55,.39,.37,.79,.75,1.18,1.12,5.92-5.02,11.98-9.9,17.71-15.09,6.63-5.99,13.69-10.64,22.88-13.64,8.26-2.69,15.21-8.7,22.74-13.24,.49,.05,.98,.1,1.48,.16-1.11,3.17-2.21,6.33-3.32,9.5-3,2.28-6,4.56-9.01,6.84-11.26-.33-20.73,3.42-28.65,10.54-5.11,4.6-10.18,9.25-15.09,14.02-.64,.62-.18,2.17-.23,3.29-.05,.39-.09,.77-.13,1.16-4.69,2.31-9.38,4.62-14.06,6.93-2.35,.6-4.7,1.19-7.06,1.79Z"/>
  <path class="cls-31" d="M413.67,216.45c1.01-1.95,2.01-3.9,3.02-5.85,.94,1.74,1.88,3.48,2.82,5.21,.65,1.34,1.29,2.67,1.93,4.01,0,0,.02,.05,.02,.05-.93,2.61-1.86,5.22-2.96,8.29-2.49-1.88-3.95-2.99-5.42-4.1,.2-2.54,.39-5.08,.59-7.62Z"/>
  <path class="cls-25" d="M413.09,224.07c1.46,1.11,2.93,2.22,5.42,4.1,1.1-3.07,2.03-5.68,2.96-8.29,3.37,9.05,2.58,11.07-3.92,12.89-4.46,1.25-5.36-.48-5.27-3.84,.27-1.61,.55-3.24,.82-4.86Z"/>
  <path class="cls-9" d="M102.88,239.92c.02-.97,.05-1.94,.07-2.92-.3-.81-.6-1.62-.9-2.43,6.39,.52,12.78,1.05,19.17,1.57,2.6,1.69,5.2,3.37,7.8,5.05-7.16,.03-14.32,.07-21.48,.1-1.41-.03-2.83-.07-4.24-.1-.11-.44-.25-.86-.43-1.28Z"/>
  <path class="cls-45" d="M102.88,239.92c.18,.42,.32,.84,.43,1.28-.6-.42-1.2-.84-1.8-1.25,.46-.03,.91-.04,1.37-.03Z"/>
  <path class="cls-44" d="M153.31,90.44c-.56-2.7-1.13-5.41-1.69-8.12,6.33-1.58,10.62-4.55,9.41-11.31,1.39,2.31,2.78,4.63,4.16,6.94-1.46,6.38,1.75,10.7,7.34,13.89,.66-.91,1.31-1.82,1.97-2.72,2.74,5.69,.93,9.31-5.96,10.29-5.69,.81-11.44,1.33-17.15,1.98,.09-1.34,.17-2.68,.25-4.02l-.02-.04c4.33-1.54,4.53-3.9,1.68-6.89Z"/>
  <path class="cls-24" d="M144.71,112.14c-8.48-1.83-17-3.55-25.42-5.57-2.61-.62-4.98-2.06-7.46-3.13,1.14-2.04,2.29-4.08,3.43-6.11,1.43,.05,2.85,.11,4.28,.16,4.11,.49,8.23,.98,12.34,1.47,3.6,.78,7.22,4.12,10.79-.07l.06-.07c.58-.52,1.15-1.03,1.73-1.55,.35,.02,.69,.06,1.03,.12,2.05-.02,4.1-.04,6.15-.06,0,0,.02,.04,.02,.04-.51,1.37-1.03,2.73-1.54,4.1-1.8,3.56-3.6,7.12-5.4,10.68Z"/>
  <path class="cls-9" d="M174.51,89.12c-.65,.91-1.31,1.82-1.97,2.72-5.59-3.19-8.8-7.51-7.34-13.89,2.05-3.8,.4-10.53,8.43-9.63,2.77,.31,6.32,1.6,7.74,3.53,2.34,3.16,3.7,7.47-2.16,9.41-4.36,1.45-5.79,3.92-4.71,7.85Z"/>
  <path class="cls-18" d="M127.47,130.47c-1.07-2.71-2.15-5.43-3.22-8.14,2.1-1.54,4.2-3.09,6.29-4.63,3.06,4.64,6.11,9.29,9.17,13.93,1.96,4.74,3.91,9.47,5.87,14.21-3,.45-6.01,.9-9.02,1.35-.06-1.37-.12-2.73-.19-4.1,.48-4.98-1.85-7.43-7.51-6.88-.4-.98-.91-1.94-1.17-2.96-.23-.89-.16-1.85-.23-2.78Z"/>
  <path class="cls-27" d="M161.03,71.01c1.21,6.76-3.08,9.73-9.41,11.31-2.41-2.74-4.82-5.48-7.23-8.22,1.32-1.81,2.64-3.62,3.95-5.44,1.66-1.4,3.31-2.81,4.96-4.21,2.57,2.19,5.15,4.37,7.72,6.56Z"/>
  <path class="cls-15" d="M136.56,147.18c3.01-.45,6.01-.9,9.02-1.35-.55,5.54-1.11,11.09-1.66,16.63-1.96,.44-3.92,.88-5.89,1.32-1.23-3.63-2.86-7.21-3.5-10.93-.3-1.75,1.3-3.77,2.03-5.67Z"/>
  <path class="cls-21" d="M153.31,64.46c-1.65,1.4-3.31,2.81-4.96,4.21-1.56-6-3.12-12-4.68-17.99,3.22,4.6,6.43,9.19,9.64,13.78Z"/>
  <path class="cls-12" d="M141.75,47.92c-.7,.42-1.39,.84-2.09,1.26,.98-1.45,1.96-2.91,2.94-4.36,.25,.19,.49,.38,.73,.58-.53,.84-1.06,1.68-1.59,2.52Z"/>
  <path class="cls-18" d="M150.11,101.47c.51-1.37,1.03-2.73,1.54-4.1-.08,1.34-.17,2.68-.25,4.02-.43,.06-.86,.09-1.29,.08Z"/>
  <path class="cls-21" d="M112.23,195.63c-10-.47-20.01-.85-29.99-1.52-1.24-.08-2.36-1.72-3.54-2.64,9.14-.91,18.33-1.56,27.4-2.87,2.88-.41,5.32-3.19,8.22-3.71,2.66-.48,5.66,.61,8.51,1.01-.84,2.49-7.75,1.64-4.31,6.48-2.1,1.08-4.19,2.17-6.29,3.25Z"/>
  <path class="cls-15" d="M128.86,136.2c5.66-.55,7.99,1.9,7.51,6.88-1.42-1.1-2.85-2.2-4.61-3.56-1,1.52-2.12,3.2-3.24,4.89-.71-.19-1.43-.38-2.14-.56,.83-2.55,1.65-5.1,2.48-7.65Z"/>
  <path class="cls-15" d="M132.32,48.22c3.2,5.68,6.41,11.36,9.61,17.04-2.31,3.79-4.62,7.58-6.94,11.37h-.01c-3.56,0-7.13,0-10.69-.01,0-.9-.01-1.81-.02-2.71-1.49-1.4-2.99-2.8-4.48-4.2-.76-4.79-1.53-9.58-2.29-14.37,.4-.35,.81-.71,1.21-1.06,2.06,2.89,4.12,5.79,6.19,8.68,.88-.48,1.77-.96,2.65-1.45-.76-3.25-1.53-6.5-2.32-9.86,2.2-1.07,4.65-2.25,7.09-3.44Z"/>
  <path class="cls-3" d="M119.79,69.71c1.49,1.4,2.99,2.8,4.48,4.2-2.16,.22-4.33,.45-6.91,.72,.92-1.85,1.67-3.38,2.43-4.91Z"/>
  <path class="cls-44" d="M131.88,98.96c-4.11-.49-8.23-.98-12.34-1.47,2.18-.61,4.36-1.22,6.54-1.83,.87-.02,1.74-.04,2.61-.06,4.66,.09,9.32,.17,13.97,.26,0,0,.12,.05,.12,.05-.02,.97-.04,1.94-.05,2.91,0,0-.06,.07-.06,.07-3.6,.02-7.19,.05-10.79,.07Z"/>
  <path class="cls-18" d="M126.08,95.66c-2.18,.61-4.36,1.22-6.54,1.83-1.43-.05-2.86-.11-4.28-.16-1.55-.9-3.1-1.79-4.66-2.69,0-.47,.02-.95,.03-1.42,5.15,.81,10.3,1.63,15.45,2.44Z"/>
  <path class="cls-18" d="M151.63,97.33c-2.05,.02-4.1,.04-6.15,.06,2.61-2.32,5.22-4.63,7.83-6.95,2.86,2.98,2.65,5.35-1.68,6.89Z"/>
  <path class="cls-15" d="M110.64,93.22c0,.47-.02,.95-.03,1.42-2.22-1.52-4.44-3.03-6.66-4.55,.75-.72,1.5-1.44,2.25-2.16,1.48,1.76,2.96,3.53,4.44,5.29Z"/>
  <path class="cls-18" d="M142.66,95.86c-4.66-.09-9.32-.17-13.97-.26,4.66,.09,9.32,.17,13.97,.26Z"/>
  <path class="cls-15" d="M134.99,76.63c.94,1.14,1.88,2.28,2.82,3.42-.73,.38-1.45,.75-2.18,1.13-.22-1.51-.43-3.03-.65-4.54,0,0,.01-.01,.01-.01Z"/>
  <path class="cls-15" d="M125.31,85.97c-.19,.39-.28,.98-.59,1.09-.3,.11-.82-.27-1.25-.43,.18-.38,.28-.99,.58-1.09,.31-.11,.83,.27,1.25,.43Z"/>
  <path class="cls-15" d="M128.49,82.7c.42,.17,1.08,.25,1.2,.53,.12,.27-.21,.96-.51,1.06-.31,.11-1.06-.19-1.18-.47-.12-.28,.3-.75,.49-1.13Z"/>
  <path class="cls-15" d="M118.24,87.69c.78,.56,1.56,1.11,2.34,1.67l-.5,.45c-.62-.71-1.23-1.41-1.85-2.12,0,0,0,0,0,0Z"/>
  <path class="cls-18" d="M142.73,98.82c.02-.97,.03-1.94,.05-2.91,.56,.45,1.11,.91,1.67,1.36-.57,.51-1.15,1.03-1.72,1.55Z"/>
  <path class="cls-24" d="M107.5,100.36c-.83-.39-1.66-.79-2.49-1.18,.83,.39,1.66,.79,2.49,1.18Z"/>
  <path class="cls-24" d="M109.01,101.8c-.55-.5-1.09-1-1.64-1.51,.55,.5,1.09,1,1.64,1.51Z"/>
  <path class="cls-15" d="M130.54,117.7c-2.1,1.54-4.19,3.09-6.29,4.63-3.31-2.09-6.61-4.18-10.54-6.67,2.08-1.37,3.3-2.18,4.51-2.98,4.11,1.67,8.21,3.35,12.32,5.02Z"/>
  <path class="cls-27" d="M133.27,30.87c1.3-.69,2.6-1.38,3.91-2.07,.5,.55,1,1.1,1.5,1.65,1.02-2.68,2.03-5.37,2.84-7.49,2.6-1.02,4.9-1.93,7.21-2.84,1.51,.83,3.92,1.39,4.33,2.53,.77,2.16,.37,4.65,.46,7.01-3.66,1.42-7.32,2.84-10.97,4.26-.99-.03-1.98-.07-2.97-.1l-3.06-.1c-1.08-.96-2.16-1.91-3.24-2.87Z"/>
  <path class="cls-30" d="M142.54,33.94c3.66-1.42,7.31-2.84,10.97-4.26-.46,3.53-.92,7.07-1.38,10.63-2.84-.98-5.36-1.84-7.88-2.7-.57-1.22-1.15-2.44-1.72-3.66Z"/>
  <path class="cls-9" d="M142.54,33.94c.57,1.22,1.14,2.44,1.72,3.66-.55,2.4-1.1,4.81-1.65,7.22-.98,1.45-1.96,2.91-2.94,4.36-1.6-1.87-3.2-3.74-4.8-5.61,7.97-.68,4.2-5.01,3.19-8.48,.08-.42,.15-.84,.21-1.26l.66,.02h.66c.99,.03,1.98,.06,2.97,.09Z"/>
  <path class="cls-30" d="M138.05,35.09c1.01,3.47,4.78,7.8-3.19,8.48-2.51-3.7-5.02-7.4-7.53-11.1,1.98-.53,3.96-1.06,5.94-1.59,1.08,.95,2.16,1.91,3.23,2.87,0,0,.02,.02,.02,.02,.51,.44,1.01,.89,1.52,1.33Z"/>
  <path class="cls-19" d="M410.6,99.44l2.85-5.28c.61-.51,1.21-1.02,1.82-1.52,1.02-.47,2.04-.93,3.07-1.4l-.03,.02c6.43-2.13,14.36-1.51,18.25-8.28,2.02-.72,3.98-1.68,6.07-2.11,1.98-.4,4.1-.25,6.15-.34-3.5,3.29-6.75,6.84-10.57,9.78-2.76,2.12-6.17,3.64-9.49,5.05-3.37,1.43-6.92,2.6-10.51,3.47-2.42,.58-5.06,.44-7.6,.62Z"/>
  <path class="cls-19" d="M451.74,107.78c-1.01,1.85-2.02,3.71-3.03,5.56,1.01-1.85,2.02-3.71,3.03-5.56Z"/>
  <path class="cls-19" d="M448.72,113.34c-.51,.46-1.01,.92-1.52,1.38,.51-.46,1.01-.92,1.52-1.38Z"/>
  <path class="cls-19" d="M438.09,194.99c-.11,2.29-.23,4.58-.34,6.87-.76,1.89-1.51,3.79-2.15,5.39-3.93,0-7.39,0-10.85,0-.19-.42-.32-.85-.39-1.3,2.6-.67,5.19-1.33,7.87-2.01,1.12-4.71,2.31-9.7,3.58-15.04-2.44,.4-5.19,.86-7.94,1.31-.59-.8-1.18-1.61-1.77-2.41,4.92-3.64,9.84-7.27,14.76-10.91-.92,6.04-1.84,12.07-2.76,18.1Z"/>
  <path class="cls-14" d="M280.59,79.06c-.78,1.34-1.57,2.68-2.35,4.02-4.9,1.68-9.79,3.35-14.68,5.02,4.98-5.28,9.96-10.55,16.05-17.01,.42,3.4,.71,5.68,.99,7.96Z"/>
  <path class="cls-42" d="M263.56,88.1c4.89-1.67,9.79-3.35,14.68-5.02,1.22,.76,2.43,1.51,3.65,2.27-3.05,2.27-6.11,4.54-9.16,6.8-3.28-.11-6.64,.13-9.8-.47-1.85-.35-3.38-2.07-5.06-3.17,1.9-.13,3.79-.27,5.69-.41Z"/>
  <path class="cls-14" d="M321.38,99.33c-1.52,1.68-3.03,3.37-4.61,5.12,2.9,1.92,5.21,3.45,8.12,5.39-2.16,1.5-3.64,2.52-5.12,3.55-2.2-2.54-4.4-5.09-6.43-7.43-4.71,2.83-9.62,5.77-14.53,8.72,.3-1.16,.37-2.43,.96-3.45,1.02-1.75,2.36-3.35,3.4-4.77-4.77-.62-8.48-1.11-12.2-1.59,2.03-1.85,4.06-3.69,6.09-5.54l.02,.02c2.2,5.61,4.42,.81,5.47-.37,3.29-3.67,6.05-7.75,9.01-11.67,.7,.15,1.4,.31,2.1,.46-.7,3.43-1.4,6.87-2.35,11.5,2.48-.58,4.54-1.33,6.65-1.45,1.1-.06,2.28,.97,3.42,1.51Z"/>
  <path class="cls-17" d="M259.04,131.07c-1.37-.83-2.74-1.66-4.54-2.75,6.83-3.72,13.27-7.23,19.72-10.74,1.5-.18,3.01-.37,4.51-.55,2.03-.11,4.2,.16,6.04-.44,2.3-.75,4.33-2.21,6.48-3.36,.28,.34,.56,.69,.84,1.03-.86,1.52-1.72,3.04-2.58,4.56-2,4.09-4,8.19-6,12.28-8.15-2.34-16.31-1.62-24.47-.04Z"/>
  <path class="cls-23" d="M289.51,118.82c.86-1.52,1.72-3.04,2.58-4.56-.28-.34-.56-.69-.84-1.03-2.15,1.15-4.17,2.61-6.48,3.36-1.84,.6-4.01,.33-6.04,.44,4.08-4.06,8.17-8.12,12.25-12.18,3.72,.48,7.43,.97,12.2,1.59-1.04,1.43-2.38,3.02-3.4,4.77-.59,1.02-.66,2.29-.96,3.45-3.1,1.38-6.2,2.77-9.3,4.16Z"/>
  <path class="cls-14" d="M297.06,99.32c.19-.6,.38-1.2,.57-1.8,.19,.11,.39,.23,.58,.34-.38,.49-.75,.98-1.13,1.47,0,0-.02-.02-.02-.02Z"/>
  <path class="cls-14" d="M330.79,128.18c-2.7-4.05-5.39-8.09-8.09-12.13,3.28,1.8,7.07,3.14,9.72,5.53,3.02,2.73,5.01,6.39,7.45,9.65-.83,.48-1.65,.96-2.49,1.43-2.2-1.49-4.39-2.99-6.59-4.48Z"/>
  <path class="cls-11" d="M266.52,6.86c.96,.46,1.92,.92,2.88,1.38-.96-.46-1.92-.92-2.88-1.38Z"/>
  <path class="cls-29" d="M254.44,35.71c.21,.11,.41,.21,.62,.32-.19-.12-.38-.24-.57-.36,0,0-.05,.04-.05,.04Z"/>
  <path class="cls-14" d="M279.07,153.18c-.57,3.27-1.15,6.54-1.72,9.81,.57-3.27,1.15-6.54,1.72-9.81Z"/>
  <path class="cls-14" d="M277.06,167.11c-.41,.51-.82,1.02-1.22,1.54,.41-.51,.81-1.03,1.22-1.54Z"/>
  <path class="cls-5" d="M262.18,161.77c4.89-9.64,5.62-21.01,14.26-29.09l2.87,1.15c-4.65,9.75-9.29,19.49-13.94,29.24-1.06-.43-2.13-.87-3.19-1.3Z"/>
  <path class="cls-2" d="M280.64,146.73c-.57,.82-1.15,1.65-1.72,2.47,0-1.45,0-2.9,0-6,1.06,2.16,1.39,2.84,1.72,3.52Z"/>
  <path class="cls-20" d="M259.61,136.03c-.2,.1-.41,.29-.6,.28-.19-.01-.35-.24-.53-.37,.38,.03,.76,.06,1.13,.09Z"/>
  <path class="cls-7" d="M418.62,55.69c9.71-2.74,12.23-1.63,15.93,7.02,.27,.64,.23,1.61,.72,1.91,7.95,4.94,3.09,9.29-.67,13.7-4.38-1.68-8.77-3.36-13.16-5.04,2.28-6.29,3.6-12.45-2.82-17.59Z"/>
  <path class="cls-19" d="M418.62,55.69c6.41,5.14,5.09,11.3,2.81,17.59-.02,1.84-.03,3.67-.05,5.51-2.51-.93-5.02-1.86-7.53-2.79-.54-.94-1.07-1.88-1.61-2.81,.01-.88,.03-1.75,.04-2.63,.51-.91,1.01-1.82,1.52-2.73-.04-5.54-.09-11.08-.13-16.62,1.65,1.5,3.29,2.99,4.94,4.48Z"/>
  <path class="cls-1" d="M421.39,78.79c.01-1.84,.03-3.67,.05-5.51,4.39,1.68,8.78,3.36,13.16,5.04,.65,1.55,1.31,3.1,1.97,4.66-3.88,6.77-11.82,6.15-18.25,8.28,2.03-3.23,4.06-6.47,6.09-9.7,.19-.59,.37-1.18,.56-1.78-.18,.59-.36,1.19-.54,1.78-1.01-.92-2.02-1.85-3.03-2.77Z"/>
  <path class="cls-28" d="M417.5,15.1c.27,.94,.53,1.88,.8,2.82-2.62,2.98-3.78,5.58-1.58,9.79,1.66,3.18,.33,7.64,.33,12.78-5.07-1.33-8.69-2.28-12.38-3.26-.53,1.45-1.03,2.79-1.52,4.14-4.03-1.62-8.06-3.25-11.9-4.79,2.72-4.91,5.07-9.15,8.15-14.71,3.85-1.26,13.54,2.64,12.62-8.31,2.31,.65,3.89,1.09,5.48,1.54Z"/>
  <path class="cls-19" d="M438,150.67c.54,5.56,1.07,11.12,1.61,16.68-2.52,2.77-5.05,5.55-8.97,9.86-.21-8.44-5.02-4.47-9.54-4.09,1.66-2.23,2.48-3.34,3.31-4.45,4.53-6,9.06-12,13.59-17.99Z"/>
  <path class="cls-4" d="M438,150.67c-4.53,6-9.06,12-13.59,17.99-.61-1.84-1.22-3.69-1.87-5.63,9.53-4.83,9.5-13.41,9.48-21.98,3.17-.39,7.27-6.09,9.08,1.32-1.03,2.77-2.07,5.54-3.1,8.3Z"/>
  <path class="cls-16" d="M416.73,125.76c2.54-1.88,5.08-3.76,7.61-5.65,1.82,.91,3.63,1.82,6.85,3.44-5.61,1.43-10,2.55-14.4,3.66h0c-.02-.49-.05-.97-.07-1.45Z"/>
  <path class="cls-16" d="M416.8,127.21c-.39,.8-.78,1.6-1.17,2.4-.32-.2-.64-.4-.96-.61,.71-.6,1.42-1.2,2.13-1.8h0Z"/>
  <path class="cls-5" d="M249.78,91.18c4.19,1.75,8.43,3.44,12.57,5.29,3.91,1.75,4.2,12.02,.34,15.23-1.46,1.21-3.42,1.92-5.15,2.86-2.6-1.4-5.31-2.67-7.78-4.24-3.74-2.39-7.31-5-10.96-7.52,1.78-2.22,3.42-4.55,5.38-6.64,1.69-1.8,3.73-3.33,5.61-4.98Z"/>
  <path class="cls-25" d="M421.44,219.82c-.64-1.34-1.28-2.67-1.93-4.01,.64,1.34,1.28,2.67,1.93,4.01Z"/>
  <path class="cls-41" d="M265.94,231.04c1.29,.36,2.58,.71,3.87,1.07-1.29-.36-2.58-.71-3.87-1.07Z"/>
  <path class="cls-26" d="M348.18,133.52c-.18,.39-.27,.98-.58,1.09-.3,.11-.82-.27-1.24-.44,.18-.38,.27-.98,.57-1.09,.3-.11,.82,.27,1.24,.43Z"/>
  <path class="cls-22" d="M421.39,78.79c1.01,.92,2.02,1.85,3.03,2.77h-.01c-2.03,3.23-4.06,6.46-6.09,9.7,0,0,.03-.02,.03-.02-1.02,.47-2.04,.93-3.07,1.4-.61,.51-1.21,1.02-1.82,1.52-3.89,.66-7.79,1.31-11.68,1.97,1.42-1.88,2.52-4.09,4.33-5.59,4.77-3.96,9.92-7.59,7.76-14.54,2.51,.93,5.02,1.86,7.53,2.79Z"/>
  <path class="cls-13" d="M412.29,70.55c-.01,.88-.03,1.75-.04,2.63-.07,3.12,.55,6.61-4.58,7,.42-1.02,.84-2.04,1.67-4.04-2.87,.93-4.75,1.53-6.59,2.13-2.08-2.88,1.59-7.25,6.39-7.87,1.05,.05,2.1,.11,3.15,.16Z"/>
  <path class="cls-13" d="M404.62,87.09c.51-.47,1.02-.93,1.53-1.4-.51,.47-1.02,.93-1.53,1.4Z"/>
  <path class="cls-13" d="M406.13,85.7c.51-.46,1.02-.93,1.53-1.39-.51,.46-1.02,.93-1.53,1.39Z"/>
  <path class="cls-13" d="M407.65,84.31c0-.47,0-.95,0-1.42,0,.47,0,.95,0,1.42Z"/>
  <path class="cls-1" d="M412.29,70.55c-1.05-.05-2.1-.11-3.15-.16,.15-1.54,.29-3.08,.55-5.84,1.9,1.51,3.01,2.39,4.11,3.27-.51,.91-1.01,1.82-1.52,2.73Z"/>
  <path class="cls-1" d="M408.05,59.73c.39,.84,1.01,1.58,.81,1.88-.34,.53-1.18,.79-1.82,1.16-.19-.58-.6-1.2-.48-1.71,.1-.44,.82-.77,1.49-1.33Z"/>
  <path class="cls-18" d="M131.88,98.96c3.6-.02,7.19-.05,10.79-.07-3.56,4.19-7.18,.85-10.79,.07Z"/>
  <path class="cls-30" d="M139.57,33.84h-.66s-.66-.01-.66-.01c-.58-.02-1.15-.04-1.72-.07,0,0-.02-.02-.02-.02,1.02,.03,2.04,.07,3.06,.1Z"/>
  <path class="cls-27" d="M136.52,33.76c.57,.02,1.15,.04,1.72,.07-.05,.42-.12,.85-.2,1.27-.51-.44-1.01-.89-1.52-1.33Z"/>
  <path class="cls-1" d="M415.28,92.63c1.02-.47,2.04-.93,3.07-1.4-1.02,.47-2.04,.93-3.07,1.4Z"/>
  <path class="cls-22" d="M424.42,81.56c.18-.59,.36-1.19,.54-1.78-.19,.59-.37,1.18-.56,1.78,0,0,.01,0,.01,0Z"/>
</svg>