<?xml version="1.0" encoding="UTF-8"?>
<svg id="Capa_1" data-name="Capa 1" xmlns="http://www.w3.org/2000/svg" viewBox="0 0 595.28 266.78">
  <defs>
    <style>
      .cls-1, .cls-2 {
        fill: #f8f8fc;
      }

      .cls-3 {
        fill: #67b9e8;
      }

      .cls-4, .cls-5 {
        fill: #e3e8f6;
      }

      .cls-6, .cls-7 {
        fill: #f1f2fa;
      }

      .cls-8, .cls-9 {
        fill: #323544;
      }

      .cls-10, .cls-11 {
        fill: #b4bcda;
      }

      .cls-12, .cls-13 {
        fill: #9d8a92;
      }

      .cls-14, .cls-15 {
        fill: #b5a5ae;
      }

      .cls-16, .cls-17 {
        fill: #8da3cd;
      }

      .cls-18, .cls-19 {
        fill: #cfb4b3;
      }

      .cls-20, .cls-21 {
        fill: #bfd0ec;
      }

      .cls-22, .cls-23 {
        fill: #d8e0f3;
      }

      .cls-24, .cls-25 {
        fill: #aa837c;
      }

      .cls-26, .cls-27 {
        fill: #cad6ee;
      }

      .cls-28, .cls-29 {
        fill: #d0a699;
      }

      .cls-30, .cls-31 {
        fill: #d0d9ef;
      }

      .cls-32, .cls-33 {
        fill: #dbc4c4;
      }

      .cls-34 {
        fill: #6188c6;
      }

      .cls-35 {
        fill: #777778;
      }

      .cls-36 {
        opacity: .87;
      }

      .cls-2, .cls-37, .cls-38, .cls-25, .cls-39, .cls-33, .cls-31, .cls-29, .cls-27, .cls-19, .cls-23, .cls-21, .cls-15, .cls-17, .cls-7, .cls-9, .cls-11, .cls-13, .cls-5 {
        opacity: .55;
      }

      .cls-37 {
        fill: #88cdf2;
      }

      .cls-38 {
        fill: #59ade1;
      }

      .cls-39 {
        fill: #aa8b8a;
      }
    </style>
  </defs>
  <rect class="cls-34" y="83.02" width="595.28" height="94.61"/>
  <g class="cls-36">
    <path class="cls-6" d="M240.18,119.29c.42-3.79,.85-7.58,1.27-11.37,9.16-6,15.55-13.79,19.6-23.08,.67-4.82,1.33-9.64,2-14.46,3.14-3.16,6.28-6.32,9.42-9.48,1.18,.84,2.36,1.68,3.54,2.52,1.67,5.19,3.34,10.37,5.01,15.56-4.98,6.3-3.14,13.46-3.36,20.35-1.08,1.61-2.13,3.24-3.26,4.83-1.94,2.72-3.86,7.68-5.9,7.72-8.21,.19-8.07,5.92-10.31,10.35h-13.35c.74-3.75-1.88-3.45-4.67-2.94Z"/>
    <path class="cls-6" d="M222.02,93.62c.03-2.85,.06-5.7,.09-8.55,6.57-13.25,15.37-24.6,32.52-28.78-.75,3.8-1.61,7.58-2.22,11.4-.54,3.39-.8,6.82-1.18,10.23-1.42,1.14-4.01,2.26-4.05,3.43-.18,5.79-9.58,19.78-15.79,22.62-3.09-3.02-6.19-6.04-9.28-9.06,.02-.43,0-.85-.09-1.28Z"/>
    <path class="cls-4" d="M303.62,156.7c.61,2.82,1.21,5.64,1.82,8.45-9.43-1.38-10.51,5.36-12.6,10.4-3.28,7.87-5.73,16-8.53,24.01-3.19,3.15-6.38,6.31-9.85,9.74-1.56-.8-3.33-1.7-5.1-2.61,.69-5.69,1.38-11.38,2.07-17.07,3.53,1.44,7.07,2.87,11.13,4.52,.16-.24,1.55-1.85,1.32-2.04-2.26-1.96-4.79-3.68-7.25-5.48,1.56-1.48,2.97-2.84,4.39-4.19,2.13-.67,5.64-.88,6.16-2.08,4.49-10.34,6.28-21.12,7.02-32.01-.66-.12-1.33-.23-1.99-.35-3.73,10.51-7.46,21.02-11.19,31.54-2.75-1.98-5.5-3.96-8.56-6.17,7.01-11.17,13.86-22.08,21.38-34.08,1.43,2.84,2.44,5.1,3.67,7.26,1.96,3.42,4.07,6.78,6.12,10.16Z"/>
    <path class="cls-26" d="M303.62,156.7c-2.05-3.38-4.16-6.74-6.12-10.16-1.24-2.16-2.25-4.41-3.67-7.26-7.53,12-14.37,22.91-21.38,34.08,3.06,2.21,5.81,4.19,8.56,6.17,0,.97,0,1.94,0,2.91-1.42,1.35-2.84,2.71-4.39,4.19,2.46,1.8,4.99,3.52,7.25,5.48,.22,.19-1.16,1.8-1.32,2.04-4.05-1.65-7.59-3.08-11.13-4.52,.59-2.43,1.19-4.86,1.78-7.3-.64,.07-1.29,.13-1.93,.2-.58-4.82-1.17-9.65-1.75-14.47,5.48-9.55,10.97-19.11,16.45-28.66,1.01-1.89,2.56-3.7,2.91-5.68,.6-3.36,3.98-7.2-1.29-10.04,1.22-4.36,2.43-8.71,3.65-13.07,5.41,8.5,10.82,17,16.23,25.5-3.95,6.48-5.68,13.28-3.84,20.58Z"/>
    <path class="cls-22" d="M269.35,206.7c1.77,.91,3.54,1.81,5.1,2.61,3.47-3.43,6.66-6.58,9.85-9.74,1.65,1.45,3.31,2.89,4.96,4.34-.04,1.91-.08,3.82-.11,5.74-4.93,1.35-9.86,2.7-15.45,4.22,1.97,3.55,2.92,5.26,3.77,6.8,3.79-2.05,6.89-3.73,10-5.42-1.07,7.16-2.14,14.33-3.21,21.49-.98,.21-1.96,.42-2.93,.63-3.35-.78-6.71-1.55-10.07-2.33-1.55-.36-3.1-.73-4.66-1.09-.1-3.35-.2-6.69-.3-10.04,.09-2.87,.18-5.75,.27-8.62,.93-2.86,1.85-5.73,2.78-8.59Z"/>
    <path class="cls-26" d="M231.38,103.96c6.21-2.84,15.61-16.83,15.79-22.62,.04-1.17,2.63-2.29,4.05-3.43,1.25,.55,2.5,1.1,3.75,1.65,2.03,1.76,4.06,3.52,6.08,5.27-4.05,9.29-10.44,17.08-19.6,23.08-3.36-1.32-6.71-2.64-10.07-3.96Z"/>
    <path class="cls-4" d="M285.96,139.41c-5.48,9.55-10.97,19.11-16.45,28.66-.44-3.85-.88-7.7-1.32-11.55,1.85-2.48,5.89-6.37,5.18-7.21-3.83-4.52,1.08-6.86,2.21-10.08,1.31-3.74,2.52-7.5,3.78-11.25,1.65-.03,3.31-.06,4.96-.1-.5,2.31-.5,4.83-1.6,6.9-1.8,3.38-1.34,4.93,3.24,4.63Z"/>
    <path class="cls-22" d="M279.35,127.97c-1.25,3.75-2.47,7.52-3.78,11.25-1.13,3.21-6.04,5.55-2.21,10.08,.71,.84-3.33,4.73-5.18,7.21-3.43-3.76-6.86-7.51-10.29-11.26,.78-.65,1.58-1.28,2.33-1.95,1.45-1.28,2.88-2.59,4.32-3.89,3.82-2.87,7.65-5.75,11.47-8.62,.03-.46,.05-.92,.09-1.38l-.03,.03c1.09-.49,2.18-.98,3.27-1.47Z"/>
    <path class="cls-22" d="M240.18,119.29c2.8-.51,5.41-.81,4.67,2.94,.53,2.65,1.05,5.31,1.53,7.7,7.25-2.29,13.53-4.27,19.81-6.26,.02,.49,.04,.97,.06,1.46-.02,.95-.03,1.9-.05,2.85-1.74,1.51-3.32,3.21-5.26,4.48-3.05,2-6.35,3.7-9.54,5.53-.55-.49-1.09-.98-1.64-1.48-.47-.47-.93-.93-1.4-1.4-2.73-5.28-5.46-10.55-8.19-15.83Z"/>
    <path class="cls-26" d="M251.4,138c3.19-1.83,6.49-3.54,9.54-5.53,1.94-1.27,3.52-2.97,5.26-4.48-.55,3.81-1.1,7.62-1.65,11.43-1.44,1.3-2.87,2.6-4.32,3.89-.76,.67-1.55,1.3-2.33,1.95-2.17-2.42-4.33-4.84-6.5-7.25Z"/>
    <path class="cls-26" d="M248.36,135.12c.47,.47,.93,.94,1.4,1.4-.47-.47-.93-.93-1.4-1.4Z"/>
    <path class="cls-1" d="M281.03,78.97c-1.67-5.19-3.34-10.37-5.01-15.56,3.72-2.52,7.45-5.04,11.17-7.56,13.98,2.53,27.96,5.07,41.93,7.6-1.92,2.88-3.83,5.75-5.74,8.63-.99,3.38-1.98,6.76-2.96,10.14-1.17,2.35-2.34,4.69-3.5,7.04-3.48-.92-6.97-1.83-10.45-2.75-7.38-1.94-14.75-3.88-22.13-5.82-1.1-.57-2.2-1.15-3.3-1.72Z"/>
    <path class="cls-28" d="M262.84,49.36c-1.59-3.4-3.18-6.79-4.77-10.19,.72-3.77,1.44-7.54,2.18-11.28,5.56-9.74,10.32-11.01,22.39-5.9-2.48,5.94-4.87,11.91-7.62,17.75-.24,.51-2.83,.18-4.22,.24,1.99,3.66,3.89,7.16,5.43,10-2.55,1.25-6.19,3.04-9.83,4.82-1.19-1.81-2.38-3.63-3.56-5.44Z"/>
    <path class="cls-32" d="M316.91,89.26c1.17-2.35,2.34-4.69,3.5-7.04,3.81,1.46,7.62,2.93,11.43,4.4,6.67,.86,13.34,1.72,20.01,2.58,.36,1.01,.72,2.01,1.08,3.02-3.22,1.81-6.44,3.61-9.66,5.42-7.34,1.39-12.71,5.21-16.94,10.43-3.58-3.42-7.16-6.84-10.75-10.26,.44-2.85,.88-5.7,1.32-8.55Z"/>
    <path class="cls-24" d="M266.41,54.8c3.64-1.79,7.27-3.57,9.83-4.82-1.54-2.84-3.44-6.34-5.43-10,1.39-.06,3.98,.27,4.22-.24,2.75-5.84,5.13-11.81,7.62-17.75,1.78,1.64,3.66,3.21,5.32,4.93,1.56,1.62,2.9,3.41,4.34,5.12-.8,3.32-1.66,6.64-2.37,9.97-.98,4.6-1.84,9.23-2.75,13.84-3.72,2.52-7.45,5.04-11.17,7.56-1.18-.84-2.36-1.68-3.54-2.52-1.55-1.91-3.1-3.82-4.65-5.74-.46-.17-.93-.29-1.42-.36Zm21.58-17.66c-.43-.72-.85-1.45-1.28-2.17-2.3,.43-5.86,.26-6.61,1.45-1.13,1.78-.29,4.5-.29,6.83l2.52,.6c1.89-2.24,3.78-4.47,5.67-6.71Z"/>
    <path class="cls-30" d="M304.07,186.78c-.61,2.34-1.23,4.68-1.84,7.02-6.38-.59-9.06,2.62-10.44,7.45-.29,1.01-1.65,1.78-2.52,2.67-1.65-1.45-3.31-2.89-4.96-4.34,2.8-8.02,5.26-16.15,8.53-24.01,2.1-5.04,3.18-11.78,12.6-10.4,.08,6.7,.17,13.41,.25,20.11,0,0-.21-.04-.21-.04-.47,.52-.95,1.04-1.42,1.55Z"/>
    <path class="cls-8" d="M307.45,136.12c-5.41-8.5-10.82-17-16.23-25.5-.68-1.39-1.36-2.78-2.04-4.17,2.73-.45,5.46-.89,8.19-1.34,1.97,3.37,3.94,6.75,5.9,10.12,5.74,8.57,11.49,17.13,17.44,26-3.25,3.06-5.89,4.33-8.82-.09-1.2-1.82-2.95-3.36-4.44-5.03Z"/>
    <path class="cls-8" d="M292.3,32.04c-1.44-1.71-2.78-3.5-4.34-5.12-1.66-1.73-3.54-3.3-5.32-4.93-12.07-5.11-16.83-3.84-22.39,5.9-1.72-5.58-1.2-6.91,3.26-9.59,7.06-4.24,14.38-5.52,22.28-1.84,7.5,3.5,6.77,9.61,6.52,15.58Z"/>
    <path class="cls-4" d="M316.91,89.26c-.44,2.85-.88,5.7-1.32,8.55-2.23-.91-4.46-1.81-6.69-2.71-2.15-1.42-4.31-2.84-6.46-4.26-1.6-.05-3.2-.09-4.79-.14-2.81-.94-5.61-1.88-8.42-2.81-1.63-2.4-3.26-4.79-4.9-7.19,7.38,1.94,14.75,3.88,22.13,5.82,3.48,.92,6.97,1.83,10.45,2.75Z"/>
    <path class="cls-26" d="M331.84,86.61c-3.81-1.47-7.62-2.93-11.43-4.4,.99-3.38,1.98-6.76,2.97-10.14,3.4,.51,6.8,1.02,10.2,1.53-.58,4.34-1.15,8.67-1.73,13.01Z"/>
    <path class="cls-20" d="M303.28,115.25c-1.97-3.37-3.94-6.75-5.9-10.12-1.62-1.49-3.25-2.99-4.87-4.48,1.1-.91,2.2-1.82,3.3-2.73,3.26,1.9,6.51,3.8,9.77,5.71-.77,3.88-1.53,7.75-2.3,11.63Z"/>
    <path class="cls-10" d="M333.57,73.61c-3.4-.51-6.79-1.02-10.2-1.53,1.91-2.88,3.82-5.75,5.74-8.63,6.61,1.68,7.24,5.35,4.46,10.16Z"/>
    <path class="cls-12" d="M326.33,108.07c4.23-5.22,9.6-9.04,16.94-10.43-4.08,7.77-10.55,11.76-16.94,10.43Z"/>
    <path class="cls-30" d="M305.58,103.62c-3.26-1.9-6.51-3.8-9.77-5.71,.61-2.4,1.22-4.81,1.83-7.21,1.6,.05,3.2,.09,4.79,.13,1.04,3.31,2.09,6.63,3.13,9.94,0,.95,.01,1.9,.02,2.85Z"/>
    <path class="cls-20" d="M305.56,100.77c-1.04-3.31-2.09-6.63-3.13-9.94,2.15,1.42,4.31,2.84,6.46,4.27-1.11,1.89-2.22,3.78-3.33,5.67Z"/>
    <path class="cls-14" d="M266.61,233.96c1.55,.36,3.1,.73,4.66,1.09,1.58,5.26,3.16,10.52,4.74,15.78,3.78,2.02,7.57,4.05,11.35,6.07,4.27,1.02,8.54,2.04,12.81,3.05,.62,2.27,1.24,4.55,1.86,6.83-1.67-.15-3.34-.29-5-.44-9.22-1.29-18.45-2.59-27.67-3.89,.45-1.35,.55-2.93,1.45-3.98,1.15-1.34,2.96-2.26,4.48-3.36-.5-.49-1.01-.97-1.51-1.46-1.84,.69-3.67,1.37-6.87,2.57,2.18-3.71,3.58-6.1,4.88-8.32-2.7-1.4-4.97-2.57-7.24-3.74,.69-3.4,1.37-6.8,2.06-10.2Z"/>
    <path class="cls-12" d="M269.36,262.46c9.23,1.3,18.45,2.59,27.67,3.89-12.43-.28-24.85-.56-37.28-.84-.57-.53-1.13-1.06-1.7-1.59,0,0,.13-.06,.13-.06,.06-.92,.11-1.85,.17-2.77,3.67,.46,7.34,.92,11.01,1.38Z"/>
    <path class="cls-3" d="M258.05,263.91c.57,.53,1.13,1.06,1.7,1.59-.57-.53-1.13-1.06-1.7-1.59Z"/>
    <path class="cls-20" d="M289.27,203.91c.87-.88,2.23-1.66,2.52-2.67,1.38-4.83,4.06-8.04,10.44-7.45-3.27,9.56-6.54,19.12-9.81,28.68-.04,1.41-.08,2.83-.12,4.24-2.68,3.34-5.36,6.68-8.04,10.03,1.07-7.16,2.14-14.33,3.21-21.49,.56-1.87,1.12-3.74,1.68-5.61,.04-1.91,.08-3.82,.11-5.74Z"/>
    <path class="cls-18" d="M269.36,262.46c-3.67-.46-7.34-.92-11.01-1.38,1.15-3.76,2.3-7.51,3.45-11.27,.92-1.89,1.84-3.77,2.75-5.65,2.27,1.17,4.54,2.35,7.24,3.74-1.3,2.21-2.7,4.6-4.88,8.32,3.2-1.19,5.04-1.88,6.87-2.57,.5,.49,1.01,.97,1.51,1.46-1.52,1.1-3.33,2.02-4.48,3.36-.9,1.05-1,2.63-1.45,3.98Z"/>
    <path class="cls-35" d="M276.01,250.83c-1.58-5.26-3.16-10.52-4.74-15.78,3.36,.78,6.71,1.55,10.06,2.33-1.78,4.48-3.55,8.97-5.32,13.45Z"/>
    <path class="cls-20" d="M284.32,80.69c1.63,2.4,3.26,4.79,4.9,7.19-1.82,.2-3.64,.4-5.04,.55,1.21,2.32,2.32,4.46,3.43,6.59-2.92,5.57-5.95,11.11-8.6,16.77-.34,.73,1.26,2.15,1.97,3.24-1.63,4.8-3.26,9.61-4.88,14.41,0,0,.03-.03,.03-.03-.23,.12-.66,.3-.64,.35,.13,.36,.36,.68,.56,1.02-3.82,2.87-7.65,5.75-11.47,8.62,.55-3.81,1.1-7.62,1.65-11.43,.02-.95,.03-1.9,.04-2.85,1.07-.97,2.14-1.94,3.22-2.91,.93-2.42,1.92-4.82,2.78-7.25,1.84-5.21,3.62-10.43,5.42-15.65,.22-6.89-1.62-14.05,3.36-20.35,1.1,.57,2.2,1.15,3.3,1.72Z"/>
    <path class="cls-4" d="M277.67,99.32c-1.8,5.22-3.58,10.44-5.42,15.65-.86,2.43-1.85,4.84-2.78,7.25-1.09,.48-2.18,.97-3.28,1.45-6.28,1.98-12.56,3.97-19.81,6.26-.48-2.39-1-5.05-1.53-7.7,4.36,0,8.73,0,13.35,0,2.24-4.44,2.09-10.17,10.31-10.35,2.05-.05,3.97-5,5.9-7.72,1.13-1.59,2.18-3.22,3.26-4.83Z"/>
    <path class="cls-28" d="M267.82,55.16c1.55,1.91,3.1,3.82,4.65,5.74-3.14,3.16-6.28,6.32-9.42,9.48-1.25,.98-2.51,1.96-3.76,2.93-.63-.88-1.99-1.97-1.75-2.6,1.24-3.28,2.86-6.45,4.42-9.63,.91-1.85,.88-5.08,4.92-2.78,.32-1.05,.64-2.1,.95-3.15Z"/>
    <path class="cls-16" d="M259.29,73.31c1.25-.98,2.51-1.95,3.76-2.93-.66,4.82-1.33,9.64-2,14.45-2.03-1.76-4.06-3.52-6.09-5.28,.56-.55,1.12-1.09,1.68-1.64,.47-.5,.93-1,1.4-1.49,.41-1.04,.83-2.07,1.24-3.11Z"/>
    <path class="cls-18" d="M259.29,73.31c-.41,1.04-.83,2.07-1.24,3.11-.47,.5-.93,1-1.4,1.49-.56,.55-1.12,1.09-1.68,1.64-1.25-.55-2.5-1.1-3.75-1.64,.38-3.41,.64-6.84,1.18-10.23,.61-3.81,1.47-7.6,2.22-11.4,2.74-2.31,5.48-4.62,8.22-6.93,1.19,1.82,2.37,3.63,3.56,5.44,.49,.07,.96,.19,1.42,.36-.32,1.05-.63,2.1-.95,3.15-4.04-2.3-4.01,.94-4.92,2.78-1.56,3.18-3.17,6.35-4.42,9.63-.24,.63,1.13,1.72,1.75,2.6Z"/>
    <path class="cls-20" d="M281.01,182.45c0-.97,0-1.94,0-2.91,3.73-10.51,7.46-21.02,11.19-31.54,.66,.12,1.33,.23,1.99,.35-.73,10.89-2.53,21.68-7.02,32.01-.52,1.2-4.03,1.41-6.16,2.08Z"/>
    <path class="cls-10" d="M276.09,129.45c1.63-4.8,3.26-9.61,4.88-14.41,2.74-2.86,5.48-5.72,8.21-8.58,.68,1.39,1.36,2.78,2.04,4.17-1.22,4.36-2.43,8.71-3.65,13.07-1.09,1.39-2.17,2.79-3.26,4.18-1.65,.03-3.31,.06-4.96,.1-1.09,.49-2.18,.98-3.27,1.47Z"/>
    <path class="cls-22" d="M284.32,127.88c1.09-1.39,2.17-2.79,3.26-4.18,5.28,2.84,1.89,6.68,1.29,10.04-.35,1.98-1.9,3.79-2.91,5.68-4.58,.3-5.04-1.25-3.24-4.63,1.1-2.07,1.1-4.58,1.6-6.9Z"/>
    <path class="cls-6" d="M289.15,209.65c-.56,1.87-1.12,3.74-1.68,5.61-3.11,1.68-6.21,3.36-10,5.41-.85-1.54-1.8-3.25-3.77-6.8,5.59-1.53,10.52-2.88,15.45-4.22Z"/>
    <path class="cls-10" d="M276.03,130.79c-.2-.34-.43-.67-.56-1.02-.02-.05,.42-.23,.64-.35-.03,.46-.06,.92-.09,1.38Z"/>
    <path class="cls-26" d="M266.19,123.68c1.09-.48,2.18-.97,3.28-1.45-1.07,.97-2.15,1.94-3.22,2.91-.02-.49-.04-.97-.06-1.46Z"/>
    <path class="cls-20" d="M304.07,186.78c.47-.52,.95-1.04,1.42-1.55-.47,.52-.95,1.04-1.42,1.55Z"/>
    <path class="cls-28" d="M287.98,37.14c-1.89,2.24-3.78,4.47-5.67,6.71l-2.52-.6c0-2.32-.84-5.05,.29-6.83,.75-1.18,4.31-1.01,6.61-1.45,.43,.72,.85,1.45,1.28,2.17Z"/>
    <path class="cls-22" d="M289.19,106.46c-2.74,2.86-5.48,5.72-8.21,8.58-.7-1.1-2.31-2.52-1.97-3.24,2.66-5.67,5.69-11.2,8.6-16.77,1.63,1.87,3.27,3.75,4.9,5.62,1.62,1.49,3.25,2.99,4.87,4.48-2.73,.45-5.46,.89-8.19,1.34Z"/>
    <path class="cls-16" d="M292.51,100.64c-1.63-1.87-3.27-3.75-4.9-5.62-1.11-2.13-2.22-4.27-3.43-6.59,1.4-.15,3.22-.35,5.04-.55,2.81,.94,5.61,1.88,8.42,2.81-.61,2.4-1.22,4.81-1.83,7.21-1.1,.91-2.2,1.82-3.3,2.73Z"/>
    <path class="cls-26" d="M256.64,77.92c.47-.5,.93-1,1.4-1.49-.47,.5-.93,1-1.4,1.49Z"/>
  </g>
  <g>
    <path class="cls-6" d="M424.33,141.9c-6.26-7.51-7.23-14.86,.61-22.26,1.74-1.64,2.26-3.97,3.34-5.98-.03-3.47-.05-6.94-.08-10.4,0-.99,0-1.97-.01-2.96,.17-1.01,.35-2.03,.52-3.04,1.15-1.66,2.3-3.33,3.45-4.99-1.11-.6-2.21-1.21-3.32-1.81-3.46,2.82-6.92,5.64-10.38,8.46v.2c-1.47-1.12-2.93-2.23-4.4-3.35,1.34-1.95,2.68-3.9,4.03-5.85,1.1-1.89,2.19-3.77,3.29-5.66,10.46-1.09,14.04-5.18,13.7-13-.31-7.14,2.51-14.35,3.94-21.53,3.94,3.45,7.89,6.91,11.84,10.36-2.04,5.47-4.08,10.93-6.11,16.4-2.73,2.98-5.46,5.96-8.18,8.95-1.69,7.09,6.54,6.31,11.72,7.08,1.8,.27,4.49-2.64,6.77-4.09,2.41-1.49,4.83-2.97,7.24-4.46,.49,.71,.98,1.41,1.47,2.12-4.97,7.71-9.94,15.42-14.92,23.13-2.03,1.5-4.05,3.01-6.08,4.51,0,.49,0,.97,0,1.46-3.22,.17-6.44,.34-10.06,.54,0,3.75,.03,6.68,0,9.6-.03,2.29,.75,4.85-.4,6.8-2.03,3.46-5.25,6.55-7.98,9.79Z"/>
    <path class="cls-20" d="M414.06,95.76c1.46,1.12,2.93,2.23,4.39,3.34,2.22,4.75-5.28,10.08,1.62,14.57-9.89,3.59-17.3,.13-24.32-4.48,.62-4.11,.84-8.29,1.98-12.32,.83-2.93,2.87-5.67,4.36-8.49-.26,1.22-.65,2.43-.75,3.66-.17,2.06-.15,4.14-.21,6.2,2.85-.37,5.69-.73,8.54-1.1,1.46-.46,2.92-.92,4.38-1.38Z"/>
    <path class="cls-14" d="M409.67,97.14c-2.85,.37-5.69,.73-8.54,1.1,.06-2.07,.04-4.14,.21-6.2,.1-1.22,.48-2.44,.75-3.66,2.61-2.79,8.21-4.66,4.23-9.37-.94-1.11,1.13-5.19,2.57-5.42,3.97-.64,8.34,.04,12.56,.19-1.5,.2-4.18,.2-4.33,.64-1.41,4.15-2.38,8.39-3.48,12.6-1.32,3.37-2.64,6.75-3.96,10.12Z"/>
    <path class="cls-32" d="M450.86,60.07c-3.95-3.45-7.89-6.91-11.84-10.36-.13-.46-.14-.93-.02-1.39,1.76-3.23,4.25-6.36,5.09-9.71,1.43-5.69,1.82-11.51,2.65-17.28,1.43,6.5,2.86,13,4.29,19.5-.02,5.92-.03,11.83-.05,17.75-.04,.5-.09,1-.13,1.49Z"/>
    <path class="cls-24" d="M413.64,87.02c1.1-4.21,2.07-8.44,3.48-12.6,.15-.44,2.83-.44,4.33-.64-.02,3.49-.04,6.98-.07,10.47-1.11,1.89-2.2,3.78-3.3,5.66-1.48-.96-2.96-1.93-4.44-2.89Z"/>
    <path class="cls-4" d="M424.33,141.9c2.72-3.24,5.95-6.33,7.98-9.79,1.15-1.95,.37-4.51,.4-6.8,.04-2.92,0-5.84,0-9.6,3.61-.19,6.84-.37,10.06-.54,1.09,4.16,2.18,8.32,3.48,13.32,4.69-3.66,8.79-6.86,12.89-10.06,.76,.54,1.53,1.08,2.29,1.63-6.08,5.11-12.15,10.21-16.78,14.1,1.48,5.13,2.61,9.02,3.8,13.14,1.92-.29,4.19-.63,6.46-.97-.15,5.21-7.61,10.79,1.39,15.54,3.15,3.17-13.77,7.07,.77,9.82-.34,1.74-.69,3.48-1.03,5.22,4.8-3.5,8.94-7.23,10.63-11.48,.96-2.41-2.1-5.66-3.36-8.53-3.87-10.26-1.92-11.94,12.14-10.53,2.01,2.5,4.02,5,6.03,7.5,.15,3.46,.3,6.93,.45,10.39-3.76-4.15-7.52-8.3-11.28-12.45,2.27,8.21,1.99,17.14,12.53,22.95v2.89c-4.13-.37-8.27-.73-11.27-1-3,9.14-5.82,17.72-8.64,26.31-3.94,6.51-7.88,13.02-11.21,18.52-.45,4.23-.82,7.71-1.18,11.19-.73,1.53-1.46,3.05-2.18,4.58-2.46-.03-4.92-.06-7.38-.09-1.39-2.45-2.77-4.91-4.15-7.36,.69-2.52,1.37-5.05,2.05-7.57,1.46-7.1,3.15-14.18,4.29-21.3,.73-4.55-.46-9.38,1.19-13.7,2.82-7.42,3.88-14.32-2.12-21.17-1.16-1.32-1.01-3.24-1.47-4.88-.15-6.62-.24-13.25-.49-19.87-.06-1.54-.67-3.07-1.07-4.81-4.32,2.75-7.94,5.05-11.57,7.36-1.22-.66-2.44-1.31-3.66-1.97Z"/>
    <path class="cls-22" d="M427.99,143.86c3.62-2.31,7.25-4.61,11.57-7.36,.4,1.73,1.01,3.26,1.07,4.81,.25,6.62,.34,13.25,.49,19.87-4.37-5.77-8.75-11.54-13.12-17.31Z"/>
    <path class="cls-16" d="M420.06,113.67c-6.9-4.48,.61-9.81-1.62-14.57,0,0,0-.19,0-.19,3.41-.55,6.83-1.1,10.25-1.66-.17,1.01-.35,2.03-.52,3.04,0,.99,0,1.97,.01,2.96,.03,3.47,.05,6.94,.08,10.4-2.74,0-5.47,0-8.21,.01Z"/>
    <path class="cls-20" d="M450.89,232.67c.37-3.48,.74-6.97,1.18-11.19,3.33-5.5,7.27-12.01,11.21-18.52,6.12,.98,12.24,1.96,18.36,2.93-3.46,7.92-6.92,15.84-10.37,23.76-.65,.02-1.3,.04-1.95,.05-2.23-1.7-4.46-3.41-6.7-5.11,.49,.65,.98,1.3,1.47,1.95-4.4,2.05-8.8,4.09-13.2,6.14Z"/>
    <path class="cls-12" d="M464.61,259.67c4.31,1.93,8.62,3.86,12.93,5.79-12.24,2.99-37.14,.61-45.5-4.36,6.7-.23,13.39-.46,21.32-.74-2.38-5.23-4.85-9.68-6.28-14.31-.57-1.84,1.18-4.06,1.87-6.1,1.69,.61,3.38,1.22,5.08,1.84,.32,3.4,.65,6.8,.97,10.21,3.2,2.56,6.41,5.11,9.61,7.67Z"/>
    <path class="cls-30" d="M454.03,241.8c-1.69-.61-3.38-1.22-5.08-1.84-.08-.9-.16-1.81-.25-2.71,.73-1.53,1.46-3.05,2.18-4.58,4.4-2.05,8.8-4.09,13.2-6.14-.49-.65-.98-1.3-1.47-1.95,2.23,1.7,4.46,3.41,6.7,5.11-5.09,4.03-10.19,8.07-15.28,12.1Z"/>
    <path class="cls-28" d="M451.04,40.83c-1.43-6.5-2.86-13-4.29-19.5-.51-1.63-1.01-3.26-1.51-4.9,1.38-4.24,2.76-8.48,4.15-12.71,2.86-1.24,5.71-2.48,8.56-3.72,2.48,3.19,4.95,6.38,7.43,9.57-.17,1.79-.35,3.58-.52,5.37-.78,4.6-1.56,9.2-2.33,13.8-.57,1.5-1.15,3-1.73,4.5-3.25,2.53-6.5,5.06-9.74,7.58Z"/>
    <path class="cls-14" d="M448.7,237.25c.08,.9,.17,1.81,.25,2.71-.69,2.04-2.44,4.26-1.87,6.1,1.43,4.62,3.9,9.08,6.28,14.31-7.93,.27-14.62,.51-21.32,.74,1.01-2.51,1.86-5.08,3.12-7.52,.58-1.13,1.98-2.04,3-3.05,1.05-4.46,2.1-8.92,3.16-13.38,2.47,.03,4.92,.06,7.38,.09Z"/>
    <path class="cls-30" d="M483.18,177.65c.82,3.96,1.64,7.92,2.47,11.88-1.34,5.45-2.67,10.91-4.01,16.36-6.12-.98-12.24-1.96-18.36-2.93,2.82-8.58,5.64-17.17,8.64-26.31,3.01,.27,7.14,.63,11.27,1Z"/>
    <path class="cls-30" d="M483.8,145.72c-.77,2.71-1.54,5.43-2.31,8.14-2.01-2.5-4.02-5-6.04-7.5-.29-1.2-.45-2.44-.9-3.61-.94-2.45-2.04-4.88-3.08-7.31-3.6,1.38-7.69,2.37-10.66,4.27-2.61,1.67-3.98,4.37-5.9,6.62-2.27,.34-4.54,.68-6.46,.97-1.19-4.12-2.32-8.02-3.8-13.14,4.63-3.89,10.7-8.99,16.78-14.1-.76-.54-1.53-1.08-2.29-1.63-4.1,3.2-8.2,6.4-12.89,10.06-1.31-5-2.4-9.16-3.48-13.32,0-.49,0-.97,0-1.46,2.03-1.5,4.05-3.01,6.08-4.51,4.97-7.71,9.94-15.42,14.92-23.13,4.73,8.59,9.47,17.18,14.81,26.87,3.05-3.09,4.97-5.03,6.89-6.97,.86,5.36,2.02,10.71,2.32,16.08,.07,1.2-2.91,2.5-4.49,3.75-3.74-.54-7.47-1.08-9.91-1.43,3.18,5.62,6.05,10.4,8.58,15.28,1,1.92,1.25,4.05,1.84,6.08Z"/>
    <path class="cls-8" d="M485.46,105.96c-1.92,1.94-3.84,3.89-6.89,6.97-5.34-9.68-10.07-18.27-14.81-26.87-.49-.71-.98-1.41-1.48-2.11,0,0-.23-.39-.23-.39l2.4-2.31c.57-.02,.95-.22,1.16-.6,1.18,.24,2.37,.47,3.55,.7,.67,1.36,1.35,2.72,2.02,4.08,2.99,5.2,5.16,10.92,14.44,12.21,.05,.43,.31,.77,.79,1.03,.53,.99,1.07,1.97,1.6,2.96-.27,.42-.29,.84-.05,1.27-.83,1.01-1.66,2.03-2.49,3.04Z"/>
    <path class="cls-22" d="M465.61,80.65c-.21,.38-.6,.58-1.16,.6-1.1-.12-2.21-.25-3.31-.37-1.02-2.37-2.05-4.74-2.78-6.43-5.51,.82-9.57,1.42-13.62,2.02,2.04-5.47,4.08-10.93,6.11-16.4,.04-.5,.09-1,.13-1.49,4.13-.14,8.26-.28,12.39-.41,.74,7.5,1.49,14.99,2.23,22.48Z"/>
    <path class="cls-30" d="M444.74,76.48c4.05-.6,8.11-1.2,13.62-2.02,.73,1.69,1.75,4.06,2.78,6.43,.3,.89,.61,1.79,.91,2.68,0,0,.23,.39,.23,.39-2.41,1.48-4.82,2.97-7.23,4.45-4.39-1.14-8.77-2.29-13.16-3.43,.22-.56,.45-1.12,.67-1.68l-6,2.13c2.73-2.98,5.46-5.96,8.18-8.95Z"/>
    <path class="cls-4" d="M436.56,85.42c2-.71,4-1.42,6-2.13-.22,.56-.45,1.12-.67,1.68,4.39,1.14,8.77,2.29,13.16,3.43-2.28,1.45-4.97,4.36-6.77,4.09-5.18-.77-13.41,.01-11.72-7.08Z"/>
    <path class="cls-20" d="M428.7,97.25c-3.42,.55-6.84,1.1-10.25,1.66,3.46-2.82,6.93-5.64,10.39-8.46,1.11,.6,2.21,1.21,3.32,1.81-1.15,1.66-2.3,3.33-3.45,4.99Z"/>
    <path class="cls-18" d="M413.64,87.02c1.48,.96,2.96,1.93,4.44,2.89-1.34,1.95-2.69,3.9-4.03,5.85-1.46,.46-2.92,.92-4.38,1.38,1.32-3.37,2.64-6.75,3.96-10.12Z"/>
    <path class="cls-4" d="M448.85,109.2c-2.03,1.5-4.05,3.01-6.08,4.51,2.03-1.5,4.05-3.01,6.08-4.51Z"/>
    <path class="cls-20" d="M428.19,103.26c0-.99,0-1.97-.01-2.96,0,.99,0,1.97,.01,2.96Z"/>
    <path class="cls-14" d="M463.38,58.17c-4.13,.14-8.26,.28-12.39,.41,.02-5.92,.03-11.83,.05-17.75,3.25-2.53,6.5-5.05,9.75-7.58-.34,5.86-.68,11.72-1.01,17.58,1.14,1.07,2.28,2.13,3.43,3.2,.06,1.38,.12,2.76,.18,4.13Z"/>
    <path class="cls-6" d="M454.92,146.33c1.92-2.25,3.28-4.95,5.9-6.62,2.97-1.9,7.06-2.88,10.66-4.27,1.04,2.44,2.13,4.86,3.08,7.31,.45,1.17,.61,2.4,.9,3.61-14.06-1.41-16,.28-12.14,10.53-2.08,4.93-4.16,9.86-6.24,14.79-14.54-2.75,2.38-6.65-.77-9.82-9-4.75-1.54-10.33-1.39-15.54Z"/>
    <path class="cls-30" d="M481.94,164.26c.42,3.5,.84,7,1.25,10.5-10.55-5.81-10.27-14.74-12.54-22.95,3.76,4.15,7.52,8.3,11.28,12.45Z"/>
    <path class="cls-26" d="M457.07,171.69c2.08-4.93,4.16-9.86,6.24-14.79,1.25,2.87,4.31,6.12,3.36,8.53-1.69,4.25-5.83,7.99-10.63,11.48,.34-1.74,.69-3.48,1.03-5.22Z"/>
    <path class="cls-22" d="M486.16,82.84c15.43-.05,25.87,6.41,35.01,14.35,3.25,2.82,6.38,5.86,8.55,9.15,3.32,5.04,.4,13.6-5.29,15.37-7.9,2.46-13.73-.35-18.24-5.03,8.4,.33,13.12-3.67,13.11-8.62,0-2.06-7.56-4.24-11.91-6.09-1.26-.54-3.28-.15-4.95-.19-8.29-5.02-15.44-10.55-16.29-18.94Z"/>
    <path class="cls-24" d="M490.15,62.68c-2.16,5.05-4.31,10.11-6.47,15.16-3.51,.99-7.01,1.98-10.52,2.96-1.39-1.74-2.78-3.48-2.75-3.44,4.15-8.01,7.69-14.84,11.23-21.67,2.84,2.33,5.67,4.66,8.51,6.99Z"/>
    <path class="cls-8" d="M483.8,145.72c-.59-2.03-.84-4.16-1.84-6.08-2.53-4.88-5.4-9.66-8.58-15.28,2.44,.35,6.18,.89,9.91,1.43,.56,1.51,1.12,3.02,1.68,4.53,.32,1.37,.64,2.73,.96,4.1,3.82,6.41,7.57,12.85,11.52,19.23,1.41,2.27,3.32,4.37,5,6.54-1.19,.59-2.38,1.18-3.57,1.77-5.03-5.41-10.05-10.83-15.08-16.24Z"/>
    <path class="cls-12" d="M486.16,82.84c.85,8.38,8,13.92,16.29,18.94-.88,3.57,9.33,8.24-2.05,10.76-3.12-1.81-9.88-1.41-7.45-6.72,.23-.51-3.24-1.91-5-2.9-.24-.43-.22-.86,.05-1.27,.86-.23,1.72-.45,2.57-.68-1.39-.76-2.78-1.52-4.17-2.28-.47-.26-.73-.61-.78-1.04-1.75-2.43-3.5-4.85-4.52-6.27,.28-2.54,.47-4.23,.66-5.92,.87-1.56,1.75-3.11,2.62-4.67,.6,.68,1.19,1.36,1.79,2.05Z"/>
    <path class="cls-16" d="M487.95,102.92c1.76,.99,5.23,2.39,5,2.9-2.43,5.31,4.34,4.91,7.45,6.71-.05,.39,.03,.76,.23,1.12-2.14,4.44-4.28,8.88-6.42,13.31-3.08,1.12-6.17,2.23-9.25,3.35-.56-1.51-1.12-3.02-1.68-4.53,1.58-1.25,4.56-2.55,4.49-3.75-.3-5.37-1.47-10.72-2.32-16.08,.83-1.01,1.66-2.03,2.49-3.04Z"/>
    <path class="cls-8" d="M490.15,62.68c-2.84-2.33-5.67-4.66-8.51-6.99-6.15-.55-12.29-1.11-18.44-1.66-1.14-1.07-2.28-2.14-3.43-3.2,4.76-1.15,9.47-3.15,14.29-3.3,12.02-.39,18.25,5.85,16.08,15.15Z"/>
    <path class="cls-4" d="M500.64,113.66c-.2-.36-.28-.74-.23-1.12,11.38-2.51,1.17-7.19,2.05-10.76,1.67,.04,3.69-.35,4.95,.19,4.34,1.86,11.9,4.03,11.91,6.09,.01,4.95-4.71,8.95-13.11,8.62-1.85-1-3.71-2.01-5.56-3.01Z"/>
    <path class="cls-35" d="M484.37,80.79c-.87,1.56-1.75,3.11-2.62,4.67-3.52,0-7.05-.01-10.57-.02-.67-1.36-1.35-2.72-2.02-4.08,1.33-.19,2.66-.37,4-.55,3.51-.99,7.01-1.98,10.52-2.96,.23,.98,.46,1.97,.7,2.95Z"/>
    <path class="cls-30" d="M484.97,130.32c3.08-1.12,6.16-2.23,9.25-3.35-2.76,2.48-5.53,4.97-8.29,7.45-.32-1.37-.64-2.73-.96-4.1Z"/>
    <path class="cls-28" d="M473.16,80.8c-1.33,.18-2.67,.37-4,.55-1.18-.23-2.37-.46-3.55-.7-.74-7.5-1.49-14.99-2.23-22.49-.06-1.38-.12-2.76-.18-4.14,6.15,.55,12.29,1.11,18.44,1.66-3.54,6.83-7.08,13.67-11.23,21.67-.03-.04,1.36,1.7,2.75,3.44Z"/>
    <path class="cls-24" d="M471.18,85.44c3.52,0,7.05,.01,10.57,.02-.19,1.69-.37,3.38-.66,5.92,1.03,1.42,2.78,3.85,4.52,6.27-9.27-1.29-11.44-7.01-14.44-12.21Z"/>
    <path class="cls-24" d="M486.4,98.69c1.39,.76,2.78,1.52,4.17,2.28-.86,.23-1.72,.46-2.57,.68-.53-.99-1.07-1.97-1.6-2.96Z"/>
    <path class="cls-6" d="M462.05,83.57c-.3-.89-.61-1.79-.91-2.68,1.1,.12,2.21,.24,3.31,.37-.8,.77-1.6,1.54-2.4,2.32Z"/>
  </g>
  <path class="cls-7" d="M171.74,150.35c.02,.9,.05,1.81,.08,2.71,.72,1.1,1.43,2.2,2.14,3.3-3.73,1.83-7.55,3.56-11.18,5.53-3.2,1.73-6.19,3.73-9.27,5.61-1.74,.02-3.47,.03-5.21,.04,.63-3.18,.96-6.42,1.96-9.51,1.33-4.09,4.22-8.03,4.41-12.1,.11-2.21-3.99-4.56-6.18-6.84-4.75,3.48-9.31,.32-13.94-.27-.7-.97-1.4-1.94-2.1-2.9-.51-1.35-1.01-2.7-1.52-4.06,2.66-6.06,5.31-12.11,7.97-18.17-.56-.29-1.13-.57-1.69-.86-4.93,5.81-9.85,11.61-14.78,17.42,1.24-4.59,2.48-9.17,3.63-13.4-6,3.47-12.04,7.33-18.53,10.58-3.84,1.92-8.38,2.86-12.61,4.24-.61-5.75-1.22-11.51-1.83-17.26,.8-2.56,1.59-5.13,2.38-7.68,.25-.2,.51-.42,.76-.63,6.95-.15,13.9-.31,20.86-.46,1.8-.44,3.6-.87,5.4-1.31,9.74-1.9,19.49-3.8,29.23-5.7,.57-.03,1.13-.05,1.7-.09,1,.05,2,.1,3,.15,2.31,2.44,4.62,4.89,6.92,7.33-.03,.38-.07,.76-.13,1.14-4.27,2.21-4.26,4.16,.5,5.83-.05,1.92-.1,3.84-.15,5.76,0,1.42-.01,2.85-.02,4.27,1.31,2.67,2.61,5.33,3.92,8,.48,3.91,.97,7.82,1.45,11.72,.95,2.54,1.89,5.08,2.84,7.62Z"/>
  <path class="cls-2" d="M80.93,81.01c.86-12.14,11.3-23.02,25.98-27.07,.5,9.22-8.21,18.85,1.79,27.66,.31,.27,.13,.92,.18,1.39,.57,1.3,1.15,2.6,1.73,3.91,2.17,7.65-7.48,8.51-10.72,13.06l-3.33,2.91c-7.08-3.94,3.33-6.87,.11-11.4-2.26,.53-4.95,1.17-7.63,1.8-1.24-5.37-1.18-5.28,3.59-7.3,1-.42,2.1-1.84,1.97-2.67-.18-1.15-1.64-3.17-2.26-3.09-3.12,.38-6.12,1.4-9.21,1.98-.6,.11-1.46-.76-2.19-1.18Z"/>
  <path class="cls-7" d="M80.93,81.01c.74,.42,1.6,1.29,2.19,1.18,3.1-.58,6.1-1.6,9.21-1.98,.62-.07,2.09,1.94,2.26,3.09,.13,.83-.98,2.25-1.97,2.67-4.78,2.02-4.83,1.93-3.59,7.3,2.69-.63,5.38-1.27,7.63-1.8,3.22,4.53-7.19,7.46-.11,11.4-.11,1.08-.22,2.15-.33,3.22-.26,.21-.51,.42-.76,.63-14.67-3.05-20.7-13.71-14.53-25.71Z"/>
  <path class="cls-5" d="M108.88,83c-.05-.47,.12-1.12-.19-1.39-10-8.81-1.29-18.45-1.79-27.66,3.34-1,6.67-2.01,10.01-3.01,2.2,2.41,4.4,4.83,6.6,7.24-1.67,1.56-3.93,2.9-4.89,4.72-3.49,6.62-6.54,13.39-9.75,20.11Z"/>
  <path class="cls-9" d="M123.52,58.17c-2.2-2.41-4.4-4.82-6.6-7.24,.8-2.06,1.6-4.11,2.39-6.16,1.02-.43,2.04-.86,3.07-1.3,1.03,1.68,2.06,3.36,3.09,5.03,1.12,1.46,2.24,2.91,3.35,4.37,.71,2.84,1.42,5.67,2.13,8.51-2.48-1.07-4.95-2.14-7.43-3.21Z"/>
  <path class="cls-5" d="M118.59,212.28c.17-7.2,.34-14.39,.5-21.59,2.15-.87,5.63-1.33,6.23-2.69,4.07-9.18,7.54-18.55,11.2-27.86-.98-.33-1.95-.66-2.93-.99-1.05,1.67-2.01,3.38-3.15,5-3.18,4.54-6.44,9.04-9.67,13.55-1.15-9.1-2.29-18.19-3.44-27.29,.55-.26,1.11-.52,1.66-.77,3.07-.31,6.14-.68,9.22-.93,4.9-.41,7.09-2.46,6.01-6.63,.11-1.09,.21-2.18,.32-3.26,4.63,.59,9.19,3.75,13.94,.27,2.2,2.29,6.29,4.63,6.18,6.84-.19,4.07-3.08,8.01-4.41,12.1-1,3.09-1.33,6.34-1.96,9.51-.61,.9-1.22,1.81-1.84,2.71-1.65,2.49-3.31,4.99-4.96,7.48-1.75,1.09-4.45,1.9-5.08,3.34-1.73,3.99-2.59,8.23-3.8,12.38l-3.53,20.19c-3.45,1.98-6.89,3.96-10.34,5.94-.06-2.43-.11-4.87-.17-7.3Z"/>
  <path class="cls-23" d="M118.76,219.58c3.45-1.98,6.89-3.96,10.34-5.94-1.73,11.56-3.46,23.12-5.2,34.67-3.2-.03-6.41-.06-9.61-.09-.6-.52-1.2-1.03-1.8-1.55,1.16-8.07,2.31-16.14,3.47-24.22,.94-.96,1.87-1.92,2.8-2.87Z"/>
  <path class="cls-5" d="M94.91,131.67c4.23-1.38,8.77-2.32,12.61-4.24,6.49-3.24,12.53-7.11,18.53-10.58-1.14,4.22-2.38,8.81-3.63,13.39-.57,1.43-1.15,2.87-1.72,4.3-3.58,2.6-5.94,9.86-12.33,1.97-.67-.83-5.52,.69-8.43,1.13-1.68-1.99-3.36-3.98-5.04-5.98Z"/>
  <path class="cls-27" d="M99.94,137.65c2.91-.43,7.76-1.96,8.43-1.13,6.39,7.9,8.75,.63,12.33-1.97,7.5,2.49-2.47,4.89-.05,7.35-3.42,1.42-6.85,2.84-10.27,4.25-2.23-.53-4.46-1.05-6.69-1.58-1.25-2.31-2.49-4.62-3.74-6.93Z"/>
  <path class="cls-33" d="M146.46,170.26c.61-.9,1.22-1.81,1.84-2.71,1.74-.02,3.47-.03,5.21-.05,8.94,5.25,8.21,14.32,12.16,21.54-1.41,7.56-10.29,2.61-14.22,5.94-1.01-.08-2.02-.16-3.03-.24-.6-2.33-1.2-4.66-1.8-6.99l-1.8-2.85h0c.27-1.8-.27-4.4,.95-5.27,4.44-3.15,2.6-6.16,.69-9.38Z"/>
  <path class="cls-9" d="M118.86,27.69c-2.13-12.55,8.37-20.43,22.64-16.98,2.18,.53,4.34,1.11,6.51,1.67,0,0,.03-.03,.03-.03,.6,.49,1.2,.98,1.8,1.48,0,0-.06-.06-.06-.06,.56,.66,1.11,1.33,1.67,1.99-.15,.41,.01,.7,.48,.87,.42,.71,.84,1.43,1.26,2.14,.13,.71,.26,1.42,.39,2.13-.12,2.35-.25,4.71-.37,7.06-1.28-1.48-2.38-3.1-3.87-4.42-2.6-2.31-5.43-4.43-8.17-6.63-13.38-3.59-15.05-2.8-19.25,8.7-.32,.88-2.02,1.4-3.07,2.09Z"/>
  <path class="cls-25" d="M141.18,16.9c2.73,2.2,5.57,4.32,8.17,6.63,1.49,1.32,2.59,2.94,3.87,4.42,.55,.04,1.1,.12,1.64,.24-.68,2.29-1.36,4.59-2.04,6.88-1.6,1.51-3.2,3.02-4.8,4.53-.85,1.71-1.69,3.42-2.54,5.13-.03,.37-.26,.61-.7,.69-.53-.06-1.06-.05-1.58,.04-.59-1.52-1.18-3.04-1.77-4.56,0-.37-.01-.75-.02-1.12,2.24-2.29,4.48-4.58,7.43-7.59-7.91-1.52-14.75-2.47-6.91-9.31,1.07-.94-.43-3.93-.74-5.96Z"/>
  <path class="cls-29" d="M151.44,194.98c3.93-3.33,12.82,1.62,14.23-5.94,1.05,.6,2.1,1.21,3.15,1.81,1.02,1.39,2.03,2.79,3.13,4.29-6.46,6.56-13.4,2.71-20.16,1.14-.06-.44-.18-.88-.35-1.3Z"/>
  <path class="cls-37" d="M173.95,156.36c-.71-1.1-1.42-2.2-2.14-3.3,.71,1.1,1.42,2.2,2.14,3.3Z"/>
  <path class="cls-37" d="M153.2,18.76c-.42-.71-.84-1.43-1.26-2.14,.42,.71,.84,1.43,1.26,2.14Z"/>
  <path class="cls-37" d="M151.46,15.75c-.56-.66-1.11-1.32-1.67-1.99,.56,.66,1.11,1.33,1.67,1.99Z"/>
  <path class="cls-37" d="M149.85,13.82c-.6-.49-1.2-.98-1.8-1.48,.6,.49,1.2,.98,1.8,1.48Z"/>
  <path class="cls-15" d="M114.29,248.22c3.2,.03,6.41,.06,9.62,.09,.11,.89,.23,1.79,.34,2.68-.3,1.95-1.05,3.94-.77,5.84,.28,1.94,1.55,3.78,2.39,5.67-2.18,.43-4.36,.85-6.53,1.28-3.72-3.48-11.99-5.26-6.4-12.21,.76-.94,.92-2.22,1.36-3.35Z"/>
  <path class="cls-15" d="M136.74,256.98s.78,.14,.78,.14c2.7,3.38,11.79,1.24,10.25,8.28-3.87,.46-7.74,.91-11.61,1.37,.03-2.73,.07-5.46,.1-8.19,.16-.54,.32-1.07,.48-1.61Z"/>
  <path class="cls-39" d="M136.25,258.59c-.03,2.73-.07,5.46-.1,8.19-3.43-1.43-6.86-2.85-10.29-4.28-.84-1.89-2.11-3.73-2.39-5.67-.27-1.89,.47-3.89,.77-5.84,1.08-.1,2.15-.2,3.23-.3,2.45,2.02,4.9,4.04,7.35,6.06,.47,.61,.95,1.22,1.42,1.84Z"/>
  <path class="cls-21" d="M127.48,250.7c-1.08,.1-2.15,.2-3.23,.3-.11-.89-.22-1.79-.34-2.68,1.73-11.56,3.46-23.11,5.19-34.67,1.17-6.73,2.35-13.46,3.52-20.19,3.43,2.58,6.85,5.15,11.01,8.28,1.3-1.9,3.04-4.44,4.78-6.99,1.01,.08,2.02,.16,3.03,.24,.17,.43,.28,.86,.34,1.3-4.05,8.68-8.11,17.36-12.16,26.03-.58,1.44-1.16,2.88-1.75,4.32-2.3,6.2-4.5,12.43-6.96,18.58-.77,1.93-2.27,3.65-3.44,5.47Z"/>
  <path class="cls-29" d="M141.18,16.9c.31,2.04,1.81,5.03,.74,5.96-7.84,6.85-1,7.8,6.91,9.31-2.95,3.02-5.19,5.31-7.43,7.59-1.83-.22-3.67-.43-5.5-.65l-.11,1.77h5.63c.59,1.52,1.18,3.04,1.77,4.56-.12,.4-.26,.81-.41,1.2-5.77,.61-11.55,1.23-17.32,1.84-1.03-1.68-2.06-3.36-3.09-5.03-1.09-1.81-2.18-3.62-3.28-5.42-.08-3.45-.16-6.9-.24-10.36,1.06-.69,2.75-1.22,3.07-2.09,4.2-11.49,5.87-12.29,19.25-8.7Z"/>
  <path class="cls-5" d="M151.71,98.62c-9.74,1.9-19.49,3.8-29.23,5.7-1.89-.35-3.78-.71-5.67-1.06,0,0-.1-.06-.1-.06,5.04-1.51,10.08-3.01,15.12-4.52,.84-.63,1.69-1.27,2.53-1.9-2.24-.87-4.47-1.75-6.71-2.62-.8-4.85-.18-9.02,6.94-10.06,.48,.04,.94,.13,1.39,.27,1.24,7.96,4.66,9.55,11.02,6.02,1.53,2.67,3.12,5.45,4.71,8.23Z"/>
  <path class="cls-11" d="M151.71,98.62c-1.59-2.78-3.18-5.56-4.71-8.23-6.36,3.54-9.79,1.94-11.02-6.02,.24-.2,.48-.41,.71-.61,5.48,2.41,8.97,.96,10.73-3.86,2.05,2.34,4.1,4.69,6.15,7.03-.05,3.87-.11,7.73-.16,11.6-.57,.03-1.13,.06-1.7,.09Z"/>
  <path class="cls-23" d="M120.65,141.91c-2.42-2.46,7.55-4.86,.05-7.35,.57-1.43,1.15-2.87,1.72-4.3,4.93-5.8,9.85-11.61,14.78-17.42,.56,.29,1.13,.57,1.69,.86-2.66,6.06-5.31,12.11-7.97,18.17-1.2,2.73-2.4,5.47-3.61,8.21-2.22,.61-4.45,1.23-6.67,1.84Z"/>
  <path class="cls-9" d="M96.22,106.1c.11-1.07,.22-2.15,.33-3.22,1.11-.97,2.22-1.94,3.33-2.91,5.61,1.08,11.22,2.16,16.82,3.24,0,0,.1,.06,.1,.06,.09,.79,.18,1.58,.27,2.37-6.95,.15-13.9,.31-20.86,.46Z"/>
  <path class="cls-27" d="M153.41,98.54c.05-3.87,.11-7.73,.16-11.6,2.81,.57,2.8,6.69,7.88,2.8,0,0,.66,.21,.66,.21,2.84,4.31,5.68,8.62,8.52,12.93-2.47-1.18-4.81-2.62-7.44-3.44-2.08-.65-4.51-.53-6.79-.76-1-.05-2-.1-3-.15Z"/>
  <path class="cls-9" d="M167.45,131.01c2.24,2.66,4.7,5.2,6.61,8.01,.96,1.4,.91,3.28,1.31,4.94-2.16-.41-4.32-.82-6.48-1.23-.48-3.91-.97-7.82-1.45-11.73Z"/>
  <path class="cls-17" d="M156.41,98.68c2.27,.22,4.7,.11,6.79,.76,2.62,.82,4.97,2.26,7.44,3.44,1.14,.5,2.28,1.01,3.41,1.51,.58,.45,1.16,.9,1.74,1.34-4.15,.09-8.3,.18-12.45,.28-2.31-2.44-4.62-4.89-6.93-7.33Z"/>
  <path class="cls-5" d="M163.21,107.16c.17,1.94,.33,3.88,.5,5.83-4.76-1.67-4.76-3.62-.5-5.83Z"/>
  <path class="cls-23" d="M131.02,138.81c.48-.97,.96-1.93,1.44-2.9,.7,.97,1.4,1.94,2.1,2.9-.11,1.09-.21,2.17-.32,3.26-1.07-1.09-2.14-2.18-3.22-3.27Z"/>
  <path class="cls-11" d="M117.08,105.64c-.09-.79-.18-1.58-.27-2.37,1.89,.35,3.78,.71,5.67,1.06-1.8,.44-3.6,.87-5.4,1.31Z"/>
  <path class="cls-5" d="M163.56,118.74c0,1.42-.01,2.85-.02,4.27,0-1.42,.01-2.85,.02-4.27Z"/>
  <path class="cls-11" d="M116.71,103.2c-5.61-1.08-11.22-2.16-16.82-3.24,3.24-4.54,12.89-5.41,10.71-13.05,3.53-2.88,7.06-5.76,10.59-8.64,.39,.11,.79,.17,1.21,.17,.51,.07,1.03,.15,1.54,.23-.83,6.07-1.66,12.15-2.51,18.33,1.96-.89,4.09-1.86,6.22-2.83,2.24,.87,4.47,1.75,6.71,2.62-.84,.63-1.69,1.27-2.53,1.9-5.04,1.51-10.08,3.01-15.12,4.52Z"/>
  <path class="cls-19" d="M121.2,78.26c-3.53,2.88-7.06,5.76-10.59,8.65-.57-1.3-1.15-2.61-1.72-3.91,3.22-6.71,6.27-13.49,9.75-20.11,.96-1.82,3.22-3.16,4.89-4.72,2.48,1.07,4.95,2.14,7.43,3.21-.46,2.42-.92,4.83-1.39,7.25,0,0-.28-.1-.28-.1-2.28,2.83-4.57,5.66-6.85,8.49-.41,.41-.83,.83-1.24,1.24Z"/>
  <path class="cls-29" d="M129.56,68.63c.46-2.42,.92-4.83,1.38-7.25-.71-2.84-1.42-5.67-2.13-8.51,6.45-2.95,9.47,1.33,13.08,4.35,0,1.74,0,3.47,0,5.21-2.47,1.54-4.95,3.09-7.42,4.63-1.64,.52-3.27,1.05-4.91,1.57Z"/>
  <path class="cls-25" d="M141.9,57.22c-3.61-3.02-6.63-7.29-13.08-4.35-1.12-1.45-2.24-2.91-3.36-4.36,5.77-.61,11.55-1.23,17.32-1.84-.29,3.52-.59,7.04-.88,10.56Z"/>
  <path class="cls-23" d="M120.77,177.71c3.23-4.51,6.48-9.02,9.67-13.55,1.14-1.62,2.11-3.33,3.15-5,.98,.33,1.95,.66,2.93,.99-3.66,9.31-7.12,18.68-11.2,27.86-.6,1.35-4.08,1.81-6.23,2.69,.56-4.33,1.12-8.66,1.68-12.99Z"/>
  <path class="cls-27" d="M148.41,194.74c-1.74,2.55-3.48,5.1-4.78,6.99-4.16-3.13-7.58-5.71-11.01-8.28,1.2-4.15,2.07-8.39,3.8-12.38,.62-1.44,3.32-2.24,5.08-3.34,1.11,2.39,2.21,4.78,3.32,7.18,0,0,0,0,0,0,.6,.95,1.2,1.9,1.8,2.85,.6,2.33,1.2,4.66,1.8,6.99Z"/>
  <path class="cls-17" d="M119,149.64c2.85-3.12,5.71-6.24,8.56-9.36,1.15-.49,2.3-.98,3.46-1.47,1.07,1.09,2.15,2.17,3.22,3.26,1.08,4.17-1.12,6.22-6.01,6.63-3.08,.25-6.15,.62-9.22,.93Z"/>
  <path class="cls-19" d="M144.82,184.91c-1.11-2.39-2.21-4.78-3.32-7.18,1.66-2.49,3.31-4.98,4.96-7.48,1.91,3.21,3.75,6.22-.69,9.37-1.22,.87-.68,3.47-.95,5.28Z"/>
  <path class="cls-38" d="M136.25,258.59c-.48-.61-.95-1.22-1.42-1.84,.63,.07,1.26,.15,1.9,.23-.16,.54-.32,1.07-.48,1.61Z"/>
  <path class="cls-5" d="M148.59,52.71c9.22,3.22,20.28,3.61,26.3,11.77,1.6,2.17,2.88,4.49,4.31,6.75-2.82,1.72-5.65,3.44-9.3,5.67-1.98-2.05-4.12-4.27-6.26-6.49-.68,.32-1.36,.65-2.03,.97,1.55,2.2,2.7,4.72,4.75,6.53,2.69,2.38,6.27,4.04,9.14,6.3,3.99,3.14,4.71,7.62,2.01,10.06-.57-.48-1.14-.96-1.71-1.44-2.32-8.41-9.12-1.92-13.68-2.87,0,0-.66-.21-.66-.21-1.83-5.06-3.22-10.27-5.65-15.13-1.85-3.69-5.01-6.92-7.59-10.36,.13-3.85,.25-7.7,.38-11.55Zm23.11,13.82c-.48-.17-1.06-.57-1.4-.46-.35,.12-.45,.74-.66,1.14,.48,.17,1.06,.57,1.4,.46,.35-.12,.45-.73,.66-1.14Z"/>
  <path class="cls-23" d="M177.5,94.27c2.7-2.44,1.98-6.92-2.01-10.06-2.87-2.26-6.45-3.92-9.14-6.3-2.05-1.81-3.2-4.33-4.75-6.53,.68-.32,1.36-.65,2.03-.97,2.14,2.22,4.28,4.43,6.26,6.49,3.66-2.23,6.48-3.95,9.3-5.67,1.61,9.09,3.23,18.18,4.84,27.26-2.18-1.4-4.36-2.81-6.54-4.22Z"/>
  <path class="cls-9" d="M148.59,52.71c-.13,3.85-.25,7.7-.38,11.55-2.11-.61-4.22-1.22-6.32-1.83,0-1.74,0-3.47,0-5.21,.29-3.52,.59-7.04,.88-10.56,.15-.4,.28-.8,.41-1.2,.52-.08,1.05-.1,1.58-.04,1.28,2.43,2.55,4.86,3.83,7.29Z"/>
  <path class="cls-27" d="M177.5,94.27c2.18,1.41,4.36,2.81,6.54,4.22-2.75,2.42-5.5,4.84-8.25,7.25-.58-.45-1.16-.9-1.74-1.34,2.14-3.69-5.48-8.41,1.74-11.57,.57,.48,1.14,.96,1.71,1.44Z"/>
  <path class="cls-13" d="M145.47,44.73c.85-1.71,1.69-3.42,2.54-5.13-.85,1.71-1.69,3.42-2.54,5.13Z"/>
  <path class="cls-19" d="M146.61,187.75c-.6-.95-1.2-1.9-1.8-2.85,.6,.95,1.2,1.9,1.8,2.85Z"/>
  <path class="cls-39" d="M141.42,40.9h-5.63l.11-1.77c1.83,.21,3.67,.43,5.5,.65,0,.38,0,.75,.02,1.13Z"/>
  <path class="cls-31" d="M127.65,94.16c-2.13,.97-4.26,1.94-6.22,2.83,.85-6.18,1.68-12.25,2.51-18.33,3.58,.84,7.16,1.69,10.73,2.53l.15-.12c-.08,1.01-.15,2.01-.23,3.02-7.12,1.04-7.74,5.21-6.94,10.06Z"/>
  <path class="cls-11" d="M134.59,84.1c.08-1.01,.15-2.01,.23-3.02,.62,.89,1.25,1.79,1.87,2.68-.24,.2-.48,.41-.71,.61-.45-.14-.91-.23-1.39-.27Z"/>
  <path class="cls-39" d="M141.89,62.43c2.11,.61,4.22,1.22,6.32,1.83,2.58,3.44,5.75,6.67,7.59,10.36,2.43,4.85,3.81,10.07,5.65,15.13-5.08,3.89-5.07-2.24-7.88-2.8-2.05-2.34-4.1-4.69-6.15-7.03-4.32-4.28-8.63-8.56-12.95-12.84,2.47-1.54,4.95-3.09,7.42-4.63Z"/>
  <path class="cls-9" d="M134.47,67.06c4.32,4.28,8.63,8.56,12.95,12.84-1.76,4.82-5.25,6.27-10.73,3.86-.62-.89-1.25-1.79-1.87-2.68,0,0-.15,.12-.15,.12-.27-.93-.54-1.87-.81-2.8-.28-.69-.57-1.38-.85-2.07-1.24-2.6-2.48-5.2-3.72-7.8,0,0,.27,.1,.28,.1,1.64-.52,3.28-1.05,4.91-1.57Z"/>
  <path class="cls-23" d="M175.79,92.83c-7.22,3.16,.4,7.87-1.74,11.57-1.14-.5-2.28-1.01-3.41-1.51-2.84-4.31-5.68-8.62-8.52-12.93,4.56,.95,11.36-5.54,13.68,2.88Z"/>
  <path class="cls-5" d="M133.86,78.4c.27,.93,.54,1.87,.81,2.8-3.58-.85-7.15-1.69-10.73-2.53-.51-.08-1.03-.16-1.54-.23,.02-.47,.03-.94,.03-1.41,2.28-2.83,4.57-5.66,6.85-8.49,1.24,2.6,2.48,5.2,3.72,7.8,.28,.69,.57,1.38,.85,2.07Z"/>
  <path class="cls-31" d="M122.43,77.02c0,.47-.01,.94-.03,1.41-.41,0-.82-.06-1.21-.17,.42-.41,.83-.83,1.24-1.24Z"/>
  <path class="cls-23" d="M171.7,66.53c-.21,.4-.32,1.02-.66,1.14-.34,.11-.92-.29-1.4-.46,.21-.4,.31-1.02,.66-1.14,.34-.11,.92,.28,1.4,.46Z"/>
  <path class="cls-31" d="M133.86,78.4c-.28-.69-.57-1.38-.85-2.07,.28,.69,.57,1.38,.85,2.07Z"/>
</svg>