<?xml version="1.0" encoding="UTF-8"?>
<svg id="Capa_1" data-name="Capa 1" xmlns="http://www.w3.org/2000/svg" viewBox="0 0 516.26 302.16">
  <defs>
    <style>
      .cls-1 {
        fill: #e9ede9;
      }

      .cls-2 {
        fill: #9f897b;
      }

      .cls-3 {
        fill: #866745;
      }

      .cls-4 {
        fill: #b5b9ab;
      }

      .cls-5 {
        fill: #ccd0ca;
      }

      .cls-6 {
        fill: #d6dcd8;
      }

      .cls-7 {
        fill: #421f1d;
      }

      .cls-8 {
        fill: #981d1d;
      }

      .cls-9 {
        fill: #9a7f57;
      }

      .cls-10 {
        fill: #646166;
      }

      .cls-11 {
        fill: #5b82a2;
      }

      .cls-12 {
        fill: #396793;
      }

      .cls-13 {
        fill: #38587f;
      }

      .cls-14 {
        fill: #3a3d47;
      }

      .cls-15 {
        fill: #55272d;
      }

      .cls-16 {
        fill: #61443a;
      }
    </style>
  </defs>
  <g>
    <path class="cls-7" d="M281.58,30.9c.79-13.45-10.89-23.06-21.41-29.11-1.76-1.01-4.47,.7-3.67,2.82,2.34,6.23,6.56,11.9,13.25,13.74,2.12,.58,3.9-1.78,2.82-3.67-2.88-5.06-7.11-9.52-12.1-12.56-2.57-1.56-5.55-2.53-8.57-1.95-2.57,.49-5.16,2.34-5.69,5.03-.39,1.93,1.74,4.19,3.67,2.82s2.14-3.95,.16-5.37-4.29-.3-6.17,.78c-3.07,1.76-5.93,3.98-8.36,6.55-5.01,5.3-8.09,11.87-8.87,19.12-.52,4.77-.15,9.62-1.12,14.33-.25,1.22,.25,2.47,1.45,2.95,1.06,.43,2.6,.12,3.12-1.02,.76-1.65,1.52-3.3,2.28-4.96,1-2.18-1.1-4.73-3.42-3.42-3.98,2.24-5.74,7.67-2.97,11.55,.88,1.23,2.77,1.8,3.93,.51,2.47-2.76,3.76-6.11,4.76-9.63,.92-3.25,1.69-6.51,3.71-9.29,.72-1,.27-2.54-.64-3.23-1.03-.77-2.33-.66-3.28,.2-4.74,4.27-7.02,10.44-6.1,16.74,.3,2.08,3.71,2.47,4.57,.6,2.42-5.25,4.68-10.63,7.31-15.79,1.01-1.97,2.2-3.41,4.15-4.49s4-1.91,5.6-3.47c1.89-1.84,2.46-4.26,2.65-6.8,.12-1.63-.04-3.76,1.32-4.89s3.28,.47,4.22,1.55c1.58,1.8,2.82,3.63,4.77,5.06,1.77,1.29,3.75,2.23,5.63,3.35,.84,.5,1.58,.96,2.24,1.59s1,1.06,1.24,1.85c.93,3.07,5.75,1.76,4.82-1.33-1.34-4.43-5.68-6.3-9.36-8.45-2.11-1.24-3.5-2.68-5.01-4.62-1.76-2.26-4.03-4.09-6.99-4.34-2.68-.22-5.14,1.26-6.46,3.56s-1.18,4.75-1.48,7.28c-.27,2.33-1.69,3.26-3.64,4.28-2.32,1.21-4.52,2.37-6.17,4.47-1.98,2.52-3.13,5.63-4.47,8.52-1.56,3.39-3.12,6.77-4.69,10.16,1.52,.2,3.05,.4,4.57,.6-.65-4.51,1.53-8.91,4.82-11.87l-3.93-3.03c-2.03,2.79-3.01,6.13-3.92,9.42-.83,3-1.65,6.12-3.77,8.5l3.93,.51c-1.16-1.63-.75-3.62,1.18-4.7l-3.42-3.42c-.76,1.65-1.52,3.3-2.28,4.96l4.57,1.93c1.63-7.93,0-16.35,3.61-23.85,1.48-3.06,3.47-5.82,5.89-8.2,1.22-1.2,2.51-2.31,3.91-3.29,.75-.52,1.51-1.01,2.3-1.47,.66-.39,1.44-1.05,2.21-.95l-1.26-.34-.58-1.15,.34-1.26-.11,.21,.9-.9-.21,.15c1.22,.94,2.45,1.88,3.67,2.82,.1-.48,.28-.78,.87-1.1,.63-.34,1.33-.47,2.05-.45,2.12,.08,4.07,1.42,5.72,2.62,3.51,2.54,6.44,5.85,8.58,9.61l2.82-3.67c-4.9-1.35-8.04-5.67-9.75-10.24l-3.67,2.82c8.99,5.18,19.61,13.18,18.93,24.8-.19,3.21,4.81,3.2,5,0h0Z"/>
    <path class="cls-7" d="M246.93,5.17c-2.09,1.36-3.32,3.33-4.07,5.67-.33,1.03-.55,2.08-.81,3.13-.23,.9-.57,2.05-.86,2.57-1.08,1.97-3.16,2.98-5.01,4.35-2.42,1.81-4.16,4.05-5.3,6.84l4.82,1.33c1.84-5.93,3.95-12.3,9.42-15.82,1.13-.73,1.6-2.22,.9-3.42-.66-1.13-2.28-1.63-3.42-.9-6.64,4.28-9.47,11.57-11.71,18.81-.4,1.29,.47,2.73,1.75,3.08,1.43,.39,2.56-.49,3.08-1.75,1.86-4.54,7.36-5.58,9.68-9.76,1.01-1.82,1.43-3.85,1.94-5.85,.24-.93,.49-1.81,.78-2.37,.1-.19,.2-.37,.31-.55,.06-.1,.33-.47,.13-.22,.32-.4,.68-.68,.9-.83,1.13-.73,1.6-2.22,.9-3.42-.66-1.13-2.28-1.64-3.42-.9h0Z"/>
    <path class="cls-7" d="M242.48,13.33c-.2,1.15-.4,2.29-.6,3.44-.12,.68-.11,1.31,.25,1.93,.3,.52,.9,1.01,1.49,1.15,.64,.15,1.36,.11,1.93-.25s.98-.85,1.15-1.49c.48-1.82,.95-3.64,1.43-5.47,.17-.63,.08-1.36-.25-1.93-.3-.52-.9-1.01-1.49-1.15-.64-.15-1.36-.11-1.93,.25s-.98,.85-1.15,1.49c-.48,1.82-.95,3.64-1.43,5.47l4.82,1.33c.2-1.15,.4-2.29,.6-3.44,.12-.68,.11-1.31-.25-1.93-.3-.52-.9-1.01-1.49-1.15-.64-.15-1.36-.11-1.93,.25-.52,.33-1.04,.86-1.15,1.49h0Z"/>
    <path class="cls-16" d="M247.28,24.15c2.94-1.02,5.33-2.89,7.16-5.39,.91-1.25,1.57-2.65,2.12-4.09,.25-.66,.46-1.34,.64-2.03,.08-.33,.16-.65,.23-.98,.06-.26,.23-.47-.04-.04l-1.05,.79c-.87,.18-1.58-.11-2.12-.88,.52,1.2,2.38,1.57,3.42,.9,1.25-.81,1.45-2.13,.9-3.42s-2.26-1.73-3.52-1.42-2.1,1.46-2.39,2.67c-.18,.75-.35,1.5-.59,2.23-.13,.39-.27,.77-.41,1.15-.25,.63,.22-.46-.07,.15-.09,.18-.17,.37-.27,.55-.35,.7-.77,1.34-1.22,1.98-.11,.15-.07,.1,.12-.15-.06,.07-.11,.14-.17,.21-.1,.12-.19,.23-.29,.34-.24,.27-.5,.53-.76,.78-.13,.12-.27,.25-.41,.37-.07,.06-.14,.12-.21,.18-.14,.11-.09,.08,.14-.11,0,.14-.78,.54-.92,.62-.32,.2-.65,.37-.98,.54-.07,.03-.56,.24-.22,.11s-.35,.12-.41,.14c-1.23,.43-2.18,1.73-1.75,3.08,.39,1.22,1.75,2.21,3.08,1.75h0Z"/>
    <path class="cls-16" d="M256.41,13c3.22,0,3.22-5,0-5s-3.22,5,0,5h0Z"/>
    <path class="cls-7" d="M257.57,10.12c-.29,1.67,.13,3.18,1.42,4.34,1.06,.96,2.43,1.37,3.68,2.02,2.3,1.21,4.29,2.84,6.13,4.66s3.66,3.72,5.18,5.79,2.89,4.51,2.43,7.08c-.24,1.33,.36,2.69,1.75,3.08,1.21,.33,2.84-.41,3.08-1.75,1.11-6.22-2.76-11.14-6.71-15.46-1.77-1.93-3.62-3.76-5.7-5.36-1.09-.84-2.23-1.62-3.44-2.27-.6-.32-1.21-.59-1.82-.87-.3-.13-.61-.26-.89-.43-.68-.43-.12-.34-.26,.49,.23-1.33-.36-2.69-1.75-3.08-1.2-.33-2.84,.41-3.08,1.75h0Z"/>
    <path class="cls-7" d="M233.55,47.41c-.03-.31-.04-.6-.03-.91,.03-.3,.02-.3,0,0,.03-.15,.06-.3,.1-.44,.08-.3,.18-.59,.29-.88-.18,.45,.09-.18,.13-.27,.55-1.13,1.23-2.2,1.78-3.33,1.24-2.59,1.96-5.29,2.16-8.15,.09-1.31-1.22-2.56-2.5-2.5-1.43,.06-2.4,1.1-2.5,2.5-.02,.33-.05,.66-.09,.99,.06-.47-.09,.48-.1,.57-.11,.58-.25,1.14-.41,1.71-.19,.65-.4,1.29-.66,1.91,.15-.36-.23,.48-.27,.56-.13,.26-.26,.52-.4,.77-1.24,2.3-2.8,4.73-2.49,7.47,.15,1.29,1.04,2.57,2.5,2.5,1.23-.05,2.66-1.11,2.5-2.5h0Z"/>
    <path class="cls-7" d="M234.79,50.17c-.41-.16,.4,.19,.12,.05-.09-.04-.18-.08-.26-.12-.2-.1-.39-.2-.58-.31s-.37-.22-.55-.35c-.08-.05-.16-.11-.23-.16-.25-.17,.44,.37,.11,.09s-.63-.55-.92-.87c-.06-.07-.12-.14-.18-.21s-.33-.41-.06-.07c.25,.32,.04,.05,0-.02-.07-.09-.13-.19-.19-.28-.1-.16-.2-.32-.28-.49-.06-.12-.11-.24-.17-.35-.15-.28,.17,.47,.07,.17-.15-.45-.27-.88-.38-1.34-.07-.31,.05,.59,.01,.13,0-.1-.02-.2-.02-.31-.01-.23-.01-.46,0-.69,0-.13,.02-.26,.03-.38,.03-.35,0,.11-.03,.21,.08-.23,.1-.51,.17-.75,.34-1.26-.42-2.77-1.75-3.08s-2.71,.39-3.08,1.75c-.69,2.57-.3,5.41,1.12,7.66s3.4,3.62,5.74,4.55c.56,.22,1.42,.04,1.93-.25s1.01-.9,1.15-1.49c.15-.64,.11-1.36-.25-1.93s-.86-.9-1.49-1.15h0Z"/>
    <path class="cls-2" d="M60.85,259.15c-11.42,1.12-22.84,2.24-34.27,3.36-.79-3.36-.93-6.79-2.53-10.08-1.06-2.19-2.13-3.13-4.87-1.96-4.98,2.13-9.9,.94-14.86,.41,.77-2.59,1.76-5.35,.34-7.77-2.42-4.13-.39-5.61,4.82-5.89,1.9-.1,3.78-.44,5.67-.67,3.66-.44,6.48-.29,5.38,3.63-1.05,3.74,4.14,2.83,6.12,4.32,1.76,1.32,3.94-.66,4.8-2.5,3.93,2.4,7.39,1.58,10.56-1.17,1.92-.02,3.69-.4,5.45-1.1,4.81-1.9,9.56-.14,13.85,.76,3.83,.81,.98,4.67,1.94,6.98,1.76,4.22-4.87,7.46-2.41,11.66Z"/>
    <path class="cls-2" d="M247.8,20.62c.31-.01,.6-.09,.87-.24,.37,.26,.73,.52,1.09,.78,.29,4.53,5,3.38,7.82,4.6,2.35,1.02,4.89,2.57,3.91,4.63-.9,1.91-3.05,4.27-6.28,3.99-2.02-.18-4.02-.89-5.95-1.53-3.05-1.01-6.63-1.12-7.78,1.48-1.02,2.32-.66,5.31,3.05,7.29,3.15,1.68,8.58,2.27,6.82,8.85,5.31-5.59,9-1.38,12.25-.02,3.1,1.31,.57,4.22-.68,6.34-.39,.66-.73,1.48,.09,2.09,.79,.59,1.69,.23,2.38-.2,1.13-.69,2.18-1.48,3.23-2.27,2.28-1.72,2.93-.56,3.18,1.36-.62,1.06-1.08,2.23-1.88,3.17-2.99,3.5-4.37,8.35-10.57,9.19-2.03,.27-7.3-.32-2.9,4.01,.23,.23-.41,1.4-.94,1.91-1.74,1.7-.57,4.31-2.88,6.03-1.06,.78,.85,3.33,2,2.65,4.22-2.46,8.85-.13,13.03-1.43,1.47,2.13,2.39,4.28,.24,6.52-2.47-1.55-3.45,.47-4.82,1.55-1.98,.71-3.96,1.43-5.93,2.14-2.44-.17-4.87-.35-7.31-.52-1.62-1-3.23-2-4.85-3,1.39,3.09-.11,5.79-.46,8.52-.88-.24-1.59-.68-1.67-1.52-.9-10.03-4.7-19.72-4.5-29.87,.04-1.88-.24-3.65-2.43-4.64,.11-.57,.22-1.14,.33-1.71,2.37-.97,3.01-2.7,1.18-4.17-1.36-1.09-3.63-1.33-5.49-1.94l-1.12-1.54c.32-2.23-.43-4.67,1.05-6.65,4.49-6.03,5.01-13.38,8.74-19.65,1.37-1.49,2.74-2.98,4.11-4.48,1.28-.2,2.3-.77,3.06-1.7Z"/>
    <path class="cls-16" d="M279.96,33.86c.98,.83,1.2,1.85,1.01,2.98-2.82,2.31-6.5,2.72-10.01,3.4-3.25,.63-6.84,.33-7.99-2.65-1.02-2.62,1.99-3.8,4.53-4.6,6.19-.23,7.04-3.64,6.22-8.04,2.97,2.86,2.46,6.59,3.25,9.99,.68,.71,1.3,.7,1.87-.11,.38-.33,.75-.65,1.13-.98Z"/>
    <path class="cls-3" d="M273.71,24.96c.82,4.4-.03,7.81-6.22,8.04,.15-8.37-2.52-11.87-10.5-13.76,.13-2.16,1.47-2.14,3.47-1.77,3.68,.69,6.82,2.33,10.04,3.87,.74,.87,1.48,1.74,2.23,2.61,.32,.31,.65,.62,.97,.94,0,0,0,.07,0,.07Z"/>
    <path class="cls-16" d="M270.51,21.34c-3.22-1.54-6.36-3.17-10.04-3.87-2-.38-3.34-.39-3.47,1.77-.31,.06-.62,.13-.92,.21-.7-.03-1.41-.06-2.11-.08,1.39-2.89,1.09-5.95,1.24-8.98,.05-1.05,.32-2.26,1.96-2.24,1.28,.01,1.93,1.02,1.78,1.88-.86,4.72,3.1,5.77,6.77,7.11,2.24,.82,4.66,1.51,4.8,4.19Z"/>
    <path class="cls-3" d="M253.96,19.37c.7,.03,1.41,.06,2.11,.08-.83,2.09-2.33,1.99-4.12,.98,0-.33-.02-.65-.02-.98,.68-.03,1.35-.06,2.03-.09Z"/>
    <path class="cls-16" d="M247.8,20.62c-.75,.93-1.77,1.5-3.06,1.7,.23-1.66,.55-3.18,3.06-1.7Z"/>
    <path class="cls-16" d="M251.93,19.46c0,.33,.02,.65,.02,.98-.7-.03-1.41-.07-2.11-.1l-.31-.32c.58-.91,1.24-1.54,2.4-.56Z"/>
    <path class="cls-15" d="M229.99,45.95c-.34,.39-.69,.78-1.03,1.17-.33-.4-.66-.8-.99-1.2,.68,0,1.35,.02,2.03,.03Z"/>
    <path class="cls-15" d="M278.83,34.84c-.56,.81-1.19,.83-1.87,.11,.62-.04,1.24-.08,1.87-.11Z"/>
    <path class="cls-16" d="M249.77,21.16c-.36-.26-.73-.52-1.09-.78,.27-.16,.56-.28,.86-.37,0,0,.31,.32,.31,.32-.05,.27-.08,.55-.08,.83Z"/>
    <path class="cls-16" d="M273.7,24.89c-.32-.31-.65-.62-.97-.94,.32,.31,.65,.62,.97,.94Z"/>
    <path class="cls-14" d="M297.78,298.85c-.14-3.25-2.37-5.92-3.28-8.95,.03-.56-.26-.89-.89-1,0,0-.07-.05-.07-.05-.25-1.71-.69-3.32-2.76-4.09,.04-.18-.02-.34-.18-.46-.03-.59-.07-1.19-.1-1.78,.11-1.06,.08-2.07-1.2-2.64-.41-.63-.83-1.26-1.24-1.89,.2-1.12-.49-1.78-1.53-2.25-.14-.47-.28-.93-.42-1.4,.38-3.9-3.86-6.01-4.77-9.41,1.08-1.14,.57-2.24-.07-3.36-3.11-5.49-5.65-11.16-6.95-17.22,1.87-3.01,2.67-6.68,6.71-8.35,3.9,6.04,7.8,12.07,11.71,18.11,1.22,4.43,3.6,8.41,6.37,12.22,1.41,7.98,6.39,14.85,9.51,22.29,1.81,4.32,1.91,7.7-1.05,10.76-2.95,3.05-6.58,.92-9.78-.53Zm1.25-12.92c4.65-.06,2.06-2.57,1.64-4.08-.59-2.14-2.7-2.54-4.49-1.54-2.54,1.42-.81,2.78,.69,3.94,.03,1.24,.73,1.82,2.15,1.68Z"/>
    <path class="cls-12" d="M293.62,288.9c.63,.1,.92,.44,.89,1-.3-.33-.59-.66-.89-1Z"/>
    <path class="cls-1" d="M301.87,89.82c.04,.56,.08,1.12,.12,1.69-3.54,1.52-1.3,4.4-1.82,6.58-.79,3.32-1.67,5.33-6.01,3.36-1.26-.57-3.18-.99-3.34,.7-.28,2.87-2.43,5.02-3.14,7.63-2.59,9.5-2.89,19.46-7.67,28.55-1.86,3.53-.35,7.59-1.47,11.25-1.13,3.72-.61,6.89,2.63,9.59,0,1.23,.02,2.46,.03,3.69-1.08,2.12-2.17,4.24-3.25,6.36-3.81-.35-6.68,.32-6.39,4.47-3.18,2.39-6.29,4.53-10.03,.52-.52-.56-2.26-.25-3.44-.34-2.32-2.49,.32-5.96-2.18-8.41,2.36-3.04,3.51-6.19,1.17-9.66,1.81-1.05,.12-2.09,0-3.13,1.59-3.38,3.99-6.08,4.73-10.26,1.45-8.14,4.34-16.29,8.37-24.01,2.01-3.85,4.29-7.79,4.84-12.17,3.62-1.78,5.41-4.75,7.18-7.89,1.99-3.52,2.35-8.41,8.64-8.89,1.44-.11,1.08-1.31,.5-2.12-.86-1.22-.93-2.55-.85-3.91,3.17,.81,5.6,2.73,8.3,4.25,1.03,.72,2.05,1.43,3.08,2.15Z"/>
    <path class="cls-2" d="M443.43,257.61c-.58,.03-1.16,.06-1.74,.09-.1-.57-.19-1.14-.29-1.71,1.94-3.11,1.05-6.54,1.4-9.83,2.84-2.4,1.3-5.48,1.69-8.26,2.15,.07,4.31,.14,6.46,.21,1.08-.06,2.16-.13,3.24-.19,.87,.08,1.75,.17,2.62,.25,.08,.29,.2,.56,.38,.81,.28,.76,.8,1.32,1.75,1.43,4.89,.6,9.78,1.2,14.67,1.8,7.68-.26,12.98-4.63,18.66-8.33,1.48-.96,2.48-2.54,4.6-2.63,.41,.04,.81,.09,1.22,.13-.68,2.82-3.53,4.97-2.72,8.37,.37,1.57-2.17,1.76-3.67,1.49-6.52-1.21-11.48,2.56-17.11,4.09-2.27,.62-3.4,2.68-.74,4.11,4.78,2.57,1.52,3.43-.98,4.6-1.7-.06-3.4-.12-5.1-.17-3.18-3.29-16.18-4.38-20.84-1.75-3.02,.93-2.4,3.62-3.47,5.49Z"/>
    <path class="cls-10" d="M467.75,253.87c1.7,.06,3.4,.12,5.1,.17,3.14,2.02,6.24,.74,9.34-.09,4.77-.34,8.85-2.46,12.83-4.4,7.47-3.64,8.5-5.42,9.52-11.88,.12-.76,1.33-1.34,1.76-2.12,1.4-2.49,4.58-5.24,2.29-7.78-1.97-2.19-1.4-4.09-1.54-6.21,8.82,4.33,12.34,16.59,5.89,22.75-2.83,2.7-6.55,5.15-10.83,6.43-3.19-.5-3.77,2.05-5.3,3.49-6.23-2.54-11,2.49-16.77,2.5-.95,0-1.99,1.04-2.84,.91-10.99-1.74-21.9,.93-32.86,.38-.31-.02-.61-.26-.92-.4,1.07-1.87,.45-4.57,3.47-5.49-.06,1.78,.62,3.17,2.93,2.65,5.92-1.34,11.98-.14,17.91-.9Z"/>
    <path class="cls-3" d="M507.06,221.56c.14,2.12-.43,4.02,1.54,6.21,2.28,2.54-.89,5.29-2.29,7.78-.44,.78-1.64,1.36-1.76,2.12-1.02,6.46-2.05,8.23-9.52,11.88-3.98,1.94-8.05,4.06-12.83,4.4,2.15-2.34,5.01-3.81,7.76-5.54,4.5-2.83,9.05-6.09,11.33-10.72,1.24-2.52,2.21-5.91-3.19-6.3-.41-.04-.81-.09-1.22-.13,1.74-3.11,3.39-6.24,3.29-9.82,.62-.1,1.24-.19,1.87-.29,1.68,.14,3.36,.28,5.04,.42Z"/>
    <path class="cls-1" d="M177.75,124.46c5.25-10.37,9.86-20.99,16.91-30.62,1.92-2.63,5.33-4.39,5.93-7.77,1.76-1.33,3.08-3.16,5.47-3.79,3.56-.2,7.72-1.83,8.84,3.28,.27,1.24,2.09,.64,3.1,1,3.01,1.07,2.47,3.64,2.64,5.82,.06,.83-.1,2.47-1.15,2.06-5.4-2.12-4.33,2.72-5.46,4.25-1.69,2.29,1.67,5.24,4.79,4.36,1.89-.53,3.19-.17,3.97,1.1,1.04,1.69,2.64,2.53,4.4,3.54,4.97,2.87,9.16,6.03,9.95,12.07,.52,3.99,1.49,8.35,4.43,11.89-.09,.66-.17,1.31-.26,1.97-2.76,2.26-3.84,5.36-3.39,8.31,.66,4.23-.62,8.13-1.26,12.16-.68,4.25-.99,8.6-.08,12.72,1.01,4.54-.02,8.26-2.38,12.2-1.65,2.76-2.85,6.04-1.49,9.2,.96,2.25,1.38,3.98-1.12,5.59-2.46,1.58-4-.05-6.04-.87-6.06-2.44-10.41-5.24-7.24-12.06,.99-2.12-.32-5.32-3.13-5.3-2.83,.02-1.68,3.13-1.81,4.94-.32,4.34-2.24,5.62-7.05,4.42-1-.25-1.96-.62-2.94-.92-.94-.29-1.95-1.05-2.88-.29-1.09,.9-.52,1.98,.09,2.92,2.6,4,5.14,8.06,9.24,11.06,1.55,1.13,1.23,2.16,.15,3.05-4.44,3.68-1.18,5.31,2.26,7,2.12,1.04,4.17,2.22,5.32,4.2,.7,1.2,1.74,2.05,3.24,1.92,4.86-.41,6.24,2.4,7.2,5.7-.43,.85-1.16,1.42-2.16,1.72-.97,.09-1.67,.46-1.9,1.35-3.26,3.28-7.67,5.26-11.53,7.86-1.27,.39-2.84,.49-3.76,1.22-5.45,4.37-12.01,7.25-18.2,10.63-2.28-.12-4.27,.16-4.18,2.74,.08,2.45-.99,5.39,2.99,6.4,2.47,.63,5.01,1.02,7.47,1.67,1.72,.45,3.52,1.1,1.67,3.12-2.04-.15-4.12-.16-5.9-1.26-.67-.74-1.4-.81-2.19-.14-.74,.32-1.47,.64-2.21,.96-1.71,.04-3.12,.56-4.05,1.89-7.12,.63-13.72-3-20.93-1.97-1.28,.18-2.05-1.02-2.62-1.98-1.97-3.36-5.17-3.46-8.4-2.03-4.34,1.91-8.92,2.6-13.57,2.32-8.93-.53-17.85-1.32-26.6-3.12-1.49-.31-3.6-1.03-4.13,.54-.69,2.06,1.93,1.4,3.14,1.93,1.39,.61,2.75,1.28,4.12,1.92,1.73,.81,4.64,.41,4.84,2.8,.21,2.53-3.15,1.87-4.46,3.15-2.81-.07-5.62-.13-8.44-.2-.32-1.12-1.04-1.97-2.37-2.18-6.11-1.01-12.32-1.55-18.22-3.5-2.49-.82-3.72,.74-3.18,2.75,.95,3.53-1.54,3.22-4.1,3.31-3.38,.11-6.22-2.63-9.54-1.68-5.07,1.44-9.08,.49-12.4-3.07-.66-1.73-1.87-3.01-3.91-3.58-3.57-5.38-7.14-10.75-10.71-16.13,9.19-3.42,18.59-6.53,28.35-8.15,10.41-1.73,19.8-5.74,29.72-8.54,3.16-.9,6.62-1.03,9.48-2.73,.7-.11,1.39-.21,2.09-.32,5.31-.42,10.56-1.13,15.55-2.88,6.06-2.12,11.97-4.93,18.56-.91,2.33,1.42,4.46-.94,6.72-1.43,1.97-.43,3.84-1.23,5.75-1.87,1.5,.07,2.94,.06,3.39-1.59,.69-.38,1.39-.76,2.08-1.13,.53,.81,1.39,1.92,2.26,1.6,4.73-1.77,7.1,1.55,10.22,3.33,2.26,1.28,2.14,3.99,4.73,5.77,1.22-3.89,1.1-9.16-.59-10.38-2.87-2.07-1.52-3.86-1.98-5.75-1.38-6.12-2.48-12.26-2.26-18.53,.03-.9,.01-1.9-.38-2.69-7.92-15.84-4.76-31.62,.05-47.45,.87-2.87,2.1-5.78,1.41-8.88Zm27.96,9.33c-.99-4.94,.18-10.07-1.69-14.93,1.06-2.91,1.22-5.7-1.06-8.25-4.08,5.34-1.37,12.33-6.58,17.17-.91,.84-.55,2.27-.48,3.51,.17,2.92,.05,5.86,.05,8.81-1.65,.2-1.91-1.19-2.85-1.75-1.83-1.08-3.14-.12-2.48,1.18,2.18,4.35,1.61,10.17,8.08,12.35,.76,1.19,1.76,2.17,3.23,2.72,.1,1.35-.45,2.51-1.32,3.59-.84-.13-1.78-.11-2.51-.43-1.44-.64-2.71-1.43-3.99,.24-1,1.3-1.68,2.46-1.12,4.19,1.87,5.68,5.21,10.8,7.71,16.23,.45,.97,.73,2.23,2.29,2.09,1.83-.16,1.96-1.56,1.97-2.77,.04-4.1-.01-8.2-.03-12.3,1.99-4.44,3.63-9.15,1.36-13.63-2.03-4-2.7-7.58-1.01-11.74,.77-1.9,.33-4.18,.44-6.28Zm-27.18,98.23c-.76,3.32,1.48,5.85,4.49,5.79,2.58-.05,2.88-3.12,2.45-5.58-.39-2.22-.28-4.52-.32-6.78-.05-2.9-1.43-4.12-4.89-3.56-1.71,.28-4.75,1.72-3.84-2.21,.22-.96-1.44-1.05-2.39-.42-2.08,1.38-2.59,2.7-.81,4.91,1.98,2.46,5.59,4.19,5.31,7.84Z"/>
    <path class="cls-6" d="M178.95,202.02c.46,1.89-.89,3.67,1.98,5.75,1.69,1.22,1.81,6.49,.59,10.38-2.58-1.78-2.46-4.49-4.73-5.77-3.13-1.77-5.5-5.1-10.22-3.33-.86,.32-1.73-.79-2.26-1.6,4.04-3.55,9.56-4.02,14.63-5.43Z"/>
    <path class="cls-6" d="M162.23,208.59c-.44,1.65-1.89,1.66-3.39,1.59,.83-1.02,1.94-1.58,3.39-1.59Z"/>
    <path class="cls-14" d="M226.97,65.94c1.68-3.77,6.17-1.96,8.98-3.47,2.18,.99,2.46,2.76,2.42,4.64-.2,10.15,3.6,19.85,4.5,29.87,.08,.84,.79,1.28,1.67,1.52-.22,.69-.44,1.38-.65,2.07-.3,1.19,.52,1.68,1.63,1.97,2.08,7.96,4.15,15.93,6.23,23.89,.5-.03,1-.05,1.49-.08,1.9-3.15,3.2-6.5,3.84-10.07,.19-.47,.39-.93,.58-1.4,.98-.91,1.43-1.99,1.31-3.24,1.18-3.08,2.35-6.16,3.53-9.23,.78-.32,.92-.88,.78-1.55,1.55-3.68,3.09-7.37,4.64-11.05,2.15-2.23,1.23-4.38-.24-6.52,.48-2.73,1.9-5.17,3.19-7.64,.76-1.47,1.21-2.67-.47-4.04-3.37-2.73-2.33-5.24,.94-7.44l.34,.15c5.26,4.64,6.99,11.2,11.54,16.23-.21,.78-.43,1.56-.64,2.33v.07c-.78,2.77-1.52,5.55-2.33,8.31-1.5,5.05-4.59,9.68-5.21,14.97-.55,4.37-2.83,8.32-4.84,12.17-4.03,7.72-6.92,15.87-8.37,24.01-.74,4.18-3.14,6.87-4.73,10.26-3.63-4.2-8.56-4.01-13.7-3.09-.49-2,1.27-4.48-1.68-5.94-.12-3.34-.24-6.67-.37-10.01,.09-.66,.17-1.31,.26-1.97,.31-6.05-2.89-11.43-4.25-17.16-.75-3.18-1.34-6.07-6.49-6.96-2.01-.35,.6-6.1-3.1-8.31-.7-.42-1.16-1.36-1.88-1.51-3.59-.72-3.26-2.33-2.1-4.81,2.38-5.07-1.43-12.39-6.56-13.22-.21-6.47,5.18-9.89,9.76-13.75Z"/>
    <path class="cls-5" d="M275.01,106.23c.63-5.29,3.72-9.91,5.21-14.97,.82-2.76,1.55-5.54,2.33-8.31,0,0,0-.07,0-.07,.21-.78,.43-1.56,.64-2.33,2.33,1.16,4.07,3.46,7.3,2.86-.09,1.37-.02,2.69,.85,3.91,.57,.81,.94,2.01-.5,2.12-6.29,.48-6.65,5.37-8.64,8.89-1.77,3.14-3.56,6.11-7.18,7.89Z"/>
    <path class="cls-4" d="M42.62,237.01c3.57,5.38,7.14,10.75,10.7,16.13-.13,.89-.26,1.78-.39,2.68-3.87,.04-7.75,.05-11.62,.15-1.56,.04-3.55-.51-4.06,1.63-1.12,.32-2.45,1.14-3.34,.87-7.58-2.29-15.07-.8-22.59,.1-1.83-.78-3.69-2.5-2.12-3.64,1.76-1.28,1.35-5.05,5.16-3.96,4,1.14,4.45-.85,4.36-3.49-.05-1.36-.21-2.74-.12-4.09,.25-3.73-1.1-5.31-5.68-3.96-2.68,.79-5.47-.17-8.11-.95-.25-5.11,.57-10.27-.9-15.32,3.98-2.47,7.58,1.38,11.47,.53,2.11,4.35,4.37,8.62,8.34,11.97,5.98,3.91,12.41,3.04,18.91,1.35Zm-19.75,13.16c2.36-3.98,4.97-2.09,7.06-.98,1.82,.97,3.14,2.37,5.31,.7,2.29-1.76,2.23-3.94,1.61-6.24-.52-1.9-1.49-3.36-4.14-3.26-3.32,.13-6.53-.15-9.34-1.99-.44-.29-1.35-.34-1.87-.15-.72,.27-.81,1.22-.3,1.52,4.48,2.64,1.36,6.32,1.68,10.39Z"/>
    <path class="cls-6" d="M57.24,256.73c3.31,3.56,7.32,4.51,12.4,3.07,3.32-.94,6.16,1.79,9.54,1.68,2.56-.08,5.05,.22,4.1-3.31-.54-2.01,.69-3.57,3.18-2.75,5.91,1.95,12.11,2.49,18.22,3.5,1.32,.22,2.05,1.06,2.37,2.18-1.45,1.03-1.03,2.54-1.31,3.88-5.8,0-11.6,0-17.4,0-9.39-.13-18.82-1.1-28.12,.95,.36-3.58-4.15-4.32-5.32-7.01,1.26-.15,2.17-.57,1.97-1.89l.37-.3Z"/>
    <path class="cls-2" d="M15.37,223.69c-3.88,.85-7.49-3-11.47-.53-2.15-5.24,.27-8.94,5.16-11.84,.56-.33,1.1-.78,1.43-1.29,1.57-2.4,3.92-4.87,6.8-2.79,2.31,1.67,3,5.04,1.33,7.91-1.58,2.72-2.41,5.63-3.25,8.55Z"/>
    <path class="cls-9" d="M249.77,21.16c0-.28,.02-.56,.08-.83,.7,.03,1.41,.07,2.11,.1,1.79,1.02,3.29,1.11,4.12-.98,.3-.08,.61-.15,.92-.21,7.98,1.89,10.65,5.39,10.5,13.76-2.54,.79-5.55,1.97-4.53,4.59,1.15,2.97,4.74,3.28,7.99,2.65,3.51-.68,7.2-1.1,10.01-3.4,.25,5.11,.22,10.16-3.49,14.55-1.83,1.07-1.72,2.76-1.8,4.38-.71,.66-1.42,1.33-2.13,1.99-.58,0-1.16,0-1.74,.01-.24-1.92-.9-3.07-3.18-1.36-1.05,.79-2.1,1.58-3.23,2.27-.69,.42-1.59,.79-2.38,.2-.82-.61-.48-1.43-.09-2.09,1.24-2.12,3.78-5.03,.68-6.34-3.25-1.37-6.94-5.57-12.25,.02,1.76-6.58-3.67-7.16-6.82-8.85-3.71-1.98-4.08-4.97-3.05-7.29,1.15-2.6,4.73-2.48,7.78-1.48,1.94,.64,3.93,1.35,5.95,1.53,3.23,.28,5.38-2.09,6.28-3.99,.98-2.06-1.57-3.61-3.91-4.63-2.82-1.22-7.53-.07-7.82-4.6Z"/>
    <path class="cls-5" d="M262.49,102.42c-1.18,3.08-2.35,6.16-3.53,9.23-1.96,.61-1.87,1.85-1.31,3.24-.19,.47-.39,.93-.58,1.4-3.28-.4-4.79-1.96-3.3-4.7,.97-1.78,.23-2.49-1.05-3.81-4.94-5.13-7.81-10.99-2.88-14.79,2.44,.17,4.87,.35,7.3,.52,2.89,1.23,5.06,.93,5.93-2.14,1.37-1.07,2.35-3.09,4.82-1.55-1.55,3.68-3.09,7.37-4.64,11.05-.62,.38-.96,.87-.78,1.55Z"/>
    <path class="cls-3" d="M271.8,57.77c.58,0,1.16,0,1.74-.01,.06,.31,.02,.6-.14,.88-.39,.33-.77,.66-1.16,.99-.3,1.52-.6,3.03-.91,4.55-3.28,2.2-4.32,4.71-.94,7.44,1.69,1.37,1.24,2.57,.47,4.04-1.28,2.47-2.71,4.91-3.19,7.64-4.18,1.3-8.81-1.03-13.03,1.43-1.16,.67-3.06-1.87-2-2.65,2.31-1.71,1.13-4.33,2.88-6.03,.52-.51,1.17-1.68,.94-1.91-4.39-4.33,.88-3.74,2.9-4.01,6.2-.84,7.58-5.69,10.57-9.19,.8-.94,1.26-2.11,1.88-3.17Z"/>
    <path class="cls-4" d="M249.85,92.99c-4.93,3.81-2.06,9.66,2.88,14.79,1.28,1.33,2.02,2.04,1.05,3.81-1.5,2.74,.02,4.3,3.3,4.7-.64,3.57-1.94,6.92-3.84,10.07-.5,.03-1,.05-1.49,.08-2.08-7.96-4.15-15.93-6.23-23.89,.2-1.13-.34-1.79-1.63-1.97,.22-.69,.43-1.38,.65-2.07,.35-2.73,1.85-5.43,.46-8.52,1.62,1,3.23,2,4.85,3Z"/>
    <path class="cls-4" d="M263.09,91.36c-.87,3.07-3.04,3.37-5.93,2.14,1.98-.71,3.96-1.43,5.93-2.14Z"/>
    <path class="cls-6" d="M305.13,261.5c-1.63,.36-2.18,1.35-2.06,2.72-.96,1.23-2.4,1.77-3.97,2.11-2.76-3.81-5.14-7.79-6.37-12.22,3.4-1.76,6.63-4.01,10.99-2.08,1.19,.53,2.29-.33,3.35-.86,3.34-1.64,7-2.58,10.6-3.67,1.55-.47,4.41,.16,4.33-2.29-.06-1.88-1.84-2.71-3.98-2.97-2.55-.31-2.94-1.34-1-2.96,1.01-.85,3.22-1.74,1.25-3.18-4.77-3.49-1.06-7.76-.61-11.08,.68-4.99,6.79-7.37,12.15-7.63,3.29-.16,7.64-1.27,10.61,1.9,3.1,3.31,5.69,2.71,7.41-1.59,2.89-.72,5.49,.08,8.35,.61,4.4,.81,8.46,4.24,13.44,1.95,1.43,.32,2.86,.64,4.3,.96-.21,1.94,1.22,2.37,2.97,3.05,4.68,1.8,9.02,4.25,14.2,5.03,1.65,.25,3.2,1.47,1.87,2.93-3.17,3.5-7.06,6.36-11.72,8.29-6.53,2.71-13.33,4.99-19.57,8.14-7.58,3.83-15.38,5.76-24.15,5.61-4.66-.08-9.6-.07-13.92,2.21-.46-.09-.91-.17-1.37-.26-2.69-.37-5.36-.87-8.06-1.07-4.53-.33-7.94,1.02-9.12,5.26,.02,.36,.03,.73,.05,1.09Zm78.46-27.88c.82-.34,1.3-.72,1.07-1.38-.06-.18-.5-.4-.74-.38-.71,.06-1.21,.47-1.13,1.1,.03,.26,.55,.47,.79,.66Z"/>
    <path class="cls-2" d="M212.43,230.5c3.86-2.6,8.27-4.58,11.53-7.86,.63-.45,1.27-.9,1.9-1.34,1-.3,1.73-.86,2.16-1.72,1.58-1.29,4.96-.64,5-3.58,1.14,.2,1.76,.84,2.13,1.77,3.13,8.07,8.39,10.16,17.02,7.12,1.96-.69,2.28-3.3,4.22-2.99,4.58,.71,7.88-1.97,11.83-2.82,.71,.19,1.43,.38,2.15,.57,3.35,3.61,6.7,7.22,10.05,10.82-2.69,2.1,1.31,3.61,.63,5.53-4.04,1.67-4.84,5.34-6.71,8.35-.77,.58-2.09,.66-2.15-.06-.35-4.05-3.75-3.55-6.74-3.73-3.7-3.45-6.71-7.5-11.48-9.99-10.22,1.7-12.99,11.05-20.61,15.42-.4,1.17-.8,2.35-1.2,3.52-2.42,.18-2.08-1.31-2.25-2.67-.46-3.89-4.34-6.25-8.77-5.44-3.68-3.15-8.22-5.77-8.7-10.89Z"/>
    <path class="cls-5" d="M281.03,236.01c.68-1.92-3.32-3.44-.63-5.53,3.62,4.01,7.22,8.04,10.86,12.04,2.25,2.47,4.29,3.21,6.87,.03,5.09-6.28,10.45-12.38,15.76-18.52,1.74-2.01,.8-2.66-1.57-2.74-1.57-.05-3.04,.15-4.51,.79-4.79,2.08-9.66,3.97-12.66,8.23-.74,1.05-2.22,2.41-3.86,1.23-1.37-.98-1.08-2.68-.05-3.74,1.99-2.05,2.65-4.1,1.59-6.69-.48-1.17,.58-3.31,1.41-2.8,3.03,1.88,6.27,.5,8.89,1.06,3.9,.83,3.68-.55,4.04-2.58,4.02-3.25,11.1-3.28,12.58-9.2,2.95-2.57,2.94-5.88,2.99-9.17,.01-.6,.03-1.2,.04-1.8,1.97-2.66,.74-5.62,1.05-8.44,.23-2.12,.04-4.36,3.02-5.23,.37,6.98-2.27,13.67-2.63,20.59-.07,1.13-.15,2.27-.22,3.4-1.4,1.47-.67,2.68,.94,3.29,6.63,2.53,13.31,4.95,20.02,7.32,.7,.25,1.69-.13,2.54-.22,.12,.13,.23,.25,.35,.37-1.72,4.3-4.3,4.91-7.41,1.59-2.97-3.17-7.32-2.06-10.61-1.9-5.36,.27-11.47,2.65-12.15,7.63-.45,3.33-4.16,7.59,.61,11.08,1.97,1.44-.24,2.33-1.25,3.18-1.94,1.62-1.56,2.65,1,2.96,2.14,.26,3.92,1.09,3.98,2.97,.08,2.45-2.78,1.82-4.33,2.29-3.6,1.1-7.25,2.03-10.6,3.67-1.06,.52-2.17,1.38-3.35,.86-4.37-1.93-7.6,.32-10.99,2.08-3.9-6.04-7.8-12.07-11.71-18.11Z"/>
    <path class="cls-4" d="M265.43,240.56c2.99,.19,6.39-.31,6.74,3.73,.06,.72,1.39,.64,2.15,.06,1.3,6.05,3.85,11.72,6.95,17.22,.63,1.12,1.15,2.23,.06,3.36-.69-.03-1.38-.09-2.06-.09-11.6-.15-23.12-1.2-34.59-2.66-6.35-.81-13.46-.97-16.66-.08-1.3-1.45-2.77-2.5-1.54-4.96,1.27-2.54,3.16-2.12,5.26-2.14,4.78,1.88,9.6,3.63,15.04,2.94,8.51,1.01,16.41,4.37,25.01,5.04,2.32,.18,5.15,1.45,6.7-.61,1.3-1.74-.67-3.67-1.55-5.42-.2-.4-.62-.72-.94-1.07-2.56-5.62-7.07-10.2-10.57-15.33Z"/>
    <path class="cls-9" d="M296.88,284.24c-1.5-1.16-3.23-2.52-.69-3.94,1.79-1,3.9-.6,4.49,1.54,.42,1.52,3.01,4.02-1.64,4.08-.41-.86-1.06-1.49-2.15-1.68Z"/>
    <path class="cls-10" d="M296.88,284.24c1.09,.2,1.74,.83,2.15,1.68-1.42,.13-2.12-.45-2.15-1.68Z"/>
    <path class="cls-13" d="M288.06,277.99c-1.23-.38-1.68-1.15-1.53-2.25,1.04,.47,1.73,1.13,1.53,2.25Z"/>
    <path class="cls-13" d="M290.5,282.52c-.91-.7-1.14-1.64-1.2-2.64,1.28,.57,1.31,1.59,1.2,2.64Z"/>
    <path class="cls-14" d="M228.02,262.11c-.63,1.62-1.27,3.24-1.9,4.87-1.32,9.11,.35,18.25-.31,27.37-3.25,1.93-7.08-.64-10.41,1.84h10.36c.48,2.5-.64,4.32-3.09,5.58-2.43,.94-4.81-.04-7.21-.18-2.83-1.82-2.25-4.9-3.5-7.3-.02-1.78-.03-3.57-.05-5.35,.03-.61,.07-1.23,.1-1.84,.39-7.98,1.13-15.97-1.28-23.83,1.61-1.2,4.29-1.75,3.44-4.42,.03-.7,.06-1.4,.1-2.09,.21-.2,.22-.41,.02-.63,1.29-3.34,3.06-6.55,3.55-10.11,1.1-1.54,2.19-3.09,3.29-4.63,4.42-.81,8.3,1.55,8.77,5.44,.16,1.36-.17,2.85,2.25,2.67-.13,1.84-.27,3.67-.4,5.51-2.1,.02-3.98-.4-5.26,2.14-1.23,2.46,.24,3.51,1.54,4.96Zm-6.16,22.36c-2.08,.19-3.94-1.69-6.08-.47-.16,.09-.06,.99,.2,1.14,1.96,1.11,3.97,1.67,5.88-.67Zm-.82,5.28c-1.7-1.13-3.09-1.38-4.53-.63-.22,.12-.3,.94-.13,1.05,1.46,.94,2.94,1.09,4.66-.42Z"/>
    <path class="cls-10" d="M225.76,296.18h-10.36c3.33-2.48,7.16,.1,10.41-1.84-.02,.61-.04,1.22-.06,1.84Z"/>
    <path class="cls-6" d="M326.84,182.94c-2.98,.87-2.8,3.11-3.02,5.23-.3,2.82,.93,5.78-1.05,8.44-1.47-.69-2.4-1.84-2.7-3.18-.82-3.67-2.68-3.11-5.83-1.83-2.81,1.14-4.37,3.33-6.88,4.65-2.29,1.2-4.9,2.67-6.07,4.61-1.43,2.38,.91,4.49,2.88,6.26,.21,.19,.4,.65,.28,.82-2.61,3.78,1.22,6.03,2.7,8.83-.36,2.04-.13,3.42-4.04,2.58-2.62-.56-5.86,.81-8.89-1.06-.83-.51-1.89,1.63-1.41,2.8,1.07,2.59,.4,4.64-1.59,6.69-1.03,1.06-1.32,2.76,.05,3.74,1.65,1.17,3.12-.18,3.86-1.23,3-4.25,7.87-6.15,12.66-8.23,1.47-.64,2.94-.84,4.51-.79,2.38,.08,3.31,.73,1.57,2.74-5.31,6.14-10.67,12.24-15.76,18.52-2.57,3.18-4.62,2.44-6.87-.03-3.64-4-7.24-8.02-10.86-12.04-3.35-3.61-6.7-7.21-10.04-10.82,.17-4.35,2.94-7.1,6.8-9.62,3.68-2.41,8.45-3.51,11.18-7.05,4.12-1.82,7.23-.03,10.11,2.71,.77-2.81-.06-4.71-2.09-6.15-2.51-1.78-2.77-3.74-1.73-6.39,1.62-4.11,.92-4.59-4.27-3.74h-.05c.19-3.22-1.94-5.7-3.65-8.23-2.76-4.07-6.76-7.44-8.72-11.96,1.08-2.12,2.17-4.24,3.25-6.36,.86,.87,.8,1.95,.98,3,.44,2.6,.75,5.52,4.78,2.13,.8-.68,2.57-.67,2.7,.15,.57,3.69,4.47,4.77,6.68,7.14,1.66,1.78,1.99,3.82-.12,5.76-.77,.71-3.06,1.21-1.23,2.73,1.49,1.23,2.85,.38,4.06-.64,2.99-2.55,6.55-4.38,9.99-6.4,5.4-3.17,11.24-6.15,13.9-11.88,.4-.86,.97-1.68,.51-2.59-.47-.91-1.28-.69-2.16-.37-4.46,1.65-5.07,.09-5.02-3.71,.08-5.65,1.67-12.35-7.76-14.38-1.58-.34-1.4-2.31-1.36-3.67,.2-6.13-2.21-12.13-1.08-18.3,.08-.44-.03-.91-.05-1.36-.11-2.33-2.2-2.54-4.07-2.68-2.51-.2-1.84,1.64-2.11,2.88-.59,2.65,1.84,5.16,1.22,7.44-2.19,8-.93,16.28-3.32,24.12,1.57,.68,3.13-1.97,3.68-.09,.96,3.32,3.42,6.42,2.43,10.1-.4,1.49-2,3.08-3.09,1.74-1.87-2.3-5.71-3.37-6.03-6.4-.42-3.9-3.55-5.3-6.78-6.75-2.77-1.25-4.74-.91-4.78,2.34-.02,2.17-.53,4.22-1.99,6.03-3.25-2.7-3.77-5.87-2.63-9.59,1.12-3.66-.39-7.73,1.47-11.25,4.78-9.09,5.08-19.04,7.67-28.55,.71-2.6,2.87-4.75,3.14-7.63,.16-1.69,2.08-1.27,3.34-.7,4.34,1.97,5.22-.04,6.01-3.36,.52-2.18-1.72-5.06,1.82-6.58,4.71,3.73,5.44,9.31,8.3,13.9,1.53,2.45,2.25,5.3,3.34,7.96,.42,4.2,1.84,8.41,3.52,12.1,4.6,10.09,7.55,20.56,11.1,30.9,1.14,3.32,2.51,6.63,1.04,10.16-1.53,1.06-1.52,2.23-.34,3.49-.45,2.79-.9,5.57-1.35,8.36-1.44,.45-1.56,1.06-.3,1.85-.16,.91-.31,1.81-.47,2.72Zm-30.22-62.29c.17-3.13-.32-5.01-2.83-5.88-1.23-.42-2.54-.3-3.01,.99-2.31,6.42-2.59,13.12-3.28,19.75-.09,.89,.4,1.91,1.68,1.93,.52,0,1.41-.55,1.52-.97,1.51-5.75,3.87-11.26,5.92-15.82Z"/>
    <path class="cls-6" d="M233.02,216c-.04,2.94-3.42,2.3-5,3.58-.95-3.3-2.34-6.11-7.2-5.7-1.5,.13-2.54-.73-3.24-1.92-1.16-1.98-3.2-3.16-5.32-4.2-3.44-1.69-6.7-3.32-2.26-7,1.08-.89,1.4-1.92-.15-3.05-4.1-3-6.64-7.06-9.24-11.06-.61-.95-1.18-2.02-.09-2.92,.93-.77,1.94,0,2.88,.29,.98,.3,1.94,.67,2.94,.92,4.81,1.2,6.74-.08,7.05-4.42,.13-1.81-1.02-4.92,1.81-4.94,2.81-.02,4.12,3.17,3.13,5.3-3.17,6.82,1.18,9.62,7.24,12.06,2.04,.82,3.58,2.45,6.04,.87,2.5-1.61,2.08-3.34,1.12-5.59-1.35-3.16-.16-6.44,1.49-9.2,2.36-3.94,3.39-7.66,2.38-12.2-.92-4.12-.61-8.48,.08-12.72,.65-4.03,1.92-7.92,1.26-12.16-.46-2.95,.63-6.05,3.39-8.31,.12,3.34,.24,6.67,.37,10.01-.47,5.08-3.71,9.86-2.11,15.16-.04,1.74,.5,3.21,2.43,4.04,1.67,2.05,3.29,4.12,5.61,5.68,2.93,5.23,7.59,9.3,11.87,13.62,.22,.22,.56,.35,.86,.5,.71,.39,1.46,1.02,2.29,.38,.81-.63,.32-1.39-.11-2.05-1.53-2.35-3.86-4.3-4.44-7.1,1.18,.09,2.92-.22,3.44,.34,3.74,4.01,6.85,1.87,10.03-.52,.12,6.07-.17,12.18,.53,18.2,.34,2.95-.69,3.67-3.43,4.3-6.95,1.59-7.19,2.09-4.93,8.09l-.06,.18c-6.08,.49-11.62-.41-15.8-4.86-2.44,6.24-3.99,7.08-10.61,5.81-2.71-.52-3.74-3.68-6.96-3.44-.39-.03-.78-.06-1.17-.09-4-3.2-8.82-5.39-13.18-8.15-1.63-1.03-2.35-.16-2.54,.87-.66,3.65-.43,7.53,3.02,9.84,2.44,1.64,4.63,3.49,7.01,5.15,1.92,3.6,6.93,3.66,9.59,6.41Z"/>
    <path class="cls-5" d="M281.17,159.16c1.45-1.81,1.96-3.86,1.99-6.03,.04-3.24,2.01-3.58,4.78-2.34,3.22,1.45,6.36,2.85,6.78,6.75,.32,3.03,4.16,4.1,6.03,6.4,1.09,1.34,2.69-.24,3.09-1.74,.99-3.67-1.47-6.78-2.43-10.1-.54-1.87-2.11,.78-3.68,.09,2.39-7.84,1.13-16.11,3.32-24.12,.62-2.28-1.81-4.79-1.22-7.44,.28-1.24-.4-3.08,2.11-2.88,1.87,.14,3.95,.35,4.07,2.68,.02,.46,.13,.92,.05,1.36-1.12,6.17,1.28,12.18,1.08,18.3-.04,1.36-.22,3.33,1.36,3.67,9.43,2.03,7.84,8.73,7.76,14.38-.05,3.8,.56,5.36,5.02,3.71,.88-.33,1.7-.54,2.16,.37,.47,.91-.11,1.73-.51,2.59-2.66,5.73-8.51,8.72-13.9,11.88-3.45,2.02-7,3.86-9.99,6.4-1.21,1.03-2.57,1.87-4.06,.64-1.84-1.52,.46-2.02,1.23-2.73,2.11-1.94,1.78-3.98,.12-5.76-2.21-2.37-6.11-3.45-6.68-7.14-.13-.82-1.9-.82-2.7-.15-4.02,3.39-4.34,.47-4.78-2.13-.18-1.05-.12-2.13-.98-3,0-1.23-.02-2.46-.02-3.69Z"/>
    <path class="cls-5" d="M263.73,204.27c-2.25-6-2.02-6.51,4.93-8.09,2.74-.63,3.77-1.35,3.43-4.3-.7-6.02-.41-12.13-.53-18.2-.29-4.15,2.58-4.82,6.39-4.47,1.96,4.52,5.96,7.9,8.72,11.96,1.72,2.54,3.85,5.01,3.66,8.23-4.74,.3-7.4-.95-7.44-5.8-.03-4.15-3.56-6.81-7.36-9.33-2.67,5.88-1.91,11.34-.21,16.79,1.76,.67,2.56-3.05,4.17-.83,1.15,1.59-.95,2.64-2.2,3.64-.87,.69-2.2,.99-2.48,2.19-1.85,.48-3.27,1.57-4.84,2.48-2.6,1.52-2.86,4.91-6.22,5.72Z"/>
    <path class="cls-11" d="M247.63,168.51c-2.32-1.55-3.94-3.63-5.61-5.68-.2-1.21-.4-2.42-.6-3.64,0,0,.07-.05,.07-.05,.34-.3,.68-.6,1.02-.9,0,0,0,0,0,0,2.36,.41,4.11-.63,5.78-1.86,2.62-.1,5.66,3.09,7.8-.77,.33,.06,.66,.12,.98,.17,2.34,3.47,1.19,6.62-1.17,9.66-2.64,1.27-4.83,3.47-8.28,3.06Z"/>
    <path class="cls-5" d="M247.63,168.51c3.45,.42,5.64-1.79,8.28-3.06,2.5,2.45-.14,5.92,2.18,8.4,.58,2.8,2.92,4.76,4.44,7.1,.43,.66,.92,1.42,.11,2.05-.83,.65-1.57,0-2.29-.38-.29-.16-.64-.28-.86-.5-4.28-4.32-8.94-8.39-11.87-13.62Z"/>
    <path class="cls-2" d="M257.08,155.79c-.33-.05-.66-.11-.99-.18-1.29-.39-2.58-.78-3.86-1.17-2.24-1.71-4.92-1.78-7.68-1.61-1.09-.9-1.02-2.11-1.18-3.26,5.14-.92,10.06-1.12,13.7,3.09,.12,1.04,1.82,2.08,0,3.13Z"/>
    <path class="cls-5" d="M385.68,224.29c.76,1.55,2.14,2.27,4.01,2.47,6.78,.71,13.56,1.5,20.34,2.18,9.43,.95,19.03,.88,28.16,3.62,3.04,.91,5.76,2.14,6.3,5.33-.39,2.78,1.16,5.87-1.69,8.27-.05-.61-.15-1.21-.15-1.82,.03-3.17,.45-6.29-4.11-7.85-4.1-1.41-5.88,.59-8.24,2.83-1.71,1.63-4.81,2.13-6.04-.39-1.06-2.19-2.1-3.22-4.8-3.04-2.73,.18-3.63,1.95-4.78,3.67-2.38,3.55-3.75,7.74-8.54,9.79-1.34,.57-4.06,.82-3.54,2.71,.5,1.85,3.18,1.39,4.91,1.86,.93,.25,2.18,.25,3.05-.09,5.35-2.11,11.28,.21,16.65-1.75,1.06-.39,1.71,.33,1.52,1.21-.65,3.08,1.81,2.67,3.84,2.69,2.94,.04,5.89,0,8.83,0,.1,.57,.19,1.14,.29,1.71-.12,.37-.23,.73-.35,1.1-2.74-.26-5.48-.67-8.23-.75-5.45-.17-11.34,1.87-15.85-2.71-.34-.34-1.43-.44-1.98-.25-8.13,2.83-16.65-2.86-24.71,.9-.65,.09-1.3,.18-1.95,.27-.96-.12-1.75,.08-2.23,.89-3.07,.91-6.25,1.03-9.45,.94-1.85-1.74-3.92-2.38-6.38-.95-3.67,1.39-8.86-1.37-11.35,3.21-2.1-.03-4.2-.06-6.3-.08-5.34-1.71-10.64-2.81-16.49-1.61-4.4,.9-8.61-1.06-12.79-2.19,4.31-2.27,9.26-2.29,13.92-2.21,8.77,.15,16.57-1.78,24.15-5.61,6.23-3.15,13.04-5.44,19.57-8.14,4.66-1.93,8.55-4.79,11.72-8.29,1.33-1.47-.22-2.69-1.87-2.93-5.18-.78-9.52-3.23-14.2-5.03-1.75-.67-3.19-1.11-2.98-3.05,.58-.03,1.16-.06,1.74-.09,3.33,1.06,6.36,2.87,10,3.17Zm22.51,8.82c-3.18-.22-5.37,.45-6.98,3.39-1.45,2.65-4.46,4.5-7.42,6.2-8.52,4.89-18.4,6.62-27.79,9.5-1.18,.36-3.41-.09-2.97,1.67,.45,1.79,2.63,1.39,3.89,.75,3.47-1.76,7.65-1.49,11.16-3.42,1.75-.96,4.97-2.38,6.88,0,1.07,1.33,.4,3.84,3.73,3.01,2.23-.56,4.31-1.4,5.63-3.07,4.71-5.95,9.29-11.98,13.92-17.98l.23-.26-.29,.2Z"/>
    <path class="cls-4" d="M390.57,256c8.06-3.76,16.58,1.93,24.71-.9,.56-.19,1.65-.1,1.98,.25,4.5,4.58,10.4,2.54,15.85,2.71,2.75,.08,5.48,.49,8.23,.75-.33,1.23-2.04,.95-2.65,1.87-.97-.04-1.95-.1-2.54,.8-.31,.24-.62,.49-.93,.73-.65,.02-1.3,.04-1.95,.05-4.17-3.1-11.33-3.18-15.91-.18-1.59,0-3.18,.01-4.77,.02-1.46-2.21-3.6-2.31-6.19-1.78-6.18,1.27-11.42-.41-15.82-4.31Z"/>
    <path class="cls-11" d="M435.21,262.19c.31-.24,.62-.49,.93-.73-.31,.24-.62,.49-.93,.73Z"/>
    <path class="cls-6" d="M441.4,255.99c-2.94,0-5.89,.03-8.83,0-2.03-.02-4.49,.38-3.84-2.69,.19-.88-.47-1.6-1.52-1.21-5.36,1.97-11.29-.36-16.65,1.75-.87,.34-2.12,.35-3.05,.09-1.73-.47-4.41-.02-4.91-1.86-.51-1.89,2.21-2.13,3.54-2.71,4.8-2.05,6.16-6.24,8.54-9.79,1.15-1.72,2.05-3.49,4.78-3.67,2.7-.18,3.74,.85,4.8,3.04,1.22,2.52,4.33,2.02,6.04,.39,2.36-2.25,4.14-4.24,8.24-2.83,4.56,1.56,4.14,4.68,4.11,7.85,0,.61,.1,1.21,.15,1.82-.35,3.29,.54,6.71-1.4,9.83Z"/>
    <path class="cls-9" d="M498.08,231.38c5.4,.39,4.43,3.79,3.19,6.3-2.28,4.63-6.83,7.89-11.33,10.72-2.75,1.73-5.61,3.21-7.76,5.54-3.1,.83-6.2,2.11-9.34,.09,2.5-1.17,5.76-2.03,.98-4.6-2.65-1.43-1.53-3.49,.74-4.11,5.63-1.54,10.59-5.3,17.11-4.09,1.5,.28,4.04,.09,3.67-1.49-.81-3.4,2.04-5.55,2.72-8.37Z"/>
    <path class="cls-9" d="M467.75,253.87c-5.94,.76-11.99-.44-17.91,.9-2.32,.52-3-.87-2.93-2.65,4.66-2.64,17.66-1.55,20.85,1.75Z"/>
    <path class="cls-6" d="M144.66,259.94c-7.22-.09-14.22,2.03-21.47,1.66-2.57-.13-5.14-.2-7.71-.29,1.3-1.29,4.67-.62,4.46-3.15-.2-2.39-3.11-1.99-4.84-2.8-1.37-.64-2.73-1.31-4.12-1.92-1.2-.52-3.83,.13-3.14-1.93,.53-1.57,2.63-.84,4.13-.54,8.75,1.8,17.67,2.58,26.6,3.12,4.64,.28,9.23-.41,13.57-2.32,3.23-1.42,6.44-1.33,8.4,2.03,.56,.96,1.33,2.16,2.62,1.98,7.21-1.03,13.8,2.6,20.93,1.97,.08,1.72,.89,2.78,3.04,2.81,4.3,.05,1.66,2.03,1.21,3.4-.41-.06-.81-.12-1.22-.17-2.83-1.2-5.81-1.65-8.94-1.38-2.21-3.36-5.75-3.74-9.83-4.15-8.1-.81-15.89,0-23.68,1.69Z"/>
    <path class="cls-6" d="M217.84,246.02c-.5,3.55-2.26,6.77-3.55,10.1,0,0-.3,.31-.3,.31l.28,.32c-.03,.7-.06,1.4-.1,2.09-2.4-.1-4.89,.45-7.15-.73-.05-1.31,.05-2.79-2.08-2.8-1.81-.01-1.88,1.29-2.01,2.46-1.76,.12-3.54,.29-4.49-1.48,1.85-2.02,.05-2.66-1.67-3.12-2.46-.65-5-1.05-7.47-1.67-3.99-1.01-2.91-3.96-2.99-6.4-.09-2.58,1.9-2.86,4.18-2.75,.33,1.28,1.25,1.82,2.65,1.38,2.9-.91,6.34-1.34,8.5-3.02,4.12-3.2,6.55-1.35,8.74,1.47,1.88,2.42,3.9,4.18,7.48,3.84Z"/>
    <path class="cls-5" d="M206.07,82.28c0-.57,0-1.13,0-1.7,3.7-.45,7.13-3.46,11.14-.88,5.13,.83,8.94,8.15,6.56,13.22-1.17,2.49-1.49,4.09,2.1,4.81,.72,.14,1.18,1.09,1.88,1.51,3.7,2.2,1.09,7.96,3.1,8.31,5.15,.89,5.73,3.78,6.49,6.96,1.36,5.73,4.56,11.12,4.25,17.16-2.94-3.54-3.91-7.9-4.43-11.89-.79-6.04-4.98-9.2-9.95-12.07-1.76-1.02-3.36-1.85-4.4-3.54-.78-1.27-2.07-1.64-3.97-1.1-3.12,.88-6.48-2.07-4.79-4.36,1.13-1.54,.06-6.37,5.46-4.25,1.05,.41,1.21-1.23,1.15-2.06-.17-2.18,.37-4.75-2.64-5.82-1.01-.36-2.83,.25-3.1-1-1.12-5.11-5.28-3.49-8.84-3.28Z"/>
    <path class="cls-6" d="M198.71,151.88c-6.47-2.19-5.9-8.01-8.08-12.35-.65-1.3,.66-2.26,2.48-1.18,.94,.56,1.2,1.95,2.85,1.75,0-2.95,.11-5.88-.05-8.81-.07-1.24-.43-2.66,.48-3.51,5.21-4.84,2.5-11.83,6.58-17.17,2.27,2.54,2.11,5.33,1.05,8.25-2.26,1.84,0,4.7-2.09,6.67-4.23,4-4.13,11.27,.04,15.37-.06,.6-.12,1.19-.18,1.79-2.46,.88-2.34,2.18-.77,3.71,.03,.56,.06,1.13,.1,1.69-1.5,.92-2.09,2.29-2.41,3.79Z"/>
    <path class="cls-5" d="M217.84,246.02c-3.58,.34-5.59-1.42-7.48-3.84-2.19-2.82-4.62-4.66-8.74-1.47-2.16,1.68-5.61,2.11-8.5,3.02-1.4,.44-2.32-.11-2.65-1.38,6.19-3.38,12.74-6.26,18.2-10.63,.91-.73,2.49-.83,3.76-1.22,.48,5.11,5.02,7.74,8.7,10.89-1.09,1.54-2.19,3.09-3.28,4.63Z"/>
    <path class="cls-6" d="M204.93,165.44c.02,4.1,.08,8.2,.03,12.3-.01,1.21-.15,2.61-1.97,2.77-1.56,.13-1.84-1.12-2.29-2.09-2.5-5.43-5.84-10.55-7.71-16.23-.57-1.73,.12-2.89,1.12-4.19,1.28-1.67,2.55-.89,3.99-.24,.73,.33,1.67,.3,2.51,.43,2.61,1.89-.79,6.51,4.31,7.26Z"/>
    <path class="cls-6" d="M178.53,232.02c.28-3.65-3.33-5.38-5.31-7.84-1.78-2.22-1.27-3.53,.81-4.91,.95-.63,2.61-.55,2.39,.42-.9,3.92,2.13,2.49,3.84,2.21,3.46-.56,4.85,.66,4.89,3.56,.04,2.26-.07,4.56,.32,6.78,.43,2.45,.13,5.52-2.45,5.58-3.02,.06-5.25-2.47-4.49-5.79Z"/>
    <path class="cls-4" d="M204.93,165.44c-5.1-.75-1.71-5.37-4.31-7.26,.87-1.07,1.42-2.24,1.32-3.59,1.27-2.32,2.06-4.59-.82-6.5-.03-.56-.06-1.13-.1-1.69,1.02-1.11,.9-2.41,.77-3.71,.06-.6,.12-1.19,.18-1.79,1.25-1.25,.96-2.79,.98-4.26,.02-1.65,.32-3.03,2.76-2.86-.11,2.11,.33,4.38-.44,6.28-1.69,4.16-1.02,7.74,1.01,11.74,2.28,4.48,.63,9.2-1.36,13.63Z"/>
    <path class="cls-4" d="M207.01,258.12c2.26,1.18,4.75,.63,7.15,.73,.84,2.67-1.84,3.22-3.44,4.42-3.29-.4-6.58-.79-9.87-1.19-1.62-3.53-5.45-2.97-8.59-3.32-2.31-.25-3.92-.65-4.15-2.91,.74-.32,1.47-.64,2.21-.96,.73,.05,1.46,.09,2.19,.14,1.78,1.1,3.86,1.11,5.9,1.26,.94,1.78,2.73,1.61,4.49,1.49,1.37,.11,2.73,.23,4.1,.34Z"/>
    <path class="cls-5" d="M205.71,133.79c-2.45-.18-2.74,1.21-2.76,2.86-.02,1.47,.27,3.01-.98,4.26-4.17-4.1-4.27-11.37-.04-15.37,2.09-1.98-.17-4.84,2.09-6.67,1.88,4.86,.7,9.99,1.69,14.93Z"/>
    <path class="cls-5" d="M188.12,255.85c.23,2.25,1.84,2.65,4.15,2.91,3.14,.34,6.97-.22,8.59,3.32-1.16,.1-2.32,.19-3.48,.28-.52,.15-1.03,.29-1.55,.44l-2.31,1.39c-.34,.02-.67,.07-.99,.16-1.27-1.16-2.81-.16-4.2-.41,.45-1.37,3.09-3.35-1.21-3.4-2.15-.03-2.97-1.09-3.04-2.81,.92-1.33,2.33-1.86,4.04-1.89Z"/>
    <path class="cls-5" d="M201.12,148.09c2.87,1.92,2.08,4.19,.82,6.5-1.46-.55-2.46-1.52-3.23-2.72,.32-1.5,.91-2.86,2.41-3.79Z"/>
    <path class="cls-6" d="M52.93,255.82c.13-.89,.26-1.78,.39-2.68,2.05,.57,3.25,1.85,3.92,3.58,0,0-.37,.3-.37,.3-1.31-.4-2.63-.81-3.94-1.21Z"/>
    <path class="cls-5" d="M192.53,255.03c-.73-.05-1.46-.09-2.19-.14,.79-.67,1.52-.6,2.19,.14Z"/>
    <path class="cls-6" d="M225.86,221.3c-.63,.45-1.27,.89-1.9,1.34,.23-.89,.94-1.26,1.9-1.34Z"/>
    <path class="cls-11" d="M243.37,149.58c.15,1.15,.09,2.37,1.18,3.26-.01,.71-.03,1.42-.05,2.13-1.66,.62-2.38,1.69-1.99,3.27,0,0,0,0,0,0-.34,.3-.68,.6-1.02,.9,0,0-.07,.05-.07,.05-.61-.13-1.22-.27-1.83-.4-1.6-5.3,1.64-10.08,2.11-15.16,2.95,1.46,1.19,3.95,1.68,5.94Z"/>
    <path class="cls-4" d="M257.65,114.9c-.57-1.39-.65-2.63,1.31-3.24,.12,1.25-.33,2.33-1.31,3.24Z"/>
    <path class="cls-2" d="M243.88,100.58c1.29,.19,1.83,.84,1.63,1.97-1.11-.3-1.93-.78-1.63-1.97Z"/>
    <path class="cls-4" d="M262.49,102.42c-.18-.69,.16-1.18,.78-1.55,.14,.67,0,1.24-.78,1.55Z"/>
    <path class="cls-13" d="M282.56,82.88s0,.07,0,.07c0,0,0-.07,0-.07Z"/>
    <path class="cls-2" d="M273.4,58.64c-.12,.4-.24,.81-.35,1.21-.3,.01-.57-.06-.81-.22,.39-.33,.77-.66,1.16-.99Z"/>
    <path class="cls-5" d="M22.87,250.17c-.32-4.07,2.8-7.76-1.68-10.39-.52-.3-.43-1.26,.3-1.52,.52-.19,1.43-.14,1.87,.15,2.81,1.85,6.02,2.13,9.34,1.99,2.66-.11,3.63,1.36,4.14,3.26,.63,2.3,.69,4.48-1.61,6.24-2.18,1.67-3.49,.27-5.31-.7-2.09-1.11-4.7-3-7.06,.98Z"/>
    <path class="cls-10" d="M52.93,255.82c1.31,.4,2.63,.81,3.94,1.21,.2,1.32-.71,1.74-1.97,1.89-5.89-.44-11.77-.88-17.66-1.32,.51-2.15,2.5-1.59,4.06-1.63,3.87-.1,7.75-.11,11.62-.15Z"/>
    <path class="cls-5" d="M179.23,264.05c-.35-.55-.71-1.1-1.06-1.65,3.13-.27,6.11,.18,8.94,1.38-2.58,1.11-5.26-.07-7.88,.28Z"/>
    <path class="cls-5" d="M322.26,256.22c-3.38,2.43-7.57,2.89-11.64,3.6-1.82,.32-3.69,.4-5.54,.59,1.18-4.24,4.59-5.59,9.12-5.26,2.7,.2,5.37,.7,8.06,1.07Z"/>
    <path class="cls-5" d="M369.64,220.25c-4.98,2.29-9.04-1.14-13.44-1.95-2.86-.53-5.45-1.33-8.35-.61-.12-.12-.24-.25-.35-.37,2.76-2.85,6.3-1.33,9.57-1.3,.79,.2,1.57,.39,2.36,.59,3.01,2.07,7.06,1.87,10.21,3.64Z"/>
    <path class="cls-5" d="M383.59,233.62c-.24-.19-.76-.4-.79-.66-.08-.63,.42-1.04,1.13-1.1,.24-.02,.67,.2,.74,.38,.23,.66-.25,1.04-1.07,1.38Z"/>
    <path class="cls-10" d="M263.73,204.27c3.35-.81,3.61-4.2,6.22-5.72,1.57-.92,2.99-2,4.84-2.48,1.29,.51,3.02,1.24,2.22,2.56-2.93,4.82-2.71,11.18-9.09,14.35-1.13,.56-2.37,1.38-2.07,2.88-.52,.26-1.53,.64-1.49,.77,.4,1.26,1.52,.66,2.44,.61,.48,.62,.96,1.23,1.44,1.85-3.96,.84-7.26,3.53-11.84,2.82-1.95-.3-2.26,2.3-4.22,2.99-8.63,3.04-13.88,.95-17.02-7.12-.36-.94-.99-1.58-2.13-1.77-2.66-2.75-7.66-2.81-9.58-6.41,4.53-1.08,4.2-4.91,5.69-7.71,.39,.03,.78,.06,1.17,.09,4.33,7.76,13.77,5.25,20.64,7.89,3.54-3.08,8.89-2.87,12.73-5.41l.06-.18Z"/>
    <path class="cls-6" d="M276,255.89c.32,.36,.73,.67,.94,1.07,.89,1.75,2.86,3.69,1.55,5.42-1.55,2.06-4.38,.79-6.7,.61-8.6-.67-16.5-4.03-25.01-5.04,.36-1.85,1.87-2.28,3.45-1.59,5.27,2.31,5.27-1.47,5.22-3.85-.05-2.46,.11-4.9,.79-7.15,1.12-3.77,.82-5.59-4.48-5.86-2.52-.13-2.88,.53-3.58,1.92-1.65,3.28-4.42,4.87-8.61,4.55-2.06-.16-4.15,0-6.22,.01,7.62-4.37,10.39-13.72,20.61-15.42,.27,2.16-.77,4.64,2.05,6.15,5,2.66,7.61,6.59,8.9,11.58,1.38,5.33,4.61,7.25,11.09,7.59Z"/>
    <path class="cls-4" d="M265.84,215.86c-.3-1.5,.95-2.32,2.07-2.88,6.38-3.17,6.16-9.53,9.09-14.35,.8-1.32-.92-2.05-2.22-2.56,.29-1.2,1.61-1.5,2.49-2.19,1.25-.99,3.35-2.05,2.2-3.64-1.61-2.22-2.41,1.5-4.17,.83-1.69-5.45-2.46-10.92,.21-16.79,3.8,2.51,7.33,5.18,7.36,9.33,.04,4.84,2.7,6.1,7.44,5.8,0,0,.05,0,.05,0,.62,2.16-2.07,4.56,.14,6.44,2.41,2.06,1.68,3.2-.77,4.4-1.18,.58-1.34,1.67-1.4,2.74-2.73,3.54-7.49,4.64-11.18,7.05-3.85,2.52-6.62,5.27-6.8,9.62-.72-.19-1.44-.38-2.15-.57-.47-.62-.95-1.23-1.43-1.85-.31-.46-.63-.92-.94-1.38Z"/>
    <path class="cls-1" d="M233.33,245.98c2.07-.01,4.16-.17,6.22-.01,4.2,.32,6.97-1.27,8.61-4.55,.7-1.4,1.06-2.05,3.58-1.92,5.3,.27,5.6,2.09,4.48,5.86-.67,2.25-.84,4.69-.79,7.15,.05,2.38,.04,6.16-5.22,3.85-1.57-.69-3.09-.26-3.45,1.59-5.44,.69-10.25-1.06-15.03-2.94,.13-1.84,.27-3.67,.4-5.51,.4-1.17,.8-2.35,1.2-3.52Z"/>
    <path class="cls-5" d="M276,255.89c-6.48-.34-9.72-2.26-11.09-7.59-1.29-4.99-3.9-8.92-8.9-11.58-2.82-1.5-1.79-3.99-2.05-6.15,4.77,2.5,7.78,6.55,11.48,9.99,3.5,5.12,8.01,9.71,10.57,15.33Z"/>
    <path class="cls-1" d="M307.16,216.79c-1.48-2.8-5.31-5.05-2.7-8.83,.12-.17-.07-.64-.28-.82-1.97-1.77-4.31-3.87-2.88-6.26,1.16-1.95,3.77-3.41,6.07-4.61,2.51-1.32,4.07-3.51,6.88-4.65,3.15-1.28,5.02-1.84,5.83,1.83,.3,1.34,1.23,2.49,2.7,3.18-.01,.6-.03,1.2-.04,1.8-2.51,.05-3.15,1.4-3.08,3.31,.06,1.95,.06,3.91,.09,5.86-1.47,5.92-8.56,5.95-12.58,9.2Z"/>
    <path class="cls-6" d="M319.74,207.59c-.03-1.95-.03-3.91-.09-5.86-.06-1.91,.58-3.26,3.08-3.31-.05,3.29-.04,6.6-3,9.17Z"/>
    <path class="cls-2" d="M221.87,284.47c-1.92,2.35-3.92,1.78-5.88,.67-.26-.15-.36-1.04-.2-1.14,2.14-1.23,3.99,.66,6.08,.47Z"/>
    <path class="cls-2" d="M221.04,289.75c-1.72,1.52-3.2,1.36-4.66,.42-.17-.11-.09-.94,.13-1.05,1.44-.75,2.84-.51,4.53,.63Z"/>
    <path class="cls-4" d="M214.26,256.75l-.28-.32s.3-.31,.3-.31c.19,.22,.19,.43-.02,.63Z"/>
    <path class="cls-1" d="M296.62,120.65c-2.05,4.57-4.42,10.07-5.92,15.82-.11,.42-1,.97-1.52,.97-1.29-.02-1.78-1.04-1.68-1.93,.69-6.63,.97-13.33,3.28-19.75,.46-1.29,1.78-1.41,3.01-.99,2.52,.87,3,2.75,2.83,5.88Z"/>
    <path class="cls-5" d="M288.33,202.98c.06-1.07,.22-2.16,1.4-2.74,2.45-1.2,3.18-2.34,.77-4.4-2.2-1.88,.49-4.28-.14-6.44,5.19-.85,5.89-.37,4.27,3.74-1.05,2.65-.79,4.61,1.73,6.39,2.03,1.44,2.86,3.33,2.09,6.15-2.88-2.74-5.99-4.53-10.11-2.71Z"/>
    <path class="cls-5" d="M329.29,166.53c-.11,1.16-.23,2.33-.34,3.49-1.18-1.26-1.19-2.43,.34-3.49Z"/>
    <path class="cls-5" d="M327.61,178.37c.3,.67,.22,1.29-.3,1.85-1.26-.79-1.14-1.4,.3-1.85Z"/>
    <path class="cls-14" d="M229.12,201.88c-1.49,2.8-1.16,6.63-5.69,7.71-2.38-1.67-4.58-3.51-7.01-5.15-3.45-2.31-3.68-6.19-3.02-9.84,.19-1.03,.91-1.9,2.54-.87,4.36,2.76,9.17,4.95,13.18,8.15Z"/>
    <path class="cls-4" d="M263.67,204.45c-3.84,2.54-9.19,2.33-12.73,5.41-6.88-2.64-16.31-.13-20.64-7.89,3.22-.24,4.25,2.92,6.96,3.44,6.63,1.27,8.17,.43,10.61-5.81,4.18,4.45,9.73,5.35,15.8,4.86Z"/>
    <path class="cls-5" d="M239.59,158.79c.61,.13,1.22,.27,1.83,.4,.2,1.21,.4,2.42,.6,3.64-1.93-.83-2.47-2.3-2.43-4.04Z"/>
    <path class="cls-2" d="M242.52,158.24c-.39-1.58,.32-2.65,1.99-3.28,2.07-.06,4.14-.11,6.21-.16-.81,.53-1.61,1.05-2.42,1.58-1.67,1.23-3.42,2.27-5.78,1.86Z"/>
    <path class="cls-16" d="M248.3,156.38c.81-.53,1.61-1.05,2.42-1.58,.5-.12,1.01-.23,1.51-.35,1.29,.39,2.57,.78,3.86,1.17-2.14,3.86-5.18,.67-7.8,.77Z"/>
    <path class="cls-2" d="M241.49,159.14c.34-.3,.68-.6,1.02-.9-.34,.3-.68,.6-1.02,.9Z"/>
    <path class="cls-10" d="M252.23,154.45c-.5,.12-1.01,.23-1.51,.35-2.07,.06-4.14,.11-6.21,.16,.02-.71,.03-1.42,.05-2.12,2.75-.17,5.44-.1,7.68,1.61Z"/>
    <path class="cls-6" d="M408.25,233.17c-4.63,6-9.22,12.02-13.92,17.98-1.32,1.67-3.4,2.51-5.63,3.07-3.33,.83-2.66-1.68-3.73-3.01-1.91-2.37-5.13-.96-6.88,0-3.51,1.93-7.69,1.66-11.16,3.42-1.26,.64-3.44,1.04-3.89-.75-.44-1.75,1.79-1.3,2.97-1.67,9.39-2.88,19.27-4.61,27.79-9.5,2.96-1.7,5.97-3.55,7.42-6.2,1.61-2.94,3.8-3.61,6.98-3.39,0,0,.06,.06,.06,.06Z"/>
    <path class="cls-4" d="M376.95,258.1c-2.51,1.65-5.02,3.33-6.39-.95,2.47-1.44,4.53-.79,6.39,.95Z"/>
    <path class="cls-4" d="M388.62,256.27c-.44,.89-.88,1.76-2.23,.89,.48-.8,1.27-1.01,2.23-.89Z"/>
    <polygon class="cls-6" points="408.18 233.12 408.47 232.91 408.25 233.17 408.18 233.12"/>
    <path class="cls-1" d="M207.01,258.12c-1.37-.11-2.73-.23-4.1-.34,.13-1.17,.2-2.47,2.01-2.46,2.13,.01,2.03,1.5,2.08,2.8Z"/>
    <path class="cls-5" d="M201.79,142.69c.12,1.3,.24,2.59-.77,3.71-1.57-1.53-1.68-2.82,.77-3.71Z"/>
    <path class="cls-4" d="M197.37,262.36c-.36,.58-.93,.59-1.55,.45,.52-.15,1.04-.3,1.55-.45Z"/>
    <path class="cls-2" d="M265.84,215.86c.31,.46,.63,.92,.94,1.38-.91,.05-2.03,.65-2.43-.61-.04-.13,.97-.51,1.49-.77Z"/>
    <path class="cls-7" d="M230.74,46.27c-2.1-3.09-2.24-6.75-1.48-10.31,.43-2.03,1.07-4.01,1.72-5.97,.51-1.52,1.05-2.95,2.25-4.06,2.36-2.19-1.18-5.72-3.54-3.54-1.64,1.52-2.58,3.51-3.3,5.59-.81,2.31-1.57,4.68-2.04,7.09-.92,4.68-.69,9.67,2.07,13.73,.76,1.12,2.2,1.61,3.42,.9,1.11-.65,1.66-2.3,.9-3.42h0Z"/>
  </g>
  <path class="cls-8" d="M251.94,58.03l5.76-.14,2.59-.06c.93-.02,1.97,.09,2.88-.07,1.21-.2-1.76-1.03-1.44-2.12,.12-.4,.41-.38,.63-.81l.19-.08c-.25,.05-.29,.07-.11,.03,.37-.05-.36,0-.35,0-.96,.03-1.92,.04-2.87,.06-.86,.02-1.72,.03-2.59,.05-.48,0-.96,.02-1.44,.03-.33,0-.71-.07-1.03-.03-.35,.04,.57,.14,0,0-.12-.03-.25-.05-.37-.08-.03,0-.61-.19-.22-.05s-.17-.05-.17-.11c0-.07,.37,.38,.12,.07l.18,.25c-.11-.19-.11-.19-.03,0,.01,.15,0,.65,.08,.2-.03,.16-.26,.69-.03,.3,.33-.57-.19,.23,.07-.07l.08-.07c-.23,.17-.23,.17,0,.02-.01,0,.5-.15,.03-.02-.03,0,.71-.19,.36-.11s.39-.03,.38-.03c.16,0,.32,0,.48,0,.45,0,.9,.02,1.36,.04,.84,.04,1.67,.08,2.51,.15,.44,.04,.88,.08,1.31,.13-.11-.01-.4-.06,.12,.02,.26,.04,.52,.09,.78,.14,.82,.16,1.59,.44,2.39,.66,.44,.12-.43-.22,.13,.06,.5,.25-.05,0-.03-.04l-.24-1.96c.15-.18,.17-.21,.04-.09-.13,.12-.11,.1,.07-.05-.12,.08-.25,.15-.38,.21,.11-.05,.42-.13-.02-.01-.22,.06-.43,.12-.65,.17,.02,0-.72,.12-.34,.06,.18-.02,.14-.02-.11,.01-.19,.02-.37,.04-.56,.06-.98,.09-1.96,.15-2.94,.18-2.11,.05-4.21-.06-6.3-.33-1.3-.16-2.56,1.27-2.5,2.5,.07,1.49,1.1,2.33,2.5,2.5,2.46,.31,4.95,.41,7.43,.28,2.48-.13,5.32-.21,7.27-1.97,1.33-1.2,1.73-3.23,.59-4.7-.86-1.12-2.18-1.6-3.49-1.99-2.36-.7-4.86-.86-7.3-.97-2.69-.12-5.36,.03-7.1,2.37-1.65,2.21-.84,5.38,1.61,6.58,2.14,1.04,4.65,.73,6.94,.69,1.25-.02,2.49-.05,3.74-.07,1.61-.04,3.15-.37,4.13-1.78,1.05-1.52,.68-3.71-.88-4.73-1.25-.82-3.06-.49-4.48-.46l-8.79,.21c-1.31,.03-2.56,1.13-2.5,2.5s1.1,2.53,2.5,2.5h0Z"/>
  <path class="cls-8" d="M488.81,239.36c1.32,1.97,2.19,3.78,2.8,6,.15,.56,.29,1.13,.4,1.71,.13,.71,.1,.97,.26,1.66,.41,1.78,1.98,3,3.84,2.61,1.03-.22,2.04-.71,3.01-1.1,1.34-.55,2.68-1.14,3.98-1.77,1.02-.5,2.02-1.02,3.01-1.58s2.18-1.14,2.98-2.02c2.41-2.67-.19-5.73-1.89-7.92-1.47-1.89-3.07-3.67-4.83-5.29-1.2-1.1-2.51-1.82-4.18-1.34-1.4,.4-2.77,1.32-4.07,1.98-1.07,.55-2.14,1.09-3.21,1.64-1.41,.72-2.81,1.55-2.89,3.33-.1,2.05,1.65,3.42,3.55,3.61,1.29,.13,2.54-.26,3.74-.67,.26-.09,.51-.18,.77-.25,.17-.05,.34-.1,.51-.14,.31-.06,.34-.07,.11-.04,.15-.01,.4,.03,.52,0-.56-.03-.95-.4-1.17-1.09,.04-.73,.01-.87-.09-.42-.22,.22-.5,1.16-.72,1.66-.31,.71-.63,1.41-.94,2.12-.63,1.41-.22,3.25,1.49,3.67,2.46,.61,5.03,.64,7.49,.02,1.46-.36,2.86-1.11,3.34-2.64,.37-1.16,.07-2.56-.26-3.71-.74-2.55-3.19-4.84-6.02-3.95-2.56,.8-3.77,4.5-1.58,6.37,1.02,.88,2.53,1.01,3.54,0,.9-.9,1.03-2.65,0-3.54-.22-.21-.2-.14,.07,.21,.17,.18,.25,.4,.26,.64,0,.3-.1,.57-.3,.78l-.22,.17c-.26,.18-.52,.22-.79,.14l-.13-.08c.23,.14,.29,.17,.17,.09-.3-.23,0,0,.1,.2,.08,.15,.09,.16,.02,.03l.08,.26c.06,.27,.14,.54,.19,.81,.03,.14,.05,.27,.07,.41,.03,.19,.03,.18,0-.01l.68-1.16c.23-.08,.2-.07-.08,.02-.24,.06-.49,.13-.74,.19-.57,.13-.76,.16-1.29,.19-1.23,.08-2.14-.01-3.25-.28l1.49,3.67c.69-1.57,1.5-3.13,2.08-4.75,.63-1.72,.14-3.68-1.54-4.57-1.43-.76-3.21-.5-4.68-.03-.6,.19-1.19,.43-1.8,.59-.17,.05-.34,.09-.52,.12,.23-.03,.19-.03-.12,0-.34,0-.35,0-.05,0,.59,.22,.92,.67,1,1.35l-.34,1.26c-.11,.09-.21,.18-.32,.28,.16-.09,.32-.17,.49-.25,.29-.15,.58-.3,.87-.45,.68-.35,1.36-.69,2.04-1.04,.42-.21,3.77-1.86,3.75-1.93l-.84-.11c-.15-.09-.1-.03,.15,.17,.24,.25,.51,.48,.76,.72,.46,.45,.92,.91,1.36,1.38,.86,.91,1.82,2.03,2.5,2.92,.42,.55,.83,1.12,1.22,1.7,.09,.13,.35,.66,.47,.74-.18-.12,.09-1.29,.35-1.21,.14-.09,.11-.07-.11,.07-.15,.09-.3,.19-.46,.28-.27,.16-.53,.31-.8,.47-.63,.36-1.26,.71-1.9,1.05-1.28,.67-2.58,1.3-3.9,1.88-.5,.22-1.1,.46-1.69,.69-.29,.11-.58,.22-.87,.33-.19,.07-.39,.14-.58,.21-.29,.09-.27,.09,.04,0l1.26,.34c.53,.96,.74,1.22,.62,.76-.03-.14-.03-.15-.02-.03-.07,.35-.09-.69-.12-.88-.07-.48-.16-.96-.26-1.44-.21-.95-.48-1.89-.81-2.8-.7-1.95-1.61-3.81-2.77-5.53-.75-1.12-2.2-1.61-3.42-.9-1.11,.65-1.65,2.29-.9,3.42h0Z"/>
  <path class="cls-8" d="M428,234.03c-.48,2.73-.95,5.46-1.43,8.19-.45,2.56-1.2,5.25-1.33,7.84-.15,3.13,2.54,4.14,5.14,4.32s5.19,.33,7.79,.47c2.76,.15,5.52,.28,8.29,.38,2.58,.1,5.42,.42,6.51-2.5,.89-2.37,1.27-5.08,1.66-7.57,.42-2.66,1.05-5.42-1.58-7.13-4.07-2.65-9.3-2.5-13.84-3.76-4.62-1.27-9.1-3.63-14.02-3.34-2.72,.16-4.62,1.05-5.74,3.63-1.03,2.37-1.71,4.79-2.04,7.35-.3,2.28-.56,4.97,.22,7.19,.84,2.38,2.9,3.73,5.33,4.13,2.86,.47,5.8,.64,8.69,.78,2.82,.14,5.7,.33,8.49-.18,5.2-.95,8.11-5.5,10.36-9.85l-4.57-1.93c-.29,1.66-.59,3.32-.88,4.99l2.41-1.84c-4.05,.52-8.16-.22-12.18-.68-2.06-.24-4.13-.48-6.19-.72-.99-.12-1.98-.23-2.97-.35s-2.08-.11-3.02-.43l1.1,.64h-.02c.11,.41,.23,.83,.34,1.25-.09-.88,.14-1.81,.31-2.67,.04-.22,.48-1.48,.38-1.62h-.02c-.32-.01-.62,.11-.89,.37,0,.25,6.18,1.3,6.82,1.43,4.54,.96,9.09,1.91,13.63,2.87l-1.49-3.67c-.33,.7-.11,.17-.03,.16,.17-.02-.53,.13-.53,.13-.26,.03-.95-.02-1.26-.05-1.71-.18-3.55-.56-5.31-.84-3.71-.6-7.42-1.21-11.12-1.85-1.33-.23-2.69,.35-3.08,1.75-.33,1.2,.41,2.85,1.75,3.08,4.51,.77,9.02,1.52,13.54,2.23,3.3,.52,8.52,1.85,10.36-2.09,.64-1.36,.21-3.31-1.49-3.67-4.14-.87-8.28-1.74-12.42-2.61-2.03-.43-4.06-.85-6.09-1.28s-4.2-1.16-5.85,.41c-1.3,1.23-1.6,3.12-1.89,4.81-.35,2.05-.83,4.54,1.32,5.79,.88,.51,1.99,.52,2.96,.63,1.07,.12,2.15,.25,3.22,.37,2.06,.24,4.13,.48,6.19,.72,4.57,.53,9.32,1.48,13.91,.88,1.02-.13,2.21-.68,2.41-1.84,.29-1.66,.59-3.32,.88-4.99,.22-1.22-.22-2.46-1.45-2.95-1.1-.44-2.54-.1-3.12,1.02-1.32,2.56-2.78,5.63-5.48,6.98-1.54,.77-3.36,.73-5.03,.7-2.05-.03-4.1-.12-6.15-.26-1.85-.13-3.77-.18-5.59-.54-.43-.09-1.09-.16-1.4-.52-.38-.43-.33-1.29-.34-1.81-.06-1.94,.13-3.85,.58-5.73,.21-.86,.47-1.72,.77-2.55,.13-.35,.26-.71,.42-1.05,.08-.17,.59-.86,.14-.57,.52-.33,1.58-.2,2.16-.19,.92,.02,1.8,.16,2.69,.37,1.84,.42,3.62,1.06,5.4,1.68s3.57,1.2,5.42,1.59,3.81,.64,5.7,1.04c.83,.17,1.66,.37,2.47,.62,.4,.12,.8,.25,1.18,.41,.34,.14,.93,.64,1.28,.65,.63,.02-.57-.45-.3-.55-.03,.01-.07,.62-.07,.67-.05,.41-.11,.81-.17,1.21-.17,1.09-.36,2.18-.58,3.27-.2,1.01-.43,2.01-.68,3.01-.03,.12-.38,1.18-.32,1.23-.26-.22,1.36-.41,.8-.78-.15-.1-.71-.02-.9-.03-2.19-.08-4.39-.17-6.58-.28-2.36-.11-4.71-.24-7.06-.38-1.22-.07-2.43-.15-3.65-.23-.18-.01-1.22-.14-1.25-.1,.02-.03,.07,.03,.07,.04l.53,.93,.08-.48c.41-1.07,.43-2.47,.63-3.61l.63-3.61c.42-2.41,.84-4.82,1.26-7.22,.23-1.33-.36-2.69-1.75-3.08-1.21-.33-2.84,.41-3.08,1.75h0Z"/>
  <path class="cls-8" d="M425.04,238.66c5.42,1.65,10.91,3.04,16.46,4.17,1.28,.26,2.76-.37,3.08-1.75,.28-1.25-.38-2.8-1.75-3.08-5.55-1.13-11.04-2.53-16.46-4.17-1.25-.38-2.78,.45-3.08,1.75s.41,2.67,1.75,3.08h0Z"/>
  <path class="cls-8" d="M424.34,251.1c3.22,0,3.22-5,0-5s-3.22,5,0,5h0Z"/>
  <path class="cls-8" d="M47.88,236.72l.37,5.37c.11,1.68,0,3.66,.57,5.26,1.37,3.75,6.43,2.32,9.37,1.76,3.44-.66,6.81-1.65,10.23-2.41s6.95-1.38,10.46-1.8c2.84-.34,7.17,.1,8.72-2.9,.9-1.75-.04-3.45-.85-5.03s-1.68-3.27-2.51-4.9c-.79-1.55-1.44-3.24-3.34-3.62-.92-.18-1.84,.06-2.74,.21-.98,.16-1.97,.32-2.95,.48-3.77,.62-7.54,1.23-11.31,1.85-1.97,.32-3.94,.64-5.9,.97-1.63,.27-3.27,.46-4.81,1.1s-2.73,1.58-3.41,3.05c-1,2.2-.27,4.35,.62,6.44,.53,1.24,2.36,1.52,3.42,.9,1.29-.75,1.42-2.17,.9-3.42-.18-.43-.33-.89-.44-1.35-.1-.4-.05-.47,.19-.67,.42-.36,1.16-.54,1.77-.68,2.54-.59,5.19-.88,7.77-1.3,2.71-.44,5.41-.89,8.12-1.33,1.31-.21,2.62-.43,3.94-.64,.74-.12,1.48-.24,2.21-.36,.33-.05,.66-.11,.98-.16,.16-.03,.33-.05,.49-.08,.37-.02,.33-.07-.11-.16l-.9-.9c1.22,1.64,2.02,3.81,2.95,5.62,.29,.57,.58,1.14,.87,1.71,.34,.66,.39,1.39,.63,0,.1-.55,.6-.35-.28-.21,.42-.07-1.12,.09-.9,.07-4.53,.41-9.03,1.07-13.48,2-4.36,.91-8.64,2.26-13.04,2.96-.4,.06-2.94,.23-2.96,.3l1.03,.92c-.09-.31-.1-.39-.05-.24,.18-.42-.1-1.49-.13-1.95-.16-2.28-.31-4.55-.47-6.83-.09-1.35-1.08-2.5-2.5-2.5-1.28,0-2.59,1.15-2.5,2.5h0Z"/>
  <path class="cls-8" d="M50.4,240.02c-.18,1.25-.21,2.41,.24,3.61,.67,1.81,2.69,2.41,4.18,1.1,.99-.87,1.89-1.84,2.36-3.08,.19-.51,.55-1.39,.33-1.91,.03-.35-.07-.29-.3,.18-.37,.36-.42,.47-.16,.31,.17,0,.52-.21,.68-.28,2.62-.99,5.28-1.82,7.99-2.54s5.29-1.29,7.95-1.87c.09-.02,2.05-.45,2.05-.44l-1.08-.32c.1,.19,.2,.39,.29,.59,.13,.26,.25,.53,.37,.79,.53,1.2,.95,2.46,1.31,3.72,.44,1.53,2.28,2.34,3.67,1.49,3-1.82,1.85-6.16-1.31-6.99-1.56-.41-3.18,.09-4.7,.45-1.69,.4-3.38,.81-5.07,1.21-3.09,.74-6.2,1.43-9.26,2.27-2.78,.76-5.54,1.66-7.16,4.22-1.2,1.89,.78,4.2,2.82,3.67,9.05-2.36,18.26-3.96,27.58-4.75,1.35-.11,2.5-1.07,2.5-2.5,0-1.26-1.15-2.62-2.5-2.5-9.76,.83-19.43,2.46-28.91,4.93l2.82,3.67c.73-1.14,2.52-1.46,3.73-1.8,1.93-.54,3.89-1,5.84-1.47,2.09-.5,4.19-1,6.28-1.5,1.13-.27,2.25-.54,3.38-.81,.34-.08,.68-.15,1.01-.25,.44,.05,.52,.02,.26-.09-.77-.59-.72-1.29,.17-2.09l3.67,1.49c-.46-1.62-1.04-3.18-1.72-4.72s-1.46-3.23-3.29-3.64c-1.62-.37-3.63,.43-5.21,.77-1.67,.37-3.34,.75-5,1.16-3.31,.82-6.6,1.77-9.79,3-1.45,.56-2.99,1.1-3.62,2.66-.17,.43-.27,.88-.29,1.35-.01,.23,.09,.64,0,.85-.2,.45-.85,.9-1.21,1.21l4.18,1.1c-.1-.28-.29-.64-.24-.95,.2-1.33-.33-2.69-1.75-3.08-1.18-.32-2.88,.4-3.08,1.75h0Z"/>
  <path class="cls-8" d="M51.15,243.46c-.64-1.18-1.1-2.47-1.28-3.81-.01-.09,0-.92-.06-.96l-.91,1.28c.21-.04,.42-.08,.64-.11,.82-.14,1.63-.27,2.45-.41,3.33-.56,6.66-1.12,9.99-1.68l-2.43-4.18c-1.27,1.36-2.68,2.5-4.31,3.4s-3.52,1.46-5.09,2.53-2.94,2.62-3.36,4.58-.02,4.11,1.56,5.45l2.43-4.18c-.16-.03-.32-.05-.47-.1,.25,.07,.11,.1-.03-.03,.31,.28-.27-.27-.36-.39,.21,.27-.21-.42-.28-.54-.05-.09-.17-.35-.07-.11-.09-.2-.15-.41-.22-.61-.26-.77-.44-1.56-.64-2.34-.12-.47-.24-.94-.36-1.42-.06-.24-.12-.47-.18-.71l-.09-.35c-.08-.36-.09-.23-.04,.37l-.64,1.1c-.63,.27-.74,.35-.32,.24,.19-.04,.38-.07,.57-.11,.38-.07,.76-.14,1.14-.21,.82-.15,1.65-.31,2.47-.46,1.58-.3,3.17-.59,4.75-.89,3.23-.61,6.46-1.21,9.7-1.82,1.33-.25,2.08-1.85,1.75-3.08-.38-1.39-1.74-2-3.08-1.75-3.23,.61-6.46,1.21-9.7,1.82-1.58,.3-3.17,.59-4.75,.89s-3.17,.42-4.63,.91c-2.16,.72-2.44,2.73-1.95,4.66,.35,1.36,.66,2.75,1.07,4.1,.75,2.46,2.25,5.19,5.05,5.65,1.11,.18,2.22-.12,2.82-1.15,.53-.9,.45-2.32-.39-3.03-.35-.3-.3-.46-.17-.02-.05-.15-.09-.3-.12-.45,.04,.27,.05,.26,.03-.05,.13-.72-.21,.4,.05-.31,.04-.16,.09-.32,.16-.48-.08,.21-.05,.18,.08-.09,.17-.25,.18-.28,.04-.11,.12-.14,.25-.27,.39-.4,.2-.18,.24-.21,.46-.36,.64-.43,1.36-.76,2.06-1.08,3.1-1.38,5.87-3.04,8.22-5.55,.76-.81,.96-2.05,.39-3.03s-1.72-1.33-2.82-1.15c-4.21,.71-8.43,1.39-12.63,2.12-5.22,.91-2.86,7.84-1.19,10.91,1.54,2.83,5.86,.31,4.32-2.52h0Z"/>
  <path class="cls-8" d="M228.49,225.34c3.22,0,3.22-5,0-5s-3.22,5,0,5h0Z"/>
  <path class="cls-8" d="M277.04,235.58c3.22,0,3.22-5,0-5s-3.22,5,0,5h0Z"/>
  <path class="cls-8" d="M239.07,220.29c5.31,.98,10.61,1.96,15.92,2.93,2.71,.5,7.87,.94,7.43,4.75-.24,2.12-1.41,4.3-2.35,6.18s-2.1,3.88-3.54,5.54c-2.59,3-6.44,5.6-10.58,5.24-.69-.06-1.43-.21-1.94-.7-.84-.8-1.24-2.31-1.7-3.35-1.06-2.4-2.11-4.8-3.17-7.2-.97-2.21-1.96-4.41-2.71-6.7-.38-1.16-.7-2.33-.92-3.53-.09-.45-.15-.9-.19-1.36-.02-.29-.05-.58-.05-.87,0-.19,0-.38,0-.57l-.06,.2c-1.22,.38-.04,.25,.2,.24,.6-.03,1.22,0,1.82,0,1.4,0,2.8,.02,4.19,.03,2.63,.02,5.26,.04,7.9,.05s5.43,.04,8.14,.05c1.17,0,2.34,0,3.51,.03,.6,.02,1.63-.01,2.13,.39,.53,.44,.49,1.37,.5,2,.02,1.01-.05,2.02-.24,3.01-.38,1.96-1.05,3.84-2.01,5.59-1.96,3.56-4.97,6.97-8.6,8.88-1.63,.86-3.52,1.22-5.09,.05-1.44-1.07-2.2-2.87-2.69-4.53-.67-2.27-1-4.63-1.73-6.88s-1.65-4.29-2.83-6.25c-.57-.95-1.21-1.85-1.88-2.73-.38-.5-.77-.99-1.18-1.47-.11-.13-.22-.27-.35-.39l-.2-.32c0,.72-.22,1.3-.65,1.76,.29,.11,.93,.03,1.28,.04,.65,.01,1.31,.03,1.96,.04,1.39,.03,2.77,.06,4.16,.09,2.69,.06,5.38,.12,8.07,.18,1.18,.03,2.39-.01,3.56,.09,.94,.08,1.41,.5,1.91,1.28,2.31,3.61,1.28,7.76-1.29,10.92-1.36,1.68-2.96,3.36-4.66,4.7-1.35,1.06-2.72,1.62-4.09,.33-1.62-1.54-2.81-3.62-3.93-5.53s-2.23-4.05-3.09-6.18c-.22-.55-.45-1.1-.64-1.66-.03-.09-.25-.77-.23-.77-.02,0-.44,1.04-.44,1.04,.08,.14,2.79-.04,3.1-.03,2.59,.02,5.18,.09,7.77,.19,1.29,.05,2.59,.11,3.88,.19,.43,.03,1.37,0,1.67,.34,.75,.85-1.22,3.55-1.68,4.21-1.13,1.63-2.6,3.14-4.24,4.27-.43,.3-.88,.58-1.33,.86-.08,.05-.37,.15-.42,.24-.2,.41,1.07,1.35,1.11,.69,.03-.44-.31-1.2-.41-1.62-.17-.71-.35-1.41-.52-2.12-.62-2.51-1.23-5.03-1.85-7.54l-3.08,3.08c1.75,.3,3.49,.65,5.22,1.05,.79,.18,1.57,.38,2.35,.58,.71,.19,1.72,.31,2.32,.66l-.9-.9,.18,.25-.34-1.26c.2-.47,.22-.56,.04-.25-.1,.17-.21,.34-.33,.51-.2,.28-.38,.5-.61,.76-.45,.5-.92,1.03-1.55,1.31l1.26-.34h-.32c.42,.13,.84,.24,1.26,.35l.23,.28c-.11-.18-.22-.37-.31-.57-.14-.27-.24-.5-.35-.79-.21-.6-.39-1.23-.46-1.86-.15-1.34-1.04-2.5-2.5-2.5-1.23,0-2.65,1.15-2.5,2.5,.27,2.4,.99,6.04,3.37,7.26,2.75,1.41,5.42-1.87,6.79-3.87,.76-1.11,1.3-2.42,.75-3.74-.62-1.5-2.12-1.9-3.55-2.29-2.88-.8-5.79-1.44-8.74-1.95-1.87-.32-3.56,1.1-3.08,3.08,.81,3.3,1.61,6.6,2.42,9.9,.35,1.43,.7,2.92,2.01,3.79,1.5,.99,3.15,.64,4.65-.15,2.48-1.32,4.74-3.31,6.49-5.5s3.33-4.59,3.6-7.39c.3-3.16-1.83-5.63-4.91-6.12-3.11-.5-6.39-.43-9.54-.5-1.62-.04-3.24-.06-4.85-.07-1.51,0-3.13-.1-4.51,.63-3.53,1.88-1.71,5.8-.53,8.55s2.63,5.49,4.3,8.04,3.39,5.19,6.24,6.3c3.01,1.17,5.92-.18,8.26-2.09,2.2-1.79,4.23-3.95,5.89-6.25,3.58-4.96,4.03-11.76,.07-16.67-2.19-2.72-5.25-2.6-8.45-2.67-3.43-.08-6.85-.15-10.28-.23-1.55-.03-3.1-.07-4.65-.1s-3.11,.02-4.26,1.16c-2.83,2.81,.69,5.81,2.26,8.08s2.71,4.65,3.47,7.24c.87,2.98,1.23,6.05,2.54,8.89,1.16,2.51,3.17,4.67,5.78,5.66,2.89,1.1,6.06,.29,8.66-1.18,4.76-2.7,8.79-7.42,10.97-12.41,1.9-4.34,4.12-12.96-1.36-15.69-2.76-1.37-6.3-.91-9.28-.93-3.29-.02-6.58-.04-9.87-.07-3.45-.02-6.91-.1-10.36-.07-1.35,.01-2.66,.18-3.76,1.02-1.35,1.04-1.77,2.66-1.72,4.3,.22,6.49,3.58,12.59,6.13,18.4,.66,1.5,1.32,3,1.98,4.5,.7,1.59,1.44,3.06,2.88,4.11,2.37,1.73,5.53,1.74,8.3,1.22,5.79-1.1,10.4-5.48,13.38-10.35,1.54-2.52,2.86-5.31,3.81-8.12,1-2.96,1-6.18-1.05-8.68-1.53-1.87-3.89-2.85-6.17-3.44-3.06-.78-6.23-1.21-9.33-1.78l-9.8-1.81c-1.33-.24-2.7,.37-3.08,1.75-.33,1.22,.41,2.83,1.75,3.08h0Z"/>
  <path class="cls-8" d="M290.12,215.15c.61,.89,.8,2.06,1.47,2.98,1.16,1.6,2.88,1.94,4.75,1.61,2.99-.51,5.8-1.95,8.35-3.55s4.87-3.33,7.45-4.75c2.97-1.64,6.2-2.7,9.41-3.77,1.93-.64,2.26-2.68,1.1-4.18-1.84-2.38-3.85-4.61-6.04-6.67-1.12-1.05-2.3-2.1-3.92-2.13-1.47-.03-2.91,.76-4.21,1.35-5.02,2.3-9.63,5.59-13.51,9.51-.9,.91-1.76,1.86-2.58,2.85-.95,1.14-2.2,2.41-2.59,3.87-.45,1.7,.48,3.14,1.37,4.5s1.94,2.73,3.01,4c.91,1.08,1.81,2.05,3.26,2.33,1.53,.29,3.11-.21,4.47-.9,2.28-1.15,3.88-3.23,5.9-4.74,4.62-3.45,10.49-4.72,14.57-8.98,.91-.95,1.01-2.6,0-3.54-2.11-1.96-4.47-3.69-7.04-5.01-2.76-1.42-5.62-2.04-8.39-.27-2.39,1.53-4.57,3.58-6.61,5.55s-4.1,4.24-5.93,6.55c-.7,.88-1,1.99-.39,3.03,.55,.94,1.76,1.46,2.82,1.15,6.64-1.93,12.71-5.33,17.85-9.94,2.4-2.15-1.15-5.68-3.54-3.54-4.49,4.03-9.84,6.98-15.64,8.66l2.43,4.18c3.08-3.87,6.56-7.4,10.42-10.49,.6-.48,1.35-1.18,2.14-1.29,.91-.13,1.93,.53,2.7,.94,2.06,1.1,3.94,2.44,5.65,4.03v-3.54c-2.84,2.96-6.8,4.35-10.35,6.24-1.97,1.04-3.79,2.28-5.45,3.77-1.38,1.24-2.58,2.3-4.22,3.14-.39,.2-.52,.02-.12,.26-.43-.26-.81-.91-1.13-1.29-.85-1.02-1.62-2.09-2.34-3.2-.06-.1-.48-.78-.49-.78,.22-.06-.75,1.17,.07,.26,.3-.34,.56-.74,.85-1.09,.72-.89,1.48-1.75,2.27-2.58,3.02-3.18,6.5-5.85,10.35-7.95,1.12-.61,2.27-1.19,3.45-1.69,.39-.16,1.14-.23,.53-.44-.38-.14,.23,.24,.31,.31,.28,.25,.55,.51,.82,.77,2.07,1.97,3.97,4.1,5.72,6.36l1.1-4.18c-2.98,.99-5.95,2-8.79,3.34-2.44,1.15-4.67,2.65-6.91,4.15-2.06,1.37-4.17,2.82-6.49,3.73-.61,.24-1.23,.44-1.86,.6-.25,.06-.53,.09-.77,.18-1.27,.44,.79-.14,.34,.54,0-.01-.39-.85-.42-.93-.23-.64-.49-1.28-.88-1.84-.76-1.11-2.2-1.61-3.42-.9-1.1,.64-1.66,2.3-.9,3.42h0Z"/>
  <path class="cls-8" d="M266.49,222.33l4.09-.6c1.17-.17,2.53-.59,3.71-.45l-1.26-.34c-.34-.47-.4-.52-.17-.14,.1,.21,.19,.42,.28,.63,.22,.5,.44,1.01,.66,1.51,.35,.81,.7,1.62,1.04,2.44,.82,1.97,1.62,3.94,2.4,5.92,.18,.45,.35,.9,.53,1.34,.1,.25,.33,1.31,.55,1.43,.49-1.1,.51-1.41,.06-.92-.2,.18-.39,.35-.59,.52-.35,.3-.7,.6-1.05,.9-1.5,1.26-3.08,2.41-4.71,3.5l3.67,1.49c-1-2.75-1.94-5.52-2.81-8.31-.42-1.36-.83-2.73-1.22-4.11-.19-.65-.37-1.31-.55-1.97-.11-.39-.21-.79-.32-1.18l-.1-.39c-.11-.55-.14-.53-.08,.08l-.64,1.1,.2-.19-1.1,.64c1.31-.54,2.98-.59,4.38-.83l-3.08-1.75c.97,4.2,1.78,8.43,2.45,12.69,.21,1.33,1.88,2.07,3.08,1.75,1.42-.39,1.96-1.74,1.75-3.08-.67-4.26-1.49-8.49-2.45-12.69-.32-1.41-1.79-1.97-3.08-1.75-1.91,.33-4.97,.28-6.07,2.17-.67,1.15-.38,2.37-.06,3.57,.28,1.05,.57,2.1,.87,3.15,1.19,4.19,2.54,8.33,4.04,12.42,.52,1.42,2.23,2.46,3.67,1.49s2.93-2.06,4.34-3.16c1.16-.91,2.46-1.84,3.43-2.96,1.5-1.72,.85-3.47,.12-5.34-.62-1.6-1.26-3.2-1.91-4.78s-1.38-3.32-2.08-4.97c-.61-1.42-1.09-3.29-2.4-4.24-1.62-1.18-3.75-.47-5.57-.2s-3.54,.52-5.31,.78c-1.34,.2-2.07,1.89-1.75,3.08,.39,1.43,1.73,1.94,3.08,1.75h0Z"/>
  <path class="cls-8" d="M207.31,227.84c1.79,1.85,3.58,3.71,5.37,5.56,.83,.86,1.64,1.92,2.66,2.55,1.22,.75,2.64,.53,3.85-.09,3.39-1.76,5.51-5.08,8.49-7.34,.49-.38,1.2-.82,1.82-1.1,.8-.36,1.94-.57,2.77-1.11,1.09-.71,1.88-1.93,1.89-3.25,.02-1.48-.86-2.46-1.94-3.33-1.97-1.57-3.93-3.16-5.9-4.72-.9-.71-1.77-1.37-2.92-1.62-1.4-.3-2.8,.07-4.05,.7-2.23,1.13-4.28,3.01-6.13,4.66-1.97,1.76-3.8,3.67-5.5,5.7-.86,1.04-1.02,2.52,0,3.54s2.57,.95,3.54,0c1.46-1.43,3.57-2.03,5.43-2.75,1.2-.47,2.41-.93,3.61-1.4,.67-.26,1.34-.52,2.01-.78,.27-.1,.53-.21,.8-.31,.39-.15,1.11-.17,.18-.35-.57-.11-.6-.2-.94-.6-.18-.21,.33,.35-.01-.01-.26-.27,.45-.44-.2-.13-.79,.38-1.68,.95-2.44,1.45-2.06,1.38-3.74,3.05-5.23,5.02l3.93-.51c-.67-.72-.94-1.53-1.09-2.49-.21-1.34-1.88-2.07-3.08-1.75-1.43,.39-1.95,1.74-1.75,3.08,.28,1.79,1.15,3.37,2.38,4.69s3.01,.71,3.93-.51c.76-1,1.7-1.93,2.69-2.7,1.08-.84,2.34-1.37,3.44-2.17,1.29-.93,2.34-2.22,2.4-3.88,.06-1.48-.61-3.08-1.92-3.86-1.52-.9-2.92-.4-4.42,.18-1.61,.62-3.21,1.24-4.82,1.86-2.95,1.14-6.13,2.08-8.44,4.35,1.18,1.18,2.36,2.36,3.54,3.54,2.48-2.97,5.27-5.73,8.36-8.07,.8-.61,2.18-2.09,3.16-1.38,1.74,1.27,3.38,2.7,5.06,4.05,.4,.32,.88,.88,1.35,1.08l.26,.21c.37-.7,.37-1.27,0-1.72-.59-.11-1.99,.69-2.47,.93-1.4,.68-2.64,1.66-3.79,2.7s-2.26,2.24-3.41,3.34c-.53,.51-1.08,1.03-1.66,1.48-.22,.17-.51,.36-.77,.53-.14,.09-.65,.25-.46,.27l1.26,.34c-.41-.18-1.03-.97-1.47-1.42l-1.99-2.06-3.83-3.97c-2.24-2.32-5.77,1.22-3.54,3.54h0Z"/>
  <path class="cls-8" d="M184.51,188.75l5.11-.66c.46-.06,.93-.12,1.39-.18,.21-.03,.42-.06,.63-.08,.47-.02,.25-.17-.69-.45-.1,.14,.77,1.71,.87,1.92,1.35,3.04,2.67,6.08,4.14,9.06,1.43,2.9,3,5.73,4.85,8.39,.45,.64,.94,1.25,1.39,1.9l.21,.3c.26,.58,.34,.4,.22-.54-.1,0-.23,.24-.34,.31-1.33,.85-2.54,2.09-3.98,2.75l1.26-.34c.85,.46,1.01,.44,.48-.06-.2-.23-.4-.47-.59-.71-.35-.43-.68-.88-1.01-1.33-.72-1-1.39-2.03-2.05-3.08-1.28-2.03-2.52-4.08-3.76-6.14-2.59-4.31-5.11-8.66-7.56-13.04l-1.49,3.67c.63-.12,1.27-.17,1.91-.17,1.48,0-.09-.12,.05-.49-.02,.07,.27,.54,.31,.63,.61,1.34,1.17,2.71,1.79,4.04,1.21,2.61,2.5,5.17,3.87,7.69,2.3,4.23,5.08,8.99,10.42,9.33l-.66-4.91c1.38-.3,.8,.6,.66-.09-.03-.16-.25-.51-.31-.65-.37-.95-.61-1.97-.95-2.93-.69-1.93-1.49-3.82-2.35-5.68-1.75-3.76-3.8-7.37-5.85-10.96-1.59-2.79-5.92-.28-4.32,2.52,2.4,4.2,4.83,8.42,6.71,12.89,.92,2.2,1.44,4.57,2.44,6.73s2.89,3.52,5.3,3c2.88-.62,2.02-4.74-.66-4.91-1.79-.11-3.13-1.9-4.04-3.29-1.51-2.31-2.76-4.82-4-7.28s-2.49-5.17-3.63-7.81c-.59-1.36-1.53-2.38-3.03-2.7-1.6-.35-3.39-.07-4.97,.22s-2.22,2.37-1.49,3.67c2.81,5.02,5.7,10,8.69,14.91,1.43,2.35,2.84,4.71,4.41,6.96,1.33,1.9,3.28,5.42,6.04,4.9,1.28-.24,2.31-1.2,3.34-1.93s2.26-1.44,3.11-2.42c.97-1.11,1.4-2.62,.94-4.06-.39-1.24-1.32-2.21-2.05-3.25-2.97-4.22-5.21-8.89-7.32-13.58-.61-1.35-1.2-2.7-1.8-4.05s-1.08-2.79-2.44-3.54-2.91-.3-4.32-.12l-4.88,.63c-1.34,.17-2.5,1.02-2.5,2.5,0,1.22,1.15,2.68,2.5,2.5h0Z"/>
  <path class="cls-8" d="M245.64,132.06c-6.07-.69-11.77,2.84-15.15,7.68-1.69,2.41-2.84,5.24-3.56,8.08-.78,3.06-1.29,6.4-.95,9.56,1.26,11.72,14.25,19.58,25.33,18.74,10.85-.82,20.37-9.59,21.15-20.62,.37-5.21-1.43-10.47-4.63-14.55-3.71-4.73-8.95-6.85-14.74-7.84s-13.18-2.12-18.37,1.99c-5.7,4.52-6.23,13.47-5.32,20.09,.18,1.34,1.9,2.07,3.08,1.75,1.44-.4,1.93-1.73,1.75-3.08-.37-2.7-.27-5.52,.28-8.18,.46-2.21,1.14-4.55,2.78-6.19,2.98-2.99,7.99-2.53,11.8-1.99,4.61,.65,9.56,1.4,13.12,4.67,2.92,2.7,4.91,6.55,5.25,10.53,.7,8.21-5.27,15.79-13.1,17.89-8.45,2.26-18.69-2.09-22.44-10.13-1.21-2.59-1.19-5.48-.77-8.26s1.12-5.41,2.4-7.83c2.38-4.52,6.81-7.9,12.11-7.3,1.34,.15,2.5-1.26,2.5-2.5,0-1.48-1.15-2.35-2.5-2.5h0Z"/>
  <path class="cls-8" d="M256.96,160.74c.14-.52,.31-1.02,.51-1.52l-1.26,2.99c.39-.91,.89-1.74,1.49-2.53l-1.95,2.53c.56-.7,1.18-1.33,1.88-1.89l-2.53,1.95c.59-.45,1.2-.82,1.87-1.12l-2.99,1.26c.59-.24,1.19-.41,1.82-.52l-3.32,.45c.54-.07,1.06-.08,1.6-.02l-3.32-.45c.37,.06,.72,.15,1.07,.28l-2.99-1.26c.34,.15,.65,.33,.95,.56l-2.53-1.95c.24,.21,.45,.43,.65,.68l-1.95-2.53c.18,.27,.33,.54,.47,.83l-1.26-2.99c.14,.38,.24,.76,.31,1.16l-.45-3.32c.07,.59,.06,1.16,0,1.74l.45-3.32c-.12,.85-.34,1.66-.65,2.46l1.26-2.99c-.14,.33-.3,.64-.5,.94l1.95-2.53c-.11,.14-.22,.27-.36,.39l2.53-1.95c-.22,.17-.42,.29-.67,.41l2.99-1.26c-.34,.12-.68,.21-1.03,.27l3.32-.45c-1.81,.24-3.65,.19-5.45-.03l3.32,.45c-1.92-.27-3.79-.76-5.58-1.51l2.99,1.26c-.7-.3-1.36-.66-1.97-1.11l2.53,1.95c-.32-.26-.6-.54-.86-.86l1.95,2.53c-.19-.27-.35-.54-.48-.85l1.26,2.99c-.09-.26-.16-.51-.21-.79l.45,3.32c-.04-.37-.04-.71-.01-1.08l-.45,3.32c.09-.66,.27-1.26,.53-1.87l-1.26,2.99c.3-.66,.66-1.26,1.1-1.83l-1.95,2.53c.39-.48,.82-.91,1.3-1.31l-2.53,1.95c.41-.31,.84-.57,1.31-.79l-2.99,1.26c.39-.15,.77-.26,1.18-.33l-3.32,.45c.33-.03,.65-.03,.98,0l-3.32-.45c.17,.02,.33,.06,.49,.1,3.2,.79,6.76,.42,9.63-1.26,1.46-.79,2.63-1.86,3.51-3.22,1.1-1.21,1.85-2.62,2.24-4.25,.73-3.2,.57-6.79-1.26-9.63s-4.28-4.96-7.47-5.74c-2.88-.71-5.97-.83-8.84,.05-3.02,.93-5.38,2.41-7.7,4.51-1.42,1.29-2.64,2.91-3.58,4.59-1.62,2.87-2.42,5.66-2.61,8.92-.36,6.17,3.29,11.65,8.38,14.8,1.67,1.03,3.59,1.71,5.43,2.37,1.16,.41,2.36,.73,3.57,.94,4.47,.78,8.54,1.02,13.01,.18,6.04-1.15,10.38-6.41,11.77-12.19,1.15-4.8,.85-9.85-1.71-14.18-2.95-4.99-8.7-8.14-14.5-7.97-9.7,.28-17.85,7.6-20.32,16.81-.84,3.15-.39,6.81,1.26,9.63,.79,1.46,1.86,2.63,3.22,3.51,1.21,1.1,2.62,1.85,4.25,2.24,3.2,.73,6.79,.57,9.63-1.26s4.89-4.27,5.74-7.47h0Z"/>
  <path class="cls-8" d="M246.24,17.08c.1,.3,.23,.59,.37,.87,.04,.09,.09,.18,.14,.26,.16,.26,.37,.51,.56,.75,.06,.08,.13,.16,.2,.23s.15,.14,.23,.21c.24,.19,.48,.39,.74,.56,.35,.23,.75,.38,1.14,.53,.33,.1,.66,.12,1,.04,.33-.02,.64-.11,.93-.3,.29-.16,.53-.37,.7-.64,.22-.24,.37-.52,.45-.85l.09-.66c0-.45-.12-.87-.34-1.26l-.39-.51c-.31-.31-.68-.52-1.1-.64-.04-.01-.08-.03-.12-.05l.6,.25c-.21-.09-.41-.21-.6-.35l.51,.39c-.19-.15-.36-.32-.51-.51l.39,.51c-.14-.19-.26-.39-.35-.6l.25,.6c-.02-.05-.04-.11-.06-.16-.08-.33-.23-.61-.45-.85-.18-.27-.41-.49-.7-.64-.29-.18-.6-.28-.93-.3-.33-.07-.66-.06-1,.04l-.6,.25c-.38,.22-.67,.52-.9,.9l-.25,.6c-.12,.44-.12,.89,0,1.33h0Z"/>
  <path class="cls-8" d="M250.29,17.6c3.22,0,3.22-5,0-5s-3.22,5,0,5h0Z"/>
  <path class="cls-8" d="M254.25,3.75c-.76,.09-1.59,.13-2.33,.33-.41,.11-.86,.34-1.21,.49s-.84,.31-1.19,.54c-.06,.04-.12,.09-.18,.13-.52,.38-1.13,.81-1.6,1.25-.11,.1-.21,.21-.3,.33-.45,.56-.98,1.13-1.32,1.76-.41,.75-.83,1.62-.99,2.49-.34,1.91-.37,2.69,.02,4.61,.18,.87,.57,1.71,1,2.48s.97,1.51,1.63,2.09c.55,.48,1.12,.97,1.74,1.34s1.41,.66,2.12,.93c.85,.33,1.94,.39,2.76,.46,.31,.03,.62,.02,.94,0,1.17-.11,2.48-.22,3.61-.65,.83-.32,1.7-.63,2.47-1.08s1.46-1.02,2.12-1.6c.11-.1,.22-.21,.31-.32,.47-.54,.94-1.15,1.34-1.74,.49-.73,.8-1.6,1.07-2.42,.04-.13,.07-.26,.1-.4,.13-.71,.27-1.53,.29-2.25,0-.12,0-.24,0-.36-.05-.75-.16-1.56-.31-2.3-.11-.57-.36-1.07-.59-1.6s-.41-1.08-.74-1.55c-.42-.61-.89-1.21-1.37-1.77-.08-.09-.16-.19-.25-.27s-.19-.16-.28-.24c-.57-.46-1.15-.97-1.78-1.35-.14-.09-.29-.16-.43-.23-.67-.31-1.39-.63-2.09-.87-.89-.31-1.88-.35-2.8-.46-.32-.04-.64-.05-.96-.04-.15,0-.3,.03-.45,.04-.79,.09-1.6,.17-2.38,.34-.32,.07-.63,.16-.93,.28-.85,.33-1.73,.66-2.54,1.1s-1.54,1.09-2.19,1.62c-.24,.2-.45,.41-.65,.65-.31,.38-1.02,1.2-1.37,1.82-.21,.37-.37,.82-.53,1.2s-.37,.79-.48,1.2c-.2,.74-.25,1.55-.33,2.31-.11,.93,.12,1.89,.27,2.8,.02,.16,.06,.32,.1,.47,.22,.71,.55,1.42,.87,2.09,.37,.79,1.07,1.61,1.59,2.2,.09,.11,.19,.21,.3,.3,.57,.49,1.19,1.01,1.84,1.4s1.4,.64,2.09,.91c.14,.06,.28,.11,.43,.15,.91,.24,1.89,.39,2.84,.36,.79-.03,1.62-.16,2.39-.31,.15-.03,.3-.06,.44-.11,.7-.24,1.45-.55,2.11-.89,.17-.09,.33-.19,.48-.3,.87-.47,1.58-1.12,2.1-1.93,.66-.72,1.11-1.57,1.34-2.55,.31-1,.36-1.99,.13-2.99-.05-1-.34-1.93-.89-2.79-1.03-1.6-2.57-3.01-4.48-3.45l-1.99-.27c-1.35,0-2.62,.35-3.79,1.02-.18,.14-.37,.26-.58,.35l1.79-.76c-.25,.1-.5,.17-.76,.21l1.99-.27c-.27,.03-.53,.03-.8,0l1.99,.27c-.27-.04-.52-.11-.76-.22l1.79,.76c-.17-.08-.33-.17-.49-.28l1.52,1.17c-.17-.13-.33-.28-.47-.45l1.17,1.52c-.15-.2-.28-.41-.38-.64l.76,1.79c-.11-.27-.18-.54-.22-.83l.27,1.99c-.02-.25-.02-.5,0-.75l-.27,1.99c.04-.21,.09-.42,.17-.62l-.76,1.79c.09-.22,.21-.42,.35-.61l-1.17,1.52c.2-.26,.44-.49,.69-.69l-1.52,1.17c.37-.28,.77-.5,1.19-.68l-1.79,.76c.48-.2,.98-.34,1.5-.42l-1.99,.27c.47-.06,.94-.07,1.41,0l-1.99-.27c.34,.05,.66,.14,.98,.26l-1.79-.76c.29,.12,.56,.27,.81,.46l-1.52-1.17c.22,.18,.42,.38,.6,.6l-1.17-1.52c.2,.26,.36,.53,.48,.82l-.76-1.79c.11,.26,.18,.53,.22,.81l-.27-1.99c.03,.24,.03,.48,.01,.72l.27-1.99c-.03,.24-.09,.47-.18,.7l.76-1.79c-.09,.2-.2,.39-.34,.57l1.17-1.52c-.17,.21-.35,.39-.56,.55l1.52-1.17c-.28,.21-.58,.37-.89,.52l1.79-.76c-.55,.23-1.12,.37-1.71,.45l1.99-.27c-.38,.04-.75,.06-1.12,.01l1.99,.27c-.25-.04-.48-.1-.71-.19l1.79,.76c-.15-.07-.28-.14-.42-.24l1.52,1.17c-.15-.12-.28-.25-.4-.39l1.17,1.52c-.11-.15-.21-.31-.28-.49l.76,1.79c-.07-.18-.12-.35-.15-.54l.27,1.99c-.02-.19-.02-.37,0-.56l-.27,1.99c.03-.19,.08-.36,.15-.54l-.76,1.79c.07-.14,.14-.26,.23-.39l-1.17,1.52c.12-.15,.25-.28,.39-.41l-1.52,1.17c.15-.12,.31-.21,.48-.3l-1.79,.76c.18-.07,.35-.12,.54-.16l-1.99,.27h.11c1.03,.03,2-.19,2.89-.66,.93-.3,1.73-.82,2.41-1.55,.73-.68,1.25-1.48,1.55-2.41,.47-.89,.68-1.86,.65-2.89l-.27-1.99c-.36-1.27-1-2.37-1.93-3.31l-1.52-1.17c-1.17-.68-2.43-1.02-3.79-1.02h0Z"/>
  <path class="cls-8" d="M249.17,58c.53,.93,1.24,1.79,1.91,2.61s1.61,1.46,2.43,2.04c.17,.12,.35,.23,.54,.32,.67,.32,1.54,.76,2.35,.95,.05,.01,.1,.02,.15,.03,.64,.12,1.42,.21,2.07,.28,.1,.01,.21,.02,.31,.02,.84-.01,1.7-.11,2.5-.35,1.69-.51,2.88-1.24,4.17-2.43,.07-.07,.14-.14,.2-.21,.23-.26,.49-.63,.65-.83,.19-.25,.46-.57,.66-.86,.05-.07,.09-.14,.13-.21,.02-.04,.04-.07,.05-.11,.27-.55,.6-1.32,.8-1.9,.51-1.43,.48-3.42,.05-4.88-.22-.76-.51-1.54-.96-2.2-.31-.45-.86-1.16-1.21-1.57-.03-.03-.06-.07-.09-.1-.51-.52-1.12-.94-1.72-1.34-.09-.06-.18-.11-.28-.16-.53-.25-1.3-.58-1.85-.78-.06-.02-.12-.05-.19-.07-.84-.25-1.74-.31-2.6-.37-.23-.02-.45-.01-.68,0-.89,.06-1.78,.22-2.66,.34-.98,.23-1.83,.68-2.55,1.34-.82,.53-1.46,1.23-1.93,2.1-.55,.86-.84,1.79-.89,2.79-.22,1-.18,1.99,.13,2.99l.76,1.79c.67,1.13,1.56,2.02,2.69,2.69l1.79,.76c1.33,.36,2.66,.36,3.99,0,.05,0,.09-.01,.14-.02l-1.99,.27c.47-.06,.94-.1,1.41-.04l-1.99-.27c.2,.03,.39,.08,.58,.15l-1.79-.76c.14,.06,.27,.13,.39,.22l-1.52-1.17c.1,.08,.2,.18,.28,.28l-1.17-1.52c.06,.08,.11,.17,.15,.27l-.76-1.79c.04,.11,.07,.22,.09,.34l-.27-1.99c.01,.12,0,.23,0,.35l.27-1.99c-.02,.14-.06,.27-.11,.4l.76-1.79c-.08,.17-.17,.33-.28,.48l1.17-1.52c-.12,.15-.26,.29-.41,.41l1.52-1.17c-.16,.12-.32,.22-.5,.3l1.79-.76c-.16,.07-.32,.11-.49,.14l1.99-.27c-.18,.02-.35,.02-.53,0l1.99,.27c-.25-.04-.48-.11-.71-.2l1.79,.76c-.25-.11-.48-.25-.7-.42l1.52,1.17c-.35-.27-.65-.58-.92-.92l1.17,1.52c-.24-.31-.45-.63-.64-.97-.47-.87-1.12-1.58-1.93-2.1-.72-.66-1.57-1.11-2.55-1.34-1-.31-1.99-.36-2.99-.13-1,.05-1.93,.34-2.79,.89l-1.52,1.17c-.93,.94-1.57,2.04-1.93,3.31l-.27,1.99c0,1.35,.35,2.62,1.02,3.79h0Z"/>
  <path class="cls-8" d="M312.71,194.82c-5.17-1.53-11.2-.96-15.85,1.84-2.26,1.36-4.45,3.37-5.6,5.77-1.36,2.82-1.73,5.82-1.6,8.92,.15,3.67,1.07,6.84,3.45,9.69,1.71,2.05,4.24,3.32,6.74,4.14,2.12,.69,4.48,.93,6.67,1.18,2.95,.33,5.93-.21,8.58-1.57,3.21-1.64,5.27-4.76,6.46-8.06,.99-2.73,1-5.79,.88-8.67-4.66,1.26-9.32,2.52-13.98,3.79,.09,.18,.18,.37,.26,.56l-.76-1.79c.31,.77,.52,1.55,.63,2.38l-.27-1.99c.07,.73,.07,1.43,0,2.16l.27-1.99c-.04,.31-.1,.61-.17,.91-.43,1.96-.28,4.02,.76,5.78,.91,1.56,2.69,3.04,4.48,3.45,1.92,.44,4.07,.34,5.78-.76s2.72-2.56,3.45-4.48c1.17-3.06,1.12-6.66,.35-9.81s-2.53-6.25-4.93-8.31c-1.25-1.07-2.53-2.05-4.04-2.71-2.23-.97-3.94-1.44-6.39-1.7-3.35-.35-6.85,.57-9.76,2.2-3.42,1.92-4.86,6.9-2.69,10.26s6.6,4.74,10.26,2.69c.31-.18,.63-.34,.96-.48l-1.79,.76c.84-.34,1.69-.57,2.59-.69l-1.99,.27c.9-.1,1.79-.08,2.69,.04l-1.99-.27c.8,.13,1.58,.34,2.33,.64l-1.79-.76c.75,.32,1.44,.71,2.1,1.19l-1.52-1.17c.63,.49,1.18,1.05,1.68,1.68l-1.17-1.52c.47,.64,.87,1.31,1.19,2.04l-.76-1.79c.38,.9,.63,1.82,.76,2.79l-.27-1.99c.1,.88,.09,1.75-.03,2.62l.27-1.99c-.11,.7-.29,1.37-.54,2.03l14.46,3.99c.92-4.13,.38-8-1.48-11.78l-1.17-1.52c-.68-.73-1.48-1.25-2.41-1.55-1.49-.63-3.3-.89-4.88-.38-3.06,.99-5.64,3.85-5.51,7.23,.06,1.52,.1,3.04-.09,4.56l.27-1.99c-.13,.82-.32,1.6-.63,2.38l.76-1.79c-.27,.61-.58,1.17-.98,1.71l1.17-1.52c-.3,.37-.61,.69-.97,.99l1.52-1.17c-.39,.3-.79,.53-1.24,.74l1.79-.76c-.57,.22-1.14,.37-1.74,.45l1.99-.27c-1.14,.12-2.26,.04-3.39-.11l1.99,.27c-1.63-.23-3.27-.5-4.81-1.11l1.79,.76c-.64-.27-1.23-.6-1.79-1.02l1.52,1.17c-.33-.28-.62-.58-.89-.91l1.17,1.52c-.23-.32-.42-.64-.59-1l.76,1.79c-.28-.66-.44-1.32-.55-2.02l.27,1.99c-.19-1.58-.22-3.25-.01-4.82l-.27,1.99c.09-.54,.22-1.05,.43-1.56l-.76,1.79c.22-.49,.49-.94,.82-1.37l-1.17,1.52c.41-.49,.85-.91,1.35-1.3l-1.52,1.17c.67-.49,1.37-.88,2.13-1.21l-1.79,.76c1.08-.44,2.19-.72,3.35-.88l-1.99,.27c1.07-.12,2.13-.12,3.2,0l-1.99-.27c.75,.1,1.47,.26,2.19,.47,3.76,1.11,8.34-1.34,9.23-5.24s-1.21-8.03-5.24-9.23h0Z"/>
  <path class="cls-8" d="M430.29,224.55c-1.96,.24-3.31,.5-5.1,1.35-1.12,.54-2.18,1.37-3.07,2.22-1.88,1.81-3.2,4.33-3.84,6.84-1.02,4.02-.97,8.34-.2,12.39,.84,4.41,3.42,8.23,7.1,10.75s8.34,3.04,12.51,2.6,8.28-1.39,11.68-3.87c3.67-2.69,6.71-6.46,7.46-11.08,.41-2.56,.55-5.18-.3-7.69s-2.12-4.64-3.97-6.43c-3.06-2.96-7.26-5-11.25-6.36-2.92-.99-5.97-1.14-8.99-.6-2.63,.47-4.92,1.89-6.93,3.58-3.22,2.7-5.23,7.01-6.18,11.03-.89,3.81,1.19,8.3,5.24,9.23,3.84,.87,8.27-1.15,9.23-5.24,.26-1.1,.59-2.16,1.03-3.2l-.76,1.79c.45-1.03,.99-1.99,1.66-2.89l-1.17,1.52c.54-.68,1.13-1.29,1.81-1.83l-1.52,1.17c.52-.38,1.06-.7,1.65-.96l-1.79,.76c.56-.22,1.12-.38,1.72-.49l-1.99,.27c.81-.11,1.6-.1,2.41-.02l-1.99-.27c1.38,.2,2.68,.62,3.96,1.14l-1.79-.76c2.01,.86,4,1.85,5.74,3.18l-1.52-1.17c.67,.55,1.27,1.13,1.8,1.82l-1.17-1.52c.35,.49,.65,1,.89,1.55l-.76-1.79c.25,.64,.42,1.28,.52,1.97l-.27-1.99c.07,.69,.06,1.36-.01,2.05l.27-1.99c-.14,.93-.38,1.8-.75,2.67l.76-1.79c-.35,.75-.75,1.44-1.25,2.11l1.17-1.52c-.6,.75-1.28,1.4-2.04,1.99l1.52-1.17c-.9,.65-1.85,1.18-2.86,1.62l1.79-.76c-1.39,.56-2.81,.92-4.29,1.14l1.99-.27c-1.78,.23-3.56,.29-5.34,.05l1.99,.27c-.9-.15-1.76-.37-2.61-.71l1.79,.76c-.59-.27-1.14-.57-1.67-.94l1.52,1.17c-.62-.48-1.14-1-1.62-1.61l1.17,1.52c-.45-.62-.81-1.27-1.12-1.98l.76,1.79c-.46-1.16-.75-2.34-.91-3.58l.27,1.99c-.22-1.88-.17-3.76,.04-5.63l-.27,1.99c.14-1.06,.36-2.07,.75-3.07l-.76,1.79c.25-.57,.54-1.08,.9-1.58l-1.17,1.52c.3-.36,.61-.68,.96-.99l-1.52,1.17c.37-.28,.74-.51,1.16-.71l-1.79,.76c.33-.13,.63-.21,.97-.29l-1.99,.27,.34-.04c2.06-.25,3.78-.67,5.3-2.2,1.3-1.3,2.28-3.44,2.2-5.3s-.72-3.95-2.2-5.3c-1.36-1.25-3.38-2.43-5.3-2.2h0Z"/>
  <path class="cls-8" d="M494.34,227.56c-2.08,.32-4.04,1.63-5.57,3.01-1.62,1.47-2.62,3.42-3.34,5.44s-.64,4.38-.21,6.53,1.72,4.09,3.15,5.63c1.55,1.66,3.45,2.61,5.53,3.4,.45,.17,.91,.27,1.39,.34,1.16,.17,2.26,.39,3.42,.26,.74-.08,1.81-.18,2.64-.4s1.56-.59,2.31-.93c1.06-.47,2.06-1.21,2.83-2.07,1.14-1.27,2.1-2.75,2.49-4.44,.27-1.19,.44-2.45,.29-3.67-.32-2.56-.79-5.04-2.07-7.33-.88-1.56-2.23-2.93-3.77-3.87-.74-.45-1.58-.83-2.41-1.05-.44-.12-.86-.15-1.33-.21-.51-.07-1-.18-1.5-.14-1.03-.04-2,.18-2.89,.65-.93,.3-1.73,.82-2.41,1.55-1.3,1.3-2.28,3.44-2.2,5.3s.72,3.95,2.2,5.3,3.29,2.26,5.3,2.2c.28,0,.55,0,.83,.03l-1.99-.27c.5,.07,.97,.21,1.44,.4l-1.79-.76c.41,.19,.79,.41,1.15,.68l-1.52-1.17c.4,.31,.75,.66,1.07,1.05l-1.17-1.52c.27,.36,.49,.73,.68,1.14l-.76-1.79c.17,.41,.29,.83,.36,1.28l-.27-1.99c.05,.44,.05,.86,0,1.3l.27-1.99c-.07,.49-.2,.96-.38,1.41l.76-1.79c-.2,.45-.44,.87-.74,1.27l1.17-1.52c-.31,.39-.65,.73-1.03,1.04l1.52-1.17c-.35,.26-.72,.48-1.12,.66l1.79-.76c-.43,.17-.86,.28-1.31,.35l1.99-.27c-1.03,.13-2.05,.05-3.07-.08l1.99,.27c-.73-.1-1.44-.28-2.12-.56l1.79,.76c-.37-.16-.72-.36-1.05-.6l1.52,1.17c-.19-.15-.35-.31-.51-.5l1.17,1.52c-.14-.19-.25-.38-.35-.6l.76,1.79c-.07-.19-.11-.37-.14-.56-.23-.98-.68-1.83-1.34-2.55-.53-.82-1.23-1.46-2.1-1.93-1.61-.94-3.98-1.34-5.78-.76s-3.57,1.71-4.48,3.45l-.76,1.79c-.36,1.33-.36,2.66,0,3.99,.03,.2,.08,.38,.14,.56,.24,.72,.54,1.52,.94,2.17s.9,1.26,1.38,1.8c.14,.16,.3,.3,.46,.45,1.58,1.34,3.24,2.29,5.26,2.84,.4,.11,.81,.19,1.23,.25,1.16,.17,2.35,.37,3.53,.42,.86,.03,1.68-.09,2.53-.2,1.61-.22,2.57-.54,4.1-1.24,3.2-1.46,5.46-4.64,6.51-7.91s.54-7.48-1.49-10.32c-1.26-1.77-2.68-3.34-4.63-4.37-.95-.5-1.98-.97-3.03-1.23-.83-.21-1.72-.29-2.57-.38-.28-.03-.55-.04-.83-.03v15c.18-.01,.33-.01,.51,0l-1.99-.27c.17,.03,.32,.07,.49,.13l-1.79-.76c.21,.09,.41,.2,.6,.33l-1.52-1.17c.23,.18,.43,.38,.62,.61l-1.17-1.52c.23,.31,.41,.64,.57,1l-.76-1.79c.38,.96,.63,2,.79,3.01l-.27-1.99c.06,.44,.08,.87,.04,1.31l.27-1.99c-.04,.31-.12,.59-.23,.88l.76-1.79c-.08,.17-.17,.32-.28,.47l1.17-1.52c-.15,.19-.31,.35-.49,.5l1.52-1.17c-.29,.22-.6,.39-.93,.53l1.79-.76c-.38,.14-.76,.24-1.16,.3l1.99-.27c-.48,.06-.95,.06-1.42,0l1.99,.27c-.58-.08-1.14-.23-1.68-.46l1.79,.76c-.44-.2-.84-.43-1.23-.72l1.52,1.17c-.37-.29-.71-.62-1-.99l1.17,1.52c-.25-.34-.46-.69-.64-1.07l.76,1.79c-.16-.39-.27-.77-.33-1.19l.27,1.99c-.04-.41-.04-.8,0-1.21l-.27,1.99c.07-.46,.19-.89,.36-1.32l-.76,1.79c.18-.42,.41-.81,.68-1.18l-1.17,1.52c.25-.32,.53-.6,.84-.86l-1.52,1.17c.32-.25,.65-.45,1.02-.61l-1.79,.76c.33-.13,.66-.22,1.01-.28,.98-.23,1.83-.68,2.55-1.34,.82-.53,1.46-1.23,1.93-2.1,.94-1.61,1.34-3.98,.76-5.78s-1.71-3.57-3.45-4.48l-1.79-.76c-1.33-.36-2.66-.36-3.99,0h0Z"/>
  <path class="cls-8" d="M275.99,229.09c.12-.15,.25-.28,.4-.4l-1.52,1.17c.16-.11,.32-.2,.49-.28l-1.79,.76c.23-.09,.46-.15,.7-.19l-1.99,.27c.3-.04,.58-.04,.88,0l-1.99-.27c.31,.05,.61,.14,.9,.26l-1.79-.76c.41,.19,.79,.42,1.15,.69l-1.52-1.17c.75,.59,1.41,1.29,2.01,2.04l-1.17-1.52c.48,.62,.89,1.28,1.2,2l-.76-1.79c.18,.45,.32,.91,.4,1.4l-.27-1.99c.07,.51,.07,1.01,0,1.52l.27-1.99c-.07,.4-.17,.78-.33,1.16l.76-1.79c-.15,.32-.32,.61-.54,.89l1.17-1.52c-.16,.19-.33,.36-.52,.52l1.52-1.17c-.22,.17-.44,.3-.69,.42l1.79-.76c-.3,.12-.59,.2-.91,.25l1.99-.27c-.32,.04-.62,.03-.94,0l1.99,.27c-.26-.05-.51-.12-.76-.22l1.79,.76c-.2-.1-.38-.2-.56-.34l1.52,1.17c-.14-.12-.26-.24-.37-.38l1.17,1.52c-.27-.37-.46-.78-.66-1.19-.44-.88-1.07-1.7-1.74-2.4-2.16-2.25-5.77-3.42-8.79-2.4-1.85,.63-3.47,1.72-4.48,3.45-.55,.86-.84,1.79-.89,2.79-.22,1-.18,1.99,.13,2.99,.59,1.81,1.71,3.57,3.45,4.48s3.87,1.4,5.78,.76c.09-.04,.18-.06,.27-.07l-1.99,.27c.09,0,.18,0,.28,0l-1.99-.27c.09,.01,.18,.04,.27,.07l-1.79-.76c.14,.06,.26,.13,.39,.21l-1.52-1.17c.16,.13,.3,.26,.43,.42l-1.17-1.52c.27,.37,.44,.77,.64,1.18,.1,.2,.21,.4,.34,.59,.44,.67,.96,1.38,1.55,1.95,1.07,1.03,1.81,1.44,3.07,1.97,1.41,.6,2.08,.74,3.78,.88,1.95,.16,4.04-.48,5.74-1.41,.16-.09,.3-.19,.45-.3,.62-.46,1.3-.91,1.84-1.47s1.01-1.23,1.46-1.86c.12-.16,.22-.33,.32-.51,.45-.87,.89-1.81,1.12-2.78,.19-.8,.26-1.63,.36-2.44,.03-.25,.05-.51,.05-.76,0-2.26-.62-4.01-1.51-6.02-.61-1.37-1.61-2.57-2.55-3.7s-2.14-2.1-3.38-3c-.9-.66-1.98-1.09-3.03-1.46s-2.12-.49-3.18-.49-2.14,.13-3.13,.49c-.67,.25-1.62,.58-2.28,1.04s-1.41,.94-1.92,1.58c-.73,.68-1.25,1.48-1.55,2.41-.47,.89-.68,1.86-.65,2.89-.04,1.03,.18,2,.65,2.89,.3,.93,.82,1.73,1.55,2.41,1.43,1.31,3.31,2.29,5.3,2.2l1.99-.27c1.27-.36,2.37-1,3.31-1.93h0Z"/>
  <path class="cls-8" d="M231.93,222.85c-.13-2.53-.97-4.79-2.75-6.63-1.32-1.37-3.13-2.41-4.98-2.84-2.76-.64-5.59-.24-8.34,.25-2.54,.46-4.96,1.69-6.83,3.47-.83,.79-1.57,1.75-2.06,2.79-.88,1.91-1.17,3-1.35,5.12-.09,1.17,.12,2.39,.39,3.52s.75,2.33,1.43,3.31c1.08,1.56,1.99,2.5,3.54,3.59,1.09,.77,2.42,1.3,3.72,1.56,2.82,.56,5.38,.35,8.19-.19,.72-.14,1.42-.33,2.1-.58,1.18-.45,2.46-.94,3.52-1.68,1.71-1.2,2.95-2.34,4.07-4.13,.67-1.06,1.18-2.3,1.43-3.53,.4-2.01,.47-3.79-.04-5.8-.47-1.8-1.5-3.53-2.81-4.84s-3.38-2.2-5.3-2.2-4.04,.82-5.3,2.2-2.29,3.31-2.2,5.3,.76,3.87,2.2,5.3c.11,.11,.21,.22,.31,.34l-1.17-1.52c.18,.24,.32,.49,.44,.77l-.76-1.79c.11,.28,.18,.57,.22,.86l-.27-1.99c.05,.41,.04,.81-.01,1.22l.27-1.99c-.07,.42-.18,.81-.34,1.2l.76-1.79c-.17,.39-.38,.74-.63,1.08l1.17-1.52c-.29,.36-.61,.66-.97,.95l1.52-1.17c-.53,.39-1.09,.71-1.7,.96l1.79-.76c-1.02,.41-2.08,.64-3.16,.8l1.99-.27c-1.04,.14-2.07,.22-3.11,.08l1.99,.27c-.45-.07-.88-.19-1.3-.36l1.79,.76c-.29-.13-.56-.28-.82-.47l1.52,1.17c-.26-.2-.48-.42-.68-.67l1.17,1.52c-.25-.33-.46-.69-.62-1.07l.76,1.79c-.15-.39-.26-.79-.31-1.21l.27,1.99c-.05-.42-.04-.83,0-1.25l-.27,1.99c.06-.37,.15-.72,.29-1.06l-.76,1.79c.13-.3,.29-.57,.48-.83l-1.17,1.52c.24-.3,.5-.55,.8-.78l-1.52,1.17c.38-.27,.78-.49,1.22-.68l-1.79,.76c.84-.33,1.72-.51,2.62-.63l-1.99,.27c1.13-.15,2.29-.32,3.42-.18l-1.99-.27c.32,.06,.63,.14,.93,.26l-1.79-.76c.21,.1,.39,.21,.58,.35l-1.52-1.17c.18,.14,.33,.29,.48,.47l-1.17-1.52c.13,.18,.24,.36,.32,.56l-.76-1.79c.05,.16,.09,.3,.11,.47l-.27-1.99v.16c.11,1.98,.78,3.87,2.21,5.3,1.3,1.3,3.44,2.28,5.3,2.2s3.95-.72,5.3-2.2,2.3-3.31,2.2-5.3h0Z"/>
  <path class="cls-8" d="M242.97,215.39c-4.78,.77-9.07,4.39-11.41,8.52-2.54,4.48-3.63,10.11-2.64,15.18,1.14,5.85,6.16,8.94,11.31,10.89,4.44,1.68,9.2,1.95,13.85,1.24,9.32-1.42,16.47-9.49,17.15-18.79,.68-9.33-7.24-17.29-15.83-19.35-5.26-1.26-10.76-.87-15.99,.36-5.52,1.31-10.18,4.54-12.08,10.04-1.28,3.71,1.46,8.37,5.24,9.23,4.18,.95,7.85-1.26,9.23-5.24l.11-.32-.76,1.79c.17-.41,.43-.75,.62-1.14-.87,1.07-1.05,1.33-.54,.79,.4-.36,.31-.3-.26,.16-1.18,.89,.07-.01,.34-.17,.4-.23,.82-.42,1.24-.6l-1.79,.76c1.95-.78,4.03-1.18,6.11-1.47l-1.99,.27c2.26-.29,4.51-.35,6.77-.06l-1.99-.27c1.41,.21,2.77,.55,4.1,1.08l-1.79-.76c.74,.31,1.45,.66,2.13,1.08,.32,.2,.83,.43,1.07,.72l-.94-.72c.19,.16,.37,.32,.55,.48,.27,.25,.53,.5,.77,.77,.16,.18,.32,.36,.48,.55l-.73-.94c.53,.29,1.02,1.69,1.24,2.19l-.76-1.79c.32,.79,.54,1.59,.68,2.43l-.27-1.99c.12,.95,.11,1.88,0,2.83l.27-1.99c-.15,.95-.4,1.85-.76,2.74l.76-1.79c-.31,.72-.67,1.41-1.09,2.07-.91,1.4,1.11-1.2,.2-.2-.25,.27-.48,.55-.74,.81s-.53,.5-.8,.75c-1.01,.91,1.45-.95,.36-.28-.74,.46-1.47,.89-2.28,1.24l1.79-.76c-1.29,.52-2.61,.87-3.99,1.07l1.99-.27c-1.67,.2-3.32,.17-4.98-.05l1.99,.27c-1.95-.3-3.83-.84-5.65-1.61l1.79,.76c-.5-.22-.99-.44-1.47-.7-.31-.17-.7-.53-1.02-.61,.93,.76,1.17,.95,.74,.57-.15-.13-.29-.26-.42-.41,.73,1.03,.89,1.22,.47,.58-.13-.22-.24-.46-.34-.7l.76,1.79c-.18-.5-.3-.98-.39-1.5l.27,1.99c-.13-1.06-.09-2.11,.03-3.17l-.27,1.99c.21-1.55,.57-3.05,1.15-4.51l-.76,1.79c.25-.58,.52-1.15,.84-1.7,.15-.25,.33-.71,.57-.89-.3,.22-1.18,1.4-.33,.48,.17-.19,.35-.37,.54-.54,1.09-1.02-.43,.38-.48,.32-.03-.03,1.51-.88,1.65-.95l-1.79,.76c.71-.3,1.42-.5,2.18-.62,1.74-.28,3.63-1.99,4.48-3.45,.94-1.61,1.34-3.98,.76-5.78s-1.71-3.57-3.45-4.48c-1.89-1-3.68-1.1-5.78-.76h0Z"/>
  <path class="cls-8" d="M262.97,235.22c.12,.23,.26,.45,.42,.66,.47,.62,1.03,1.46,1.65,2.04s1.35,1.12,2.07,1.61c.22,.15,.44,.27,.68,.38,.67,.31,1.37,.6,2.05,.87,.13,.05,.27,.1,.4,.14,.86,.25,1.87,.32,2.69,.41,.25,.03,.49,.04,.74,.03,.92-.04,1.84-.17,2.73-.37-2.43-4.18-4.86-8.36-7.3-12.54-.04,.03-.08,.07-.13,.1l1.52-1.17c-.39,.29-.8,.53-1.25,.72l1.79-.76c-.47,.19-.96,.33-1.47,.4l1.99-.27c-.51,.07-1.01,.07-1.52,0l1.99,.27c-.11-.02-.21-.03-.32-.05l-1.99-.27c-1.03-.04-2,.18-2.89,.65-.64,.18-1.19,.5-1.65,.96-.82,.53-1.46,1.23-1.93,2.1l-.76,1.79-.27,1.99c-.04,1.03,.18,2,.65,2.89,.3,.93,.82,1.73,1.55,2.41,.54,.48,1.14,.92,1.73,1.35,.09,.07,.19,.13,.28,.19,.74,.44,1.58,.75,2.38,1.03,.21,.08,.44,.13,.66,.17,.76,.12,1.54,.25,2.3,.3,.11,0,.23,.01,.34,0,.87-.02,1.75-.17,2.61-.33,.22-.04,.44-.11,.66-.19,.68-.26,1.38-.54,2.04-.87,.11-.06,.22-.12,.33-.18,.35-.23,.69-.52,1.01-.76,.34-.26,.7-.51,1.02-.81,.73-.68,1.25-1.48,1.55-2.41,.47-.89,.68-1.86,.65-2.89,.04-1.03-.18-2-.65-2.89-.3-.93-.82-1.73-1.55-2.41l-1.52-1.17c-1.17-.68-2.43-1.02-3.79-1.02l-1.99,.27c-1.27,.36-2.37,1-3.31,1.93-.08,.08-.17,.16-.26,.23l1.52-1.17c-.24,.18-.49,.33-.76,.45l1.79-.76c-.3,.12-.6,.2-.92,.25l1.99-.27c-.32,.04-.64,.04-.96,0l1.99,.27c-.32-.04-.63-.12-.92-.24l1.79,.76c-.25-.11-.49-.24-.71-.4l1.52,1.17c-.07-.06-.14-.11-.21-.18-2.43,4.18-4.86,8.36-7.3,12.54,.84,.16,1.7,.27,2.55,.35,.23,.02,.45,.03,.68,.02,.53-.02,1.07-.11,1.6-.18s1.1-.12,1.63-.26c.21-.05,.41-.12,.61-.19,.78-.29,1.56-.61,2.31-.98,.2-.1,.4-.21,.59-.34,.7-.46,1.35-1,2-1.53l1.17-1.52c.55-.86,.84-1.79,.89-2.79,.18-.66,.18-1.33,0-1.99-.05-1-.34-1.93-.89-2.79l-1.17-1.52-1.52-1.17c-.86-.55-1.79-.84-2.79-.89-1-.22-1.99-.18-2.99,.13-.12,.03-.23,.05-.35,.06l1.99-.27c-.4,.05-.8,.05-1.2,0l1.99,.27c-.4-.06-.79-.17-1.16-.32l1.79,.76c-.37-.16-.72-.36-1.04-.6l1.52,1.17c-.3-.23-.57-.5-.81-.79l1.17,1.52c-.16-.21-.3-.42-.42-.66-.47-.87-1.12-1.58-1.93-2.1-.72-.66-1.57-1.11-2.55-1.34-1-.31-1.99-.36-2.99-.13-1,.05-1.93,.34-2.79,.89l-1.52,1.17c-.93,.94-1.57,2.04-1.93,3.31l-.27,1.99c0,1.35,.35,2.62,1.02,3.79h0Z"/>
  <path class="cls-8" d="M186.16,181.06c-4.41,1.23-7.53,4.97-8.71,9.3-1.01,3.71-.59,7.55,.19,11.25s2.19,6.91,4.66,9.63c2.18,2.41,5.52,4.12,8.69,4.73,3.38,.64,7.3,.89,10.58-.35,4.34-1.64,7.32-5.12,8.42-9.63,1.73-7.13-.32-14.48-5.03-20-2.84-3.33-6.94-5.34-11.27-5.71-3.93-.34-8.63,1.3-11.11,4.47-1.28,1.63-2.2,3.14-2.2,5.3,0,1.84,.82,4.04,2.2,5.3s3.31,2.29,5.3,2.2c1.85-.08,4.11-.67,5.3-2.2,.31-.39,.64-.73,1.03-1.04l-1.52,1.17c.4-.29,.82-.53,1.27-.74l-1.79,.76c.56-.22,1.12-.38,1.72-.47l-1.99,.27c.6-.07,1.19-.08,1.79-.02l-1.99-.27c.74,.1,1.43,.3,2.12,.59l-1.79-.76c.7,.32,1.33,.69,1.95,1.14l-1.52-1.17c.87,.67,1.62,1.44,2.3,2.3l-1.17-1.52c.76,1.01,1.38,2.08,1.88,3.24l-.76-1.79c.52,1.27,.87,2.58,1.05,3.94l-.27-1.99c.14,1.25,.14,2.49-.01,3.74l.27-1.99c-.14,.95-.36,1.87-.72,2.76l.76-1.79c-.21,.47-.45,.91-.75,1.34l1.17-1.52c-.32,.41-.65,.75-1.06,1.07l1.52-1.17c-.29,.2-.57,.36-.89,.51l1.79-.76c-.57,.22-1.14,.37-1.74,.47l1.99-.27c-1.41,.18-2.82,.17-4.23-.01l1.99,.27c-1.04-.16-2.03-.42-3-.81l1.79,.76c-.66-.29-1.27-.64-1.86-1.06l1.52,1.17c-.6-.46-1.11-.97-1.58-1.57l1.17,1.52c-.48-.66-.86-1.35-1.19-2.1l.76,1.79c-.77-1.87-1.2-3.88-1.48-5.87l.27,1.99c-.17-1.35-.21-2.67-.03-4.02l-.27,1.99c.12-.72,.31-1.41,.57-2.1l-.76,1.79c.25-.57,.55-1.08,.92-1.57l-1.17,1.52c.27-.31,.54-.58,.86-.83l-1.52,1.17c.25-.17,.49-.31,.77-.44l-1.79,.76c.18-.08,.37-.14,.57-.18,3.78-1.05,6.49-5.36,5.24-9.23s-5.18-6.36-9.23-5.24h0Z"/>
  <path class="cls-8" d="M43.11,237.44c-1.86,5.95,1.43,12.27,6.54,15.38,4.28,2.61,9.6,2.75,14.46,2.72,2.5-.01,5.1-.21,7.51-.91,2.85-.82,5.18-2.24,7.45-4.1,3.14-2.57,5.4-6.17,7.48-9.61-4.66-1.26-9.32-2.52-13.98-3.79,.08,1.44,.13,2.87-.06,4.31l.27-1.99c-.11,.63-.26,1.23-.48,1.84l.76-1.79c-.14,.32-.4,.69-.5,1.01,.78-.93,.98-1.19,.61-.77-.11,.13-.24,.26-.37,.38-.84,.87,1.57-.87,.4-.35-.32,.14-.62,.32-.94,.46l1.79-.76c-1.02,.4-2.07,.63-3.15,.79l1.99-.27c-3.43,.45-6.99,.59-10.43,.17l1.99,.27c-1.76-.24-3.47-.66-5.12-1.33l1.79,.76c-.72-.32-1.41-.67-2.07-1.09-.63-.4-1.3-1.3,.19,.23-.25-.26-.56-.47-.82-.71s-.51-.5-.75-.77c-.16-.18-.31-.36-.46-.55l.74,.95c-.46-.16-1.02-1.77-1.19-2.15l.76,1.79c-.3-.77-.51-1.55-.63-2.37l.27,1.99c-.05-.5-.08-.97-.02-1.47l-.27,1.99,.11-.36-.76,1.79c-.88,.98-1.1,1.27-.67,.87,.42-.38,.15-.17-.81,.62,.34-.19,.67-.45,1.01-.65,.68-.41,1.4-.74,2.13-1.05l-1.79,.76c1.88-.74,3.82-1.19,5.81-1.47l-1.99,.27c4.55-.59,9.45-.82,14.01-.3l-1.99-.27c.97,.13,1.91,.3,2.83,.64l-1.79-.76c.24,.1,.47,.21,.69,.34-.92-.79-1.18-.99-.76-.6,.41,.41,.22,.15-.58-.78,.13,.21,.24,.44,.33,.67l-.76-1.79c.22,.61,.35,1.22,.45,1.86l-.27-1.99c.22,1.74,.36,3.51,.18,5.25l.27-1.99c-.1,.72-.26,1.41-.53,2.09l.76-1.79c-.29,.64-1.26,1.77,.23-.01-1.3,1.56-2.2,3.2-2.2,5.3,0,1.84,.82,4.04,2.2,5.3,2.77,2.54,7.92,3.22,10.61,0,1.62-1.94,2.9-4.01,3.35-6.54,.39-2.19,.47-4.26,.27-6.46-.23-2.52-.51-4.89-1.75-7.14-1.58-2.87-4.33-4.78-7.44-5.67-3.95-1.13-8.32-.92-12.38-.78-3.76,.12-7.62,.4-11.26,1.4-4.7,1.29-10.64,4.12-11.95,9.27s1.12,10.12,4.2,13.86c5.34,6.48,14.24,8.16,22.21,7.76,5.09-.25,10-.85,14.06-4.18s5-8.97,4.71-14.04c-.19-3.19-2.19-6.48-5.51-7.23-3.28-.75-6.7,.51-8.47,3.45-.56,.93-1.13,1.86-1.73,2.78-.28,.43-.57,.86-.87,1.27-.16,.22-.75,1,.01,.01,.83-1.07,.01-.03-.13,.14-.65,.77-1.36,1.47-2.12,2.14-.8,.71,.56-.52,.63-.49-.04-.02-.68,.45-.78,.51-.48,.29-.99,.54-1.51,.77l1.79-.76c-1.11,.44-2.24,.71-3.42,.89l1.99-.27c-3.15,.38-6.52,.32-9.67-.09l1.99,.27c-1.13-.17-2.22-.44-3.28-.87l1.79,.76c-.37-.17-.71-.38-1.08-.55-1.17-.54,1.4,1.3,.23,.18-.22-.21-1.11-1.29-.24-.2s0-.17-.15-.47l.76,1.79c-.23-.55-.38-1.09-.47-1.67l.27,1.99c-.03-.35-.03-.68,0-1.03l-.27,1.99c.05-.36,.12-.68,.23-1.02,1.17-3.75-1.38-8.35-5.24-9.23-4.08-.93-7.97,1.23-9.23,5.24h0Z"/>
  <path class="cls-8" d="M16.69,241c.05-.04,.11-.07,.17-.09l-1.79,.76c.09-.04,.18-.06,.28-.08l-1.99,.27c.13-.01,.26-.01,.39,0l-1.99-.27c.13,.02,.26,.06,.38,.11l-1.79-.76c.12,.06,.23,.12,.34,.21l-1.52-1.17c.11,.09,.2,.19,.29,.3l-1.17-1.52c.08,.12,.15,.25,.21,.38l-.76-1.79c.08,.21,.14,.42,.17,.64l-.27-1.99c.03,.28,.03,.55,0,.83l.27-1.99c-.04,.33-.13,.64-.25,.95l.76-1.79c-.14,.33-.32,.63-.54,.92l1.17-1.52c-.25,.31-.53,.58-.84,.83l1.52-1.17c-.4,.3-.83,.55-1.29,.75l1.79-.76c-.5,.21-1.02,.35-1.56,.42l1.99-.27c-.48,.06-.95,.06-1.43,0l1.99,.27c-.26-.04-.51-.09-.75-.18l1.79,.76c-.14-.06-.26-.13-.38-.22l1.52,1.17c-.09-.08-.18-.16-.25-.25l1.17,1.52c-.07-.1-.13-.2-.18-.3l.76,1.79c-.06-.14-.1-.28-.12-.43l.27,1.99c-.03-.22-.03-.43,0-.64l-.27,1.99c.03-.19,.08-.37,.15-.54l-.76,1.79c.08-.17,.17-.33,.28-.49l-1.17,1.52c.16-.2,.33-.36,.53-.52l-1.52,1.17c.29-.22,.61-.39,.94-.53l-1.79,.76c.41-.17,.83-.29,1.26-.39,.98-.23,1.83-.68,2.55-1.34,.82-.53,1.46-1.23,1.93-2.1,.55-.86,.84-1.79,.89-2.79,.22-1,.18-1.99-.13-2.99l-.76-1.79c-.67-1.13-1.56-2.02-2.69-2.69l-1.79-.76c-1.33-.36-2.66-.36-3.99,0-.39,.1-.78,.21-1.16,.35-.87,.33-1.94,.7-2.75,1.26-.53,.37-1.1,.83-1.6,1.24-.08,.07-.17,.13-.25,.21-.53,.5-1.19,1.45-1.45,1.83-.54,.78-.93,1.71-1.15,2.64-.18,.77-.27,1.57-.32,2.36-.03,.47,.09,1.02,.15,1.45,.07,.51,.08,.92,.24,1.38,.53,1.54,.7,1.81,1.54,2.9s1.03,1.31,2.36,2.19c.65,.43,1.52,.74,2.17,.97,.18,.06,.35,.12,.53,.15,.82,.15,1.68,.27,2.51,.33,.31,.02,.63,.02,.94-.01,.96-.1,1.98-.19,2.93-.44s1.86-.69,2.69-1.07c.32-.14,.62-.3,.91-.5,.76-.51,1.5-1.06,2.17-1.69s1.23-1.44,1.77-2.19c.37-.51,.57-1.09,.81-1.67,.26-.62,.52-1.15,.63-1.8,.34-2.08,.39-2.93-.02-5.03-.32-1.64-1.31-3.07-2.39-4.29-.98-1.1-2.74-2.09-4.16-2.41-1.62-.36-2.03-.33-3.43-.14-1.25,.17-2.05,.34-3.24,1.06-.87,.47-1.58,1.12-2.1,1.93-.66,.72-1.11,1.57-1.34,2.55-.31,1-.36,1.99-.13,2.99,.05,1,.34,1.93,.89,2.79l1.17,1.52c.94,.93,2.04,1.57,3.31,1.93l1.99,.27c1.35,0,2.62-.35,3.79-1.02h0Z"/>
</svg>