<?xml version="1.0" encoding="UTF-8"?>
<svg id="Capa_1" data-name="Capa 1" xmlns="http://www.w3.org/2000/svg" viewBox="0 0 513.14 302.16">
  <defs>
    <style>
      .cls-1 {
        fill: #e9ede9;
      }

      .cls-2 {
        fill: #9f897b;
      }

      .cls-3 {
        fill: #866745;
      }

      .cls-4 {
        fill: #b5b9ab;
      }

      .cls-5 {
        fill: #ccd0ca;
      }

      .cls-6 {
        fill: #d6dcd8;
      }

      .cls-7 {
        fill: #421f1d;
      }

      .cls-8 {
        fill: #9a7f57;
      }

      .cls-9 {
        fill: #646166;
      }

      .cls-10 {
        fill: #5b82a2;
      }

      .cls-11 {
        fill: #396793;
      }

      .cls-12 {
        fill: #38587f;
      }

      .cls-13 {
        fill: #3a3d47;
      }

      .cls-14 {
        fill: #55272d;
      }

      .cls-15 {
        fill: #61443a;
      }
    </style>
  </defs>
  <path class="cls-7" d="M278.46,30.9c.79-13.45-10.89-23.06-21.41-29.11-1.76-1.01-4.47,.7-3.67,2.82,2.34,6.23,6.56,11.9,13.25,13.74,2.12,.58,3.9-1.78,2.82-3.67-2.88-5.06-7.11-9.52-12.1-12.56-2.57-1.56-5.55-2.53-8.57-1.95-2.57,.49-5.16,2.34-5.69,5.03-.39,1.93,1.74,4.19,3.67,2.82s2.14-3.95,.16-5.37-4.29-.3-6.17,.78c-3.07,1.76-5.93,3.98-8.36,6.55-5.01,5.3-8.09,11.87-8.87,19.12-.52,4.77-.15,9.62-1.12,14.33-.25,1.22,.25,2.47,1.45,2.95,1.06,.43,2.6,.12,3.12-1.02,.76-1.65,1.52-3.3,2.28-4.96,1-2.18-1.1-4.73-3.42-3.42-3.98,2.24-5.74,7.67-2.97,11.55,.88,1.23,2.77,1.8,3.93,.51,2.47-2.76,3.76-6.11,4.76-9.63,.92-3.25,1.69-6.51,3.71-9.29,.72-1,.27-2.54-.64-3.23-1.03-.77-2.33-.66-3.28,.2-4.74,4.27-7.02,10.44-6.1,16.74,.3,2.08,3.71,2.47,4.57,.6,2.42-5.25,4.68-10.63,7.31-15.79,1.01-1.97,2.2-3.41,4.15-4.49s4-1.91,5.6-3.47c1.89-1.84,2.46-4.26,2.65-6.8,.12-1.63-.04-3.76,1.32-4.89s3.28,.47,4.22,1.55c1.58,1.8,2.82,3.63,4.77,5.06,1.77,1.29,3.75,2.23,5.63,3.35,.84,.5,1.58,.96,2.24,1.59s1,1.06,1.24,1.85c.93,3.07,5.75,1.76,4.82-1.33-1.34-4.43-5.68-6.3-9.36-8.45-2.11-1.24-3.5-2.68-5.01-4.62-1.76-2.26-4.03-4.09-6.99-4.34-2.68-.22-5.14,1.26-6.46,3.56s-1.18,4.75-1.48,7.28c-.27,2.33-1.69,3.26-3.64,4.28-2.32,1.21-4.52,2.37-6.17,4.47-1.98,2.52-3.13,5.63-4.47,8.52-1.56,3.39-3.12,6.77-4.69,10.16l4.57,.6c-.65-4.51,1.53-8.91,4.82-11.87l-3.93-3.03c-2.03,2.79-3.01,6.13-3.92,9.42-.83,3-1.65,6.12-3.77,8.5l3.93,.51c-1.16-1.63-.75-3.62,1.18-4.7l-3.42-3.42c-.76,1.65-1.52,3.3-2.28,4.96l4.57,1.93c1.63-7.93,0-16.35,3.61-23.85,1.48-3.06,3.47-5.82,5.89-8.2,1.22-1.2,2.51-2.31,3.91-3.29,.75-.52,1.51-1.01,2.3-1.47,.66-.39,1.44-1.05,2.21-.95l-1.26-.34-.58-1.15,.34-1.26-.11,.21,.9-.9-.21,.15,3.67,2.82c.1-.48,.28-.78,.87-1.1,.63-.34,1.33-.47,2.05-.45,2.12,.08,4.07,1.42,5.72,2.62,3.51,2.54,6.44,5.85,8.58,9.61l2.82-3.67c-4.9-1.35-8.04-5.67-9.75-10.24l-3.67,2.82c8.99,5.18,19.61,13.18,18.93,24.8-.19,3.21,4.81,3.2,5,0h0Z"/>
  <path class="cls-7" d="M243.81,5.17c-2.09,1.36-3.32,3.33-4.07,5.67-.33,1.03-.55,2.08-.81,3.13-.23,.9-.57,2.05-.86,2.57-1.08,1.97-3.16,2.98-5.01,4.35-2.42,1.81-4.16,4.05-5.3,6.84l4.82,1.33c1.84-5.93,3.95-12.3,9.42-15.82,1.13-.73,1.6-2.22,.9-3.42-.66-1.13-2.28-1.63-3.42-.9-6.64,4.28-9.47,11.57-11.71,18.81-.4,1.29,.47,2.73,1.75,3.08,1.43,.39,2.56-.49,3.08-1.75,1.86-4.54,7.36-5.58,9.68-9.76,1.01-1.82,1.43-3.85,1.94-5.85,.24-.93,.49-1.81,.78-2.37,.1-.19,.2-.37,.31-.55,.06-.1,.33-.47,.13-.22,.32-.4,.68-.68,.9-.83,1.13-.73,1.6-2.22,.9-3.42-.66-1.13-2.28-1.64-3.42-.9h0Z"/>
  <path class="cls-7" d="M239.37,13.33l-.6,3.44c-.12,.68-.11,1.31,.25,1.93,.3,.52,.9,1.01,1.49,1.15,.64,.15,1.36,.11,1.93-.25s.98-.85,1.15-1.49c.48-1.82,.95-3.64,1.43-5.47,.17-.63,.08-1.36-.25-1.93-.3-.52-.9-1.01-1.49-1.15-.64-.15-1.36-.11-1.93,.25s-.98,.85-1.15,1.49c-.48,1.82-.95,3.64-1.43,5.47l4.82,1.33,.6-3.44c.12-.68,.11-1.31-.25-1.93-.3-.52-.9-1.01-1.49-1.15-.64-.15-1.36-.11-1.93,.25-.52,.33-1.04,.86-1.15,1.49h0Z"/>
  <path class="cls-15" d="M244.17,24.15c2.94-1.02,5.33-2.89,7.16-5.39,.91-1.25,1.57-2.65,2.12-4.09,.25-.66,.46-1.34,.64-2.03,.08-.33,.16-.65,.23-.98,.06-.26,.23-.47-.04-.04l-1.05,.79c-.87,.18-1.58-.11-2.12-.88,.52,1.2,2.38,1.57,3.42,.9,1.25-.81,1.45-2.13,.9-3.42s-2.26-1.73-3.52-1.42-2.1,1.46-2.39,2.67c-.18,.75-.35,1.5-.59,2.23-.13,.39-.27,.77-.41,1.15-.25,.63,.22-.46-.07,.15-.09,.18-.17,.37-.27,.55-.35,.7-.77,1.34-1.22,1.98-.11,.15-.07,.1,.12-.15-.06,.07-.11,.14-.17,.21-.1,.12-.19,.23-.29,.34-.24,.27-.5,.53-.76,.78-.13,.12-.27,.25-.41,.37-.07,.06-.14,.12-.21,.18-.14,.11-.09,.08,.14-.11,0,.14-.78,.54-.92,.62-.32,.2-.65,.37-.98,.54-.07,.03-.56,.24-.22,.11s-.35,.12-.41,.14c-1.23,.43-2.18,1.73-1.75,3.08,.39,1.22,1.75,2.21,3.08,1.75h0Z"/>
  <path class="cls-15" d="M253.29,13c3.22,0,3.22-5,0-5s-3.22,5,0,5h0Z"/>
  <path class="cls-7" d="M254.45,10.12c-.29,1.67,.13,3.18,1.42,4.34,1.06,.96,2.43,1.37,3.68,2.02,2.3,1.21,4.29,2.84,6.13,4.66s3.66,3.72,5.18,5.79,2.89,4.51,2.43,7.08c-.24,1.33,.36,2.69,1.75,3.08,1.21,.33,2.84-.41,3.08-1.75,1.11-6.22-2.76-11.14-6.71-15.46-1.77-1.93-3.62-3.76-5.7-5.36-1.09-.84-2.23-1.62-3.44-2.27-.6-.32-1.21-.59-1.82-.87-.3-.13-.61-.26-.89-.43-.68-.43-.12-.34-.26,.49,.23-1.33-.36-2.69-1.75-3.08-1.2-.33-2.84,.41-3.08,1.75h0Z"/>
  <path class="cls-7" d="M230.44,47.41c-.03-.31-.04-.6-.03-.91,.03-.3,.02-.3,0,0,.03-.15,.06-.3,.1-.44,.08-.3,.18-.59,.29-.88-.18,.45,.09-.18,.13-.27,.55-1.13,1.23-2.2,1.78-3.33,1.24-2.59,1.96-5.29,2.16-8.15,.09-1.31-1.22-2.56-2.5-2.5-1.43,.06-2.4,1.1-2.5,2.5-.02,.33-.05,.66-.09,.99,.06-.47-.09,.48-.1,.57-.11,.58-.25,1.14-.41,1.71-.19,.65-.4,1.29-.66,1.91,.15-.36-.23,.48-.27,.56-.13,.26-.26,.52-.4,.77-1.24,2.3-2.8,4.73-2.49,7.47,.15,1.29,1.04,2.57,2.5,2.5,1.23-.05,2.66-1.11,2.5-2.5h0Z"/>
  <path class="cls-7" d="M231.67,50.17c-.41-.16,.4,.19,.12,.05-.09-.04-.18-.08-.26-.12-.2-.1-.39-.2-.58-.31s-.37-.22-.55-.35c-.08-.05-.16-.11-.23-.16-.25-.17,.44,.37,.11,.09s-.63-.55-.92-.87c-.06-.07-.12-.14-.18-.21s-.33-.41-.06-.07c.25,.32,.04,.05,0-.02-.07-.09-.13-.19-.19-.28-.1-.16-.2-.32-.28-.49-.06-.12-.11-.24-.17-.35-.15-.28,.17,.47,.07,.17-.15-.45-.27-.88-.38-1.34-.07-.31,.05,.59,.01,.13,0-.1-.02-.2-.02-.31-.01-.23-.01-.46,0-.69,0-.13,.02-.26,.03-.38,.03-.35,0,.11-.03,.21,.08-.23,.1-.51,.17-.75,.34-1.26-.42-2.77-1.75-3.08s-2.71,.39-3.08,1.75c-.69,2.57-.3,5.41,1.12,7.66s3.4,3.62,5.74,4.55c.56,.22,1.42,.04,1.93-.25s1.01-.9,1.15-1.49c.15-.64,.11-1.36-.25-1.93s-.86-.9-1.49-1.15h0Z"/>
  <path class="cls-2" d="M57.74,259.15c-11.42,1.12-22.84,2.24-34.27,3.36-.79-3.36-.93-6.79-2.53-10.08-1.06-2.19-2.13-3.13-4.87-1.96-4.98,2.13-9.9,.94-14.86,.41,.77-2.59,1.76-5.35,.34-7.77-2.42-4.13-.39-5.61,4.82-5.89,1.9-.1,3.78-.44,5.67-.67,3.66-.44,6.48-.29,5.38,3.63-1.05,3.74,4.14,2.83,6.12,4.32,1.76,1.32,3.94-.66,4.8-2.5,3.93,2.4,7.39,1.58,10.56-1.17,1.92-.02,3.69-.4,5.45-1.1,4.81-1.9,9.56-.14,13.85,.76,3.83,.81,.98,4.67,1.94,6.98,1.76,4.22-4.87,7.46-2.41,11.66Z"/>
  <path class="cls-2" d="M244.69,20.62c.31-.01,.6-.09,.87-.24,.37,.26,.73,.52,1.09,.78,.29,4.53,5,3.38,7.82,4.6,2.35,1.02,4.89,2.57,3.91,4.63-.9,1.91-3.05,4.27-6.28,3.99-2.02-.18-4.02-.89-5.95-1.53-3.05-1.01-6.63-1.12-7.78,1.48-1.02,2.32-.66,5.31,3.05,7.29,3.15,1.68,8.58,2.27,6.82,8.85,5.31-5.59,9-1.38,12.25-.02,3.1,1.31,.57,4.22-.68,6.34-.39,.66-.73,1.48,.09,2.09,.79,.59,1.69,.23,2.38-.2,1.13-.69,2.18-1.48,3.23-2.27,2.28-1.72,2.93-.56,3.18,1.36-.62,1.06-1.08,2.23-1.88,3.17-2.99,3.5-4.37,8.35-10.57,9.19-2.03,.27-7.3-.32-2.9,4.01,.23,.23-.41,1.4-.94,1.91-1.74,1.7-.57,4.31-2.88,6.03-1.06,.78,.85,3.33,2,2.65,4.22-2.46,8.85-.13,13.03-1.43,1.47,2.13,2.39,4.28,.24,6.52-2.47-1.55-3.45,.47-4.82,1.55-1.98,.71-3.96,1.43-5.93,2.14-2.44-.17-4.87-.35-7.31-.52-1.62-1-3.23-2-4.85-3,1.39,3.09-.11,5.79-.46,8.52-.88-.24-1.59-.68-1.67-1.52-.9-10.03-4.7-19.72-4.5-29.87,.04-1.88-.24-3.65-2.43-4.64,.11-.57,.22-1.14,.33-1.71,2.37-.97,3.01-2.7,1.18-4.17-1.36-1.09-3.63-1.33-5.49-1.94l-1.12-1.54c.32-2.23-.43-4.67,1.05-6.65,4.49-6.03,5.01-13.38,8.74-19.65,1.37-1.49,2.74-2.98,4.11-4.48,1.28-.2,2.3-.77,3.06-1.7Z"/>
  <path class="cls-15" d="M276.84,33.86c.98,.83,1.2,1.85,1.01,2.98-2.82,2.31-6.5,2.72-10.01,3.4-3.25,.63-6.84,.33-7.99-2.65-1.02-2.62,1.99-3.8,4.53-4.6,6.19-.23,7.04-3.64,6.22-8.04,2.97,2.86,2.46,6.59,3.25,9.99,.68,.71,1.3,.7,1.87-.11,.38-.33,.75-.65,1.13-.98Z"/>
  <path class="cls-3" d="M270.6,24.96c.82,4.4-.03,7.81-6.22,8.04,.15-8.37-2.52-11.87-10.5-13.76,.13-2.16,1.47-2.14,3.47-1.77,3.68,.69,6.82,2.33,10.04,3.87,.74,.87,1.48,1.74,2.23,2.61,.32,.31,.65,.62,.97,.94,0,0,0,.07,0,.07Z"/>
  <path class="cls-15" d="M267.39,21.34c-3.22-1.54-6.36-3.17-10.04-3.87-2-.38-3.34-.39-3.47,1.77-.31,.06-.62,.13-.92,.21-.7-.03-1.41-.06-2.11-.08,1.39-2.89,1.09-5.95,1.24-8.98,.05-1.05,.32-2.26,1.96-2.24,1.28,.01,1.93,1.02,1.78,1.88-.86,4.72,3.1,5.77,6.77,7.11,2.24,.82,4.66,1.51,4.8,4.19Z"/>
  <path class="cls-3" d="M250.85,19.37c.7,.03,1.41,.06,2.11,.08-.83,2.09-2.33,1.99-4.12,.98,0-.33-.02-.65-.02-.98,.68-.03,1.35-.06,2.03-.09Z"/>
  <path class="cls-15" d="M244.69,20.62c-.75,.93-1.77,1.5-3.06,1.7,.23-1.66,.55-3.18,3.06-1.7Z"/>
  <path class="cls-15" d="M248.82,19.46c0,.33,.02,.65,.02,.98-.7-.03-1.41-.07-2.11-.1l-.31-.32c.58-.91,1.24-1.54,2.4-.56Z"/>
  <path class="cls-14" d="M226.88,45.95c-.34,.39-.69,.78-1.03,1.17-.33-.4-.66-.8-.99-1.2,.68,0,1.35,.02,2.03,.03Z"/>
  <path class="cls-14" d="M275.72,34.84c-.56,.81-1.19,.83-1.87,.11,.62-.04,1.24-.08,1.87-.11Z"/>
  <path class="cls-15" d="M246.65,21.16c-.36-.26-.73-.52-1.09-.78,.27-.16,.56-.28,.86-.37,0,0,.31,.32,.31,.32-.05,.27-.08,.55-.08,.83Z"/>
  <path class="cls-15" d="M270.59,24.89c-.32-.31-.65-.62-.97-.94,.32,.31,.65,.62,.97,.94Z"/>
  <path class="cls-13" d="M294.67,298.85c-.14-3.25-2.37-5.92-3.28-8.95,.03-.56-.26-.89-.89-1,0,0-.07-.05-.07-.05-.25-1.71-.69-3.32-2.76-4.09,.04-.18-.02-.34-.18-.46-.03-.59-.07-1.19-.1-1.78,.11-1.06,.08-2.07-1.2-2.64-.41-.63-.83-1.26-1.24-1.89,.2-1.12-.49-1.78-1.53-2.25-.14-.47-.28-.93-.42-1.4,.38-3.9-3.86-6.01-4.77-9.41,1.08-1.14,.57-2.24-.07-3.36-3.11-5.49-5.65-11.16-6.95-17.22,1.87-3.01,2.67-6.68,6.71-8.35,3.9,6.04,7.8,12.07,11.71,18.11,1.22,4.43,3.6,8.41,6.37,12.22,1.41,7.98,6.39,14.85,9.51,22.29,1.81,4.32,1.91,7.7-1.05,10.76-2.95,3.05-6.58,.92-9.78-.53Zm1.25-12.92c4.65-.06,2.06-2.57,1.64-4.08-.59-2.14-2.7-2.54-4.49-1.54-2.54,1.42-.81,2.78,.69,3.94,.03,1.24,.73,1.82,2.15,1.68Z"/>
  <path class="cls-11" d="M290.5,288.9c.63,.1,.92,.44,.89,1-.3-.33-.59-.66-.89-1Z"/>
  <path class="cls-1" d="M298.76,89.82c.04,.56,.08,1.12,.12,1.69-3.54,1.52-1.3,4.4-1.82,6.58-.79,3.32-1.67,5.33-6.01,3.36-1.26-.57-3.18-.99-3.34,.7-.28,2.87-2.43,5.02-3.14,7.63-2.59,9.5-2.89,19.46-7.67,28.55-1.86,3.53-.35,7.59-1.47,11.25-1.13,3.72-.61,6.89,2.63,9.59,0,1.23,.02,2.46,.03,3.69-1.08,2.12-2.17,4.24-3.25,6.36-3.81-.35-6.68,.32-6.39,4.47-3.18,2.39-6.29,4.53-10.03,.52-.52-.56-2.26-.25-3.44-.34-2.32-2.49,.32-5.96-2.18-8.41,2.36-3.04,3.51-6.19,1.17-9.66,1.81-1.05,.12-2.09,0-3.13,1.59-3.38,3.99-6.08,4.73-10.26,1.45-8.14,4.34-16.29,8.37-24.01,2.01-3.85,4.29-7.79,4.84-12.17,3.62-1.78,5.41-4.75,7.18-7.89,1.99-3.52,2.35-8.41,8.64-8.89,1.44-.11,1.08-1.31,.5-2.12-.86-1.22-.93-2.55-.85-3.91,3.17,.81,5.6,2.73,8.3,4.25,1.03,.72,2.05,1.43,3.08,2.15Z"/>
  <path class="cls-2" d="M440.32,257.61c-.58,.03-1.16,.06-1.74,.09-.1-.57-.19-1.14-.29-1.71,1.94-3.11,1.05-6.54,1.4-9.83,2.84-2.4,1.3-5.48,1.69-8.26,2.15,.07,4.31,.14,6.46,.21,1.08-.06,2.16-.13,3.24-.19,.87,.08,1.75,.17,2.62,.25,.08,.29,.2,.56,.38,.81,.28,.76,.8,1.32,1.75,1.43,4.89,.6,9.78,1.2,14.67,1.8,7.68-.26,12.98-4.63,18.66-8.33,1.48-.96,2.48-2.54,4.6-2.63,.41,.04,.81,.09,1.22,.13-.68,2.82-3.53,4.97-2.72,8.37,.37,1.57-2.17,1.76-3.67,1.49-6.52-1.21-11.48,2.56-17.11,4.09-2.27,.62-3.4,2.68-.74,4.11,4.78,2.57,1.52,3.43-.98,4.6-1.7-.06-3.4-.12-5.1-.17-3.18-3.29-16.18-4.38-20.84-1.75-3.02,.93-2.4,3.62-3.47,5.49Z"/>
  <path class="cls-9" d="M464.64,253.87c1.7,.06,3.4,.12,5.1,.17,3.14,2.02,6.24,.74,9.34-.09,4.77-.34,8.85-2.46,12.83-4.4,7.47-3.64,8.5-5.42,9.52-11.88,.12-.76,1.33-1.34,1.76-2.12,1.4-2.49,4.58-5.24,2.29-7.78-1.97-2.19-1.4-4.09-1.54-6.21,8.82,4.33,12.34,16.59,5.89,22.75-2.83,2.7-6.55,5.15-10.83,6.43-3.19-.5-3.77,2.05-5.3,3.49-6.23-2.54-11,2.49-16.77,2.5-.95,0-1.99,1.04-2.84,.91-10.99-1.74-21.9,.93-32.86,.38-.31-.02-.61-.26-.92-.4,1.07-1.87,.45-4.57,3.47-5.49-.06,1.78,.62,3.17,2.93,2.65,5.92-1.34,11.98-.14,17.91-.9Z"/>
  <path class="cls-3" d="M503.94,221.56c.14,2.12-.43,4.02,1.54,6.21,2.28,2.54-.89,5.29-2.29,7.78-.44,.78-1.64,1.36-1.76,2.12-1.02,6.46-2.05,8.23-9.52,11.88-3.98,1.94-8.05,4.06-12.83,4.4,2.15-2.34,5.01-3.81,7.76-5.54,4.5-2.83,9.05-6.09,11.33-10.72,1.24-2.52,2.21-5.91-3.19-6.3-.41-.04-.81-.09-1.22-.13,1.74-3.11,3.39-6.24,3.29-9.82,.62-.1,1.24-.19,1.87-.29,1.68,.14,3.36,.28,5.04,.42Z"/>
  <path class="cls-1" d="M174.64,124.46c5.25-10.37,9.86-20.99,16.91-30.62,1.92-2.63,5.33-4.39,5.93-7.77,1.76-1.33,3.08-3.16,5.47-3.79,3.56-.2,7.72-1.83,8.84,3.28,.27,1.24,2.09,.64,3.1,1,3.01,1.07,2.47,3.64,2.64,5.82,.06,.83-.1,2.47-1.15,2.06-5.4-2.12-4.33,2.72-5.46,4.25-1.69,2.29,1.67,5.24,4.79,4.36,1.89-.53,3.19-.17,3.97,1.1,1.04,1.69,2.64,2.53,4.4,3.54,4.97,2.87,9.16,6.03,9.95,12.07,.52,3.99,1.49,8.35,4.43,11.89-.09,.66-.17,1.31-.26,1.97-2.76,2.26-3.84,5.36-3.39,8.31,.66,4.23-.62,8.13-1.26,12.16-.68,4.25-.99,8.6-.08,12.72,1.01,4.54-.02,8.26-2.38,12.2-1.65,2.76-2.85,6.04-1.49,9.2,.96,2.25,1.38,3.98-1.12,5.59-2.46,1.58-4-.05-6.04-.87-6.06-2.44-10.41-5.24-7.24-12.06,.99-2.12-.32-5.32-3.13-5.3-2.83,.02-1.68,3.13-1.81,4.94-.32,4.34-2.24,5.62-7.05,4.42-1-.25-1.96-.62-2.94-.92-.94-.29-1.95-1.05-2.88-.29-1.09,.9-.52,1.98,.09,2.92,2.6,4,5.14,8.06,9.24,11.06,1.55,1.13,1.23,2.16,.15,3.05-4.44,3.68-1.18,5.31,2.26,7,2.12,1.04,4.17,2.22,5.32,4.2,.7,1.2,1.74,2.05,3.24,1.92,4.86-.41,6.24,2.4,7.2,5.7-.43,.85-1.16,1.42-2.16,1.72-.97,.09-1.67,.46-1.9,1.35-3.26,3.28-7.67,5.26-11.53,7.86-1.27,.39-2.84,.49-3.76,1.22-5.45,4.37-12.01,7.25-18.2,10.63-2.28-.12-4.27,.16-4.18,2.74,.08,2.45-.99,5.39,2.99,6.4,2.47,.63,5.01,1.02,7.47,1.67,1.72,.45,3.52,1.1,1.67,3.12-2.04-.15-4.12-.16-5.9-1.26-.67-.74-1.4-.81-2.19-.14-.74,.32-1.47,.64-2.21,.96-1.71,.04-3.12,.56-4.05,1.89-7.12,.63-13.72-3-20.93-1.97-1.28,.18-2.05-1.02-2.62-1.98-1.97-3.36-5.17-3.46-8.4-2.03-4.34,1.91-8.92,2.6-13.57,2.32-8.93-.53-17.85-1.32-26.6-3.12-1.49-.31-3.6-1.03-4.13,.54-.69,2.06,1.93,1.4,3.14,1.93,1.39,.61,2.75,1.28,4.12,1.92,1.73,.81,4.64,.41,4.84,2.8,.21,2.53-3.15,1.87-4.46,3.15-2.81-.07-5.62-.13-8.44-.2-.32-1.12-1.04-1.97-2.37-2.18-6.11-1.01-12.32-1.55-18.22-3.5-2.49-.82-3.72,.74-3.18,2.75,.95,3.53-1.54,3.22-4.1,3.31-3.38,.11-6.22-2.63-9.54-1.68-5.07,1.44-9.08,.49-12.4-3.07-.66-1.73-1.87-3.01-3.91-3.58-3.57-5.38-7.14-10.75-10.71-16.13,9.19-3.42,18.59-6.53,28.35-8.15,10.41-1.73,19.8-5.74,29.72-8.54,3.16-.9,6.62-1.03,9.48-2.73,.7-.11,1.39-.21,2.09-.32,5.31-.42,10.56-1.13,15.55-2.88,6.06-2.12,11.97-4.93,18.56-.91,2.33,1.42,4.46-.94,6.72-1.43,1.97-.43,3.84-1.23,5.75-1.87,1.5,.07,2.94,.06,3.39-1.59,.69-.38,1.39-.76,2.08-1.13,.53,.81,1.39,1.92,2.26,1.6,4.73-1.77,7.1,1.55,10.22,3.33,2.26,1.28,2.14,3.99,4.73,5.77,1.22-3.89,1.1-9.16-.59-10.38-2.87-2.07-1.52-3.86-1.98-5.75-1.38-6.12-2.48-12.26-2.26-18.53,.03-.9,.01-1.9-.38-2.69-7.92-15.84-4.76-31.62,.05-47.45,.87-2.87,2.1-5.78,1.41-8.88Zm27.96,9.33c-.99-4.94,.18-10.07-1.69-14.93,1.06-2.91,1.22-5.7-1.06-8.25-4.08,5.34-1.37,12.33-6.58,17.17-.91,.84-.55,2.27-.48,3.51,.17,2.92,.05,5.86,.05,8.81-1.65,.2-1.91-1.19-2.85-1.75-1.83-1.08-3.14-.12-2.48,1.18,2.18,4.35,1.61,10.17,8.08,12.35,.76,1.19,1.76,2.17,3.23,2.72,.1,1.35-.45,2.51-1.32,3.59-.84-.13-1.78-.11-2.51-.43-1.44-.64-2.71-1.43-3.99,.24-1,1.3-1.68,2.46-1.12,4.19,1.87,5.68,5.21,10.8,7.71,16.23,.45,.97,.73,2.23,2.29,2.09,1.83-.16,1.96-1.56,1.97-2.77,.04-4.1-.01-8.2-.03-12.3,1.99-4.44,3.63-9.15,1.36-13.63-2.03-4-2.7-7.58-1.01-11.74,.77-1.9,.33-4.18,.44-6.28Zm-27.18,98.23c-.76,3.32,1.48,5.85,4.49,5.79,2.58-.05,2.88-3.12,2.45-5.58-.39-2.22-.28-4.52-.32-6.78-.05-2.9-1.43-4.12-4.89-3.56-1.71,.28-4.75,1.72-3.84-2.21,.22-.96-1.44-1.05-2.39-.42-2.08,1.38-2.59,2.7-.81,4.91,1.98,2.46,5.59,4.19,5.31,7.84Z"/>
  <path class="cls-6" d="M175.84,202.02c.46,1.89-.89,3.67,1.98,5.75,1.69,1.22,1.81,6.49,.59,10.38-2.58-1.78-2.46-4.49-4.73-5.77-3.13-1.77-5.5-5.1-10.22-3.33-.86,.32-1.73-.79-2.26-1.6,4.04-3.55,9.56-4.02,14.63-5.43Z"/>
  <path class="cls-6" d="M159.12,208.59c-.44,1.65-1.89,1.66-3.39,1.59,.83-1.02,1.94-1.58,3.39-1.59Z"/>
  <path class="cls-13" d="M223.86,65.94c1.68-3.77,6.17-1.96,8.98-3.47,2.18,.99,2.46,2.76,2.42,4.64-.2,10.15,3.6,19.85,4.5,29.87,.08,.84,.79,1.28,1.67,1.52-.22,.69-.44,1.38-.65,2.07-.3,1.19,.52,1.68,1.63,1.97,2.08,7.96,4.15,15.93,6.23,23.89,.5-.03,1-.05,1.49-.08,1.9-3.15,3.2-6.5,3.84-10.07,.19-.47,.39-.93,.58-1.4,.98-.91,1.43-1.99,1.31-3.24,1.18-3.08,2.35-6.16,3.53-9.23,.78-.32,.92-.88,.78-1.55,1.55-3.68,3.09-7.37,4.64-11.05,2.15-2.23,1.23-4.38-.24-6.52,.48-2.73,1.9-5.17,3.19-7.64,.76-1.47,1.21-2.67-.47-4.04-3.37-2.73-2.33-5.24,.94-7.44l.34,.15c5.26,4.64,6.99,11.2,11.54,16.23-.21,.78-.43,1.56-.64,2.33v.07c-.78,2.77-1.52,5.55-2.33,8.31-1.5,5.05-4.59,9.68-5.21,14.97-.55,4.37-2.83,8.32-4.84,12.17-4.03,7.72-6.92,15.87-8.37,24.01-.74,4.18-3.14,6.87-4.73,10.26-3.63-4.2-8.56-4.01-13.7-3.09-.49-2,1.27-4.48-1.68-5.94-.12-3.34-.24-6.67-.37-10.01,.09-.66,.17-1.31,.26-1.97,.31-6.05-2.89-11.43-4.25-17.16-.75-3.18-1.34-6.07-6.49-6.96-2.01-.35,.6-6.1-3.1-8.31-.7-.42-1.16-1.36-1.88-1.51-3.59-.72-3.26-2.33-2.1-4.81,2.38-5.07-1.43-12.39-6.56-13.22-.21-6.47,5.18-9.89,9.76-13.75Z"/>
  <path class="cls-5" d="M271.9,106.23c.63-5.29,3.72-9.91,5.21-14.97,.82-2.76,1.55-5.54,2.33-8.31,0,0,0-.07,0-.07,.21-.78,.43-1.56,.64-2.33,2.33,1.16,4.07,3.46,7.3,2.86-.09,1.37-.02,2.69,.85,3.91,.57,.81,.94,2.01-.5,2.12-6.29,.48-6.65,5.37-8.64,8.89-1.77,3.14-3.56,6.11-7.18,7.89Z"/>
  <path class="cls-4" d="M39.51,237.01c3.57,5.38,7.14,10.75,10.7,16.13-.13,.89-.26,1.78-.39,2.68-3.87,.04-7.75,.05-11.62,.15-1.56,.04-3.55-.51-4.06,1.63-1.12,.32-2.45,1.14-3.34,.87-7.58-2.29-15.07-.8-22.59,.1-1.83-.78-3.69-2.5-2.12-3.64,1.76-1.28,1.35-5.05,5.16-3.96,4,1.14,4.45-.85,4.36-3.49-.05-1.36-.21-2.74-.12-4.09,.25-3.73-1.1-5.31-5.68-3.96-2.68,.79-5.47-.17-8.11-.95-.25-5.11,.57-10.27-.9-15.32,3.98-2.47,7.58,1.38,11.47,.53,2.11,4.35,4.37,8.62,8.34,11.97,5.98,3.91,12.41,3.04,18.91,1.35Zm-19.75,13.16c2.36-3.98,4.97-2.09,7.06-.98,1.82,.97,3.14,2.37,5.31,.7,2.29-1.76,2.23-3.94,1.61-6.24-.52-1.9-1.49-3.36-4.14-3.26-3.32,.13-6.53-.15-9.34-1.99-.44-.29-1.35-.34-1.87-.15-.72,.27-.81,1.22-.3,1.52,4.48,2.64,1.36,6.32,1.68,10.39Z"/>
  <path class="cls-6" d="M54.13,256.73c3.31,3.56,7.32,4.51,12.4,3.07,3.32-.94,6.16,1.79,9.54,1.68,2.56-.08,5.05,.22,4.1-3.31-.54-2.01,.69-3.57,3.18-2.75,5.91,1.95,12.11,2.49,18.22,3.5,1.32,.22,2.05,1.06,2.37,2.18-1.45,1.03-1.03,2.54-1.31,3.88-5.8,0-11.6,0-17.4,0-9.39-.13-18.82-1.1-28.12,.95,.36-3.58-4.15-4.32-5.32-7.01,1.26-.15,2.17-.57,1.97-1.89l.37-.3Z"/>
  <path class="cls-2" d="M12.26,223.69c-3.88,.85-7.49-3-11.47-.53-2.15-5.24,.27-8.94,5.16-11.84,.56-.33,1.1-.78,1.43-1.29,1.57-2.4,3.92-4.87,6.8-2.79,2.31,1.67,3,5.04,1.33,7.91-1.58,2.72-2.41,5.63-3.25,8.55Z"/>
  <path class="cls-8" d="M246.65,21.16c0-.28,.02-.56,.08-.83,.7,.03,1.41,.07,2.11,.1,1.79,1.02,3.29,1.11,4.12-.98,.3-.08,.61-.15,.92-.21,7.98,1.89,10.65,5.39,10.5,13.76-2.54,.79-5.55,1.97-4.53,4.59,1.15,2.97,4.74,3.28,7.99,2.65,3.51-.68,7.2-1.1,10.01-3.4,.25,5.11,.22,10.16-3.49,14.55-1.83,1.07-1.72,2.76-1.8,4.38-.71,.66-1.42,1.33-2.13,1.99-.58,0-1.16,0-1.74,.01-.24-1.92-.9-3.07-3.18-1.36-1.05,.79-2.1,1.58-3.23,2.27-.69,.42-1.59,.79-2.38,.2-.82-.61-.48-1.43-.09-2.09,1.24-2.12,3.78-5.03,.68-6.34-3.25-1.37-6.94-5.57-12.25,.02,1.76-6.58-3.67-7.16-6.82-8.85-3.71-1.98-4.08-4.97-3.05-7.29,1.15-2.6,4.73-2.48,7.78-1.48,1.94,.64,3.93,1.35,5.95,1.53,3.23,.28,5.38-2.09,6.28-3.99,.98-2.06-1.57-3.61-3.91-4.63-2.82-1.22-7.53-.07-7.82-4.6Z"/>
  <path class="cls-5" d="M259.37,102.42c-1.18,3.08-2.35,6.16-3.53,9.23-1.96,.61-1.87,1.85-1.31,3.24-.19,.47-.39,.93-.58,1.4-3.28-.4-4.79-1.96-3.3-4.7,.97-1.78,.23-2.49-1.05-3.81-4.94-5.13-7.81-10.99-2.88-14.79,2.44,.17,4.87,.35,7.3,.52,2.89,1.23,5.06,.93,5.93-2.14,1.37-1.07,2.35-3.09,4.82-1.55-1.55,3.68-3.09,7.37-4.64,11.05-.62,.38-.96,.87-.78,1.55Z"/>
  <path class="cls-3" d="M268.69,57.77c.58,0,1.16,0,1.74-.01,.06,.31,.02,.6-.14,.88-.39,.33-.77,.66-1.16,.99-.3,1.52-.6,3.03-.91,4.55-3.28,2.2-4.32,4.71-.94,7.44,1.69,1.37,1.24,2.57,.47,4.04-1.28,2.47-2.71,4.91-3.19,7.64-4.18,1.3-8.81-1.03-13.03,1.43-1.16,.67-3.06-1.87-2-2.65,2.31-1.71,1.13-4.33,2.88-6.03,.52-.51,1.17-1.68,.94-1.91-4.39-4.33,.88-3.74,2.9-4.01,6.2-.84,7.58-5.69,10.57-9.19,.8-.94,1.26-2.11,1.88-3.17Z"/>
  <path class="cls-4" d="M246.74,92.99c-4.93,3.81-2.06,9.66,2.88,14.79,1.28,1.33,2.02,2.04,1.05,3.81-1.5,2.74,.02,4.3,3.3,4.7-.64,3.57-1.94,6.92-3.84,10.07-.5,.03-1,.05-1.49,.08-2.08-7.96-4.15-15.93-6.23-23.89,.2-1.13-.34-1.79-1.63-1.97,.22-.69,.43-1.38,.65-2.07,.35-2.73,1.85-5.43,.46-8.52,1.62,1,3.23,2,4.85,3Z"/>
  <path class="cls-4" d="M259.97,91.36c-.87,3.07-3.04,3.37-5.93,2.14,1.98-.71,3.96-1.43,5.93-2.14Z"/>
  <path class="cls-6" d="M302.02,261.5c-1.63,.36-2.18,1.35-2.06,2.72-.96,1.23-2.4,1.77-3.97,2.11-2.76-3.81-5.14-7.79-6.37-12.22,3.4-1.76,6.63-4.01,10.99-2.08,1.19,.53,2.29-.33,3.35-.86,3.34-1.64,7-2.58,10.6-3.67,1.55-.47,4.41,.16,4.33-2.29-.06-1.88-1.84-2.71-3.98-2.97-2.55-.31-2.94-1.34-1-2.96,1.01-.85,3.22-1.74,1.25-3.18-4.77-3.49-1.06-7.76-.61-11.08,.68-4.99,6.79-7.37,12.15-7.63,3.29-.16,7.64-1.27,10.61,1.9,3.1,3.31,5.69,2.71,7.41-1.59,2.89-.72,5.49,.08,8.35,.61,4.4,.81,8.46,4.24,13.44,1.95,1.43,.32,2.86,.64,4.3,.96-.21,1.94,1.22,2.37,2.97,3.05,4.68,1.8,9.02,4.25,14.2,5.03,1.65,.25,3.2,1.47,1.87,2.93-3.17,3.5-7.06,6.36-11.72,8.29-6.53,2.71-13.33,4.99-19.57,8.14-7.58,3.83-15.38,5.76-24.15,5.61-4.66-.08-9.6-.07-13.92,2.21-.46-.09-.91-.17-1.37-.26-2.69-.37-5.36-.87-8.06-1.07-4.53-.33-7.94,1.02-9.12,5.26,.02,.36,.03,.73,.05,1.09Zm78.46-27.88c.82-.34,1.3-.72,1.07-1.38-.06-.18-.5-.4-.74-.38-.71,.06-1.21,.47-1.13,1.1,.03,.26,.55,.47,.79,.66Z"/>
  <path class="cls-2" d="M209.31,230.5c3.86-2.6,8.27-4.58,11.53-7.86,.63-.45,1.27-.9,1.9-1.34,1-.3,1.73-.86,2.16-1.72,1.58-1.29,4.96-.64,5-3.58,1.14,.2,1.76,.84,2.13,1.77,3.13,8.07,8.39,10.16,17.02,7.12,1.96-.69,2.28-3.3,4.22-2.99,4.58,.71,7.88-1.97,11.83-2.82,.71,.19,1.43,.38,2.15,.57,3.35,3.61,6.7,7.22,10.05,10.82-2.69,2.1,1.31,3.61,.63,5.53-4.04,1.67-4.84,5.34-6.71,8.35-.77,.58-2.09,.66-2.15-.06-.35-4.05-3.75-3.55-6.74-3.73-3.7-3.45-6.71-7.5-11.48-9.99-10.22,1.7-12.99,11.05-20.61,15.42-.4,1.17-.8,2.35-1.2,3.52-2.42,.18-2.08-1.31-2.25-2.67-.46-3.89-4.34-6.25-8.77-5.44-3.68-3.15-8.22-5.77-8.7-10.89Z"/>
  <path class="cls-5" d="M277.92,236.01c.68-1.92-3.32-3.44-.63-5.53,3.62,4.01,7.22,8.04,10.86,12.04,2.25,2.47,4.29,3.21,6.87,.03,5.09-6.28,10.45-12.38,15.76-18.52,1.74-2.01,.8-2.66-1.57-2.74-1.57-.05-3.04,.15-4.51,.79-4.79,2.08-9.66,3.97-12.66,8.23-.74,1.05-2.22,2.41-3.86,1.23-1.37-.98-1.08-2.68-.05-3.74,1.99-2.05,2.65-4.1,1.59-6.69-.48-1.17,.58-3.31,1.41-2.8,3.03,1.88,6.27,.5,8.89,1.06,3.9,.83,3.68-.55,4.04-2.58,4.02-3.25,11.1-3.28,12.58-9.2,2.95-2.57,2.94-5.88,2.99-9.17,.01-.6,.03-1.2,.04-1.8,1.97-2.66,.74-5.62,1.05-8.44,.23-2.12,.04-4.36,3.02-5.23,.37,6.98-2.27,13.67-2.63,20.59-.07,1.13-.15,2.27-.22,3.4-1.4,1.47-.67,2.68,.94,3.29,6.63,2.53,13.31,4.95,20.02,7.32,.7,.25,1.69-.13,2.54-.22,.12,.13,.23,.25,.35,.37-1.72,4.3-4.3,4.91-7.41,1.59-2.97-3.17-7.32-2.06-10.61-1.9-5.36,.27-11.47,2.65-12.15,7.63-.45,3.33-4.16,7.59,.61,11.08,1.97,1.44-.24,2.33-1.25,3.18-1.94,1.62-1.56,2.65,1,2.96,2.14,.26,3.92,1.09,3.98,2.97,.08,2.45-2.78,1.82-4.33,2.29-3.6,1.1-7.25,2.03-10.6,3.67-1.06,.52-2.17,1.38-3.35,.86-4.37-1.93-7.6,.32-10.99,2.08-3.9-6.04-7.8-12.07-11.71-18.11Z"/>
  <path class="cls-4" d="M262.31,240.56c2.99,.19,6.39-.31,6.74,3.73,.06,.72,1.39,.64,2.15,.06,1.3,6.05,3.85,11.72,6.95,17.22,.63,1.12,1.15,2.23,.06,3.36-.69-.03-1.38-.09-2.06-.09-11.6-.15-23.12-1.2-34.59-2.66-6.35-.81-13.46-.97-16.66-.08-1.3-1.45-2.77-2.5-1.54-4.96,1.27-2.54,3.16-2.12,5.26-2.14,4.78,1.88,9.6,3.63,15.04,2.94,8.51,1.01,16.41,4.37,25.01,5.04,2.32,.18,5.15,1.45,6.7-.61,1.3-1.74-.67-3.67-1.55-5.42-.2-.4-.62-.72-.94-1.07-2.56-5.62-7.07-10.2-10.57-15.33Z"/>
  <path class="cls-8" d="M293.77,284.24c-1.5-1.16-3.23-2.52-.69-3.94,1.79-1,3.9-.6,4.49,1.54,.42,1.52,3.01,4.02-1.64,4.08-.41-.86-1.06-1.49-2.15-1.68Z"/>
  <path class="cls-9" d="M293.77,284.24c1.09,.2,1.74,.83,2.15,1.68-1.42,.13-2.12-.45-2.15-1.68Z"/>
  <path class="cls-12" d="M284.94,277.99c-1.23-.38-1.68-1.15-1.53-2.25,1.04,.47,1.73,1.13,1.53,2.25Z"/>
  <path class="cls-12" d="M287.39,282.52c-.91-.7-1.14-1.64-1.2-2.64,1.28,.57,1.31,1.59,1.2,2.64Z"/>
  <path class="cls-13" d="M224.91,262.11c-.63,1.62-1.27,3.24-1.9,4.87-1.32,9.11,.35,18.25-.31,27.37-3.25,1.93-7.08-.64-10.41,1.84h10.36c.48,2.5-.64,4.32-3.09,5.58-2.43,.94-4.81-.04-7.21-.18-2.83-1.82-2.25-4.9-3.5-7.3-.02-1.78-.03-3.57-.05-5.35,.03-.61,.07-1.23,.1-1.84,.39-7.98,1.13-15.97-1.28-23.83,1.61-1.2,4.29-1.75,3.44-4.42,.03-.7,.06-1.4,.1-2.09,.21-.2,.22-.41,.02-.63,1.29-3.34,3.06-6.55,3.55-10.11,1.1-1.54,2.19-3.09,3.29-4.63,4.42-.81,8.3,1.55,8.77,5.44,.16,1.36-.17,2.85,2.25,2.67-.13,1.84-.27,3.67-.4,5.51-2.1,.02-3.98-.4-5.26,2.14-1.23,2.46,.24,3.51,1.54,4.96Zm-6.16,22.36c-2.08,.19-3.94-1.69-6.08-.47-.16,.09-.06,.99,.2,1.14,1.96,1.11,3.97,1.67,5.88-.67Zm-.82,5.28c-1.7-1.13-3.09-1.38-4.53-.63-.22,.12-.3,.94-.13,1.05,1.46,.94,2.94,1.09,4.66-.42Z"/>
  <path class="cls-9" d="M222.64,296.18h-10.36c3.33-2.48,7.16,.1,10.41-1.84-.02,.61-.04,1.22-.06,1.84Z"/>
  <path class="cls-6" d="M323.73,182.94c-2.98,.87-2.8,3.11-3.02,5.23-.3,2.82,.93,5.78-1.05,8.44-1.47-.69-2.4-1.84-2.7-3.18-.82-3.67-2.68-3.11-5.83-1.83-2.81,1.14-4.37,3.33-6.88,4.65-2.29,1.2-4.9,2.67-6.07,4.61-1.43,2.38,.91,4.49,2.88,6.26,.21,.19,.4,.65,.28,.82-2.61,3.78,1.22,6.03,2.7,8.83-.36,2.04-.13,3.42-4.04,2.58-2.62-.56-5.86,.81-8.89-1.06-.83-.51-1.89,1.63-1.41,2.8,1.07,2.59,.4,4.64-1.59,6.69-1.03,1.06-1.32,2.76,.05,3.74,1.65,1.17,3.12-.18,3.86-1.23,3-4.25,7.87-6.15,12.66-8.23,1.47-.64,2.94-.84,4.51-.79,2.38,.08,3.31,.73,1.57,2.74-5.31,6.14-10.67,12.24-15.76,18.52-2.57,3.18-4.62,2.44-6.87-.03-3.64-4-7.24-8.02-10.86-12.04-3.35-3.61-6.7-7.21-10.04-10.82,.17-4.35,2.94-7.1,6.8-9.62,3.68-2.41,8.45-3.51,11.18-7.05,4.12-1.82,7.23-.03,10.11,2.71,.77-2.81-.06-4.71-2.09-6.15-2.51-1.78-2.77-3.74-1.73-6.39,1.62-4.11,.92-4.59-4.27-3.74h-.05c.19-3.22-1.94-5.7-3.65-8.23-2.76-4.07-6.76-7.44-8.72-11.96,1.08-2.12,2.17-4.24,3.25-6.36,.86,.87,.8,1.95,.98,3,.44,2.6,.75,5.52,4.78,2.13,.8-.68,2.57-.67,2.7,.15,.57,3.69,4.47,4.77,6.68,7.14,1.66,1.78,1.99,3.82-.12,5.76-.77,.71-3.06,1.21-1.23,2.73,1.49,1.23,2.85,.38,4.06-.64,2.99-2.55,6.55-4.38,9.99-6.4,5.4-3.17,11.24-6.15,13.9-11.88,.4-.86,.97-1.68,.51-2.59-.47-.91-1.28-.69-2.16-.37-4.46,1.65-5.07,.09-5.02-3.71,.08-5.65,1.67-12.35-7.76-14.38-1.58-.34-1.4-2.31-1.36-3.67,.2-6.13-2.21-12.13-1.08-18.3,.08-.44-.03-.91-.05-1.36-.11-2.33-2.2-2.54-4.07-2.68-2.51-.2-1.84,1.64-2.11,2.88-.59,2.65,1.84,5.16,1.22,7.44-2.19,8-.93,16.28-3.32,24.12,1.57,.68,3.13-1.97,3.68-.09,.96,3.32,3.42,6.42,2.43,10.1-.4,1.49-2,3.08-3.09,1.74-1.87-2.3-5.71-3.37-6.03-6.4-.42-3.9-3.55-5.3-6.78-6.75-2.77-1.25-4.74-.91-4.78,2.34-.02,2.17-.53,4.22-1.99,6.03-3.25-2.7-3.77-5.87-2.63-9.59,1.12-3.66-.39-7.73,1.47-11.25,4.78-9.09,5.08-19.04,7.67-28.55,.71-2.6,2.87-4.75,3.14-7.63,.16-1.69,2.08-1.27,3.34-.7,4.34,1.97,5.22-.04,6.01-3.36,.52-2.18-1.72-5.06,1.82-6.58,4.71,3.73,5.44,9.31,8.3,13.9,1.53,2.45,2.25,5.3,3.34,7.96,.42,4.2,1.84,8.41,3.52,12.1,4.6,10.09,7.55,20.56,11.1,30.9,1.14,3.32,2.51,6.63,1.04,10.16-1.53,1.06-1.52,2.23-.34,3.49-.45,2.79-.9,5.57-1.35,8.36-1.44,.45-1.56,1.06-.3,1.85-.16,.91-.31,1.81-.47,2.72Zm-30.22-62.29c.17-3.13-.32-5.01-2.83-5.88-1.23-.42-2.54-.3-3.01,.99-2.31,6.42-2.59,13.12-3.28,19.75-.09,.89,.4,1.91,1.68,1.93,.52,0,1.41-.55,1.52-.97,1.51-5.75,3.87-11.26,5.92-15.82Z"/>
  <path class="cls-6" d="M229.91,216c-.04,2.94-3.42,2.3-5,3.58-.95-3.3-2.34-6.11-7.2-5.7-1.5,.13-2.54-.73-3.24-1.92-1.16-1.98-3.2-3.16-5.32-4.2-3.44-1.69-6.7-3.32-2.26-7,1.08-.89,1.4-1.92-.15-3.05-4.1-3-6.64-7.06-9.24-11.06-.61-.95-1.18-2.02-.09-2.92,.93-.77,1.94,0,2.88,.29,.98,.3,1.94,.67,2.94,.92,4.81,1.2,6.74-.08,7.05-4.42,.13-1.81-1.02-4.92,1.81-4.94,2.81-.02,4.12,3.17,3.13,5.3-3.17,6.82,1.18,9.62,7.24,12.06,2.04,.82,3.58,2.45,6.04,.87,2.5-1.61,2.08-3.34,1.12-5.59-1.35-3.16-.16-6.44,1.49-9.2,2.36-3.94,3.39-7.66,2.38-12.2-.92-4.12-.61-8.48,.08-12.72,.65-4.03,1.92-7.92,1.26-12.16-.46-2.95,.63-6.05,3.39-8.31,.12,3.34,.24,6.67,.37,10.01-.47,5.08-3.71,9.86-2.11,15.16-.04,1.74,.5,3.21,2.43,4.04,1.67,2.05,3.29,4.12,5.61,5.68,2.93,5.23,7.59,9.3,11.87,13.62,.22,.22,.56,.35,.86,.5,.71,.39,1.46,1.02,2.29,.38,.81-.63,.32-1.39-.11-2.05-1.53-2.35-3.86-4.3-4.44-7.1,1.18,.09,2.92-.22,3.44,.34,3.74,4.01,6.85,1.87,10.03-.52,.12,6.07-.17,12.18,.53,18.2,.34,2.95-.69,3.67-3.43,4.3-6.95,1.59-7.19,2.09-4.93,8.09l-.06,.18c-6.08,.49-11.62-.41-15.8-4.86-2.44,6.24-3.99,7.08-10.61,5.81-2.71-.52-3.74-3.68-6.96-3.44-.39-.03-.78-.06-1.17-.09-4-3.2-8.82-5.39-13.18-8.15-1.63-1.03-2.35-.16-2.54,.87-.66,3.65-.43,7.53,3.02,9.84,2.44,1.64,4.63,3.49,7.01,5.15,1.92,3.6,6.93,3.66,9.59,6.41Z"/>
  <path class="cls-5" d="M278.06,159.16c1.45-1.81,1.96-3.86,1.99-6.03,.04-3.24,2.01-3.58,4.78-2.34,3.22,1.45,6.36,2.85,6.78,6.75,.32,3.03,4.16,4.1,6.03,6.4,1.09,1.34,2.69-.24,3.09-1.74,.99-3.67-1.47-6.78-2.43-10.1-.54-1.87-2.11,.78-3.68,.09,2.39-7.84,1.13-16.11,3.32-24.12,.62-2.28-1.81-4.79-1.22-7.44,.28-1.24-.4-3.08,2.11-2.88,1.87,.14,3.95,.35,4.07,2.68,.02,.46,.13,.92,.05,1.36-1.12,6.17,1.28,12.18,1.08,18.3-.04,1.36-.22,3.33,1.36,3.67,9.43,2.03,7.84,8.73,7.76,14.38-.05,3.8,.56,5.36,5.02,3.71,.88-.33,1.7-.54,2.16,.37,.47,.91-.11,1.73-.51,2.59-2.66,5.73-8.51,8.72-13.9,11.88-3.45,2.02-7,3.86-9.99,6.4-1.21,1.03-2.57,1.87-4.06,.64-1.84-1.52,.46-2.02,1.23-2.73,2.11-1.94,1.78-3.98,.12-5.76-2.21-2.37-6.11-3.45-6.68-7.14-.13-.82-1.9-.82-2.7-.15-4.02,3.39-4.34,.47-4.78-2.13-.18-1.05-.12-2.13-.98-3,0-1.23-.02-2.46-.02-3.69Z"/>
  <path class="cls-5" d="M260.62,204.27c-2.25-6-2.02-6.51,4.93-8.09,2.74-.63,3.77-1.35,3.43-4.3-.7-6.02-.41-12.13-.53-18.2-.29-4.15,2.58-4.82,6.39-4.47,1.96,4.52,5.96,7.9,8.72,11.96,1.72,2.54,3.85,5.01,3.66,8.23-4.74,.3-7.4-.95-7.44-5.8-.03-4.15-3.56-6.81-7.36-9.33-2.67,5.88-1.91,11.34-.21,16.79,1.76,.67,2.56-3.05,4.17-.83,1.15,1.59-.95,2.64-2.2,3.64-.87,.69-2.2,.99-2.48,2.19-1.85,.48-3.27,1.57-4.84,2.48-2.6,1.52-2.86,4.91-6.22,5.72Z"/>
  <path class="cls-10" d="M244.52,168.51c-2.32-1.55-3.94-3.63-5.61-5.68-.2-1.21-.4-2.42-.6-3.64,0,0,.07-.05,.07-.05,.34-.3,.68-.6,1.02-.9,0,0,0,0,0,0,2.36,.41,4.11-.63,5.78-1.86,2.62-.1,5.66,3.09,7.8-.77,.33,.06,.66,.12,.98,.17,2.34,3.47,1.19,6.62-1.17,9.66-2.64,1.27-4.83,3.47-8.28,3.06Z"/>
  <path class="cls-5" d="M244.52,168.51c3.45,.42,5.64-1.79,8.28-3.06,2.5,2.45-.14,5.92,2.18,8.4,.58,2.8,2.92,4.76,4.44,7.1,.43,.66,.92,1.42,.11,2.05-.83,.65-1.57,0-2.29-.38-.29-.16-.64-.28-.86-.5-4.28-4.32-8.94-8.39-11.87-13.62Z"/>
  <path class="cls-2" d="M253.97,155.79c-.33-.05-.66-.11-.99-.18-1.29-.39-2.58-.78-3.86-1.17-2.24-1.71-4.92-1.78-7.68-1.61-1.09-.9-1.02-2.11-1.18-3.26,5.14-.92,10.06-1.12,13.7,3.09,.12,1.04,1.82,2.08,0,3.13Z"/>
  <path class="cls-5" d="M382.56,224.29c.76,1.55,2.14,2.27,4.01,2.47,6.78,.71,13.56,1.5,20.34,2.18,9.43,.95,19.03,.88,28.16,3.62,3.04,.91,5.76,2.14,6.3,5.33-.39,2.78,1.16,5.87-1.69,8.27-.05-.61-.15-1.21-.15-1.82,.03-3.17,.45-6.29-4.11-7.85-4.1-1.41-5.88,.59-8.24,2.83-1.71,1.63-4.81,2.13-6.04-.39-1.06-2.19-2.1-3.22-4.8-3.04-2.73,.18-3.63,1.95-4.78,3.67-2.38,3.55-3.75,7.74-8.54,9.79-1.34,.57-4.06,.82-3.54,2.71,.5,1.85,3.18,1.39,4.91,1.86,.93,.25,2.18,.25,3.05-.09,5.35-2.11,11.28,.21,16.65-1.75,1.06-.39,1.71,.33,1.52,1.21-.65,3.08,1.81,2.67,3.84,2.69,2.94,.04,5.89,0,8.83,0,.1,.57,.19,1.14,.29,1.71-.12,.37-.23,.73-.35,1.1-2.74-.26-5.48-.67-8.23-.75-5.45-.17-11.34,1.87-15.85-2.71-.34-.34-1.43-.44-1.98-.25-8.13,2.83-16.65-2.86-24.71,.9-.65,.09-1.3,.18-1.95,.27-.96-.12-1.75,.08-2.23,.89-3.07,.91-6.25,1.03-9.45,.94-1.85-1.74-3.92-2.38-6.38-.95-3.67,1.39-8.86-1.37-11.35,3.21-2.1-.03-4.2-.06-6.3-.08-5.34-1.71-10.64-2.81-16.49-1.61-4.4,.9-8.61-1.06-12.79-2.19,4.31-2.27,9.26-2.29,13.92-2.21,8.77,.15,16.57-1.78,24.15-5.61,6.23-3.15,13.04-5.44,19.57-8.14,4.66-1.93,8.55-4.79,11.72-8.29,1.33-1.47-.22-2.69-1.87-2.93-5.18-.78-9.52-3.23-14.2-5.03-1.75-.67-3.19-1.11-2.98-3.05,.58-.03,1.16-.06,1.74-.09,3.33,1.06,6.36,2.87,10,3.17Zm22.51,8.82c-3.18-.22-5.37,.45-6.98,3.39-1.45,2.65-4.46,4.5-7.42,6.2-8.52,4.89-18.4,6.62-27.79,9.5-1.18,.36-3.41-.09-2.97,1.67,.45,1.79,2.63,1.39,3.89,.75,3.47-1.76,7.65-1.49,11.16-3.42,1.75-.96,4.97-2.38,6.88,0,1.07,1.33,.4,3.84,3.73,3.01,2.23-.56,4.31-1.4,5.63-3.07,4.71-5.95,9.29-11.98,13.92-17.98l.23-.26-.29,.2Z"/>
  <path class="cls-4" d="M387.46,256c8.06-3.76,16.58,1.93,24.71-.9,.56-.19,1.65-.1,1.98,.25,4.5,4.58,10.4,2.54,15.85,2.71,2.75,.08,5.48,.49,8.23,.75-.33,1.23-2.04,.95-2.65,1.87-.97-.04-1.95-.1-2.54,.8-.31,.24-.62,.49-.93,.73-.65,.02-1.3,.04-1.95,.05-4.17-3.1-11.33-3.18-15.91-.18-1.59,0-3.18,.01-4.77,.02-1.46-2.21-3.6-2.31-6.19-1.78-6.18,1.27-11.42-.41-15.82-4.31Z"/>
  <path class="cls-10" d="M432.1,262.19c.31-.24,.62-.49,.93-.73-.31,.24-.62,.49-.93,.73Z"/>
  <path class="cls-6" d="M438.29,255.99c-2.94,0-5.89,.03-8.83,0-2.03-.02-4.49,.38-3.84-2.69,.19-.88-.47-1.6-1.52-1.21-5.36,1.97-11.29-.36-16.65,1.75-.87,.34-2.12,.35-3.05,.09-1.73-.47-4.41-.02-4.91-1.86-.51-1.89,2.21-2.13,3.54-2.71,4.8-2.05,6.16-6.24,8.54-9.79,1.15-1.72,2.05-3.49,4.78-3.67,2.7-.18,3.74,.85,4.8,3.04,1.22,2.52,4.33,2.02,6.04,.39,2.36-2.25,4.14-4.24,8.24-2.83,4.56,1.56,4.14,4.68,4.11,7.85,0,.61,.1,1.21,.15,1.82-.35,3.29,.54,6.71-1.4,9.83Z"/>
  <path class="cls-8" d="M494.97,231.38c5.4,.39,4.43,3.79,3.19,6.3-2.28,4.63-6.83,7.89-11.33,10.72-2.75,1.73-5.61,3.21-7.76,5.54-3.1,.83-6.2,2.11-9.34,.09,2.5-1.17,5.76-2.03,.98-4.6-2.65-1.43-1.53-3.49,.74-4.11,5.63-1.54,10.59-5.3,17.11-4.09,1.5,.28,4.04,.09,3.67-1.49-.81-3.4,2.04-5.55,2.72-8.37Z"/>
  <path class="cls-8" d="M464.64,253.87c-5.94,.76-11.99-.44-17.91,.9-2.32,.52-3-.87-2.93-2.65,4.66-2.64,17.66-1.55,20.85,1.75Z"/>
  <path class="cls-6" d="M141.55,259.94c-7.22-.09-14.22,2.03-21.47,1.66-2.57-.13-5.14-.2-7.71-.29,1.3-1.29,4.67-.62,4.46-3.15-.2-2.39-3.11-1.99-4.84-2.8-1.37-.64-2.73-1.31-4.12-1.92-1.2-.52-3.83,.13-3.14-1.93,.53-1.57,2.63-.84,4.13-.54,8.75,1.8,17.67,2.58,26.6,3.12,4.64,.28,9.23-.41,13.57-2.32,3.23-1.42,6.44-1.33,8.4,2.03,.56,.96,1.33,2.16,2.62,1.98,7.21-1.03,13.8,2.6,20.93,1.97,.08,1.72,.89,2.78,3.04,2.81,4.3,.05,1.66,2.03,1.21,3.4-.41-.06-.81-.12-1.22-.17-2.83-1.2-5.81-1.65-8.94-1.38-2.21-3.36-5.75-3.74-9.83-4.15-8.1-.81-15.89,0-23.68,1.69Z"/>
  <path class="cls-6" d="M214.73,246.02c-.5,3.55-2.26,6.77-3.55,10.1,0,0-.3,.31-.3,.31l.28,.32c-.03,.7-.06,1.4-.1,2.09-2.4-.1-4.89,.45-7.15-.73-.05-1.31,.05-2.79-2.08-2.8-1.81-.01-1.88,1.29-2.01,2.46-1.76,.12-3.54,.29-4.49-1.48,1.85-2.02,.05-2.66-1.67-3.12-2.46-.65-5-1.05-7.47-1.67-3.99-1.01-2.91-3.96-2.99-6.4-.09-2.58,1.9-2.86,4.18-2.75,.33,1.28,1.25,1.82,2.65,1.38,2.9-.91,6.34-1.34,8.5-3.02,4.12-3.2,6.55-1.35,8.74,1.47,1.88,2.42,3.9,4.18,7.48,3.84Z"/>
  <path class="cls-5" d="M202.96,82.28c0-.57,0-1.13,0-1.7,3.7-.45,7.13-3.46,11.14-.88,5.13,.83,8.94,8.15,6.56,13.22-1.17,2.49-1.49,4.09,2.1,4.81,.72,.14,1.18,1.09,1.88,1.51,3.7,2.2,1.09,7.96,3.1,8.31,5.15,.89,5.73,3.78,6.49,6.96,1.36,5.73,4.56,11.12,4.25,17.16-2.94-3.54-3.91-7.9-4.43-11.89-.79-6.04-4.98-9.2-9.95-12.07-1.76-1.02-3.36-1.85-4.4-3.54-.78-1.27-2.07-1.64-3.97-1.1-3.12,.88-6.48-2.07-4.79-4.36,1.13-1.54,.06-6.37,5.46-4.25,1.05,.41,1.21-1.23,1.15-2.06-.17-2.18,.37-4.75-2.64-5.82-1.01-.36-2.83,.25-3.1-1-1.12-5.11-5.28-3.49-8.84-3.28Z"/>
  <path class="cls-6" d="M195.59,151.88c-6.47-2.19-5.9-8.01-8.08-12.35-.65-1.3,.66-2.26,2.48-1.18,.94,.56,1.2,1.95,2.85,1.75,0-2.95,.11-5.88-.05-8.81-.07-1.24-.43-2.66,.48-3.51,5.21-4.84,2.5-11.83,6.58-17.17,2.27,2.54,2.11,5.33,1.05,8.25-2.26,1.84,0,4.7-2.09,6.67-4.23,4-4.13,11.27,.04,15.37-.06,.6-.12,1.19-.18,1.79-2.46,.88-2.34,2.18-.77,3.71,.03,.56,.06,1.13,.1,1.69-1.5,.92-2.09,2.29-2.41,3.79Z"/>
  <path class="cls-5" d="M214.73,246.02c-3.58,.34-5.59-1.42-7.48-3.84-2.19-2.82-4.62-4.66-8.74-1.47-2.16,1.68-5.61,2.11-8.5,3.02-1.4,.44-2.32-.11-2.65-1.38,6.19-3.38,12.74-6.26,18.2-10.63,.91-.73,2.49-.83,3.76-1.22,.48,5.11,5.02,7.74,8.7,10.89-1.09,1.54-2.19,3.09-3.28,4.63Z"/>
  <path class="cls-6" d="M201.82,165.44c.02,4.1,.08,8.2,.03,12.3-.01,1.21-.15,2.61-1.97,2.77-1.56,.13-1.84-1.12-2.29-2.09-2.5-5.43-5.84-10.55-7.71-16.23-.57-1.73,.12-2.89,1.12-4.19,1.28-1.67,2.55-.89,3.99-.24,.73,.33,1.67,.3,2.51,.43,2.61,1.89-.79,6.51,4.31,7.26Z"/>
  <path class="cls-6" d="M175.42,232.02c.28-3.65-3.33-5.38-5.31-7.84-1.78-2.22-1.27-3.53,.81-4.91,.95-.63,2.61-.55,2.39,.42-.9,3.92,2.13,2.49,3.84,2.21,3.46-.56,4.85,.66,4.89,3.56,.04,2.26-.07,4.56,.32,6.78,.43,2.45,.13,5.52-2.45,5.58-3.02,.06-5.25-2.47-4.49-5.79Z"/>
  <path class="cls-4" d="M201.82,165.44c-5.1-.75-1.71-5.37-4.31-7.26,.87-1.07,1.42-2.24,1.32-3.59,1.27-2.32,2.06-4.59-.82-6.5-.03-.56-.06-1.13-.1-1.69,1.02-1.11,.9-2.41,.77-3.71,.06-.6,.12-1.19,.18-1.79,1.25-1.25,.96-2.79,.98-4.26,.02-1.65,.32-3.03,2.76-2.86-.11,2.11,.33,4.38-.44,6.28-1.69,4.16-1.02,7.74,1.01,11.74,2.28,4.48,.63,9.2-1.36,13.63Z"/>
  <path class="cls-4" d="M203.9,258.12c2.26,1.18,4.75,.63,7.15,.73,.84,2.67-1.84,3.22-3.44,4.42-3.29-.4-6.58-.79-9.87-1.19-1.62-3.53-5.45-2.97-8.59-3.32-2.31-.25-3.92-.65-4.15-2.91,.74-.32,1.47-.64,2.21-.96,.73,.05,1.46,.09,2.19,.14,1.78,1.1,3.86,1.11,5.9,1.26,.94,1.78,2.73,1.61,4.49,1.49,1.37,.11,2.73,.23,4.1,.34Z"/>
  <path class="cls-5" d="M202.6,133.79c-2.45-.18-2.74,1.21-2.76,2.86-.02,1.47,.27,3.01-.98,4.26-4.17-4.1-4.27-11.37-.04-15.37,2.09-1.98-.17-4.84,2.09-6.67,1.88,4.86,.7,9.99,1.69,14.93Z"/>
  <path class="cls-5" d="M185.01,255.85c.23,2.25,1.84,2.65,4.15,2.91,3.14,.34,6.97-.22,8.59,3.32-1.16,.1-2.32,.19-3.48,.28-.52,.15-1.03,.29-1.55,.44l-2.31,1.39c-.34,.02-.67,.07-.99,.16-1.27-1.16-2.81-.16-4.2-.41,.45-1.37,3.09-3.35-1.21-3.4-2.15-.03-2.97-1.09-3.04-2.81,.92-1.33,2.33-1.86,4.04-1.89Z"/>
  <path class="cls-5" d="M198.01,148.09c2.87,1.92,2.08,4.19,.82,6.5-1.46-.55-2.46-1.52-3.23-2.72,.32-1.5,.91-2.86,2.41-3.79Z"/>
  <path class="cls-6" d="M49.82,255.82c.13-.89,.26-1.78,.39-2.68,2.05,.57,3.25,1.85,3.92,3.58,0,0-.37,.3-.37,.3-1.31-.4-2.63-.81-3.94-1.21Z"/>
  <path class="cls-5" d="M189.41,255.03c-.73-.05-1.46-.09-2.19-.14,.79-.67,1.52-.6,2.19,.14Z"/>
  <path class="cls-6" d="M222.75,221.3c-.63,.45-1.27,.89-1.9,1.34,.23-.89,.94-1.26,1.9-1.34Z"/>
  <path class="cls-10" d="M240.26,149.58c.15,1.15,.09,2.37,1.18,3.26-.01,.71-.03,1.42-.05,2.13-1.66,.62-2.38,1.69-1.99,3.27,0,0,0,0,0,0-.34,.3-.68,.6-1.02,.9,0,0-.07,.05-.07,.05-.61-.13-1.22-.27-1.83-.4-1.6-5.3,1.64-10.08,2.11-15.16,2.95,1.46,1.19,3.95,1.68,5.94Z"/>
  <path class="cls-4" d="M254.54,114.9c-.57-1.39-.65-2.63,1.31-3.24,.12,1.25-.33,2.33-1.31,3.24Z"/>
  <path class="cls-2" d="M240.77,100.58c1.29,.19,1.83,.84,1.63,1.97-1.11-.3-1.93-.78-1.63-1.97Z"/>
  <path class="cls-4" d="M259.37,102.42c-.18-.69,.16-1.18,.78-1.55,.14,.67,0,1.24-.78,1.55Z"/>
  <path class="cls-12" d="M279.45,82.88s0,.07,0,.07c0,0,0-.07,0-.07Z"/>
  <path class="cls-2" d="M270.28,58.64c-.12,.4-.24,.81-.35,1.21-.3,.01-.57-.06-.81-.22,.39-.33,.77-.66,1.16-.99Z"/>
  <path class="cls-5" d="M19.76,250.17c-.32-4.07,2.8-7.76-1.68-10.39-.52-.3-.43-1.26,.3-1.52,.52-.19,1.43-.14,1.87,.15,2.81,1.85,6.02,2.13,9.34,1.99,2.66-.11,3.63,1.36,4.14,3.26,.63,2.3,.69,4.48-1.61,6.24-2.18,1.67-3.49,.27-5.31-.7-2.09-1.11-4.7-3-7.06,.98Z"/>
  <path class="cls-9" d="M49.82,255.82c1.31,.4,2.63,.81,3.94,1.21,.2,1.32-.71,1.74-1.97,1.89-5.89-.44-11.77-.88-17.66-1.32,.51-2.15,2.5-1.59,4.06-1.63,3.87-.1,7.75-.11,11.62-.15Z"/>
  <path class="cls-5" d="M176.12,264.05c-.35-.55-.71-1.1-1.06-1.65,3.13-.27,6.11,.18,8.94,1.38-2.58,1.11-5.26-.07-7.88,.28Z"/>
  <path class="cls-5" d="M319.15,256.22c-3.38,2.43-7.57,2.89-11.64,3.6-1.82,.32-3.69,.4-5.54,.59,1.18-4.24,4.59-5.59,9.12-5.26,2.7,.2,5.37,.7,8.06,1.07Z"/>
  <path class="cls-5" d="M366.53,220.25c-4.98,2.29-9.04-1.14-13.44-1.95-2.86-.53-5.45-1.33-8.35-.61-.12-.12-.24-.25-.35-.37,2.76-2.85,6.3-1.33,9.57-1.3,.79,.2,1.57,.39,2.36,.59,3.01,2.07,7.06,1.87,10.21,3.64Z"/>
  <path class="cls-5" d="M380.48,233.62c-.24-.19-.76-.4-.79-.66-.08-.63,.42-1.04,1.13-1.1,.24-.02,.67,.2,.74,.38,.23,.66-.25,1.04-1.07,1.38Z"/>
  <path class="cls-9" d="M260.62,204.27c3.35-.81,3.61-4.2,6.22-5.72,1.57-.92,2.99-2,4.84-2.48,1.29,.51,3.02,1.24,2.22,2.56-2.93,4.82-2.71,11.18-9.09,14.35-1.13,.56-2.37,1.38-2.07,2.88-.52,.26-1.53,.64-1.49,.77,.4,1.26,1.52,.66,2.44,.61,.48,.62,.96,1.23,1.44,1.85-3.96,.84-7.26,3.53-11.84,2.82-1.95-.3-2.26,2.3-4.22,2.99-8.63,3.04-13.88,.95-17.02-7.12-.36-.94-.99-1.58-2.13-1.77-2.66-2.75-7.66-2.81-9.58-6.41,4.53-1.08,4.2-4.91,5.69-7.71,.39,.03,.78,.06,1.17,.09,4.33,7.76,13.77,5.25,20.64,7.89,3.54-3.08,8.89-2.87,12.73-5.41l.06-.18Z"/>
  <path class="cls-6" d="M272.89,255.89c.32,.36,.73,.67,.94,1.07,.89,1.75,2.86,3.69,1.55,5.42-1.55,2.06-4.38,.79-6.7,.61-8.6-.67-16.5-4.03-25.01-5.04,.36-1.85,1.87-2.28,3.45-1.59,5.27,2.31,5.27-1.47,5.22-3.85-.05-2.46,.11-4.9,.79-7.15,1.12-3.77,.82-5.59-4.48-5.86-2.52-.13-2.88,.53-3.58,1.92-1.65,3.28-4.42,4.87-8.61,4.55-2.06-.16-4.15,0-6.22,.01,7.62-4.37,10.39-13.72,20.61-15.42,.27,2.16-.77,4.64,2.05,6.15,5,2.66,7.61,6.59,8.9,11.58,1.38,5.33,4.61,7.25,11.09,7.59Z"/>
  <path class="cls-4" d="M262.73,215.86c-.3-1.5,.95-2.32,2.07-2.88,6.38-3.17,6.16-9.53,9.09-14.35,.8-1.32-.92-2.05-2.22-2.56,.29-1.2,1.61-1.5,2.49-2.19,1.25-.99,3.35-2.05,2.2-3.64-1.61-2.22-2.41,1.5-4.17,.83-1.69-5.45-2.46-10.92,.21-16.79,3.8,2.51,7.33,5.18,7.36,9.33,.04,4.84,2.7,6.1,7.44,5.8,0,0,.05,0,.05,0,.62,2.16-2.07,4.56,.14,6.44,2.41,2.06,1.68,3.2-.77,4.4-1.18,.58-1.34,1.67-1.4,2.74-2.73,3.54-7.49,4.64-11.18,7.05-3.85,2.52-6.62,5.27-6.8,9.62-.72-.19-1.44-.38-2.15-.57-.47-.62-.95-1.23-1.43-1.85-.31-.46-.63-.92-.94-1.38Z"/>
  <path class="cls-1" d="M230.22,245.98c2.07-.01,4.16-.17,6.22-.01,4.2,.32,6.97-1.27,8.61-4.55,.7-1.4,1.06-2.05,3.58-1.92,5.3,.27,5.6,2.09,4.48,5.86-.67,2.25-.84,4.69-.79,7.15,.05,2.38,.04,6.16-5.22,3.85-1.57-.69-3.09-.26-3.45,1.59-5.44,.69-10.25-1.06-15.03-2.94,.13-1.84,.27-3.67,.4-5.51,.4-1.17,.8-2.35,1.2-3.52Z"/>
  <path class="cls-5" d="M272.89,255.89c-6.48-.34-9.72-2.26-11.09-7.59-1.29-4.99-3.9-8.92-8.9-11.58-2.82-1.5-1.79-3.99-2.05-6.15,4.77,2.5,7.78,6.55,11.48,9.99,3.5,5.12,8.01,9.71,10.57,15.33Z"/>
  <path class="cls-1" d="M304.05,216.79c-1.48-2.8-5.31-5.05-2.7-8.83,.12-.17-.07-.64-.28-.82-1.97-1.77-4.31-3.87-2.88-6.26,1.16-1.95,3.77-3.41,6.07-4.61,2.51-1.32,4.07-3.51,6.88-4.65,3.15-1.28,5.02-1.84,5.83,1.83,.3,1.34,1.23,2.49,2.7,3.18-.01,.6-.03,1.2-.04,1.8-2.51,.05-3.15,1.4-3.08,3.31,.06,1.95,.06,3.91,.09,5.86-1.47,5.92-8.56,5.95-12.58,9.2Z"/>
  <path class="cls-6" d="M316.62,207.59c-.03-1.95-.03-3.91-.09-5.86-.06-1.91,.58-3.26,3.08-3.31-.05,3.29-.04,6.6-3,9.17Z"/>
  <path class="cls-2" d="M218.75,284.47c-1.92,2.35-3.92,1.78-5.88,.67-.26-.15-.36-1.04-.2-1.14,2.14-1.23,3.99,.66,6.08,.47Z"/>
  <path class="cls-2" d="M217.93,289.75c-1.72,1.52-3.2,1.36-4.66,.42-.17-.11-.09-.94,.13-1.05,1.44-.75,2.84-.51,4.53,.63Z"/>
  <path class="cls-4" d="M211.15,256.75l-.28-.32s.3-.31,.3-.31c.19,.22,.19,.43-.02,.63Z"/>
  <path class="cls-1" d="M293.51,120.65c-2.05,4.57-4.42,10.07-5.92,15.82-.11,.42-1,.97-1.52,.97-1.29-.02-1.78-1.04-1.68-1.93,.69-6.63,.97-13.33,3.28-19.75,.46-1.29,1.78-1.41,3.01-.99,2.52,.87,3,2.75,2.83,5.88Z"/>
  <path class="cls-5" d="M285.22,202.98c.06-1.07,.22-2.16,1.4-2.74,2.45-1.2,3.18-2.34,.77-4.4-2.2-1.88,.49-4.28-.14-6.44,5.19-.85,5.89-.37,4.27,3.74-1.05,2.65-.79,4.61,1.73,6.39,2.03,1.44,2.86,3.33,2.09,6.15-2.88-2.74-5.99-4.53-10.11-2.71Z"/>
  <path class="cls-5" d="M326.18,166.53c-.11,1.16-.23,2.33-.34,3.49-1.18-1.26-1.19-2.43,.34-3.49Z"/>
  <path class="cls-5" d="M324.49,178.37c.3,.67,.22,1.29-.3,1.85-1.26-.79-1.14-1.4,.3-1.85Z"/>
  <path class="cls-13" d="M226.01,201.88c-1.49,2.8-1.16,6.63-5.69,7.71-2.38-1.67-4.58-3.51-7.01-5.15-3.45-2.31-3.68-6.19-3.02-9.84,.19-1.03,.91-1.9,2.54-.87,4.36,2.76,9.17,4.95,13.18,8.15Z"/>
  <path class="cls-4" d="M260.56,204.45c-3.84,2.54-9.19,2.33-12.73,5.41-6.88-2.64-16.31-.13-20.64-7.89,3.22-.24,4.25,2.92,6.96,3.44,6.63,1.27,8.17,.43,10.61-5.81,4.18,4.45,9.73,5.35,15.8,4.86Z"/>
  <path class="cls-5" d="M236.47,158.79c.61,.13,1.22,.27,1.83,.4,.2,1.21,.4,2.42,.6,3.64-1.93-.83-2.47-2.3-2.43-4.04Z"/>
  <path class="cls-2" d="M239.41,158.24c-.39-1.58,.32-2.65,1.99-3.28,2.07-.06,4.14-.11,6.21-.16-.81,.53-1.61,1.05-2.42,1.58-1.67,1.23-3.42,2.27-5.78,1.86Z"/>
  <path class="cls-15" d="M245.18,156.38c.81-.53,1.61-1.05,2.42-1.58,.5-.12,1.01-.23,1.51-.35,1.29,.39,2.57,.78,3.86,1.17-2.14,3.86-5.18,.67-7.8,.77Z"/>
  <path class="cls-2" d="M238.38,159.14c.34-.3,.68-.6,1.02-.9-.34,.3-.68,.6-1.02,.9Z"/>
  <path class="cls-9" d="M249.12,154.45c-.5,.12-1.01,.23-1.51,.35-2.07,.06-4.14,.11-6.21,.16,.02-.71,.03-1.42,.05-2.12,2.75-.17,5.44-.1,7.68,1.61Z"/>
  <path class="cls-6" d="M405.13,233.17c-4.63,6-9.22,12.02-13.92,17.98-1.32,1.67-3.4,2.51-5.63,3.07-3.33,.83-2.66-1.68-3.73-3.01-1.91-2.37-5.13-.96-6.88,0-3.51,1.93-7.69,1.66-11.16,3.42-1.26,.64-3.44,1.04-3.89-.75-.44-1.75,1.79-1.3,2.97-1.67,9.39-2.88,19.27-4.61,27.79-9.5,2.96-1.7,5.97-3.55,7.42-6.2,1.61-2.94,3.8-3.61,6.98-3.39,0,0,.06,.06,.06,.06Z"/>
  <path class="cls-4" d="M373.83,258.1c-2.51,1.65-5.02,3.33-6.39-.95,2.47-1.44,4.53-.79,6.39,.95Z"/>
  <path class="cls-4" d="M385.51,256.27c-.44,.89-.88,1.76-2.23,.89,.48-.8,1.27-1.01,2.23-.89Z"/>
  <polygon class="cls-6" points="405.07 233.12 405.36 232.91 405.13 233.17 405.07 233.12"/>
  <path class="cls-1" d="M203.9,258.12c-1.37-.11-2.73-.23-4.1-.34,.13-1.17,.2-2.47,2.01-2.46,2.13,.01,2.03,1.5,2.08,2.8Z"/>
  <path class="cls-5" d="M198.68,142.69c.12,1.3,.24,2.59-.77,3.71-1.57-1.53-1.68-2.82,.77-3.71Z"/>
  <path class="cls-4" d="M194.26,262.36c-.36,.58-.93,.59-1.55,.45,.52-.15,1.04-.3,1.55-.45Z"/>
  <path class="cls-2" d="M262.73,215.86c.31,.46,.63,.92,.94,1.38-.91,.05-2.03,.65-2.43-.61-.04-.13,.97-.51,1.49-.77Z"/>
  <path class="cls-7" d="M227.62,46.27c-2.1-3.09-2.24-6.75-1.48-10.31,.43-2.03,1.07-4.01,1.72-5.97,.51-1.52,1.05-2.95,2.25-4.06,2.36-2.19-1.18-5.72-3.54-3.54-1.64,1.52-2.58,3.51-3.3,5.59-.81,2.31-1.57,4.68-2.04,7.09-.92,4.68-.69,9.67,2.07,13.73,.76,1.12,2.2,1.61,3.42,.9,1.11-.65,1.66-2.3,.9-3.42h0Z"/>
</svg>