<?xml version="1.0" encoding="UTF-8"?>
<svg id="Capa_1" data-name="Capa 1" xmlns="http://www.w3.org/2000/svg" viewBox="0 0 231.75 412.47">
  <defs>
    <style>
      .cls-1 {
        fill: #e9ede9;
      }

      .cls-2 {
        fill: #9f897b;
      }

      .cls-3 {
        fill: #866745;
      }

      .cls-4 {
        fill: #b5b9ab;
      }

      .cls-5 {
        fill: #ccd0ca;
      }

      .cls-6 {
        fill: #d6dcd8;
      }

      .cls-7 {
        fill: #421f1d;
      }

      .cls-8 {
        fill: #9a7f57;
      }

      .cls-9 {
        fill: #646166;
      }

      .cls-10 {
        fill: #5b82a2;
      }

      .cls-11 {
        fill: #396793;
      }

      .cls-12 {
        fill: #38587f;
      }

      .cls-13 {
        fill: #3a3d47;
      }

      .cls-14 {
        fill: #55272d;
      }

      .cls-15 {
        fill: #61443a;
      }
    </style>
  </defs>
  <path class="cls-7" d="M207.07,227.62c10.7,.85,18.35-8.72,23.14-17.01,1.02-1.76-.7-4.46-2.82-3.67-5.12,1.9-9.55,5.37-11.12,10.8-.61,2.12,1.8,3.89,3.67,2.82,4.1-2.35,7.75-5.84,10.14-9.92,1.24-2.12,1.97-4.55,1.55-7.01-.39-2.26-1.89-4.41-4.19-4.99-1.97-.49-4.13,1.8-2.82,3.67,1.38,1.98,4.2,1.99,5.37-.26,1.07-2.06-.37-4.41-1.39-6.19-1.87-3.25-4.35-6.14-7.32-8.43-2.76-2.14-5.95-3.77-9.38-4.52-4.4-.96-8.97-.52-13.35-1.55-2.65-.63-4.55,3.23-1.93,4.57,1.25,.64,2.5,1.28,3.75,1.91,2.25,1.15,4.59-1.16,3.42-3.42-1.77-3.42-6.31-5.02-9.6-2.7-1.28,.9-1.74,2.73-.51,3.93,2.05,2,4.59,3.13,7.27,4.01,2.26,.74,4.78,1.3,6.68,2.8,2.52,1.99,5.61-1.02,3.54-3.54-3.03-3.67-7.82-5.97-12.62-5.36-1.11,.14-2.09,.68-2.41,1.84-.28,1.02,.17,2.32,1.15,2.82,3.93,2.01,7.95,3.92,11.82,6.07,1.5,.84,2.49,1.77,3.26,3.3s1.41,3.25,2.6,4.6c1.39,1.57,3.27,2.16,5.29,2.39,1.03,.12,2.84-.03,3.53,.93,.75,1.03-.63,2.34-1.35,2.95-1.47,1.26-2.87,2.29-4,3.89-.95,1.34-1.66,2.82-2.49,4.23-.39,.66-.74,1.23-1.21,1.74-.49,.53-.77,.7-1.2,.83-3.07,.93-1.76,5.75,1.33,4.82,3.57-1.07,5.13-4.47,6.85-7.45,.92-1.59,1.88-2.67,3.34-3.8,1.79-1.39,3.37-3.09,3.79-5.4s-.4-4.54-2.26-5.97c-1.71-1.31-3.67-1.52-5.74-1.71-1.91-.18-2.53-1.08-3.31-2.74-.88-1.86-1.7-3.69-3.27-5.09-1.89-1.68-4.28-2.7-6.51-3.84-2.65-1.36-5.3-2.71-7.95-4.07l-1.26,4.66c3.66-.46,6.77,1.1,9.08,3.9l3.54-3.54c-2.25-1.78-4.78-2.79-7.5-3.65-2.32-.73-4.67-1.43-6.45-3.16l-.51,3.93c.59-.42,.9-.54,1.48-.35s.94,.6,1.28,1.26l3.42-3.42c-1.25-.64-2.5-1.28-3.75-1.91l-1.93,4.57c6.02,1.42,12.48,.27,18.09,3.29,2.27,1.22,4.24,2.83,5.96,4.73,.89,.99,1.68,2.05,2.4,3.17,.54,.85,1.78,2.43,1.66,3.41l.34-1.26,.39-.39,1.26-.34-.22,.02,1.26,.34-.19-.08,.9,.9-.13-.19-2.82,3.67c.56,.14,.73,1.38,.65,2.08-.18,1.57-1.22,3.04-2.12,4.27-1.93,2.63-4.4,4.82-7.22,6.44l3.67,2.82c1.06-3.65,4.19-6.02,7.63-7.3l-2.82-3.67c-3.91,6.78-9.96,15.24-18.82,14.54-1.35-.11-2.5,1.23-2.5,2.5,0,1.44,1.15,2.39,2.5,2.5h0Z"/>
  <path class="cls-7" d="M227.82,199.41c-1.07-1.82-2.73-2.89-4.68-3.58-.75-.27-1.52-.46-2.29-.68-.38-.11-.77-.23-1.14-.37-.12-.04-.64-.32-.14-.05-.17-.1-.36-.17-.53-.27s-.34-.21-.51-.32c.38,.24,0,0-.15-.14-.18-.17-.34-.35-.5-.53,.26,.31-.18-.24-.21-.29-.58-.84-1.06-1.75-1.64-2.6-1.26-1.86-2.91-3.48-4.98-4.42l-1.93,4.57c1.17,.41,2.34,.83,3.49,1.3,.04,.02,.47,.2,.23,.09-.28-.12,.28,.12,.33,.15,.28,.12,.55,.25,.83,.39,.58,.28,1.16,.58,1.71,.91,.53,.31,1.04,.63,1.53,.99,.04,.03,.41,.29,.21,.14s.16,.13,.2,.16c.27,.22,.53,.44,.78,.68,.46,.43,.87,.88,1.28,1.35,.28,.33-.03-.06,.12,.15,.09,.13,.19,.26,.28,.39,.21,.3,.4,.62,.58,.94,.66,1.13,2.29,1.63,3.42,.9s1.6-2.21,.9-3.42c-3.17-5.45-8.86-7.94-14.56-9.94-1.18-.41-2.5,.37-2.95,1.45s-.11,2.6,1.02,3.12c.44,.2,.86,.43,1.27,.69,.07,.05,.61,.46,.28,.19,.16,.13,.32,.27,.47,.41,.34,.32,.66,.65,.95,1.02-.23-.3,.17,.26,.21,.32,.14,.21,.28,.43,.41,.64,1.13,1.82,2.2,3.63,4.04,4.82,1.42,.92,3.1,1.3,4.7,1.77,.35,.1,.69,.22,1.03,.33,.27,.09,.33,.14,.03,0,.17,.08,.35,.16,.51,.25s.32,.19,.49,.3c.48,.31-.3-.34,.09,.09,.13,.14,.28,.28,.4,.43-.28-.34-.02,.01,.08,.18,.66,1.13,2.28,1.63,3.42,.9s1.61-2.21,.9-3.42h0Z"/>
  <path class="cls-7" d="M221.28,195.5l-2.62-.54c-.66-.14-1.33-.1-1.93,.25-.52,.3-1.01,.9-1.15,1.49-.15,.64-.11,1.36,.25,1.93s.85,.96,1.49,1.15c1.39,.41,2.77,.83,4.16,1.24,.61,.18,1.38,.07,1.93-.25,.52-.3,1.01-.9,1.15-1.49,.15-.64,.11-1.36-.25-1.93s-.85-.96-1.49-1.15c-1.39-.41-2.77-.83-4.16-1.24l-1.33,4.82,2.62,.54c.66,.14,1.33,.1,1.93-.25,.52-.3,1.01-.9,1.15-1.49,.15-.64,.11-1.36-.25-1.93-.34-.53-.86-1.02-1.49-1.15h0Z"/>
  <path class="cls-15" d="M212.24,199.83c.69,2.23,2.01,4.31,3.84,5.78,1.15,.92,2.33,1.6,3.68,2.16,.51,.21,1.04,.4,1.57,.56,.24,.07,.48,.13,.73,.2,.3,.08,.27,.19-.17-.11l-.32-.26c-.39-.9-.55-1.15-.48-.73l-.09-.66v.1c.03-.22,.06-.44,.09-.66-.11,.6,.19,.22,.92-1.14-.53,.23-1,.96-1.15,1.49-.16,.6-.09,1.4,.25,1.93s.86,1,1.49,1.15c.7,.16,1.27,.03,1.93-.25,1.24-.53,1.69-2.24,1.35-3.43s-1.31-1.92-2.43-2.23c-.6-.17-1.2-.33-1.78-.54-.13-.05-.29-.14-.42-.17l.32,.13c-.09-.04-.19-.08-.28-.13-.28-.13-.55-.27-.82-.42s-.53-.32-.79-.49c-.13-.09-.25-.19-.38-.27,.58,.38,.21,.16,.07,.04-.41-.35-.79-.73-1.14-1.14-.06-.07-.12-.14-.17-.21l.22,.29c-.09-.1-.17-.23-.24-.34-.16-.23-.31-.47-.44-.71-.08-.14-.16-.29-.23-.44-.04-.08-.25-.57-.08-.15s-.03-.08-.06-.17c-.06-.16-.11-.32-.16-.48-.38-1.25-1.76-2.17-3.08-1.75s-2.16,1.74-1.75,3.08h0Z"/>
  <path class="cls-15" d="M223.09,209.73c3.22,0,3.22-5,0-5s-3.22,5,0,5h0Z"/>
  <path class="cls-7" d="M223.47,207.69c-1.49-.3-2.86,.1-3.9,1.23-.8,.87-1.15,1.98-1.68,3-.96,1.82-2.13,3.27-3.56,4.73s-2.86,2.84-4.46,4.03c-1.5,1.11-3.38,2.1-5.01,1.75-1.32-.28-2.7,.39-3.08,1.75-.34,1.24,.42,2.8,1.75,3.08,5.06,1.07,9.11-2.17,12.6-5.4,1.57-1.45,3.03-2.98,4.32-4.68,.62-.82,1.19-1.68,1.68-2.59,.25-.47,.46-.94,.68-1.42,.1-.23,.27-.47,.34-.71l.16-.26c-.05,.42-.45,.52-1.17,.31,1.32,.27,2.7-.38,3.08-1.75,.34-1.24-.42-2.8-1.75-3.08h0Z"/>
  <path class="cls-7" d="M195.28,188.72c.05,0,.68-.04,.67-.01-.39-.06-.44-.07-.17-.02,.11,.02,.22,.05,.33,.08,.11,.03,.22,.07,.32,.11,.25,.1,.22,.08-.12-.05,.16,0,.49,.24,.63,.32,.83,.45,1.6,.99,2.44,1.44,2.05,1.09,4.21,1.71,6.51,1.93,1.31,.13,2.56-1.24,2.5-2.5-.07-1.46-1.1-2.36-2.5-2.5-.12-.01-.25-.02-.37-.04,.36,.05,.4,.05,.11,.01-.24-.05-.49-.09-.73-.14-.49-.11-.97-.24-1.44-.4-.24-.08-.47-.17-.71-.26-.26-.1-.23-.09,.08,.03-.12-.05-.23-.1-.34-.16-.43-.2-.84-.43-1.24-.67-1.83-1.09-3.75-2.4-5.98-2.18-.68,.07-1.27,.23-1.77,.73-.43,.43-.76,1.15-.73,1.77,.06,1.24,1.11,2.64,2.5,2.5h0Z"/>
  <path class="cls-7" d="M193.68,189.26c.03-.07,.06-.14,.09-.21l-.25,.6c.26-.59,.57-1.13,.96-1.64l-.39,.51c.36-.45,.76-.86,1.21-1.21l-.51,.39c.39-.29,.79-.53,1.24-.72l-.6,.25c.44-.18,.9-.31,1.37-.37l-.66,.09c.47-.06,.94-.05,1.41,0l-.66-.09c.27,.04,.54,.1,.81,.19,1.25,.38,2.78-.46,3.08-1.75s-.41-2.67-1.75-3.08c-2.1-.64-4.52-.31-6.37,.88-.77,.5-1.49,1.11-2.06,1.83-.75,.95-1.27,1.88-1.73,3-.23,.56-.04,1.43,.25,1.93s.9,1.01,1.49,1.15c.64,.15,1.36,.11,1.93-.25s.89-.86,1.15-1.49h0Z"/>
  <path class="cls-2" d="M36.25,45.78c-.66-9.21-1.31-18.41-1.97-27.62,2.59-.58,5.21-.64,7.75-1.87,1.69-.82,2.43-1.66,1.59-3.89-1.54-4.04-.55-7.98-.05-11.96,1.97,.66,4.06,1.5,5.94,.4,3.21-1.88,4.3-.22,4.42,3.97,.04,1.53,.27,3.05,.41,4.57,.28,2.95,.11,5.22-2.88,4.26-2.84-.91-2.24,3.28-3.41,4.85-1.04,1.4,.44,3.18,1.83,3.9-1.9,3.12-1.34,5.92,.71,8.51-.02,1.55,.24,2.97,.74,4.4,1.37,3.9-.06,7.69-.83,11.13-.69,3.07-3.59,.71-5.37,1.44-3.26,1.34-5.62-4.04-8.88-2.13Z"/>
  <path class="cls-2" d="M215.49,200.14c0,.25,.06,.49,.17,.7-.2,.29-.41,.58-.62,.87-3.47,.16-2.67,3.97-3.65,6.21-.82,1.87-2.05,3.89-3.61,3.07-1.44-.76-3.22-2.53-2.95-5.12,.17-1.62,.75-3.22,1.27-4.76,.82-2.44,.98-5.32-.99-6.28-1.76-.86-4.05-.62-5.64,2.33-1.34,2.51-1.89,6.86-6.89,5.33,4.18,4.36,.9,7.26-.2,9.85-1.05,2.47-3.24,.38-4.84-.65-.5-.32-1.12-.61-1.6,.04-.47,.63-.2,1.35,.11,1.92,.51,.92,1.1,1.78,1.68,2.64,1.27,1.86,.38,2.37-1.09,2.53-.8-.51-1.69-.91-2.39-1.57-2.63-2.46-6.32-3.65-6.85-8.65-.17-1.63,.37-5.86-3.02-2.4-.18,.18-1.07-.36-1.45-.78-1.27-1.43-3.29-.53-4.56-2.41-.58-.86-2.56,.63-2.07,1.57,1.81,3.44-.05,7.12,.87,10.51-1.66,1.14-3.32,1.85-4.99,.08,1.23-1.96-.3-2.78-1.1-3.9-.51-1.6-1.02-3.21-1.53-4.81,.17-1.96,.35-3.91,.52-5.87,.79-1.28,1.59-2.57,2.38-3.85-2.39,1.06-4.43-.19-6.51-.52,.2-.7,.55-1.27,1.2-1.32,7.69-.56,15.17-3.45,22.94-3.12,1.44,.06,2.79-.13,3.59-1.87,.43,.1,.87,.2,1.3,.3,.7,1.92,2.01,2.47,3.17,1.02,.86-1.08,1.08-2.89,1.58-4.38l1.2-.88c1.7,.29,3.58-.27,5.07,.95,4.53,3.71,10.15,4.25,14.88,7.36,1.12,1.13,2.24,2.26,3.35,3.38,.13,1.04,.55,1.86,1.25,2.49Z"/>
  <path class="cls-15" d="M204.8,225.78c-.65,.77-1.44,.93-2.3,.76-1.71-2.3-1.97-5.27-2.43-8.11-.42-2.62-.13-5.5,2.17-6.38,2.02-.77,2.87,1.67,3.44,3.72,.07,4.98,2.66,5.72,6.04,5.14-2.24,2.34-5.08,1.87-7.7,2.45-.56,.54-.56,1.04,.05,1.5,.24,.31,.49,.62,.73,.92Z"/>
  <path class="cls-3" d="M211.71,220.91c-3.38,.58-5.97-.16-6.04-5.14,6.4,.26,9.13-1.83,10.71-8.22,1.65,.14,1.61,1.22,1.29,2.82-.6,2.95-1.9,5.44-3.14,8.01-.68,.58-1.36,1.16-2.04,1.75-.24,.26-.49,.51-.73,.77,0,0-.05,0-.05,0Z"/>
  <path class="cls-15" d="M214.54,218.39c1.23-2.56,2.54-5.06,3.14-8.01,.32-1.61,.36-2.68-1.29-2.82-.04-.25-.09-.5-.15-.74,.03-.57,.07-1.13,.1-1.7,2.19,1.16,4.54,.97,6.85,1.15,.8,.06,1.72,.29,1.68,1.61-.03,1.03-.81,1.54-1.47,1.4-3.6-.77-4.47,2.4-5.56,5.33-.67,1.79-1.24,3.72-3.29,3.79Z"/>
  <path class="cls-3" d="M216.34,205.11c-.03,.57-.07,1.13-.1,1.7-1.59-.7-1.48-1.91-.68-3.33,.25,0,.5,0,.75,0,0,.55,.02,1.09,.03,1.64Z"/>
  <path class="cls-15" d="M215.49,200.14c-.7-.62-1.12-1.45-1.25-2.49,1.27,.21,2.42,.5,1.25,2.49Z"/>
  <path class="cls-15" d="M216.31,203.48c-.25,0-.5,0-.75,0,.04-.57,.08-1.13,.11-1.7l.25-.24c.69,.48,1.16,1.03,.38,1.94Z"/>
  <path class="cls-14" d="M196.42,185.39c-.29-.28-.58-.57-.88-.85,.31-.26,.62-.52,.93-.78-.02,.54-.04,1.09-.06,1.63Z"/>
  <path class="cls-14" d="M204.07,224.86c-.61-.47-.61-.97-.05-1.5,.02,.5,.04,1,.05,1.5Z"/>
  <path class="cls-15" d="M215.04,201.71c.21-.29,.41-.58,.62-.87,.11,.22,.2,.45,.27,.7,0,0-.25,.24-.25,.24-.21-.05-.42-.07-.63-.07Z"/>
  <path class="cls-15" d="M211.77,220.9c.24-.26,.49-.51,.73-.77-.24,.26-.49,.51-.73,.77Z"/>
  <path class="cls-13" d="M1.71,235.69c2.49-.06,4.57-1.81,6.91-2.49,.43,.04,.69-.19,.78-.7,0,0,.04-.05,.04-.05,1.31-.17,2.55-.5,3.17-2.15,.14,.04,.26,0,.35-.14,.46-.02,.91-.03,1.37-.05,.81,.1,1.58,.1,2.04-.92,.49-.32,.98-.64,1.47-.97,.86,.18,1.37-.36,1.75-1.19,.36-.1,.72-.21,1.08-.31,2.98,.37,4.67-3,7.28-3.68,.85,.89,1.71,.49,2.57,0,4.26-2.41,8.64-4.36,13.3-5.3,2.27,1.55,5.07,2.26,6.27,5.54-4.69,3.04-9.37,6.08-14.06,9.11-3.41,.91-6.5,2.76-9.47,4.92-6.14,1-11.47,4.9-17.22,7.27-3.34,1.38-5.92,1.41-8.21-1.03-2.28-2.43-.59-5.31,.58-7.86Zm9.87,1.22c-.04,3.74,1.93,1.7,3.1,1.39,1.65-.44,1.99-2.13,1.26-3.58-1.04-2.07-2.11-.7-3.03,.49-.95,0-1.4,.55-1.33,1.7Z"/>
  <path class="cls-11" d="M9.39,232.51c-.09,.51-.35,.74-.78,.7,.26-.23,.52-.47,.78-.7Z"/>
  <path class="cls-1" d="M161.59,242.47c-.43,.02-.86,.04-1.29,.07-1.1-2.87-3.35-1.12-5-1.57-2.53-.69-4.05-1.43-2.47-4.89,.46-1.01,.81-2.54-.47-2.7-2.19-.27-3.8-2.04-5.78-2.66-7.23-2.24-14.84-2.65-21.71-6.65-2.67-1.55-5.8-.41-8.59-1.37-2.83-.97-5.26-.61-7.38,1.96-.94-.01-1.88-.03-2.82-.04-1.6-.91-3.21-1.81-4.81-2.72,.34-3.05-.13-5.38-3.31-5.21-1.77-2.6-3.36-5.14-.22-8.07,.44-.41,.23-1.82,.32-2.76,1.94-1.82,4.55,.35,6.47-1.61,2.28,1.95,4.67,2.93,7.37,1.1,.77,1.47,1.59,.13,2.39,.05,2.56,1.34,4.58,3.31,7.76,3.98,6.2,1.3,12.39,3.76,18.23,7.13,2.91,1.68,5.89,3.58,9.22,4.1,1.3,2.94,3.54,4.43,5.91,5.91,2.66,1.66,6.39,2.03,6.65,7.1,.06,1.16,.98,.89,1.62,.44,.95-.68,1.97-.71,3.01-.62-.67,2.54-2.18,4.46-3.4,6.6-.57,.81-1.13,1.63-1.7,2.44Z"/>
  <path class="cls-2" d="M30.7,353.53c-.01-.47-.02-.94-.04-1.4,.44-.07,.88-.14,1.32-.2,2.35,1.62,4.99,.95,7.49,1.29,1.78,2.33,4.17,1.14,6.29,1.49-.09,1.73-.18,3.46-.28,5.19,.03,.87,.06,1.74,.09,2.61-.08,.7-.16,1.4-.24,2.1-.22,.06-.43,.15-.62,.29-.59,.21-1.02,.62-1.13,1.39-.55,3.92-1.09,7.85-1.64,11.77,.06,6.18,3.32,10.52,6.05,15.15,.71,1.21,1.9,2.04,1.93,3.75-.04,.33-.08,.65-.12,.98-2.15-.6-3.74-2.92-6.36-2.33-1.21,.27-1.31-1.77-1.07-2.97,1.04-5.23-1.75-9.28-2.83-13.83-.43-1.84-1.99-2.78-3.13-.67-2.05,3.8-2.65,1.17-3.5-.87,.07-1.37,.15-2.74,.22-4.1,2.58-2.5,3.64-12.94,1.7-16.74-.66-2.44-2.73-1.99-4.14-2.88Z"/>
  <path class="cls-9" d="M33.14,373.15c-.07,1.37-.15,2.74-.22,4.1-1.6,2.49-.67,5-.09,7.51,.17,3.85,1.73,7.16,3.14,10.39,2.66,6.07,4,6.93,8.92,7.86,.58,.11,1,1.09,1.59,1.45,1.88,1.17,3.93,3.77,5.92,1.98,1.71-1.55,3.15-1.06,4.78-1.13-3.47,7.02-12.91,9.65-17.51,4.36-2.02-2.32-3.83-5.36-4.73-8.82,.44-2.55-1.5-3.07-2.57-4.32,2.05-4.97-1.71-8.89-1.62-13.53,.02-.77-.76-1.62-.65-2.3,1.52-8.81-.32-17.63,.28-26.43,.02-.25,.21-.49,.32-.73,1.42,.89,3.49,.44,4.14,2.88-1.36-.08-2.44,.44-2.08,2.32,.92,4.79-.1,9.64,.37,14.42Z"/>
  <path class="cls-3" d="M57.17,405.31c-1.62,.08-3.07-.42-4.78,1.13-1.98,1.79-4.03-.81-5.92-1.98-.59-.36-1.01-1.34-1.59-1.45-4.92-.93-6.26-1.79-8.92-7.86-1.41-3.23-2.97-6.54-3.15-10.39,1.75,1.76,2.83,4.09,4.11,6.33,2.09,3.66,4.5,7.38,8.01,9.29,1.9,1.04,4.48,1.87,4.88-2.46,.04-.33,.08-.65,.12-.98,2.35,1.45,4.71,2.83,7.45,2.81,.06,.5,.13,1,.19,1.51-.14,1.35-.27,2.7-.41,4.05Z"/>
  <path class="cls-1" d="M137.26,142.06c7.84,4.39,15.89,8.28,23.13,14.11,1.98,1.59,3.27,4.36,5.84,4.9,.99,1.44,2.36,2.53,2.81,4.47,.09,2.87,1.26,6.24-2.67,7.06-.96,.2-.52,1.67-.82,2.48-.87,2.4-2.83,1.93-4.5,2.03-.64,.04-1.89-.12-1.56-.96,1.72-4.31-2-3.53-3.16-4.46-1.72-1.4-4.04,1.25-3.42,3.78,.38,1.53,.07,2.57-.91,3.17-1.32,.81-1.98,2.08-2.79,3.48-2.28,3.95-4.78,7.27-9.41,7.8-3.06,.35-6.42,1.06-9.18,3.36-.5-.08-1-.16-1.5-.24-1.68-2.25-4.03-3.18-6.3-2.86-3.25,.46-6.21-.63-9.28-1.22-3.24-.62-6.57-.94-9.73-.27-3.49,.74-6.32-.15-9.29-2.12-2.08-1.37-4.57-2.39-7.02-1.35-1.74,.74-3.07,1.05-4.25-.99-1.17-2.01,.11-3.22,.77-4.84,1.97-4.84,4.19-8.29,9.35-5.62,1.61,.83,4.08-.17,4.11-2.43,.03-2.28-2.37-1.4-3.75-1.54-3.32-.33-4.26-1.9-3.26-5.75,.21-.8,.51-1.56,.75-2.35,.24-.75,.84-1.55,.27-2.31-.67-.89-1.5-.45-2.24,.02-3.1,2.02-6.26,4-8.63,7.25-.9,1.23-1.67,.95-2.34,.07-2.74-3.63-4.04-1.04-5.39,1.7-.83,1.69-1.78,3.31-3.31,4.21-.93,.54-1.6,1.37-1.53,2.57,.23,3.92-1.94,4.98-4.49,5.69-.65-.36-1.06-.95-1.28-1.76-.05-.78-.32-1.35-1-1.55-2.45-2.68-3.89-6.26-5.81-9.41-.28-1.03-.33-2.29-.87-3.04-3.25-4.46-5.34-9.78-7.81-14.82,.13-1.83-.05-3.43-2.03-3.41-1.87,.03-4.11-.89-4.95,2.3-.52,1.97-.87,4.02-1.41,5.98-.38,1.38-.9,2.81-2.41,1.29,.15-1.64,.19-3.31,1.07-4.73,.58-.53,.64-1.12,.15-1.76-.23-.6-.46-1.2-.7-1.8,0-1.38-.37-2.52-1.38-3.29-.36-5.74,2.54-10.99,1.87-16.8-.12-1.03,.81-1.64,1.56-2.07,2.61-1.53,2.74-4.1,1.7-6.72-1.39-3.52-1.83-7.22-1.54-10.95,.56-7.17,1.32-14.33,2.85-21.34,.26-1.2,.85-2.88-.34-3.33-1.57-.59-1.11,1.53-1.53,2.49-.49,1.11-1.03,2.19-1.54,3.28-.65,1.38-.4,3.73-2.23,3.85-1.94,.13-1.37-2.57-2.33-3.64,.1-2.26,.2-4.52,.3-6.78,.86-.23,1.52-.81,1.71-1.87,.88-4.9,1.4-9.88,3-14.6,.67-1.99-.5-3.01-2.05-2.6-2.72,.71-2.44-1.29-2.46-3.35-.03-2.72,2.12-4.96,1.45-7.65-1.01-4.11-.21-7.31,2.57-9.92,1.34-.5,2.34-1.45,2.81-3.09,4.18-2.78,8.35-5.56,12.53-8.34,2.45,7.45,4.67,15.06,5.74,22.94,1.14,8.4,4.04,16.02,6.01,24.05,.63,2.56,.67,5.34,1.92,7.67,.07,.56,.14,1.12,.21,1.68,.23,4.28,.68,8.51,1.93,12.56,1.52,4.91,3.56,9.71,.37,14.95-1.13,1.85,.64,3.61,.98,5.43,.29,1.59,.87,3.11,1.33,4.66-.08,1.2-.09,2.36,1.16,2.75,.28,.56,.55,1.13,.83,1.69-.63,.41-1.5,1.09-1.26,1.79,1.27,3.83-1.31,5.68-2.72,8.17-1.02,1.8-3.09,1.66-4.5,3.7,2.96,1.04,6.99,1.04,7.95-.3,1.64-2.27,2.98-1.16,4.43-1.5,4.71-1.01,9.43-1.79,14.22-1.51,.69,.04,1.45,.04,2.07-.26,12.26-6.1,24.28-3.3,36.31,.83,2.18,.75,4.39,1.78,6.77,1.28Zm-7.63,22.33c3.8-.72,7.7,.32,11.45-1.11,2.21,.9,4.34,1.07,6.33-.71-4.02-3.37-9.41-1.31-13.02-5.58-.63-.75-1.73-.48-2.68-.44-2.24,.08-4.49-.05-6.74-.1-.12-1.33,.95-1.52,1.39-2.26,.86-1.45,.15-2.52-.86-2.02-3.36,1.68-7.81,1.12-9.59,6.29-.93,.59-1.69,1.38-2.13,2.55-1.03,.06-1.92-.4-2.72-1.12,.12-.68,.11-1.43,.38-2.01,.52-1.15,1.14-2.16-.12-3.22-.98-.82-1.85-1.4-3.18-.97-4.38,1.41-8.35,4.01-12.55,5.93-.75,.34-1.72,.55-1.64,1.8,.09,1.47,1.16,1.6,2.08,1.63,3.14,.1,6.27,.13,9.41,.18,3.36,1.68,6.94,3.08,10.41,1.32,3.09-1.56,5.84-2.05,9-.62,1.44,.65,3.19,.34,4.8,.46Zm-74.69-23.51c-2.53-.67-4.5,1.09-4.51,3.52,0,2.08,2.34,2.37,4.22,2.07,1.71-.27,3.46-.15,5.2-.14,2.22,.01,3.18-1.08,2.81-3.88-.18-1.38-1.23-3.85,1.76-3.05,.73,.19,.83-1.14,.36-1.92-1.02-1.69-2.02-2.13-3.75-.73-1.91,1.55-3.31,4.42-6.09,4.14Z"/>
  <path class="cls-6" d="M77.89,141.73c-1.46,.33-2.8-.78-4.43,1.5-.97,1.34-5,1.35-7.95,.3,1.41-2.05,3.48-1.91,4.5-3.7,1.41-2.48,4-4.34,2.72-8.17-.23-.7,.64-1.38,1.26-1.79,2.64,3.31,2.91,7.76,3.9,11.86Z"/>
  <path class="cls-6" d="M73.16,128.17c-1.25-.39-1.24-1.55-1.16-2.75,.76,.68,1.17,1.59,1.16,2.75Z"/>
  <path class="cls-13" d="M181.18,182.62c2.85,1.41,1.39,4.99,2.5,7.28-.8,1.74-2.15,1.93-3.59,1.87-7.77-.33-15.25,2.56-22.94,3.12-.65,.05-1,.62-1.2,1.32-.52-.19-1.05-.37-1.57-.56-.91-.26-1.29,.39-1.54,1.28-6.13,1.54-12.26,3.07-18.39,4.61,.01,.4,.02,.8,.04,1.2,2.38,1.58,4.92,2.69,7.64,3.26,.35,.16,.71,.33,1.06,.49,.68,.8,1.5,1.18,2.46,1.1,2.33,1,4.67,1.99,7,2.99,.23,.63,.66,.75,1.17,.65,2.79,1.31,5.59,2.61,8.38,3.92,1.67,1.77,3.33,1.06,4.99-.08,2.08,.43,3.92,1.62,5.79,2.69,1.11,.64,2.02,1.02,3.1-.31,2.15-2.67,4.05-1.79,5.68,.88l-.12,.27c-3.64,4.16-8.69,5.44-12.62,9.01-.59-.18-1.18-.37-1.77-.55h-.05c-2.11-.67-4.22-1.31-6.32-2.02-3.84-1.29-7.33-3.85-11.36-4.44-3.34-.51-6.32-2.42-9.22-4.1-5.84-3.37-12.02-5.83-18.23-7.13-3.18-.67-5.2-2.64-7.76-3.98,3.28-2.85,3.22-6.82,2.6-10.97,1.54-.36,3.41,1.1,4.57-1.25,2.55-.04,5.11-.08,7.66-.13,.5,.08,1,.16,1.5,.24,4.62,.35,8.8-2.13,13.21-3.13,2.45-.55,4.67-.98,5.44-5.1,.3-1.61,4.66,.59,6.41-2.35,.33-.56,1.06-.91,1.19-1.49,.62-2.88,1.84-2.59,3.72-1.61,3.84,2,9.5-.94,10.23-5.05,4.96-.06,7.48,4.33,10.35,8.08Z"/>
  <path class="cls-5" d="M149.5,220.6c4.03,.59,7.52,3.16,11.36,4.44,2.1,.7,4.21,1.34,6.32,2.01,0,0,.05,0,.05,0,.59,.18,1.18,.37,1.77,.55-.93,1.85-2.72,3.21-2.32,5.82-1.04-.09-2.06-.06-3.01,.62-.63,.45-1.56,.72-1.62-.44-.26-5.07-3.99-5.44-6.65-7.1-2.37-1.48-4.62-2.97-5.91-5.91Z"/>
  <path class="cls-4" d="M53.5,31.49c-4.18,2.78-8.35,5.56-12.53,8.34-.68-.12-1.36-.24-2.04-.36,.03-3.12,.1-6.23,.09-9.35,0-1.26,.46-2.85-1.18-3.29-.22-.91-.83-1.99-.61-2.7,1.88-6.06,.88-12.11,.32-18.17,.63-1.46,1.98-2.93,2.82-1.65,.95,1.44,3.84,1.17,2.94,4.21-.95,3.2,.57,3.59,2.6,3.57,1.05-.01,2.1-.12,3.13-.03,2.85,.26,4.08-.79,3.13-4.5-.56-2.17,.22-4.39,.87-6.5,3.91-.11,7.85,.63,11.74-.47,1.82,3.24-1.19,6.08-.61,9.22-3.36,1.63-6.67,3.37-9.31,6.51-3.09,4.75-2.55,9.93-1.37,15.19Zm-9.72-16.1c3,1.97,1.52,4.03,.63,5.69-.78,1.45-1.87,2.48-.63,4.26,1.31,1.87,2.98,1.86,4.75,1.4,1.46-.38,2.6-1.14,2.57-3.28-.04-2.67,.23-5.25,1.69-7.48,.23-.35,.29-1.08,.15-1.5-.19-.59-.92-.67-1.16-.26-2.1,3.56-4.86,.99-7.98,1.17Z"/>
  <path class="cls-6" d="M38.16,42.92c-2.78,2.61-3.58,5.81-2.57,9.92,.66,2.69-1.48,4.92-1.45,7.65,.02,2.06-.26,4.06,2.46,3.35,1.55-.4,2.72,.61,2.05,2.6-1.6,4.72-2.12,9.7-3,14.6-.19,1.06-.85,1.63-1.71,1.87-.76-1.19-1.93-.87-2.94-1.12,.1-4.66,.21-9.33,.31-13.99,.26-7.55,1.17-15.12-.23-22.63,2.73,.35,3.38-3.27,5.45-4.16,.09,1.01,.4,1.76,1.41,1.62l.23,.3Z"/>
  <path class="cls-2" d="M64.18,9.79c-.58-3.14,2.43-5.97,.61-9.22,4.05-1.64,6.84,.36,8.97,4.35,.24,.45,.58,.9,.96,1.17,1.81,1.3,3.66,3.23,2.02,5.52-1.32,1.83-3.91,2.33-6.07,.94-2.05-1.32-4.26-2.03-6.48-2.76Z"/>
  <path class="cls-8" d="M215.04,201.71c.21,0,.43,.03,.63,.07-.04,.57-.08,1.13-.11,1.7-.81,1.42-.91,2.63,.68,3.33,.06,.25,.1,.49,.15,.74-1.59,6.38-4.31,8.47-10.71,8.22-.56-2.06-1.41-4.5-3.44-3.72-2.3,.88-2.59,3.76-2.17,6.38,.46,2.84,.71,5.81,2.43,8.11-3.91,.12-7.78,0-11.07-3.05-.79-1.49-2.08-1.43-3.32-1.52-.49-.58-.99-1.17-1.48-1.75,0-.47,.01-.93,.02-1.4,1.47-.16,2.37-.67,1.09-2.53-.58-.86-1.17-1.72-1.68-2.64-.31-.57-.57-1.29-.11-1.92,.48-.65,1.1-.36,1.6-.04,1.6,1.04,3.78,3.13,4.84,.65,1.1-2.59,4.38-5.49,.2-9.85,5,1.53,5.55-2.83,6.89-5.33,1.58-2.95,3.88-3.2,5.64-2.33,1.97,.97,1.82,3.84,.99,6.28-.52,1.55-1.1,3.14-1.27,4.76-.27,2.59,1.5,4.36,2.95,5.12,1.56,.82,2.79-1.2,3.61-3.07,.98-2.24,.18-6.05,3.65-6.21Z"/>
  <path class="cls-5" d="M152.64,210.58c-2.33-1-4.67-1.99-7-2.99-.43-1.59-1.38-1.54-2.46-1.1-.35-.16-.71-.33-1.06-.49,.36-2.63,1.58-3.82,3.65-2.57,1.34,.81,1.9,.23,2.94-.78,4.01-3.89,8.54-6.1,11.37-2.07-.17,1.96-.35,3.91-.52,5.87-.99,2.31-.8,4.06,1.53,4.81,.8,1.12,2.33,1.94,1.1,3.9-2.79-1.31-5.58-2.61-8.38-3.92-.28-.51-.65-.78-1.17-.65Z"/>
  <path class="cls-3" d="M186.64,218.82c0,.47-.01,.93-.02,1.4-.24,.05-.46,0-.67-.13-.25-.32-.49-.63-.74-.95-1.15-.27-2.31-.54-3.46-.81-1.62-2.67-3.53-3.55-5.68-.88-1.08,1.33-1.99,.95-3.1,.31-1.87-1.07-3.71-2.26-5.79-2.69-.92-3.39,.94-7.07-.87-10.51-.5-.94,1.48-2.43,2.07-1.57,1.27,1.88,3.29,.98,4.56,2.41,.38,.43,1.27,.97,1.45,.78,3.39-3.46,2.84,.77,3.02,2.4,.53,5,4.22,6.19,6.85,8.65,.71,.66,1.59,1.05,2.39,1.57Z"/>
  <path class="cls-4" d="M160.08,200.58c-2.83-4.03-7.36-1.82-11.37,2.07-1.04,1.01-1.59,1.59-2.94,.78-2.07-1.25-3.29-.06-3.65,2.57-2.72-.57-5.26-1.68-7.64-3.26-.01-.4-.02-.8-.04-1.2,6.13-1.54,12.26-3.07,18.39-4.61,.86,.18,1.38-.24,1.54-1.28,.52,.19,1.05,.37,1.57,.56,2.08,.33,4.12,1.58,6.51,.52-.79,1.28-1.59,2.57-2.38,3.85Z"/>
  <path class="cls-4" d="M161.09,211.25c-2.34-.75-2.53-2.5-1.53-4.81,.51,1.6,1.02,3.21,1.53,4.81Z"/>
  <path class="cls-6" d="M30.16,242.23c-.25-1.32-.99-1.77-2.05-1.7-.92-.79-1.31-1.96-1.55-3.23,2.97-2.16,6.05-4.01,9.46-4.92,1.29,2.76,2.95,5.4,1.4,8.88-.42,.95,.21,1.85,.6,2.71,1.2,2.72,1.85,5.67,2.62,8.58,.33,1.25-.2,3.55,1.68,3.52,1.44-.02,2.11-1.43,2.35-3.15,.28-2.05,1.07-2.34,2.28-.75,.63,.83,1.28,2.62,2.41,1.06,2.76-3.78,5.96-.72,8.49-.3,3.8,.63,5.52,5.58,5.63,9.9,.07,2.65,.84,6.16-1.64,8.5-2.59,2.44-2.17,4.53,1.09,5.98,.5,2.34-.16,4.41-.61,6.7-.7,3.52-3.39,6.74-1.73,10.78l-.81,3.44c-1.48-.2-1.84,.94-2.39,2.34-1.46,3.73-3.41,7.18-4.1,11.34-.22,1.32-1.18,2.55-2.28,1.46-2.62-2.61-4.74-5.78-6.14-9.57-1.96-5.3-3.58-10.81-5.89-15.87-2.8-6.16-4.14-12.46-3.87-19.52,.14-3.75,.22-7.72-1.45-11.23,.07-.36,.15-.73,.22-1.1,.33-2.15,.76-4.3,.96-6.47,.34-3.64-.64-6.41-3.86-7.42-.28,0-.56,.01-.84,.02Zm19.96,63.58c.24,.66,.52,1.05,1.04,.88,.14-.05,.32-.39,.31-.59-.03-.57-.34-.98-.82-.92-.2,.02-.37,.44-.52,.63Z"/>
  <path class="cls-2" d="M55.5,168.18c1.92,3.15,3.36,6.73,5.81,9.41,.33,.52,.66,1.04,.99,1.55,.21,.81,.63,1.41,1.28,1.76,.96,1.29,.41,4,2.66,4.08-.17,.91-.67,1.41-1.39,1.68-6.23,2.38-7.92,6.58-5.75,13.57,.49,1.59,2.48,1.89,2.22,3.45-.63,3.67,1.37,6.37,1.95,9.56-.16,.57-.31,1.14-.47,1.72-2.82,2.63-5.64,5.27-8.46,7.9-1.56-2.2-2.79,.99-4.25,.41-1.2-3.28-4-3.99-6.27-5.54-.43-.63-.47-1.69,.08-1.73,3.1-.21,2.78-2.96,2.98-5.36,2.7-2.92,5.86-5.27,7.85-9.07-1.12-8.25-8.22-10.64-11.43-16.84-.89-.34-1.78-.68-2.67-1.02-.09-1.95,1.04-1.65,2.08-1.76,2.99-.31,4.86-3.39,4.32-6.96,2.48-2.91,4.56-6.51,8.49-6.81Z"/>
  <path class="cls-5" d="M50.09,223.27c1.46,.58,2.69-2.62,4.25-.42-3.13,2.84-6.28,5.68-9.4,8.53-1.93,1.77-2.53,3.4-.15,5.52,4.71,4.2,9.29,8.61,13.9,12.99,1.51,1.43,2.02,.69,2.12-1.22,.07-1.26-.06-2.45-.53-3.64-1.51-3.89-2.87-7.83-6.07-10.32-.79-.62-1.8-1.82-.88-3.13,.77-1.09,2.07-.82,2.86,.02,1.53,1.63,3.09,2.2,5.09,1.39,.91-.37,2.52,.52,2.12,1.18-1.49,2.4-.5,5.03-.97,7.13-.71,3.13,.35,2.97,1.91,3.29,2.42,3.29,2.31,8.99,6.82,10.27,1.91,2.42,4.45,2.47,6.97,2.56,.46,.02,.92,.04,1.38,.06,2,1.63,4.29,.69,6.44,.98,1.62,.22,3.34,.1,3.95,2.52-5.35,.18-10.42-2.06-15.71-2.46-.87-.08-1.73-.16-2.6-.23-1.1-1.15-2.04-.58-2.54,.7-2.05,5.29-4.02,10.63-5.95,15.98-.2,.56,.07,1.36,.12,2.05-.1,.09-.2,.18-.29,.28-3.26-1.46-3.68-3.54-1.09-5.98,2.48-2.34,1.71-5.85,1.64-8.5-.11-4.32-1.82-9.27-5.63-9.9-2.54-.42-5.74-3.48-8.49,.3-1.14,1.56-1.78-.23-2.41-1.06-1.21-1.59-2-1.3-2.28,.75-.24,1.72-.9,3.13-2.35,3.15-1.87,.02-1.34-2.27-1.68-3.52-.78-2.91-1.43-5.87-2.62-8.58-.38-.86-1.02-1.76-.6-2.71,1.55-3.48-.11-6.12-1.4-8.88,4.69-3.04,9.37-6.08,14.06-9.11Z"/>
  <path class="cls-4" d="M46.88,210.64c-.19,2.4,.13,5.14-2.98,5.36-.55,.04-.51,1.1-.08,1.73-4.66,.95-9.04,2.9-13.3,5.3-.87,.49-1.72,.89-2.58,0,.04-.55,.09-1.11,.11-1.66,.32-9.33,1.33-18.58,2.64-27.78,.73-5.1,.98-10.81,.35-13.4,1.13-1.02,1.96-2.19,3.82-1.15,1.92,1.06,1.57,2.57,1.54,4.26-1.53,3.81-2.94,7.66-2.51,12.04-.92,6.83-3.63,13.13-4.3,20.04-.18,1.86-1.2,4.12,.35,5.4,1.31,1.08,2.82-.47,4.18-1.16,.31-.16,.56-.49,.84-.73,4.34-1.97,7.93-5.52,11.91-8.25Z"/>
  <path class="cls-8" d="M12.9,235.21c.91-1.19,1.98-2.56,3.03-.49,.73,1.46,.39,3.14-1.26,3.58-1.17,.31-3.13,2.36-3.1-1.39,.66-.32,1.16-.83,1.33-1.7Z"/>
  <path class="cls-9" d="M12.9,235.21c-.17,.87-.66,1.38-1.33,1.7-.08-1.15,.38-1.7,1.33-1.7Z"/>
  <path class="cls-12" d="M17.84,228.22c.31-.98,.91-1.33,1.75-1.19-.38,.83-.89,1.38-1.75,1.19Z"/>
  <path class="cls-12" d="M14.33,230.11c.55-.72,1.28-.89,2.04-.92-.46,1.02-1.24,1.03-2.04,.92Z"/>
  <path class="cls-13" d="M31.05,180.19c-1.23-.54-2.46-1.08-3.69-1.61-6.95-1.21-13.97-.03-20.94-.7-1.42-2.64,.62-5.69-1.22-8.41l-.18,8.33c-1.92,.35-3.3-.58-4.21-2.58-.68-1.97,.12-3.87,.27-5.79,1.44-2.25,3.79-1.73,5.65-2.7,1.37,.02,2.73,.03,4.1,.05,.47,.04,.94,.07,1.4,.11,6.1,.45,12.2,1.17,18.25-.63,.89,1.31,1.27,3.48,3.32,2.84,.53,.04,1.07,.07,1.6,.11,.15,.17,.31,.18,.48,.03,2.53,1.09,4.96,2.57,7.67,3.03,1.16,.91,2.32,1.81,3.49,2.72,.54,3.57-1.33,6.65-4.32,6.96-1.05,.11-2.18-.18-2.08,1.76-1.4-.14-2.8-.28-4.21-.41,.02-1.69,.38-3.2-1.54-4.26-1.86-1.03-2.69,.14-3.82,1.15Zm-17-5.33c-.11-1.68,1.37-3.14,.47-4.88-.07-.13-.76-.07-.87,.14-.88,1.56-1.35,3.16,.41,4.74Zm-4.03-.75c.9-1.35,1.11-2.46,.56-3.64-.08-.18-.71-.26-.8-.12-.75,1.16-.89,2.35,.24,3.76Z"/>
  <path class="cls-9" d="M5.01,177.8l.18-8.33c1.84,2.72-.2,5.76,1.22,8.41-.47-.03-.94-.05-1.4-.08Z"/>
  <path class="cls-6" d="M89.89,261c-.61-2.41-2.33-2.3-3.95-2.52-2.15-.29-4.44,.65-6.44-.98,.55-1.17,1.45-1.9,2.48-2.12,2.82-.59,2.43-2.1,1.5-4.66-.82-2.28-2.47-3.57-3.44-5.61-.88-1.86-1.95-3.99-3.42-4.96-1.8-1.19-3.45,.66-4.84,2.21-.15,.17-.51,.31-.64,.21-2.85-2.16-4.64,.88-6.81,2.02-1.55-.33-2.61-.16-1.91-3.29,.47-2.1-.52-4.73,.97-7.13,.41-.66-1.21-1.55-2.12-1.18-2,.82-3.56,.25-5.09-1.39-.79-.85-2.09-1.11-2.86-.02-.93,1.31,.08,2.51,.88,3.13,3.2,2.49,4.57,6.43,6.07,10.32,.46,1.19,.59,2.38,.53,3.64-.1,1.91-.62,2.65-2.12,1.22-4.6-4.37-9.18-8.79-13.9-12.99-2.39-2.12-1.78-3.76,.15-5.52,3.13-2.86,6.27-5.69,9.4-8.53,2.82-2.63,5.64-5.27,8.46-7.9,3.33,.21,5.38,2.49,7.24,5.63,1.78,3,2.54,6.85,5.2,9.11,1.32,3.34-.1,5.82-2.25,8.09,2.14,.67,3.61,.03,4.74-1.58,1.41-1.99,2.91-2.17,4.92-1.28,3.12,1.37,3.5,.82,2.94-3.37v-.04c2.46,.21,4.39-1.46,6.36-2.8,3.16-2.15,5.81-5.31,9.31-6.81,1.6,.91,3.21,1.81,4.81,2.72-.68,.68-1.5,.61-2.31,.74-1.99,.31-4.24,.51-1.71,3.81,.5,.66,.47,2.08-.16,2.17-2.84,.4-3.73,3.52-5.58,5.26-1.39,1.3-2.96,1.53-4.41-.2-.53-.63-.87-2.48-2.07-1.03-.97,1.17-.34,2.29,.42,3.28,1.9,2.45,3.24,5.34,4.72,8.15,2.33,4.39,4.51,9.14,8.85,11.38,.65,.34,1.26,.81,1.97,.45,.7-.36,.55-1.02,.32-1.73-1.19-3.61,.02-4.08,2.93-3.98,4.32,.16,9.42,1.55,11.14-6,.29-1.26,1.79-1.09,2.83-1.03,4.69,.26,9.32-1.57,14.03-.57,.34,.07,.7-.01,1.04-.02,1.79-.05,1.98-1.73,2.12-3.23,.19-2.02-1.23-1.5-2.17-1.75-2.02-.52-3.98,1.4-5.72,.86-6.09-1.89-12.44-1.02-18.4-3.07-.55,1.25,1.45,2.55,0,2.96-2.56,.72-4.98,2.65-7.77,1.79-1.14-.35-2.32-1.66-1.27-2.52,1.79-1.47,2.68-4.54,5-4.75,2.99-.27,4.11-2.77,5.28-5.34,1-2.21,.78-3.8-1.7-3.88-1.66-.06-3.22-.5-4.58-1.7,2.12-2.57,4.56-2.93,7.38-1.96,2.78,.96,5.92-.18,8.59,1.37,6.87,4,14.48,4.4,21.71,6.65,1.98,.61,3.59,2.39,5.78,2.66,1.29,.16,.94,1.69,.47,2.7-1.59,3.46-.06,4.2,2.47,4.89,1.66,.45,3.9-1.3,5,1.57-2.94,3.73-7.22,4.22-10.78,6.45-1.9,1.19-4.09,1.72-6.15,2.55-3.22,.27-6.47,1.34-9.32,2.63-7.8,3.53-15.87,5.73-23.84,8.41-2.56,.86-5.12,1.91-7.79,.66-.78-1.25-1.68-1.26-2.66-.33-2.12-.41-4.25-.82-6.37-1.23-.32-1.16-.79-1.27-1.41-.27-.69-.14-1.38-.28-2.07-.42Zm48.2-23.27c2.39,.19,3.84-.17,4.55-2.18,.34-.98,.27-2.04-.71-2.44-4.87-1.97-9.99-2.3-15.06-2.97-.68-.09-1.47,.29-1.51,1.32-.01,.42,.39,1.14,.71,1.24,4.37,1.31,8.55,3.3,12,5.03Z"/>
  <path class="cls-6" d="M66.24,184.98c-2.25-.08-1.7-2.79-2.65-4.08,2.54-.71,4.72-1.78,4.49-5.69-.07-1.21,.6-2.03,1.53-2.57,1.53-.9,2.47-2.52,3.31-4.21,1.35-2.74,2.66-5.33,5.39-1.7,.66,.88,1.44,1.16,2.34-.07,2.37-3.25,5.52-5.22,8.63-7.25,.73-.48,1.57-.91,2.24-.02,.57,.76-.03,1.56-.27,2.31-.25,.78-.55,1.55-.75,2.35-1,3.85-.06,5.42,3.26,5.75,1.38,.14,3.78-.74,3.75,1.54-.03,2.26-2.5,3.26-4.11,2.43-5.16-2.67-7.38,.79-9.35,5.62-.66,1.62-1.94,2.84-.77,4.84,1.18,2.04,2.52,1.73,4.25,.99,2.45-1.04,4.93-.02,7.02,1.35,2.97,1.96,5.8,2.85,9.29,2.12,3.17-.67,6.5-.35,9.73,.27,3.07,.59,6.03,1.68,9.28,1.22,2.26-.32,4.62,.61,6.3,2.86-2.56,.04-5.11,.08-7.66,.13-3.88-.46-7.48-3.15-11.56-1.95-1.33-.06-2.47,.35-3.13,1.89-1.59,1.31-3.21,2.58-4.44,4.42-4.05,2.27-7.25,5.95-10.63,9.32-.17,.17-.27,.45-.4,.68-.31,.57-.81,1.15-.33,1.83,.47,.66,1.06,.28,1.57-.06,1.82-1.19,3.36-3.03,5.51-3.46-.09,.94,.12,2.35-.32,2.76-3.14,2.94-1.55,5.48,.22,8.08-4.65,0-9.32-.34-13.94,.13-2.26,.23-2.8-.61-3.23-2.83-1.09-5.62-1.47-5.81-6.11-4.1l-.14-.05c-.27-4.9,.52-9.34,3.99-12.63-4.73-2.07-5.35-3.32-4.26-8.63,.44-2.17,2.88-2.95,2.75-5.54,.03-.31,.06-.63,.09-.94,2.52-3.17,4.28-7,6.47-10.46,.82-1.3,.16-1.89-.62-2.06-2.78-.59-5.75-.47-7.58,2.26-1.3,1.93-2.75,3.67-4.06,5.56-2.79,1.49-2.92,5.51-5.07,7.6Z"/>
  <path class="cls-5" d="M108.89,224.66c1.36,1.2,2.92,1.64,4.58,1.7,2.48,.08,2.71,1.67,1.7,3.88-1.17,2.57-2.29,5.07-5.28,5.34-2.32,.21-3.21,3.28-5,4.75-1.05,.86,.14,2.17,1.27,2.52,2.79,.86,5.21-1.07,7.77-1.79,1.44-.41-.56-1.71,0-2.96,5.96,2.06,12.31,1.18,18.4,3.07,1.73,.54,3.7-1.38,5.72-.86,.94,.24,2.36-.27,2.17,1.75-.14,1.5-.34,3.18-2.12,3.23-.35,.01-.71,.09-1.04,.02-4.7-1.01-9.34,.83-14.03,.57-1.04-.06-2.55-.23-2.83,1.03-1.72,7.55-6.82,6.16-11.14,6-2.91-.11-4.11,.36-2.93,3.98,.23,.71,.39,1.37-.32,1.73-.7,.36-1.32-.12-1.97-.45-4.34-2.24-6.52-6.99-8.85-11.38-1.49-2.81-2.83-5.7-4.72-8.15-.77-.99-1.39-2.1-.42-3.28,1.19-1.45,1.54,.4,2.07,1.03,1.45,1.73,3.01,1.5,4.41,.2,1.85-1.74,2.75-4.86,5.58-5.26,.63-.09,.66-1.51,.16-2.17-2.53-3.29-.28-3.5,1.71-3.81,.81-.13,1.63-.06,2.31-.74,.94,.01,1.88,.03,2.82,.04Z"/>
  <path class="cls-5" d="M74.68,209.88c4.63-1.71,5.01-1.51,6.11,4.1,.43,2.22,.97,3.06,3.23,2.83,4.62-.47,9.29-.13,13.94-.13,3.18-.16,3.64,2.16,3.31,5.21-3.49,1.5-6.15,4.66-9.31,6.81-1.97,1.34-3.9,3.01-6.36,2.8-.15-3.82,.86-5.94,4.57-5.89,3.17,.04,5.28-2.75,7.27-5.77-4.45-2.25-8.64-1.72-12.84-.45-.55,1.41,2.29,2.11,.56,3.37-1.23,.9-2-.81-2.74-1.83-.52-.71-.72-1.78-1.64-2.04-.34-1.5-1.14-2.65-1.81-3.93-1.12-2.12-3.7-2.39-4.27-5.1Z"/>
  <path class="cls-10" d="M102.33,197.53c1.23-1.84,2.85-3.11,4.44-4.42,.93-.14,1.86-.28,2.79-.42,0,0,.04,.06,.04,.06,.22,.28,.45,.56,.67,.84,0,0,0,0,0,0-.36,1.89,.41,3.31,1.32,4.68,.03,2.11-2.47,4.5,.45,6.28-.05,.26-.1,.52-.15,.79-2.7,1.83-5.09,.85-7.37-1.1-.93-2.15-2.57-3.95-2.19-6.71Z"/>
  <path class="cls-5" d="M102.33,197.53c-.38,2.77,1.27,4.57,2.19,6.71-1.92,1.97-4.53-.21-6.47,1.61-2.15,.42-3.69,2.27-5.51,3.45-.51,.33-1.1,.72-1.57,.06-.48-.68,.02-1.27,.33-1.83,.13-.23,.23-.51,.4-.68,3.38-3.37,6.58-7.05,10.63-9.32Z"/>
  <path class="cls-2" d="M111.89,205.34c.05-.26,.1-.53,.15-.79,.32-1.03,.64-2.06,.96-3.09,1.35-1.77,1.45-3.93,1.37-6.15,.7-.86,1.63-.79,2.52-.89,.61,4.15,.68,8.11-2.6,10.97-.8,.08-1.62,1.43-2.39-.05Z"/>
  <path class="cls-5" d="M57.21,307.63c-1.2,.58-1.77,1.69-1.96,3.18-.67,5.44-1.38,10.88-2.03,16.33-.89,7.57-1.01,15.29-3.27,22.59-.75,2.43-1.74,4.59-4.19,4.98-2.12-.36-4.51,.83-6.3-1.49,.46-.03,.93-.1,1.39-.09,2.43,.07,4.8,.46,6.08-3.18,1.15-3.27-.35-4.74-2.02-6.67-1.22-1.4-1.54-3.91,.41-4.85,1.7-.82,2.5-1.64,2.41-3.81-.09-2.2-1.43-2.95-2.73-3.91-2.68-1.97-5.86-3.14-7.34-7.04-.41-1.09-.56-3.28-2.01-2.9-1.42,.37-1.12,2.53-1.51,3.92-.21,.74-.23,1.75,.02,2.46,1.52,4.34-.36,9.07,1.05,13.42,.28,.86-.28,1.37-.95,1.21-2.34-.57-2.07,1.41-2.13,3.04-.08,2.37-.11,4.74-.16,7.1-.44,.07-.88,.14-1.32,.2-.28-.1-.56-.2-.83-.3,.25-2.2,.61-4.39,.72-6.6,.22-4.38-1.23-9.16,2.35-12.7,.27-.27,.36-1.14,.22-1.59-2.02-6.58,2.48-13.34-.26-19.89-.06-.52-.11-1.05-.17-1.57,.11-.77-.03-1.41-.64-1.81-.64-2.49-.68-5.04-.55-7.61,1.36-1.46,1.89-3.11,.84-5.12-1-2.97,1.21-7.1-2.25-9.18,.06-1.69,.12-3.38,.18-5.06,1.4-4.27,2.34-8.51,1.52-13.24-.61-3.55,.96-6.9,1.9-10.25,1.66,3.51,1.59,7.48,1.45,11.23-.27,7.05,1.07,13.36,3.87,19.52,2.3,5.07,3.93,10.58,5.89,15.87,1.4,3.78,3.52,6.96,6.14,9.57,1.1,1.09,2.06-.13,2.28-1.46,.69-4.15,2.64-7.6,4.1-11.34,.55-1.4,.91-2.55,2.38-2.34,.01,.47,.02,.93,.04,1.4-.87,2.66-2.31,5.06-2.6,7.99Zm-7.15,17.96c.23-2.56-.25-4.33-2.47-5.67-2-1.21-3.37-3.66-4.62-6.07-3.59-6.94-4.74-14.91-6.78-22.51-.26-.95,.13-2.74-1.22-2.42-1.38,.33-1.11,2.1-.64,3.12,1.28,2.82,1.01,6.18,2.42,9.03,.7,1.42,1.73,4.04-.12,5.54-1.04,.84-2.95,.26-2.37,2.95,.39,1.8,.99,3.49,2.25,4.58,4.47,3.88,9,7.67,13.51,11.5l.19,.19-.15-.24Z"/>
  <path class="cls-4" d="M32.86,311.04c2.74,6.55-1.76,13.31,.26,19.89,.14,.45,.05,1.33-.22,1.59-3.58,3.55-2.13,8.32-2.35,12.7-.11,2.21-.47,4.4-.72,6.6-.94-.29-.69-1.66-1.38-2.17,.05-.78,.11-1.57-.57-2.05-.18-.25-.36-.51-.54-.76,0-.52,0-1.05,0-1.57,2.44-3.3,2.63-9.06,.42-12.8,.02-1.28,.05-2.56,.07-3.84,1.71-1.14,1.83-2.86,1.47-4.95-.86-5,.52-9.18,3.58-12.65Z"/>
  <path class="cls-10" d="M27.34,346.85c.18,.25,.36,.51,.54,.76-.18-.25-.36-.51-.54-.76Z"/>
  <path class="cls-6" d="M31.98,351.92c.05-2.37,.08-4.74,.16-7.1,.05-1.63-.21-3.62,2.13-3.04,.67,.16,1.23-.35,.95-1.21-1.41-4.35,.47-9.08-1.05-13.42-.25-.71-.23-1.71-.02-2.46,.39-1.38,.09-3.55,1.51-3.92,1.45-.38,1.59,1.81,2.01,2.9,1.48,3.89,4.67,5.06,7.34,7.04,1.3,.96,2.63,1.71,2.73,3.91,.09,2.17-.71,2.99-2.41,3.81-1.95,.94-1.63,3.45-.41,4.85,1.68,1.93,3.17,3.4,2.02,6.67-1.28,3.64-3.65,3.25-6.08,3.18-.46-.01-.93,.06-1.39,.09-2.51-.34-5.15,.32-7.49-1.29Z"/>
  <path class="cls-8" d="M49.82,397.93c-.4,4.34-2.98,3.5-4.88,2.46-3.5-1.91-5.92-5.63-8.01-9.29-1.28-2.24-2.36-4.57-4.11-6.33-.58-2.51-1.51-5.02,.09-7.51,.85,2.03,1.45,4.67,3.5,.87,1.14-2.11,2.7-1.17,3.13,.67,1.08,4.56,3.87,8.61,2.83,13.83-.24,1.2-.14,3.25,1.07,2.97,2.62-.59,4.21,1.74,6.36,2.33Z"/>
  <path class="cls-8" d="M33.14,373.15c-.48-4.79,.55-9.64-.37-14.42-.36-1.87,.72-2.4,2.08-2.32,1.94,3.79,.87,14.23-1.7,16.74Z"/>
  <path class="cls-6" d="M34.17,113.18c.19-5.81-1.31-11.47-.89-17.3,.15-2.06,.24-4.13,.36-6.19,.96,1.07,.39,3.77,2.33,3.64,1.83-.12,1.58-2.47,2.23-3.85,.51-1.09,1.05-2.17,1.54-3.28,.42-.96-.03-3.08,1.53-2.49,1.19,.45,.6,2.13,.34,3.33-1.53,7.01-2.29,14.17-2.85,21.34-.29,3.73,.15,7.43,1.54,10.95,1.03,2.62,.9,5.2-1.7,6.72-.74,.44-1.68,1.04-1.56,2.07,.66,5.81-2.23,11.06-1.88,16.8-1.32,.03-2.15,.67-2.2,2.4-.11,3.46-1.58,1.3-2.62,.92,.05-.33,.1-.65,.15-.98,.97-2.26,1.37-4.65,1.21-7.17,2.61-1.72,2.96-4.56,3.35-7.84,.76-6.5,.28-12.78-.88-19.07Z"/>
  <path class="cls-6" d="M43.53,172.27c-2.71-.46-5.14-1.93-7.67-3.03,0,0-.23-.25-.23-.25l-.25,.22c-.53-.04-1.07-.07-1.6-.11,.12-1.93-.26-3.94,.68-5.74,1-.02,2.13,.08,2.18-1.63,.04-1.45-.96-1.54-1.85-1.66-.06-1.42-.16-2.86,1.21-3.59,1.51,1.52,2.04,.09,2.42-1.29,.54-1.97,.89-4.01,1.41-5.98,.85-3.19,3.08-2.27,4.95-2.3,1.98-.03,2.16,1.58,2.03,3.41-.98,.24-1.42,.98-1.1,2.11,.65,2.35,.92,5.12,2.16,6.89,2.37,3.37,.92,5.29-1.27,7.01-1.89,1.47-3.26,3.06-3.07,5.95Z"/>
  <path class="cls-5" d="M169.04,165.54c.43,0,.87,.02,1.3,.03,.28,2.98,2.52,5.79,.48,8.98-.73,4.11-6.39,7.05-10.23,5.05-1.88-.98-3.1-1.27-3.72,1.61-.12,.58-.86,.93-1.19,1.49-1.75,2.94-6.11,.74-6.41,2.35-.77,4.12-2.99,4.55-5.44,5.1-4.41,1-8.59,3.49-13.21,3.13,2.76-2.3,6.12-3.01,9.18-3.36,4.64-.53,7.13-3.85,9.41-7.8,.81-1.4,1.47-2.67,2.79-3.48,.99-.61,1.29-1.64,.91-3.17-.62-2.52,1.7-5.17,3.42-3.78,1.16,.94,4.87,.15,3.16,4.46-.33,.84,.92,.99,1.56,.96,1.67-.1,3.63,.38,4.5-2.03,.29-.81-.14-2.28,.82-2.48,3.93-.82,2.76-4.19,2.67-7.06Z"/>
  <path class="cls-6" d="M115.91,158.46c1.79-5.17,6.23-4.61,9.59-6.29,1.01-.5,1.72,.57,.86,2.02-.44,.75-1.51,.93-1.39,2.26,2.25,.05,4.5,.19,6.74,.1,.95-.04,2.05-.3,2.68,.44,3.61,4.27,9.01,2.21,13.02,5.58-1.99,1.79-4.12,1.61-6.33,.71-1.37-1.85-3.6-.08-5.07-1.79-2.99-3.47-8.55-3.51-11.76-.22-.46-.06-.91-.12-1.37-.17-.63-1.99-1.63-1.92-2.82-.68-.43,.02-.87,.03-1.3,.05-.68-1.22-1.72-1.72-2.86-2Z"/>
  <path class="cls-5" d="M43.53,172.27c-.19-2.88,1.18-4.48,3.07-5.95,2.19-1.71,3.65-3.64,1.27-7.01-1.25-1.77-1.51-4.54-2.16-6.89-.31-1.13,.12-1.86,1.1-2.11,2.48,5.03,4.56,10.36,7.81,14.82,.54,.75,.59,2.01,.87,3.04-3.92,.3-6.01,3.91-8.49,6.81-1.16-.91-2.32-1.81-3.48-2.72Z"/>
  <path class="cls-6" d="M105.43,163.23c-3.14-.05-6.28-.08-9.41-.18-.92-.03-1.99-.16-2.08-1.63-.07-1.26,.89-1.46,1.64-1.8,4.2-1.92,8.18-4.53,12.55-5.93,1.33-.43,2.21,.14,3.18,.97,1.26,1.06,.63,2.06,.12,3.22-.26,.58-.26,1.34-.38,2.01-1.49,2.06-4.97-.74-5.63,3.35Z"/>
  <path class="cls-6" d="M54.94,140.89c2.78,.28,4.18-2.59,6.09-4.14,1.73-1.4,2.72-.96,3.75,.73,.47,.77,.37,2.11-.36,1.92-2.99-.79-1.94,1.67-1.76,3.05,.37,2.79-.59,3.89-2.81,3.88-1.73,0-3.49-.13-5.2,.14-1.89,.3-4.23,.01-4.22-2.07,0-2.43,1.98-4.18,4.51-3.52Z"/>
  <path class="cls-4" d="M105.43,163.23c.66-4.09,4.14-1.28,5.63-3.35,.81,.72,1.69,1.18,2.72,1.12,1.75,1.06,3.47,1.73,4.99-.55,.43-.02,.87-.03,1.3-.05,.83,.84,1.83,.76,2.82,.68,.46,.06,.91,.12,1.37,.17,.94,1.03,2.12,.82,3.24,.86,1.26,.05,2.32,.3,2.14,2.27-1.61-.12-3.36,.19-4.8-.46-3.15-1.43-5.9-.95-9,.62-3.47,1.76-7.05,.36-10.41-1.32Z"/>
  <path class="cls-4" d="M34.47,163.36c-.94,1.8-.57,3.81-.68,5.74-2.06,.63-2.43-1.53-3.32-2.84,.36-2.64,.72-5.28,1.08-7.92,2.73-1.25,2.37-4.33,2.69-6.85,.23-1.85,.57-3.14,2.3-3.29,.23,.6,.46,1.2,.7,1.8-.05,.59-.1,1.18-.15,1.76-.87,1.41-.92,3.09-1.07,4.73-1.38,.73-1.28,2.17-1.22,3.59-.11,1.1-.22,2.19-.33,3.29Z"/>
  <path class="cls-5" d="M129.63,164.4c.18-1.96-.88-2.22-2.14-2.27-1.12-.04-2.3,.17-3.24-.86,3.21-3.28,8.77-3.25,11.76,.23,1.47,1.71,3.7-.06,5.07,1.79-3.75,1.43-7.65,.39-11.45,1.11Z"/>
  <path class="cls-5" d="M36.54,148.2c-1.73,.15-2.06,1.43-2.3,3.29-.32,2.52,.04,5.61-2.69,6.85-.05-.94-.1-1.87-.16-2.81-.1-.42-.21-.84-.31-1.25l-1.03-1.88c0-.27-.05-.54-.11-.8,.91-1,.17-2.26,.38-3.37,1.04,.39,2.51,2.54,2.62-.92,.06-1.73,.89-2.37,2.2-2.4,1,.76,1.38,1.91,1.38,3.28Z"/>
  <path class="cls-5" d="M118.77,160.46c-1.52,2.28-3.24,1.6-4.99,.55,.45-1.17,1.21-1.96,2.13-2.55,1.14,.28,2.18,.78,2.86,2Z"/>
  <path class="cls-6" d="M38.93,39.47c.68,.12,1.36,.24,2.04,.36-.47,1.64-1.47,2.59-2.81,3.09,0,0-.23-.3-.23-.3,.33-1.05,.66-2.1,1-3.15Z"/>
  <path class="cls-5" d="M37.09,151.76c.05-.59,.1-1.18,.15-1.76,.5,.65,.43,1.23-.15,1.76Z"/>
  <path class="cls-6" d="M62.31,179.14c-.33-.52-.66-1.04-.99-1.55,.67,.2,.95,.77,.99,1.55Z"/>
  <path class="cls-10" d="M116.89,194.42c-.89,.11-1.81,.03-2.52,.9-.54-.02-1.08-.05-1.63-.07-.45-1.35-1.25-1.94-2.47-1.65,0,0,0,0,0,0-.22-.28-.45-.56-.67-.84,0,0-.04-.06-.04-.06,.11-.49,.23-.98,.34-1.47,4.08-1.2,7.69,1.49,11.56,1.95-1.17,2.35-3.04,.89-4.58,1.25Z"/>
  <path class="cls-4" d="M143.18,206.49c1.07-.43,2.03-.48,2.46,1.1-.96,.08-1.78-.3-2.46-1.1Z"/>
  <path class="cls-2" d="M154.38,195.65c-.16,1.03-.68,1.46-1.54,1.28,.25-.89,.63-1.54,1.54-1.28Z"/>
  <path class="cls-4" d="M152.64,210.58c.53-.13,.9,.15,1.17,.65-.52,.1-.95-.02-1.17-.65Z"/>
  <path class="cls-12" d="M167.23,227.06s-.05,0-.05,0c0,0,.05,0,.05,0Z"/>
  <path class="cls-2" d="M185.95,220.09c-.31-.1-.61-.2-.92-.3,0-.24,.06-.46,.19-.65,.25,.32,.49,.63,.74,.95Z"/>
  <path class="cls-5" d="M43.78,15.38c3.12-.19,5.89,2.38,7.98-1.17,.24-.41,.97-.32,1.16,.26,.14,.42,.08,1.16-.15,1.5-1.46,2.23-1.73,4.81-1.69,7.48,.03,2.14-1.1,2.89-2.57,3.28-1.77,.46-3.44,.48-4.75-1.4-1.24-1.78-.15-2.81,.63-4.26,.89-1.66,2.38-3.73-.63-5.69Z"/>
  <path class="cls-9" d="M38.93,39.47c-.33,1.05-.66,2.1-1,3.15-1.01,.14-1.32-.6-1.41-1.62,.44-4.73,.88-9.46,1.32-14.18,1.63,.45,1.17,2.04,1.18,3.3,.01,3.12-.05,6.23-.09,9.35Z"/>
  <path class="cls-5" d="M30.41,140.92c.43-.28,.86-.55,1.28-.83,.16,2.52-.24,4.91-1.21,7.17-.8-2.09,.14-4.23-.07-6.34Z"/>
  <path class="cls-5" d="M33.9,256.09c-1.8-2.76-2.08-6.14-2.55-9.42-.21-1.47-.24-2.98-.36-4.47,3.22,1.02,4.2,3.79,3.86,7.42-.2,2.17-.63,4.31-.96,6.47Z"/>
  <path class="cls-5" d="M60.59,294.8c-1.67-4.04,1.03-7.25,1.73-10.78,.45-2.29,1.11-4.36,.61-6.7,.1-.09,.19-.19,.29-.28,2.13,2.27,.91,5.09,.83,7.72-.16,.63-.33,1.26-.49,1.88-1.63,2.38-1.56,5.65-2.96,8.15Z"/>
  <path class="cls-5" d="M50.11,305.8c.15-.19,.32-.6,.52-.63,.48-.06,.79,.35,.82,.92,.01,.19-.16,.54-.31,.59-.51,.17-.79-.22-1.04-.88Z"/>
  <path class="cls-9" d="M74.68,209.88c.56,2.71,3.15,2.98,4.27,5.1,.67,1.28,1.48,2.44,1.81,3.93-.41,1.03-1,2.41-2,1.74-3.64-2.44-8.51-2.36-10.82-7.55-.41-.92-1.01-1.93-2.17-1.72-.19-.42-.47-1.24-.56-1.21-.97,.3-.53,1.21-.51,1.95-.48,.37-.96,.75-1.44,1.12-.58-3.2-2.57-5.89-1.95-9.57,.27-1.56-1.72-1.86-2.22-3.45-2.18-6.99-.48-11.18,5.75-13.57,.72-.28,1.22-.77,1.39-1.68,2.15-2.09,2.28-6.12,5.07-7.6,.75,3.66,3.69,3.46,5.8,4.7-.03,.31-.06,.63-.09,.94-6.01,3.35-4.26,10.99-6.4,16.47,2.29,2.9,2.04,7.2,3.91,10.33l.14,.05Z"/>
  <path class="cls-6" d="M34.96,218.89c-.28,.25-.53,.58-.84,.73-1.36,.68-2.87,2.24-4.18,1.16-1.55-1.28-.53-3.54-.35-5.4,.66-6.91,3.38-13.2,4.3-20.04,1.41,.32,1.71,1.54,1.16,2.8-1.86,4.2,1.03,4.27,2.86,4.27,1.88,0,3.75,.17,5.46,.75,2.86,.97,4.26,.75,4.56-3.51,.14-2.02-.35-2.32-1.41-2.91-2.48-1.38-3.65-3.63-3.33-7,.16-1.65,.07-3.34,.1-5,3.21,6.2,10.32,8.59,11.43,16.84-1.65,.18-3.54-.7-4.74,1.55-2.12,3.98-5.18,6.01-9.02,6.97-4.1,1.02-5.63,3.59-6.01,8.8Z"/>
  <path class="cls-4" d="M65.77,211.39c1.16-.22,1.76,.8,2.17,1.72,2.31,5.19,7.18,5.11,10.82,7.55,1,.67,1.59-.71,2-1.74,.92,.25,1.12,1.32,1.64,2.04,.74,1.02,1.51,2.73,2.74,1.83,1.73-1.26-1.11-1.96-.56-3.37,4.2-1.27,8.4-1.8,12.84,.45-1.99,3.01-4.09,5.81-7.27,5.77-3.71-.05-4.72,2.07-4.57,5.89,0,0,0,.04,0,.04-1.66,.47-3.45-1.74-4.93,0-1.62,1.91-2.48,1.3-3.35-.69-.42-.96-1.25-1.1-2.07-1.17-2.66-2.25-3.42-6.11-5.2-9.11-1.86-3.14-3.92-5.41-7.24-5.63,.16-.58,.31-1.15,.47-1.72,.48-.37,.96-.74,1.44-1.12,.36-.25,.71-.49,1.07-.73Z"/>
  <path class="cls-1" d="M43.29,184.74c-.03,1.67,.06,3.35-.1,5-.32,3.37,.85,5.63,3.33,7,1.06,.59,1.55,.89,1.41,2.91-.3,4.26-1.69,4.47-4.56,3.51-1.71-.58-3.58-.75-5.46-.75-1.82,0-4.71-.07-2.86-4.27,.56-1.25,.25-2.48-1.16-2.8-.43-4.38,.99-8.23,2.51-12.04,1.4,.14,2.8,.28,4.21,.41,.89,.34,1.78,.68,2.67,1.02Z"/>
  <path class="cls-5" d="M34.96,218.89c.38-5.21,1.9-7.78,6.01-8.8,3.84-.95,6.9-2.99,9.02-6.97,1.2-2.25,3.08-1.37,4.74-1.55-1.99,3.8-5.15,6.15-7.85,9.07-3.98,2.73-7.57,6.28-11.91,8.25Z"/>
  <path class="cls-1" d="M64.34,244.61c2.17-1.14,3.96-4.19,6.81-2.02,.13,.1,.49-.05,.64-.21,1.39-1.56,3.04-3.4,4.84-2.21,1.47,.97,2.54,3.09,3.42,4.96,.97,2.04,2.62,3.33,3.44,5.61,.92,2.56,1.32,4.06-1.5,4.66-1.03,.22-1.93,.95-2.48,2.12-.46-.02-.92-.04-1.38-.06,0-2.02-1.02-2.55-2.48-2.54-1.5,.02-2.99-.02-4.49-.03-4.51-1.28-4.4-6.98-6.82-10.27Z"/>
  <path class="cls-6" d="M71.16,254.88c1.5,.01,2.99,.04,4.49,.03,1.46-.02,2.49,.52,2.48,2.54-2.52-.1-5.05-.14-6.97-2.56Z"/>
  <path class="cls-2" d="M14.04,174.87c-1.76-1.58-1.29-3.18-.41-4.74,.12-.2,.81-.27,.87-.14,.9,1.74-.57,3.2-.47,4.88Z"/>
  <path class="cls-2" d="M10.01,174.12c-1.13-1.41-.99-2.6-.24-3.76,.09-.14,.72-.06,.8,.12,.55,1.17,.34,2.29-.56,3.64Z"/>
  <path class="cls-4" d="M35.38,169.22l.25-.22s.23,.25,.23,.25c-.17,.15-.33,.14-.48-.03Z"/>
  <path class="cls-1" d="M138.09,237.73c-3.46-1.72-7.63-3.72-12-5.03-.32-.1-.73-.82-.71-1.24,.04-1.04,.83-1.41,1.51-1.32,5.06,.67,10.18,1,15.06,2.97,.98,.39,1.05,1.46,.71,2.44-.71,2.01-2.16,2.37-4.55,2.18Z"/>
  <path class="cls-5" d="M75.23,229.69c.82,.07,1.65,.21,2.07,1.17,.88,1.99,1.73,2.6,3.35,.69,1.48-1.74,3.27,.46,4.93,0,.56,4.19,.18,4.74-2.94,3.37-2.01-.89-3.52-.71-4.92,1.28-1.13,1.61-2.6,2.24-4.74,1.58,2.15-2.27,3.57-4.75,2.25-8.09Z"/>
  <path class="cls-5" d="M102.41,263.25c-.89-.11-1.78-.22-2.66-.33,.99-.93,1.88-.92,2.66,.33Z"/>
  <path class="cls-5" d="M93.37,261.69c-.52,.23-.99,.16-1.41-.27,.62-1,1.09-.89,1.41,.27Z"/>
  <path class="cls-13" d="M77.11,182.09c-2.12-1.25-5.06-1.04-5.8-4.7,1.32-1.89,2.77-3.62,4.06-5.56,1.83-2.74,4.8-2.86,7.58-2.26,.78,.17,1.44,.76,.62,2.06-2.19,3.46-3.95,7.3-6.47,10.46Z"/>
  <path class="cls-4" d="M74.54,209.83c-1.87-3.13-1.62-7.43-3.91-10.33,2.14-5.49,.38-13.12,6.4-16.47,.13,2.59-2.31,3.37-2.75,5.54-1.09,5.31-.47,6.56,4.26,8.63-3.48,3.29-4.26,7.73-3.99,12.63Z"/>
  <path class="cls-5" d="M109.9,191.22c-.11,.49-.23,.98-.34,1.47-.93,.14-1.86,.28-2.79,.42,.67-1.54,1.8-1.95,3.13-1.89Z"/>
  <path class="cls-2" d="M110.27,193.59c1.22-.29,2.02,.31,2.47,1.65,0,1.67,.01,3.33,.02,5-.39-.66-.78-1.31-1.17-1.97-.91-1.36-1.68-2.79-1.32-4.68Z"/>
  <path class="cls-15" d="M111.59,198.27c.39,.66,.78,1.31,1.17,1.97,.08,.41,.16,.82,.24,1.22-.32,1.03-.64,2.06-.96,3.09-2.92-1.78-.42-4.18-.45-6.28Z"/>
  <path class="cls-2" d="M109.6,192.75c.22,.28,.45,.56,.67,.84-.22-.28-.45-.56-.67-.84Z"/>
  <path class="cls-9" d="M113,201.46c-.08-.41-.16-.82-.24-1.22,0-1.67-.01-3.33-.02-5,.54,.03,1.08,.05,1.62,.07,.08,2.22-.02,4.37-1.37,6.15Z"/>
  <path class="cls-6" d="M50.02,325.64c-4.51-3.83-9.04-7.61-13.51-11.5-1.26-1.09-1.86-2.78-2.25-4.58-.58-2.69,1.33-2.11,2.37-2.95,1.85-1.5,.82-4.11,.12-5.54-1.41-2.86-1.14-6.21-2.42-9.03-.47-1.02-.74-2.79,.64-3.12,1.35-.33,.97,1.46,1.22,2.42,2.04,7.6,3.19,15.57,6.78,22.51,1.25,2.41,2.61,4.86,4.62,6.07,2.22,1.35,2.7,3.12,2.47,5.67,0,0-.04,.05-.04,.05Z"/>
  <path class="cls-4" d="M31.5,300.05c-1.22-2.05-2.46-4.1,.84-5.12,1.06,2.01,.53,3.66-.84,5.12Z"/>
  <path class="cls-4" d="M32.69,309.47c-.68-.37-1.33-.74-.64-1.81,.61,.4,.75,1.04,.64,1.81Z"/>
  <polygon class="cls-6" points="50.07 325.59 50.22 325.83 50.02 325.64 50.07 325.59"/>
  <path class="cls-1" d="M34.47,163.36c.11-1.1,.22-2.19,.33-3.29,.89,.12,1.89,.21,1.85,1.66-.05,1.71-1.18,1.61-2.18,1.63Z"/>
  <path class="cls-5" d="M122.89,161.09c-.99,.08-1.99,.15-2.82-.68,1.2-1.23,2.19-1.31,2.82,.68Z"/>
  <path class="cls-4" d="M31.39,155.54c-.44-.3-.43-.76-.31-1.26,.11,.42,.21,.84,.31,1.26Z"/>
  <path class="cls-2" d="M65.77,211.39c-.36,.24-.72,.49-1.07,.73-.02-.73-.46-1.65,.51-1.95,.1-.03,.37,.79,.56,1.21Z"/>
  <path class="cls-7" d="M196.5,186.39c1.05-.71,2.3-1.2,3.34-1.3,1.4-.13,2.68,.01,4.02,.34,1.54,.37,3.04,.91,4.52,1.46,1.09,.41,2.09,.83,2.93,1.82s2.64,.9,3.54,0c1.02-1.02,.87-2.5,0-3.54-1.22-1.44-2.89-2.24-4.62-2.91s-3.53-1.32-5.36-1.73c-3.69-.83-7.68-.65-10.89,1.54-1.11,.76-1.61,2.2-.9,3.42,.65,1.1,2.3,1.66,3.42,.9h0Z"/>
</svg>