<?xml version="1.0" encoding="UTF-8"?>
<svg id="Capa_1" data-name="Capa 1" xmlns="http://www.w3.org/2000/svg" viewBox="0 0 593.21 245.77">
  <defs>
    <style>
      .cls-1, .cls-2, .cls-3 {
        fill: #e6eaf7;
      }

      .cls-4, .cls-5, .cls-6 {
        fill: #edeff9;
      }

      .cls-7, .cls-8, .cls-9 {
        fill: #9d939e;
      }

      .cls-10, .cls-11, .cls-12 {
        fill: #917573;
      }

      .cls-13, .cls-14, .cls-15 {
        fill: #b9c6e5;
      }

      .cls-16, .cls-17, .cls-18 {
        fill: #cdd7ee;
      }

      .cls-19, .cls-20 {
        fill: #cfbdbe;
      }

      .cls-21, .cls-22, .cls-23 {
        fill: #c3d1ec;
      }

      .cls-24, .cls-25, .cls-26 {
        fill: #ad8884;
      }

      .cls-27, .cls-28, .cls-29 {
        fill: #dbe0f2;
      }

      .cls-30, .cls-31, .cls-32 {
        fill: #d4ddf1;
      }

      .cls-33, .cls-34 {
        fill: #ad9fa9;
      }

      .cls-35, .cls-36 {
        fill: #212836;
      }

      .cls-37, .cls-38, .cls-39 {
        fill: #353947;
      }

      .cls-40, .cls-41, .cls-42 {
        fill: #3d4253;
      }

      .cls-43 {
        fill: #6188c6;
      }

      .cls-44 {
        fill: #5ea8da;
      }

      .cls-45 {
        fill: #77b9e6;
      }

      .cls-46 {
        fill: #777778;
      }

      .cls-46, .cls-47, .cls-38, .cls-41, .cls-36, .cls-22, .cls-28, .cls-31, .cls-34, .cls-48, .cls-25, .cls-17, .cls-49, .cls-8, .cls-11, .cls-50, .cls-14, .cls-51, .cls-5, .cls-2 {
        opacity: .79;
      }

      .cls-47 {
        fill: #5aa1d6;
      }

      .cls-48, .cls-52 {
        fill: #c8a8a4;
      }

      .cls-49, .cls-53 {
        fill: #85a0c7;
      }

      .cls-50, .cls-54 {
        fill: #72b7e6;
      }

      .cls-51 {
        fill: #7dbee9;
      }

      .cls-53, .cls-54, .cls-15, .cls-9, .cls-12, .cls-6, .cls-3, .cls-39, .cls-42, .cls-32, .cls-52, .cls-26, .cls-29, .cls-23, .cls-20, .cls-18 {
        opacity: .45;
      }
    </style>
  </defs>
  <rect class="cls-43" y="72.67" width="593.21" height="94.61"/>
  <path class="cls-18" d="M117.39,191.43c.43-6.12,.86-12.23,1.29-18.35,0,5.55,0,11.11,0,18.52,1.52-3.33,2.19-4.78,2.85-6.23,1.8,4.04,3.6,8.08,5.39,12.11,.63,2.03,1.25,4.06,1.88,6.09,0,0-.04,.03-.04,.03,.49,2.45,.97,4.9,1.46,7.34-1.83,2.47-3.65,4.93-5.89,7.95,2.45,.99,4.29,1.73,6.11,2.47,1.6-2.21,3-4.14,4.4-6.08,2.24-1.86,6.48-2.47,4.04-7.25,1.49,.49,2.98,.99,4.47,1.48-.92,3.3-2.04,6.55-2.7,9.91-.53,2.68-.49,5.47-.71,8.22,.02,1.38,.04,2.77,.06,4.15-2.87,.18-5.78,.1-8.6,.61-3.21,.59-6.34,1.71-9.5,2.6-.82-.41-1.64-1.14-2.47-1.17-6.65-.25-8.68-3.46-6.77-10.29,1.25-4.47,1.54-9.25,2.26-13.89,.39-2.56,.78-5.12,1.17-7.68,.43-3.52,.87-7.04,1.3-10.55Z"/>
  <path class="cls-28" d="M255.15,208.16c-.41-3.53-.81-7.07-1.22-10.6,3.4,1.89,6.81,3.78,12,6.66-6.38-11.4,.74-17.61,4.94-24.74,2.83-1,5.66-2,8.49-3,.05,.53,.1,1.06,.14,1.59-.1,1.49-.21,2.99-.31,4.48-1.51,9.51-3.04,19.01-4.5,28.53-.1,.63,.3,1.35,.49,2.03,.93,3.34,1.86,6.68,2.79,10.02-3.05,1.54-6.1,3.07-9.14,4.61-.69,.15-1.37,.3-2.06,.44-2.27-.02-4.54-.04-6.81-.07-1.49-5.19-2.99-10.37-4.48-15.56-.11-1.47-.22-2.94-.33-4.41Z"/>
  <path class="cls-31" d="M249.5,164.41c-.1-.51-.2-1.03-.3-1.54,.63-7.02,1.82-14.05,1.71-21.05-.09-5.63-1.75-11.23-2.72-16.85-1.45-2.5-2.89-5.01-4.33-7.51,.07-.44,.08-.89,.04-1.33,.03-1,.05-1.99,.07-2.99,.06-.51,.13-1.02,.2-1.53,.69-.77,1.39-1.54,2.08-2.32,1.47,1.83,2.64,4.15,4.47,5.38,2.56,1.73,5.6,2.64,8.44,3.91-.14,.49-.28,.97-.42,1.46-1.68,.37-3.37,.74-5.39,1.19,7.98,4.68,10.22,4.56,16.42-1.78,3.73-3.81,6.87-8.25,10.48-12.22,3.38-3.72,7.01-7.19,10.54-10.76-.96,3.49-1.13,7.6-3.05,10.33-4.21,6.01-9.31,11.32-14.05,16.92-2.94,2.45-6.45,4.44-8.67,7.48-2.47,3.38-10.29,4.39-5.09,11.96,5.44,7.91,.64,17.89-8.63,18.49,.36,.95,.71,1.86,1.05,2.76-.95,0-1.9,0-2.84,0Z"/>
  <path class="cls-32" d="M111.25,98.17c-9.56-11.06-11.69-23.91-8.15-38.11,3.16,5.67,5.72,11.9,9.7,16.83,2.71,3.35,7.44,4.89,11.27,7.23,1.26-2.62,2.42-5.31,3.82-7.85,.55-1.01,1.62-1.7,2.45-2.54,5.82-1.11,11.64-2.22,17.46-3.33,2.13,2.1,4.27,4.21,6.41,6.31,.57,1.52,1.13,3.05,1.7,4.57-1.08,2.79-2.27,5.54-3.18,8.39-.52,1.63-.59,3.43-.86,5.15,.3,2.61,.61,5.23,.92,7.84-3.18-.09-6.38-.41-9.55-.2-2.92,.19-5.82,.96-8.72,1.47-2.41-1.03-4.82-2.06-7.23-3.09-4.69-5.24-10.11-5.62-16.03-2.69Zm36.58-2.92c.13-1.1,.26-2.2,.39-3.3-8.19-3.46-16.82-.4-25.15-1.75-.07,.91-.15,1.81-.22,2.72,8.33,.78,16.65,1.55,24.98,2.33Z"/>
  <path class="cls-6" d="M130.33,73.74c-.83,.84-1.89,1.53-2.45,2.54-1.4,2.54-2.56,5.22-3.82,7.85-3.83-2.35-8.55-3.88-11.27-7.23-3.99-4.93-6.54-11.15-9.7-16.83,1.09-4.25,1.95-8.59,3.31-12.74,2.21-6.75,6.65-11.23,13.24-13.17,7.31-.63,9.45,6.29,13.54,10.37-.99,1.59-2.76,3.15-2.8,4.76-.08,2.61,.97,5.25,1.55,7.88-4.75-.46-7.22,1.11-5.39,6.48,2.31,.37,4.49,.72,6.67,1.06-.96,3.01-1.92,6.02-2.89,9.03Zm-5.4-18.63c.17-.42,.55-.93,.44-1.23-.11-.3-.73-.39-1.12-.57-.17,.42-.56,.93-.44,1.23,.12,.3,.73,.39,1.13,.58Z"/>
  <path class="cls-3" d="M127.28,100.85c2.41,1.03,4.82,2.06,7.23,3.09,.49,.14,.99,.28,1.48,.43,.55,.29,1.11,.57,1.66,.86,0,0-.14-.09-.14-.09,.76,.48,1.52,.96,2.28,1.44,4.04,3.45,8.08,6.91,12.11,10.36-.21,1.58-.41,3.16-.76,5.84-6.76-2.29-13.68-4.63-21.26-7.21-1.4,2.9-2.63,5.46-3.86,8.03-3.76,1.4-7.53,2.8-11.29,4.2-1.54-6.54-3.07-13.07-4.61-19.61,0-1.42,.02-2.85,.02-4.27,.64-.69,1.28-1.38,1.92-2.07,5.07-.33,10.14-.67,15.21-1Z"/>
  <path class="cls-39" d="M124.56,24.23c-5.02-15.23,1.6-26.17,15.09-23.94,3.56,.59,6.58,4.84,9.85,7.4-1.81,0-3.63,0-4.98,0-1.08,2.53-2,4.72-2.93,6.91-1.72,.38-3.56,.46-5.13,1.21-1.87,.89-3.5,2.34-5.24,3.55-2.22,1.63-4.44,3.26-6.66,4.88Z"/>
  <path class="cls-26" d="M124.56,24.23c2.22-1.63,4.44-3.26,6.66-4.88,1.67,2.72,3.35,5.44,5.23,8.5,2.41-1.63,5.23-3.53,8.35-5.64-1.15-2.72-2.18-5.17-3.22-7.62,.93-2.19,1.86-4.37,2.93-6.91,1.35,0,3.17,0,4.98,0,.21,.89,.42,1.78,.64,2.66-1.19,2.62-2.91,5.12-3.46,7.89-1.06,5.35-1.47,10.85-2.14,16.29h0c-3.09-1.19-6.18-2.38-7.91-3.04-1.35,2.94-2.41,5.25-3.47,7.55-2.91-3.41-5.81-6.82-8.72-10.22,.04-1.53,.09-3.06,.13-4.58Z"/>
  <path class="cls-15" d="M130.33,73.74c.96-3.01,1.92-6.02,2.89-9.03-.43-2.51-.85-5.03-1.28-7.54-.57-2.63-1.63-5.27-1.55-7.88,.05-1.62,1.81-3.18,2.8-4.76,2.37,3.21,4.74,6.42,7.11,9.62,2.2,4.59,4.39,9.18,6.59,13.77,.3,.83,.6,1.66,.9,2.49-5.82,1.11-11.64,2.22-17.47,3.33Z"/>
  <path class="cls-42" d="M135.99,104.37c-.49-.14-.99-.28-1.48-.43,2.91-.51,5.8-1.28,8.72-1.47,3.17-.21,6.37,.11,9.55,.2-1.46,7.13,2.85,11.2,7.1,15.49,2.52,2.54,6.26,5.05,3.03,9.75-.39,.09-.79,.09-1.18-.02-3.28-3.65-6.55-7.3-9.83-10.95-4.04-3.45-8.08-6.91-12.12-10.36-.76-.48-1.52-.96-2.28-1.44,0,0,.14,.09,.14,.09-.56-.29-1.11-.57-1.66-.86Z"/>
  <path class="cls-3" d="M161.74,127.89c.39,.1,.78,.11,1.18,.02,2.86,2.16,5.72,4.33,8.59,6.49,.39,.4,.77,.79,1.16,1.19,0,0,.44,.54,.44,.53,.35,.34,.7,.68,1.05,1.03,0,0,.32,.24,.32,.23,.43,.42,.86,.84,1.29,1.25,0,0,.15,.16,.15,.15,.43,.46,.87,.92,1.3,1.38,0,0,.06,.12,.06,.12-1.4,7.44-4.86,9.71-11.36,7.46,0-1.02,0-2.04,0-3.05,2.09,.42,4.18,.84,8.22,1.66-2.14-2.57-3.03-3.64-3.92-4.71-2.85-2.01-5.71-4.02-8.56-6.03-2.38-1.51-4.76-3.02-7.13-4.54,.48-1.01,.95-2.03,1.43-3.04,1.93-.05,3.86-.1,5.79-.14Z"/>
  <path class="cls-12" d="M144.53,34.53c.68-5.44,1.08-10.94,2.14-16.29,.55-2.76,2.27-5.26,3.46-7.89,2.78,9.15,1.25,17.78-3.15,25.91-.5,.92-2.6,.7-3.62,1.5-2.19,1.72-4.15,3.76-6.21,5.67-1.34-1.46-2.67-2.93-4.01-4.39,1.06-2.31,2.12-4.61,3.47-7.55,1.73,.66,4.82,1.85,7.91,3.04,.2,.11,.41,.23,.61,.34-.2-.12-.41-.23-.61-.35Z"/>
  <path class="cls-12" d="M155.9,81.29c-.57-1.52-1.13-3.05-1.7-4.57,1.77-2.43,3.96-4.65,5.19-7.36,1.24-2.72,1.51-5.93,2.21-8.92,8.71,5.89,8.97,8.88,1.25,14.56-2.32,2.1-4.64,4.19-6.95,6.29Z"/>
  <path class="cls-52" d="M161.61,60.44c-.7,2.99-.97,6.2-2.21,8.92-1.23,2.71-3.42,4.93-5.19,7.36-2.14-2.1-4.28-4.2-6.41-6.31-.29-.83-.59-1.66-.89-2.49,2.84-7.03,9.79-5.03,14.71-7.48Z"/>
  <path class="cls-53" d="M155.9,81.29c2.32-2.1,4.64-4.19,6.95-6.29,.03,.25,.07,.49,.08,.74q.73,14.07-11.08,19.09c.27-1.72,.34-3.52,.86-5.15,.91-2.85,2.11-5.6,3.18-8.39Z"/>
  <path class="cls-42" d="M133.15,39.04c1.34,1.46,2.67,2.93,4.01,4.39,1.05,3.57,2.1,7.14,3.14,10.72-2.37-3.21-4.74-6.42-7.11-9.62-4.09-4.08-6.23-11-13.54-10.37,.04-3.34,.41-6.34,4.78-5.34,2.91,3.41,5.81,6.82,8.72,10.22Z"/>
  <path class="cls-42" d="M127.28,100.85c-5.07,.33-10.14,.67-15.21,1-.28-1.23-.55-2.46-.82-3.69,5.92-2.93,11.34-2.56,16.03,2.69Z"/>
  <path class="cls-21" d="M174.14,137.15c-.35-.34-.7-.69-1.05-1.03,.34-.2,.71-.26,1.09-.17,.08,.4,.07,.8-.04,1.2Z"/>
  <path class="cls-23" d="M172.66,135.59c-.39-.4-.77-.8-1.16-1.19,.39,.4,.77,.8,1.16,1.19Z"/>
  <path class="cls-5" d="M209.45,61.8c.58-4.01,1.16-8.01,1.74-12.02,6.81-1.79,11.7-1.13,9.15,9.37,5.65-7.51,14.85-12.03,10.59-23.36,0,0,.42-.14,.42-.14,4.19,.69,8.38,1.4,12.57,2.07,5.31,.85,8.46,3.72,8.27,7.59-.89-.04-1.78-.07-2.67-.11-.5-.04-1-.09-1.5-.13-.85-.89-1.69-1.77-2.54-2.66-1.05,1.39-2.1,2.78-3.16,4.16,0,0-.22,.17-.22,.17-.41,.39-.81,.79-1.22,1.18,0,0-.1,.27-.1,.27-.39,1.6-.77,3.19-1.16,4.79,2.42,1.68,4.85,3.36,7.27,5.04,1.08,.18,2.16,.37,3.24,.55,.76-.39,1.52-.79,2.28-1.18,.44-.05,.87-.1,1.31-.17,2.39,1.52,4.77,3.03,7.16,4.55,2.36,.49,4.73,.98,7.09,1.47,.04,1.09,.08,2.18,.11,3.27-1.49,.2-3.03,.21-4.46,.63-3.81,1.14-7.57,2.46-11.35,3.71-1.18,.54-2.36,1.08-3.53,1.61,.16,.4,.31,.81,.47,1.21,1.04-.45,2.08-.9,3.12-1.36,5.33,.11,10.66,.21,15.98,.32-6.59,7.01-13.25,13.94-19.71,21.07-2.55,2.81-4.63,6.09-6.93,9.15-4.04-3.24-3.84-6.51,.9-10.09-3.05-.87-5.27-1.5-7.5-2.13-2.81,.96-5.62,1.93-8.43,2.89-1.56-8.92-4.81-16.89-11.53-22.91,0-.91-.02-1.83-.03-2.74,1.17-.37,2.34-.73,3.51-1.1,0-.48,0-.97,.01-1.45-2.06-.65-4.13-1.3-6.19-1.95-1-.53-1.99-1.05-2.99-1.58Zm45.45,16.58c-.22-.68-.44-1.37-.66-2.05-21.99,2.82-24.2,3.77-24.62,9.78,4.06-1.02,8.36-1.93,12.57-3.21,4.29-1.31,8.48-3,12.71-4.52Z"/>
  <path class="cls-2" d="M268.11,66.51c-.04-1.09-.08-2.18-.11-3.27-2.87-3.82-5.74-7.65-8.61-11.47-.38,.16-.76,.32-1.14,.48,.88,3.17,1.77,6.35,2.65,9.52-2.39-1.52-4.77-3.03-7.16-4.55-.51-3.97-1.03-7.94-1.54-11.91,.19-3.87-2.96-6.74-8.27-7.59-4.19-.67-8.38-1.38-12.57-2.07,2.73-.89,5.46-1.79,8.19-2.69,3.81-.35,7.63-.7,11.44-1.04,13.87,2.39,24.94,9.9,34.15,20.83,.38,.49,.75,.99,1.13,1.48,.1,.52,.19,1.05,.29,1.57,.38,.48,.76,.96,1.15,1.44,.59,.98,1.19,1.96,1.78,2.94,.37,1.56,.74,3.12,1.11,4.68,.01,.48-.04,.95-.16,1.42-.84,1.92-1.68,3.84-2.52,5.77-.07,1.12-.14,2.24-.2,3.36-.43-.02-.87,0-1.3,.05-1.37-.02-2.75-.05-4.12-.07-1.44-3.01-2.88-6.03-4.32-9.04-3.29,.05-6.58,.09-9.87,.14Z"/>
  <path class="cls-14" d="M273.68,123.73c4.74-5.6,9.84-10.91,14.05-16.92,1.92-2.74,2.09-6.85,3.05-10.33,1-4.03,2-8.07,3-12.1-.99-2.49-1.98-4.97-2.97-7.46,1.89,.04,3.78,.07,5.66,.11,.93,.48,1.85,.97,2.78,1.45,1.01,1.97,2.03,3.95,3.05,5.92-.67,3.75-1.34,7.5-2.01,11.25,5.06,.31,3.03,4.29,3.28,7.09-5.62-2.1-8.65,1.41-11.25,5.83-2.8,3.03-5.61,6.06-8.41,9.09-1.97,3-3.95,6-5.92,9-1.71,2.49-3.43,4.97-6.08,8.82,.77-5.13,1.27-8.44,1.77-11.75Z"/>
  <path class="cls-28" d="M215.14,70.62c6.71,6.02,9.96,13.99,11.53,22.91-1.01,.41-2.64,1.46-2.93,1.14-1.95-2.15-3.61-4.58-5.07-6.52-2.28,3.07-4.24,5.7-6.2,8.33-1.51-4.03-3.03-8.06-4.54-12.08-.39-.51-.79-1.03-1.18-1.55,0,0,.06,0,.06,0-.41-1.53-.83-3.07-1.24-4.6-.01-.46-.08-.91-.19-1.35,.01-4,.02-8,.03-12,2.27,.51,4.54,1.01,6.82,1.52,.09,.46,.03,.9-.16,1.32-1.68,.85-3.35,1.69-5.03,2.54,.23,.67,.47,1.34,.7,2,1.58-.52,3.15-1.04,4.73-1.55,.89-.04,1.78-.08,2.67-.11Zm-2.61,10.63c-.47,.8-.94,1.61-1.41,2.41,1.47,.69,2.95,1.39,4.42,2.08,.31-.65,.61-1.3,.92-1.95-1.31-.85-2.62-1.7-3.93-2.55Z"/>
  <path class="cls-36" d="M224.21,25.53c-3.8-9.08-2.96-13.43,3.81-19.75,5,3.95,4.54,9.64,4.33,15.24-1.85,1.59-3.7,3.19-5.55,4.78-.86-.09-1.72-.18-2.59-.27Z"/>
  <path class="cls-2" d="M230.94,35.8c4.26,11.32-4.94,15.85-10.59,23.36,2.55-10.5-2.33-11.17-9.15-9.37,2.31-2.02,4.61-4.03,6.91-6.05,2.97,5.81,6.16,2.51,9.58,.26-1.41-1.75-2.71-3.36-4.01-4.98,2.42-1.07,4.84-2.15,7.25-3.22Z"/>
  <path class="cls-11" d="M250.99,31.93c-3.81,.35-7.63,.7-11.44,1.04-.54-1.41-1.08-2.82-1.62-4.23,1.63-.12,3.51,.27,4.82-.48,2-1.14,3.6-3.06,5.37-4.65-1.64-1.89-3.24-3.83-4.94-5.66-.62-.66-1.47-1.08-2.22-1.6,1.77-1.46,3.54-2.92,5.32-4.38-.21-1.08-.42-2.17-.63-3.25,.36-.26,.7-.55,1.01-.86,5.91,7.13,5.26,15.57,4.32,24.07Z"/>
  <path class="cls-41" d="M237.93,28.74c.54,1.41,1.08,2.82,1.62,4.23-2.73,.9-5.46,1.79-8.19,2.69,0,0-.42,.14-.42,.14-2.42,1.07-4.84,2.15-7.25,3.22-1.56,.51-3.11,1.01-4.67,1.52,1.78-3.38,3.56-6.77,6.17-11.71,.09,.31-.44-1.49-.98-3.3,.86,.09,1.72,.18,2.59,.27-.48,4.11,.78,5.51,4.43,3.19,2.23-.08,4.47-.16,6.7-.25Z"/>
  <path class="cls-38" d="M246.28,11.98c-1.77,1.46-3.54,2.92-5.32,4.38-.46-.1-.92-.19-1.38-.28-5.87-4.02-4.39,4.01-7.24,4.95,.21-5.61,.67-11.29-4.33-15.24,2.87-.9,5.75-1.79,8.62-2.69-.77,1.59-1.55,3.18-3.01,6.17,4.69,1,8.67,1.86,12.66,2.71Z"/>
  <path class="cls-36" d="M246.28,11.98c-3.98-.85-7.96-1.7-12.66-2.71,1.46-3,2.24-4.59,3.01-6.17,2.89,.93,5.79,1.87,8.68,2.8,.11,.94,.23,1.89,.34,2.83,.21,1.08,.42,2.17,.63,3.25Z"/>
  <path class="cls-28" d="M290.82,76.92c.99,2.49,1.98,4.97,2.97,7.46-1.64,1.29-3.27,2.58-4.98,3.93-.86-4.62-1.62-8.73-2.38-12.83,.43-.05,.87-.07,1.3-.05,1.03,.5,2.06,1,3.1,1.5Z"/>
  <path class="cls-5" d="M219.02,40.53c1.56-.51,3.11-1.01,4.67-1.52,1.3,1.61,2.6,3.23,4.01,4.98-3.42,2.25-6.61,5.55-9.58-.26,.3-1.07,.6-2.13,.91-3.2Z"/>
  <path class="cls-22" d="M212.24,66.42c-2.27-.51-4.55-1.01-6.82-1.52,1.35-1.03,2.69-2.07,4.04-3.1,1,.53,1.99,1.05,2.99,1.58-.07,1.02-.14,2.03-.21,3.05Z"/>
  <path class="cls-28" d="M287.92,72.07c.84-1.92,1.68-3.84,2.52-5.77-.84,1.92-1.68,3.84-2.52,5.77Z"/>
  <path class="cls-28" d="M290.6,64.88c-.37-1.56-.74-3.12-1.11-4.68,.37,1.56,.74,3.12,1.11,4.68Z"/>
  <path class="cls-38" d="M245.66,8.72c-.11-.94-.23-1.89-.34-2.83,.45,.65,.9,1.31,1.35,1.97-.32,.32-.66,.6-1.01,.87Z"/>
  <path class="cls-28" d="M287.71,57.27c-.38-.48-.76-.96-1.15-1.44,.38,.48,.76,.96,1.15,1.44Z"/>
  <path class="cls-28" d="M286.28,54.25c-.38-.49-.75-.99-1.13-1.48,.38,.49,.75,.99,1.13,1.48Z"/>
  <path class="cls-4" d="M372.41,42.5c12.13-1.52,24.25-3.88,36.41-4.1,3.99-.07,8.07,5.36,12.11,8.28-3.31,7.21-12.8,14.08-15.52,10.77,.68-1.52,1.42-3.18,2.09-4.68-2.16-1.25-3.9-2.26-6.01-3.49-1.81,3.11-3.57,6.16-6.15,10.59,3.77,.27,6,.43,8.22,.59,.03,.49,.06,.98,.09,1.48v.03c-1.1,.4-2.36,.55-3.24,1.25-7.93,6.3-15.9,12.56-23.6,19.16-1.95,1.67-2.98,4.54-5.26,8.19,8.82-5.11,15.82-9,22.63-13.25,1.59-.99,2.5-3.2,3.73-4.84h0c1.91-2.46,3.81-4.94,5.72-7.41,1.94,.55,3.89,1.11,5.83,1.66-1.83,4.73-3.81,9.41-5.44,14.22-2.59,7.65-4.95,15.39-7.4,23.1-2.54-.89-7.24-1.79-7.24-2.66,.02-3.53,1.49-7.05,2.46-10.73-4.56,3.01-9.2,6.08-13.84,9.14-2.68-1.2-6.19-7.32-7.19,1.36-.89-.06-1.78-.13-2.66-.19l-1.64-2.8c-1.56-1.59-3.12-3.19-4.68-4.78-.66-3.93-1.31-7.87-2.02-12.09,.27,.02-.71,.12-1.56-.17-6.6-2.29-9.2-.09-8.22,7.08,.23,1.72,.59,3.41,.89,5.12,2.19,1.63,4.39,3.25,6.58,4.88-.76,1.95-1.52,3.9-2.27,5.86-.04,.54-.08,1.08-.12,1.63-.47,0-.93,0-1.4-.05-3.73-6.99-7.46-13.98-11.18-20.97,0-1.02-.02-2.03-.03-3.05,1.24-1.7,2.49-3.4,3.73-5.1,1.22-3.78,2.43-7.56,3.65-11.34,5.11-5.61,10.22-11.21,15.33-16.82,2.4-1.94,4.8-3.89,7.2-5.84Zm3.27,15.16c-.23,.56-.47,1.12-.7,1.68,2.06,.8,4.35,2.62,6.13,2.18,2.9-.73,5.75-2.61,7.95-4.76,.51-.5-1.16-5.16-2.71-5.91-1.56-.77-4.2,.93-6.37,1.55,.08,.55,.16,1.09,.24,1.64,1.79,.74,3.58,1.48,5.38,2.22-.06,.47-.12,.94-.18,1.41h-9.75Z"/>
  <path class="cls-4" d="M447.82,61.92c11.79-.33,21.71-5.58,31.74-11.77,7.2-4.44,15.86-6.21,23.88-9.18,4.78-.46,9.57-.92,14.35-1.38,.55,2.45,1.1,4.89,1.65,7.34,.33,1.53,.67,3.06,1.01,4.59,1.3,6.48-1.19,10.97-7.26,11.51-6.25,.56-7.03,4.3-6.91,9.41-.49,1-.97,2.01-1.46,3.01-3.37,1.49-6.73,2.97-10.1,4.46-.91,.43-1.83,.86-2.74,1.3-4.88,2.54-9.76,5.08-14.63,7.62-6.51,3.1-13.03,6.2-19.54,9.3,6.64-8.07,13.27-16.15,19.91-24.22l-1.07-1.15c-2.05,1.31-4.09,2.63-6.44,4.14-.29-2.19-.5-3.78-.84-6.27-2.11,3.17-3.56,5.35-5.06,7.6-2.3-1.49-4.24-2.76-6.99-4.54-.91,2.41-1.64,4.36-2.37,6.31-.91,.57-1.83,1.13-2.74,1.7-4.13-2.79-8.35-5.47-12.34-8.47-.84-.63-1.58-3.12-1.16-3.63,1.81-2.18,4.07-3.95,6.16-5.86,.99-.6,1.97-1.2,2.96-1.81Zm32.2,7.12c-.4-.18-.79-.36-1.19-.54-.17,.42-.56,.93-.45,1.24,.11,.3,.73,.39,1.12,.57,.17-.42,.34-.84,.51-1.26Z"/>
  <path class="cls-35" d="M345.49,46.83c-3.07-5.05-2.92-10.06,.18-15.02,3.58,2,7.15,3.99,10.73,5.99-.04,1-.07,2.01-.11,3.01-.38,1.02-.76,2.04-1.14,3.06l.05,.03c-1.38,2.1-2.77,4.2-4.15,6.3,.1,.4,.05,.77-.16,1.12-.78-.06-1.56-.12-2.34-.17-.3-.02-.45-.18-.45-.5-.1-.5-.39-.8-.86-.92-.31-.02-.47-.2-.47-.53-.42-.79-.84-1.58-1.27-2.37Z"/>
  <path class="cls-24" d="M541.59,37.02c-.68,6.07-1.37,12.14-2.22,19.68-3.58-1.85-5.47-2.82-7.36-3.8,2.05-1.73,4.1-3.45,6.97-5.87-4.36-.98-6.46-1.44-8.56-1.91,1.04-1.97,2.09-3.95,3.13-5.92,1.59-1.42,3.17-2.84,4.76-4.26,.81,.61,1.61,1.22,2.41,1.83,.28,.1,.57,.18,.86,.25Z"/>
  <path class="cls-40" d="M365.21,48.34c-5.11,5.61-10.22,11.21-15.33,16.82-.16-2.33-.55-4.68-.4-6.99,.12-1.82,.92-3.59,1.42-5.38,0,0-.08,.08-.08,.08,2.89-1.91,5.62-4.25,8.74-5.56,1.51-.64,3.74,.63,5.65,1.04Z"/>
  <path class="cls-19" d="M533.56,39.2c-1.04,1.97-2.09,3.95-3.13,5.92-3.67,.61-7.33,1.21-11,1.81-.55-2.45-1.1-4.9-1.65-7.34,3.73-1,7.43-2.33,11.22-2.84,1.4-.19,3.03,1.58,4.56,2.45Z"/>
  <path class="cls-27" d="M342.52,84.65c3.73,6.99,7.46,13.98,11.18,20.97-1.47,.55-2.94,1.11-4.42,1.66-8.2-5.34-7.26-14.41-8.28-22.68,.51,.02,1.01,.04,1.51,.06Z"/>
  <path class="cls-37" d="M356.4,37.79c-3.58-2-7.15-3.99-10.73-5.99,1.88-1.94,3.76-3.89,5.64-5.83,1.25,.04,2.49,.08,3.74,.13-.88,1-1.77,2.01-2.65,3.01,3.92-1.26,8.33,9.85,11.3-.47,.46,.29,.93,.57,1.39,.86,.09,1.8,.19,3.6,.29,5.41-1.05,.48-2.1,.97-3.15,1.45-1.94,.48-3.88,.96-5.82,1.44Z"/>
  <path class="cls-27" d="M346.23,76.5c-1.25,1.7-2.49,3.4-3.73,5.1,1.25-1.7,2.49-3.4,3.73-5.1Z"/>
  <path class="cls-45" d="M540.74,36.77c-.8-.61-1.61-1.22-2.41-1.83,.8,.61,1.61,1.22,2.41,1.83Z"/>
  <path class="cls-40" d="M345.49,46.83c.42,.79,.84,1.58,1.27,2.37-.42-.79-.84-1.58-1.27-2.37Z"/>
  <path class="cls-40" d="M348.54,51.14c.78,.06,1.56,.12,2.34,.18-.02,.52-.04,1.03-.06,1.55,0,0,.08-.08,.08-.08-.79-.55-1.57-1.1-2.36-1.65Z"/>
  <path class="cls-40" d="M347.23,49.72c.47,.11,.76,.42,.86,.92-.51-.07-.8-.37-.86-.92Z"/>
  <path class="cls-1" d="M431.43,152.4c-.05,1.1-.09,2.2-.14,3.3,.01,1.85,.03,3.7,.04,5.55-.02,2.07-.03,4.13-.05,6.2-.24,7.56-.47,15.11-.71,22.67-1.85,2.85-3.7,5.7-5.56,8.54-.91-.57-1.83-1.15-2.74-1.72v-18.98c-6.51,.59-12.32,8.15-17.43,.1-.04-.5-.07-1-.11-1.5,2-2.52,3.99-5.03,5.99-7.55,.01-.5,.02-.99,.04-1.49,0,0-.02,.03-.02,.03,3.06-3.49,6.45-6.72,9.1-10.52,4.06-5.82,7.62-12.04,11.39-18.09,.02,3.5,.04,7.01,.05,10.51l.15,2.97Z"/>
  <path class="cls-18" d="M110.12,108.19c1.54,6.54,3.07,13.07,4.61,19.61-1.03,.1-2.06,.2-3.09,.3-.92-6.55-1.84-13.1-2.76-19.65,.42-.07,.84-.15,1.25-.27Z"/>
  <path class="cls-22" d="M303.58,102.74c-.25-2.8,1.79-6.78-3.28-7.09,.67-3.75,1.34-7.5,2.01-11.25,1.39,.56,2.79,1.11,4.18,1.67,2.85,4.54,5.69,9.08,8.54,13.62,.9,2.99,1.8,5.99,2.71,8.98-1.55-.84-3.11-1.67-4.52-2.43-1.86,3.09-3.47,5.75-5.08,8.42-1.52-3.97-3.04-7.95-4.56-11.92Z"/>
  <path class="cls-48" d="M312.98,122.15c-.26-1.12-.51-2.24-.77-3.36,2.31-1.84,4.63-3.68,6.94-5.51,1.85,3.42,3.7,6.85,5.56,10.27-3.13,1.54-6.22,6.15-9.46,.15,0,0-.17-.19-.16-.19-.7-.45-1.41-.91-2.11-1.36Z"/>
  <path class="cls-46" d="M315.25,123.69c3.24,6,6.33,1.39,9.46-.15,1.9,2.33,3.8,4.66,5.7,6.99-10.42,4.63-12.61,3.64-15.15-6.84Z"/>
  <path class="cls-2" d="M319.15,113.27c-2.31,1.84-4.63,3.68-6.94,5.51-1.42-.88-2.85-1.76-4.27-2.64,.08-.49,.15-.99,.2-1.48,1.61-2.66,3.21-5.33,5.08-8.42,1.41,.76,2.97,1.59,4.52,2.43,.47,1.53,.95,3.06,1.42,4.6Z"/>
  <path class="cls-16" d="M506.27,72.45c-.12-5.12,.65-8.85,6.91-9.41,6.07-.54,8.56-5.03,7.26-11.51,.45-.14,.9-.24,1.36-.3,4.33,12.23-.36,18.64-15.53,21.23Z"/>
  <path class="cls-7" d="M521.8,51.22c-.46,.06-.92,.16-1.36,.3-.34-1.53-.67-3.06-1.01-4.59,3.67-.6,7.33-1.21,11-1.81,2.1,.47,4.19,.94,8.56,1.91-2.87,2.41-4.92,4.14-6.97,5.87-2.98-3.43-6.04-6.36-10.21-1.68Z"/>
  <path class="cls-34" d="M259.97,228.13c2.27,.02,4.54,.04,6.81,.07,.8,10.31,.21,11.05-11.53,14.24-.5,.19-1,.38-1.5,.57-.9-.16-1.79-.32-2.69-.48-.45-.41-.91-.82-1.37-1.23,1.55-1.94,3.09-3.89,4.67-5.8,1.73-2.09,3.5-4.13,5.25-6.2,.09-.4,.2-.79,.35-1.17Z"/>
  <path class="cls-25" d="M255.25,242.44c11.73-3.2,12.33-3.93,11.53-14.24,.69-.15,1.37-.29,2.06-.44,.68,3.49,1.35,6.99,2.02,10.48,.18,1.96,.35,3.92,.52,5.88-.33,.49-.65,.99-.98,1.48-.7,.05-1.4,.11-2.11,.16-1.08,0-2.15,0-3.22,.01-3.03-.54-6.05-1.08-9.08-1.61-.25-.57-.5-1.14-.75-1.71Z"/>
  <path class="cls-47" d="M265.08,245.77c1.07,0,2.15,0,3.22-.01-1.07,0-2.15,0-3.22,.01Z"/>
  <path class="cls-50" d="M255.25,242.44c.25,.57,.5,1.14,.75,1.71-.75-.38-1.49-.76-2.24-1.14,.5-.19,1-.38,1.5-.57Z"/>
  <path class="cls-33" d="M421.06,224.79c.19,2.45,.39,4.9,.58,7.35-7.29-.42-14.58-.74-21.85-1.3-2.51-.19-4.97-.97-7.46-1.48-.13-.51-.27-1.02-.4-1.53,.1-.48,.07-.96-.08-1.43,.25-.94,.49-1.88,.74-2.82,2.34-1.05,4.68-2.11,7.02-3.16,3.31-3.05,6.61-6.11,9.92-9.17,1.85,0,3.71,0,5.57,0,1.73,.04,3.47,.08,5.2,.13,.26,4.47,.51,8.94,.77,13.41Zm-6.4,5.03c-6.07-11.19-10.18-11.69-19.08-1.84,6.87,.66,12.37,1.19,19.08,1.84Z"/>
  <path class="cls-30" d="M400.63,140.31c3.26-5.62,3.9-11.1,.86-17.36-1.36-2.8-.56-6.77-.74-10.21,.36-1.9,.72-3.8,1.07-5.69,2.88,5.66,6.35,8.52,12.03,3.32,2.04-1.87,4.56-3.15,6.86-4.71,.39,1.41,.78,2.81,1.49,5.4,3.36-4.88,5.68-8.86,8.63-12.23,1.2-1.37,3.77-1.4,5.71-2.04-3.36,6.47-6.72,12.94-10.07,19.41-5.73-.91-8.28,3.51-11.43,7.28-2.48,2.96-5.57,5.35-8.63,8.22,1.9,5.22,1.79,5.41-5.78,8.61Z"/>
  <path class="cls-30" d="M404.73,176.55c-.83-3.42-1.89-6.81-2.42-10.28-.69-4.57-.96-9.21-1.42-13.82-.07-3.02-.13-6.04-.2-9.06,8.93-1.26,13.08-9.14,18.66-15.04,.48,1.02,.96,2.04,1.43,3.06,.45,12.08-8.43,13.72-18.84,16.23,5.74,2.79,9.43,4.58,13.11,6.37-1.44,4.51-2.88,9.02-4.32,13.53,0,0,.02-.03,.02-.03-.01,.5-.03,.99-.04,1.49-2,2.52-3.99,5.03-5.99,7.55Z"/>
  <path class="cls-16" d="M377.98,99.78c4.64-3.07,9.28-6.14,13.84-9.15-.98,3.69-2.44,7.21-2.46,10.73,0,.87,4.7,1.77,7.24,2.66,.37,2.57,.75,5.15,1.12,7.72-3.02,.98-6.46,3.45-8.96,2.64-6.17-2-10.75-1.81-13.58,5.06-.04-4.05-.07-8.1-.11-12.14-.46-1.09-.93-2.18-1.39-3.28,1.44-1.42,2.87-2.83,4.31-4.25Z"/>
  <path class="cls-40" d="M397.72,111.75c-.37-2.57-.75-5.15-1.12-7.72,2.46-7.71,4.81-15.45,7.4-23.1,1.63-4.81,3.61-9.48,5.44-14.22,1.56-.19,3.13-.38,4.7-.56-4.07,10.93-8.29,21.81-12.1,32.84-.83,2.39-.18,5.35-.22,8.05-.36,1.9-.72,3.8-1.07,5.7-1.01-.33-2.02-.66-3.03-.99Z"/>
  <path class="cls-1" d="M419.36,128.34c-5.58,5.9-9.73,13.79-18.66,15.04-.02-1.02-.05-2.05-.07-3.07,7.57-3.2,7.68-3.39,5.78-8.61,3.06-2.87,6.15-5.25,8.63-8.22,3.15-3.77,5.7-8.19,11.43-7.27-2.37,4.04-4.74,8.09-7.11,12.13Z"/>
  <path class="cls-21" d="M349.29,107.28c1.47-.55,2.94-1.11,4.42-1.66,.47,.04,.93,.06,1.4,.05,2.84,3.53,5.68,7.06,8.52,10.59,2.41,2.43,4.82,4.86,7.24,7.29-12.07,1.81-15.75-8.81-21.57-16.27Z"/>
  <path class="cls-30" d="M370.86,123.55c-2.41-2.43-4.82-4.86-7.24-7.29,.48-2.49,.96-4.98,1.44-7.47,2.09,.25,4.17,.5,6.96,.83,.38-.29,1.71-1.3,3.04-2.31,.04,4.05,.07,8.09,.11,12.14-1.44,1.37-2.88,2.73-4.31,4.1Z"/>
  <path class="cls-21" d="M404.95,190.15c-.33-2.55-.66-5.1-1-7.65,1.31,2.1,3.05,4.03,3.87,6.33,2.61,7.4,4.87,14.94,7.27,22.42-1.86,0-3.71,0-5.57,0-1.32-2.6-2.65-5.2-3.97-7.8-.11-1.43-.22-2.87-.33-4.3l-.27-8.99Z"/>
  <path class="cls-14" d="M212.47,96.47c1.96-2.63,3.92-5.26,6.2-8.33,1.45,1.94,3.12,4.37,5.07,6.52,.29,.32,1.92-.72,2.93-1.14,2.81-.96,5.62-1.93,8.43-2.9-2.23,9.52-.98,12.16,6.36,13.42-.15,1.99-.3,3.98-.46,5.96-1.01,.94-2.01,1.88-3.42,3.2-3.31-6.53-6.36-11.17-14.73-6.69-4.79,2.57-8.1-3.95-10.51-8.49,.04-.52,.08-1.04,.13-1.57Z"/>
  <path class="cls-41" d="M241,110.02c.15-1.99,.3-3.98,.45-5.96,.37-.33,.46-.73,.24-1.2,2.3-3.06,4.38-6.34,6.93-9.15,6.46-7.13,13.13-14.06,19.72-21.07,1.82,.9,3.63,1.79,5.45,2.69-9.18,11.32-18.36,22.65-27.54,33.97-.69,.77-1.39,1.54-2.09,2.32-1.03-.21-2.05-.41-3.08-.62,.23-.35,.2-.68-.09-.98Z"/>
  <path class="cls-50" d="M241.08,110.99c1.02,.21,2.05,.41,3.08,.62-.06,.51-.13,1.02-.19,1.53-.96-.71-1.92-1.43-2.88-2.14Z"/>
  <path class="cls-23" d="M178.69,140.3c.44,.96,.89,1.92,1.33,2.89-.47,3.5-.93,7-1.4,10.5-.44,.01-.88,.02-1.32,0-1.48-.46-2.94-1.09-4.46-1.35-3.78-.65-7.59-1.13-11.39-1.68,1.49-.97,2.97-1.94,4.45-2.9,6.5,2.26,9.95-.01,11.36-7.46,.48,0,.95,0,1.43,0Z"/>
  <path class="cls-21" d="M177.2,140.17c-.43-.46-.87-.92-1.3-1.38,.43,.46,.87,.92,1.3,1.38Z"/>
  <path class="cls-21" d="M175.75,138.64c-.43-.42-.86-.84-1.29-1.25,.43,.42,.86,.84,1.29,1.25Z"/>
  <path class="cls-53" d="M146.28,197.01c-.62,4.16-1.24,8.33-1.86,12.49-.36,0-.71,.02-1.06,.02-1.49-.49-2.98-.99-4.47-1.48-.47-5.65-.93-11.3-1.4-16.96,2.93,1.98,5.87,3.95,8.8,5.93Z"/>
  <path class="cls-51" d="M206.76,82.85c.39,.52,.79,1.03,1.18,1.55-.39-.52-.79-1.03-1.18-1.55Z"/>
  <path class="cls-9" d="M124.53,237.96c-.88-.98-1.76-1.97-2.64-2.96,3.17-.89,6.29-2.01,9.5-2.6,2.82-.52,5.73-.43,8.6-.61,1.95,2.12,3.9,4.23,5.85,6.35-.96,.13-1.93,.26-2.89,.38-3.74-.04-7.48-.09-11.21-.13-.92-.14-1.83-.29-2.75-.43-1.49,0-2.98,0-4.47,0Z"/>
  <path class="cls-54" d="M131.75,238.4c3.74,.04,7.48,.08,11.21,.13-3.74-.04-7.48-.09-11.21-.13Z"/>
  <path class="cls-49" d="M295.12,108.66c-.93-.03-1.86-.06-2.79-.1,2.6-4.42,5.63-7.93,11.25-5.83,1.52,3.97,3.04,7.95,4.56,11.92-.05,.5-.11,.99-.19,1.48-1.84-1.04-3.69-2.06-5.51-3.12-2.45-1.43-4.87-2.9-7.31-4.36Z"/>
  <path class="cls-46" d="M312.98,122.15c.7,.45,1.41,.91,2.11,1.36-.7-.45-1.41-.91-2.11-1.36Z"/>
  <path class="cls-44" d="M391.85,226.39c.15,.47,.17,.95,.08,1.43-.16-.33-.36-.64-.46-.99-.03-.1,.24-.29,.38-.44Z"/>
  <path class="cls-3" d="M146.28,197.01c-2.93-1.98-5.87-3.95-8.8-5.93-1.94-.43-3.87-.87-5.81-1.3-1.37-1.68-2.74-3.36-4.1-5.06-2.32-2.9-4.32-2.58-6.05,.64-.66,1.45-1.33,2.9-2.85,6.23,0-7.41,0-12.96,0-18.52-.02-1.44-.04-2.87-.06-4.31,1.03,.52,2.06,1.04,3.09,1.55,2.66,2.22,5.33,4.43,8.34,6.94,2.37-6.37,4.15-11.17,5.93-15.97,1.98,1.01,3.95,2.02,6.48,3.31,.63-1.41,1.39-3.08,2.14-4.75,.94-1.04,1.87-2.07,2.81-3.11,2.49-3.42,5.33-5.81,9.85-4.68,.83,.21,1.96-.88,2.95-1.37,.42-.01,.84-.03,1.25-.05,3.8,.55,7.61,1.03,11.39,1.69,1.52,.26,2.97,.89,4.46,1.35-3.28,2.05-6.56,4.11-9.84,6.16-1,.95-1.99,1.9-2.99,2.84,0,0-.02,.03-.02,.03-3.07,1.03-8.52-2.81-8.45,4.63-5.94,4.38-11.88,8.77-17.45,12.89,.96,0,3.59,.74,5.6-.13,7.33-3.18,14.41-6.98,21.68-10.31,1.15-.53,2.79,.15,4.2,.27-5.21,7.64-10.16,15.51-15.78,22.8-1.7,2.2-5.26,2.8-7.97,4.14Z"/>
  <path class="cls-29" d="M135.98,161.3c-1.78,4.8-3.56,9.59-5.93,15.96-3.01-2.51-5.67-4.72-8.34-6.94,1.86-3.5,1.13-5.64-2.85-6.05,0-1.02,.02-2.04,.02-3.06,.02-.44,.03-.89,.04-1.33,.05-.56,.1-1.11,.15-1.67,.39-.53,.78-1.07,1.17-1.6-.44-4.48-.87-8.97-1.31-13.45,1.42-.02,2.83-.05,4.25-.07-.43,6.53,4.93,11.58,8.39,11.26,7.79-.73,4.91,3.33,4.41,6.94Z"/>
  <path class="cls-15" d="M123.18,143.1c-1.42,.02-2.83,.05-4.25,.07-2.43-5.02-4.86-10.04-7.29-15.06,1.03-.1,2.06-.2,3.09-.3,3.76-1.4,7.53-2.8,11.29-4.2,.42,0,.85,0,1.27-.02,.03,.49,.07,.98,.12,1.48,0,1.01,.01,2.01,.02,3.02-2.3,.78-4.59,1.55-8.99,3.04,4.25,2.19,6.57,3.39,8.89,4.59,1.84,1.49,3.68,2.98,5.52,4.47,5.31,3.03,10.62,6.06,15.93,9.09l-1.38,7.49c-.94,1.04-1.87,2.07-2.81,3.11-.3-9.38-2.56-11.2-11.46-9.16l-.03-.03c.67-8.36-5.01-7.41-9.92-7.58Z"/>
  <path class="cls-18" d="M118.85,164.27c3.98,.42,4.72,2.55,2.85,6.05-1.03-.52-2.06-1.03-3.09-1.55,.08-1.5,.16-3,.24-4.5Z"/>
  <path class="cls-18" d="M118.92,159.89c-.01,.44-.02,.89-.04,1.33-.17-.33-.36-.66-.49-1.01-.01-.03,.35-.21,.53-.32Z"/>
  <path class="cls-18" d="M120.24,156.62c-.39,.53-.78,1.07-1.17,1.6,.39-.53,.78-1.07,1.17-1.6Z"/>
  <path class="cls-20" d="M121.52,185.36c1.73-3.22,3.73-3.54,6.05-.64,1.36,1.7,2.73,3.37,4.1,5.06,.93,2.56,1.87,5.13,2.8,7.69-1.9,2.04-3.81,4.08-5.71,6.12,0,0,.04-.03,.04-.03-.63-2.03-1.25-4.06-1.88-6.09-1.8-4.04-3.6-8.08-5.39-12.11Z"/>
  <path class="cls-9" d="M134.48,197.47c-.93-2.56-1.87-5.13-2.8-7.69,1.94,.43,3.87,.87,5.81,1.3,.47,5.65,.93,11.3,1.4,16.95,2.44,4.78-1.8,5.39-4.04,7.25-.59-1.51-1.17-3.01-1.76-4.52,.47-4.43,.93-8.86,1.4-13.29Z"/>
  <path class="cls-15" d="M133.07,210.77c.59,1.51,1.17,3.01,1.76,4.52-1.4,1.93-2.79,3.86-4.39,6.07-1.82-.73-3.66-1.48-6.11-2.47,2.24-3.02,4.06-5.49,5.89-7.95,.95-.06,1.9-.12,2.85-.18Z"/>
  <path class="cls-52" d="M133.07,210.77c-.95,.06-1.9,.12-2.85,.18-.49-2.45-.97-4.9-1.46-7.35,1.9-2.04,3.81-4.08,5.71-6.12-.47,4.43-.93,8.86-1.4,13.29Z"/>
  <path class="cls-52" d="M126.92,197.48c.63,2.03,1.25,4.06,1.88,6.09-.63-2.03-1.25-4.06-1.88-6.09Z"/>
  <path class="cls-2" d="M249.5,164.41c.95,0,1.9,0,2.84,0,0,0-.01-.01-.01-.01,2.86,5.37,6.48,3.36,9.78,.83,2.65-2.03,4.93-4.62,7.37-6.95-.65,1.96-1.01,4.11-2,5.85-3.02,5.25-6.29,10.34-9.46,15.49,.65,.47,1.3,.95,1.95,1.42,1.6-2.26,3.08-4.62,4.82-6.75,4.78-5.86,9.67-11.61,14.51-17.41-.38,2.01-.75,4.02-1.13,6.03-2.43,5.53-4.86,11.05-7.29,16.58-4.19,7.13-11.32,13.33-4.94,24.74-5.19-2.88-8.6-4.77-12-6.66-.5-3.38-1.03-6.75-1.48-10.13-1.01-7.67-1.97-15.35-2.95-23.02Z"/>
  <path class="cls-22" d="M279.2,182.57c.52,1.03,1.41,2.02,1.49,3.09,.66,9.01,1.18,18.03,1.74,27.05-.04,4.16,2.83,9.71-4.44,10.44-.93-3.34-1.87-6.68-2.79-10.02-.19-.67-.59-1.4-.49-2.03,1.46-9.52,2.99-19.02,4.5-28.53Z"/>
  <path class="cls-17" d="M278.17,162.91c0,.9,0,1.8,0,2.7,.8,1.12,1.61,2.23,2.42,3.35,.01,2.49,.02,4.97,.04,7.46-.42,.02-.84,.04-1.26,.07-2.83,1-5.66,2-8.49,3,2.43-5.53,4.86-11.05,7.29-16.58Z"/>
  <path class="cls-22" d="M279.36,176.5c.42-.02,.84-.05,1.26-.07-.37,.55-.75,1.1-1.12,1.65-.05-.53-.1-1.06-.14-1.59Z"/>
  <path class="cls-5" d="M246.25,109.29c9.18-11.32,18.36-22.65,27.54-33.97,.48-.46,.95-.93,1.43-1.39,2.36,.49,4.73,.98,7.09,1.47,1.37,.02,2.75,.05,4.12,.07,.76,4.1,1.52,8.21,2.37,12.83,1.72-1.35,3.35-2.64,4.98-3.93-1,4.03-2,8.07-3,12.1-3.52,3.58-7.16,7.04-10.54,10.76-3.6,3.96-6.75,8.41-10.48,12.22-6.2,6.34-8.44,6.45-16.42,1.78,2.02-.45,3.71-.82,5.39-1.19,.14-.49,.28-.97,.42-1.46-2.84-1.26-5.88-2.18-8.44-3.91-1.83-1.23-3-3.55-4.47-5.38Z"/>
  <path class="cls-2" d="M273.68,123.73c-.5,3.31-.99,6.61-1.77,11.75,2.65-3.85,4.37-6.34,6.08-8.82-.39,3.17-.17,6.6-1.29,9.45-2.58,6.56-5.8,12.83-8.76,19.22-1.54,.97-3.05,2-4.63,2.9-3.64,2.09-7.32,4.13-10.98,6.18,0,0,.01,.01,.01,.01-.34-.91-.69-1.81-1.05-2.76,9.27-.6,14.07-10.58,8.63-18.49-5.2-7.56,2.62-8.58,5.09-11.96,2.22-3.04,5.73-5.03,8.67-7.48Z"/>
  <path class="cls-53" d="M147.83,95.25c-8.33-.78-16.65-1.55-24.98-2.33,.07-.91,.15-1.81,.22-2.72,8.33,1.35,16.96-1.7,25.15,1.75-.13,1.1-.26,2.2-.39,3.3Z"/>
  <path class="cls-29" d="M131.94,57.16c.43,2.51,.85,5.03,1.28,7.54-2.18-.35-4.36-.69-6.67-1.06-1.83-5.37,.64-6.94,5.39-6.48Z"/>
  <path class="cls-29" d="M124.93,55.11c-.4-.18-1.01-.27-1.12-.58-.11-.3,.28-.81,.44-1.23,.39,.18,1.01,.27,1.12,.57,.11,.3-.27,.81-.44,1.24Z"/>
  <path class="cls-29" d="M127.29,123.58c-.42,.02-.85,.02-1.27,.02,1.23-2.56,2.47-5.13,3.86-8.03,7.58,2.57,14.5,4.91,21.26,7.21,.35-2.68,.56-4.26,.76-5.84,3.28,3.65,6.55,7.3,9.83,10.95-1.93,.05-3.86,.1-5.79,.14-9.19-4.05-18.5-7.29-28.65-4.46Z"/>
  <path class="cls-32" d="M137.51,105.14c.76,.48,1.52,.96,2.28,1.44-.76-.48-1.52-.96-2.28-1.44Z"/>
  <path class="cls-32" d="M135.99,104.37c.55,.29,1.11,.57,1.66,.86-.55-.29-1.11-.57-1.66-.86Z"/>
  <path class="cls-52" d="M141.58,14.59c1.03,2.45,2.07,4.9,3.22,7.62-3.12,2.11-5.94,4.01-8.35,5.64-1.88-3.06-3.56-5.78-5.23-8.5,1.73-1.21,3.36-2.66,5.23-3.55,1.56-.74,3.41-.83,5.13-1.21Z"/>
  <path class="cls-6" d="M127.33,135.71c-2.32-1.2-4.64-2.4-8.89-4.59,4.39-1.49,6.69-2.26,8.99-3.04,11.41,2.51,22.81,5.03,34.22,7.54,2.85,2.01,5.71,4.02,8.56,6.03-5.11-.39-10.26-.47-15.32-1.22-9.21-1.36-18.38-3.12-27.56-4.72Z"/>
  <path class="cls-32" d="M127.33,135.71c9.18,1.59,18.35,3.35,27.56,4.72,5.06,.75,10.21,.84,15.32,1.22,.89,1.07,1.78,2.14,3.92,4.71-4.04-.81-6.13-1.24-8.22-1.66-11.02-1.51-22.04-3.02-33.06-4.52-1.84-1.49-3.68-2.98-5.52-4.47Z"/>
  <path class="cls-6" d="M132.85,140.17c11.02,1.51,22.04,3.02,33.06,4.52,0,1.02,0,2.03,0,3.05-1.48,.97-2.97,1.94-4.45,2.91-.42,.02-.84,.03-1.26,.04-3.8-.48-7.61-.96-11.41-1.44-5.31-3.03-10.62-6.06-15.93-9.09Z"/>
  <path class="cls-29" d="M161.65,135.61c-11.41-2.51-22.82-5.03-34.22-7.54,0-1.01-.01-2.01-.02-3.02,9.04,2.01,18.07,4.02,27.11,6.02,2.38,1.51,4.76,3.02,7.13,4.54Z"/>
  <path class="cls-6" d="M154.52,131.08c-9.04-2.01-18.07-4.02-27.11-6.02-.04-.49-.08-.98-.12-1.48,10.15-2.83,19.46,.41,28.65,4.46-.48,1.01-.95,2.02-1.43,3.04Z"/>
  <path class="cls-26" d="M144.53,34.53c.2,.12,.41,.23,.61,.35-.2-.11-.41-.23-.61-.34,0,0,0,0,0,0Z"/>
  <path class="cls-28" d="M254.91,78.38c-4.23,1.52-8.42,3.21-12.71,4.52-4.2,1.28-8.51,2.19-12.57,3.21,.42-6.01,2.63-6.96,24.62-9.78,.22,.68,.44,1.37,.66,2.05Z"/>
  <path class="cls-22" d="M275.22,73.93c-.48,.46-.95,.93-1.43,1.39-1.81-.9-3.63-1.8-5.45-2.69-5.33-.1-10.66-.21-15.98-.31,0-.49-.02-.98-.05-1.47,3.78-1.25,7.54-2.57,11.35-3.71,1.43-.43,2.97-.44,4.46-.63,3.29-.04,6.58-.09,9.87-.14-.72,2.01-1.44,4.02-2.17,6.03-.73-.83-1.46-1.66-2.2-2.49,.53,1.34,1.06,2.68,1.6,4.02Z"/>
  <path class="cls-31" d="M241.7,102.86c.21,.47,.13,.87-.24,1.2-7.33-1.26-8.59-3.91-6.36-13.42,2.22,.63,4.45,1.27,7.5,2.13-4.74,3.58-4.94,6.85-.9,10.09Z"/>
  <path class="cls-14" d="M252.2,45.31c.51,3.97,1.03,7.94,1.54,11.91-.43,.07-.87,.12-1.31,.17-1.3-.95-2.48-2.33-3.91-2.74-2.89-.83-5.91-1.14-8.88-1.66,.39-1.6,.77-3.19,1.16-4.79,2.11,.99,4.21,1.97,6.32,2.96,.8-1.98,1.61-3.97,2.41-5.95,.89,.04,1.78,.07,2.67,.11Z"/>
  <path class="cls-17" d="M260.9,61.77c-.88-3.17-1.77-6.35-2.65-9.52,.38-.16,.76-.32,1.14-.48,2.87,3.82,5.74,7.65,8.61,11.47-2.36-.49-4.73-.98-7.09-1.47Z"/>
  <path class="cls-8" d="M212.24,66.42c.07-1.02,.14-2.03,.21-3.05,2.06,.65,4.13,1.3,6.19,1.95,0,.48,0,.97-.01,1.45-1.17,.37-2.34,.73-3.51,1.1-.86,.5-1.71,1-2.57,1.5-.16-.55-.31-1.09-.47-1.64,.2-.42,.25-.86,.16-1.31Z"/>
  <path class="cls-2" d="M242.34,46.58c1.05-1.39,2.1-2.78,3.16-4.16,.85,.89,1.69,1.77,2.54,2.66-.73,5.45-3.51,2.22-5.7,1.51Z"/>
  <path class="cls-46" d="M242.34,46.58c2.18,.71,4.97,3.94,5.7-1.51,.5,.04,1,.09,1.5,.13-.8,1.98-1.61,3.97-2.41,5.95-2.11-.99-4.21-1.97-6.32-2.96,0,0,.1-.27,.1-.27,.41-.39,.81-.79,1.22-1.18,0,0,.22-.17,.22-.17Z"/>
  <path class="cls-34" d="M239.65,52.99c2.97,.52,5.99,.83,8.88,1.66,1.43,.41,2.61,1.8,3.91,2.74-.76,.4-1.52,.79-2.28,1.18,.26-.4,.52-.8,.78-1.21-1.43-.05-2.86-.11-4.28-.16,.29,.2,.38,.47,.26,.82-2.42-1.68-4.85-3.36-7.27-5.04Z"/>
  <path class="cls-28" d="M252.3,70.85c.03,.49,.05,.98,.05,1.47-1.04,.45-2.08,.9-3.12,1.36-.16-.4-.31-.81-.47-1.21,1.18-.54,2.36-1.08,3.53-1.61Z"/>
  <path class="cls-2" d="M250.16,58.58c-1.08-.18-2.16-.37-3.24-.55,.12-.35,.03-.62-.26-.81,1.43,.05,2.86,.11,4.28,.16-.26,.4-.52,.8-.78,1.21Z"/>
  <path class="cls-41" d="M212.54,69.37c.86-.5,1.71-1,2.57-1.5,0,.91,.02,1.83,.03,2.74-.89,.04-1.78,.08-2.67,.11-.03-.46,0-.91,.07-1.36Z"/>
  <path class="cls-2" d="M242.12,46.75c-.41,.39-.81,.79-1.22,1.18,.41-.39,.81-.79,1.22-1.18Z"/>
  <path class="cls-28" d="M275.22,73.93c-.53-1.34-1.06-2.68-1.6-4.02,.73,.83,1.46,1.66,2.2,2.49,.72-2.01,1.44-4.02,2.17-6.03,1.44,3.01,2.88,6.03,4.32,9.04-2.36-.49-4.73-.98-7.09-1.47Z"/>
  <path class="cls-17" d="M267.94,155.32c2.96-6.39,6.19-12.66,8.76-19.22,1.12-2.85,.9-6.28,1.29-9.45,1.97-3,3.94-6,5.92-9-.14,2.5-.28,5-.42,7.51-.92,7.5-1.8,15.01-2.76,22.51-.39,3.08-.95,6.14-1.44,9.21-4.85,5.8-9.73,11.56-14.51,17.41-1.74,2.13-3.22,4.49-4.82,6.75-.65-.47-1.3-.95-1.95-1.42,3.17-5.15,6.44-10.24,9.46-15.49,1-1.74,1.35-3.89,2-5.85-.51-.99-1.02-1.97-1.53-2.96Zm5.78-1.47c.17-.66,.35-1.31,.52-1.97-.17,.66-.34,1.32-.52,1.97-.11,.21-.23,.43-.34,.64,.11-.21,.22-.43,.34-.64Z"/>
  <path class="cls-22" d="M212.54,69.37c-.08,.45-.1,.9-.07,1.36-1.58,.52-3.15,1.04-4.73,1.55-.23-.67-.47-1.34-.7-2,1.68-.85,3.35-1.69,5.03-2.54,.16,.54,.31,1.09,.47,1.63Z"/>
  <path class="cls-14" d="M212.53,81.24c1.31,.85,2.62,1.7,3.93,2.55-.31,.65-.61,1.3-.92,1.95-1.47-.69-2.95-1.39-4.42-2.08,.47-.8,.94-1.61,1.41-2.41Z"/>
  <path class="cls-11" d="M232.35,21.03c2.85-.94,1.37-8.96,7.24-4.94-.45,4.09,.61,9.33-6.21,8.42-.53-.07-1.43,2.92-2.15,4.49-3.66,2.33-4.91,.92-4.43-3.19,1.85-1.59,3.7-3.18,5.55-4.78Z"/>
  <path class="cls-25" d="M231.23,28.99c.73-1.57,1.62-4.56,2.15-4.49,6.81,.91,5.75-4.33,6.21-8.42,.46,.08,.92,.17,1.38,.27,.75,.53,1.6,.94,2.22,1.6,1.7,1.83,3.3,3.77,4.94,5.66-1.77,1.59-3.37,3.51-5.37,4.65-1.31,.75-3.19,.36-4.82,.48-2.23,.08-4.47,.16-6.7,.25Z"/>
  <path class="cls-21" d="M414.14,66.15c-1.56,.19-3.13,.37-4.69,.56-1.94-.55-3.89-1.11-5.83-1.66,0-1.03,.02-2.06,.03-3.09,0,0,.01-.03,0-.03-.03-.49-.06-.98-.09-1.48-2.22-.16-4.45-.32-8.22-.59,2.57-4.43,4.34-7.48,6.15-10.59,2.11,1.22,3.86,2.24,6.01,3.49-.67,1.5-1.41,3.16-2.09,4.68,2.72,3.31,12.21-3.56,15.52-10.77,.84,1.07,1.68,2.13,2.52,3.2-.4,2.7-1.51,5.56-1,8.05,.53,2.57,2.64,4.77,4.06,7.13-.06,.45-.11,.89-.14,1.34-4.07-.08-8.15-.16-12.22-.25Z"/>
  <path class="cls-24" d="M350.82,52.86c.02-.52,.04-1.03,.06-1.55,.21-.35,.26-.72,.16-1.12,1.38-2.1,2.77-4.2,4.15-6.3,0,0-.05-.03-.05-.03,.55-.49,1.1-.99,1.65-1.48,1.81-2.01,3.62-4.02,5.43-6.03,1.05-.48,2.1-.97,3.14-1.45,1.74,1.46,3.49,2.91,5.23,4.37,.6,1.08,1.2,2.15,1.8,3.23-2.4,1.95-4.8,3.89-7.2,5.84-1.9-.41-4.13-1.67-5.65-1.04-3.12,1.32-5.85,3.65-8.74,5.56Z"/>
  <path class="cls-35" d="M363.7,28.64c-2.97,10.32-7.38-.79-11.3,.47,.88-1,1.77-2.01,2.65-3.01,.98,0,1.97-.02,2.95-.02,1.41,.37,2.82,.74,4.23,1.11,.49,.48,.98,.97,1.47,1.45Z"/>
  <path class="cls-10" d="M370.6,39.27c-1.74-1.46-3.49-2.92-5.23-4.37-.09-1.8-.19-3.61-.28-5.41,1.84,3.26,3.68,6.52,5.52,9.78Z"/>
  <path class="cls-37" d="M362.22,27.19c-1.41-.37-2.82-.74-4.23-1.11,1.41,.37,2.82,.74,4.23,1.11Z"/>
  <path class="cls-27" d="M403.64,61.96c0,1.03-.02,2.06-.03,3.09-1.91,2.47-3.81,4.95-5.72,7.42-.2-.12-.4-.24-.59-.35,.2,.11,.4,.23,.6,.34-1.23,1.65-2.14,3.85-3.73,4.84-6.81,4.25-13.81,8.14-22.63,13.25,2.28-3.65,3.31-6.52,5.26-8.19,7.7-6.6,15.67-12.86,23.6-19.16,.88-.7,2.14-.85,3.23-1.25Z"/>
  <path class="cls-33" d="M350.91,93.3c-.3-1.71-.66-3.4-.89-5.12-.98-7.17,1.62-9.37,8.22-7.08,.85,.3,1.83,.2,1.56,.17,.7,4.22,1.36,8.15,2.02,12.09-3.63-.02-7.27-.04-10.9-.07Z"/>
  <path class="cls-13" d="M375.07,107.31c-1.33,1.01-2.66,2.02-3.04,2.31-2.79-.33-4.88-.58-6.96-.83-1.43-5.88-6.38-3.6-9.85-4.75,.76-1.95,1.52-3.9,2.28-5.86,3-.01,6-.02,8.99-.04,.55,.93,1.09,1.87,1.64,2.81,.92,.99,1.83,1.98,2.75,2.97,.93,.04,1.86,.08,2.79,.11,.46,1.09,.93,2.18,1.39,3.28Z"/>
  <path class="cls-7" d="M375.68,57.66h9.75c.06-.47,.12-.94,.18-1.41-1.79-.74-3.58-1.48-5.38-2.22-.08-.55-.16-1.09-.24-1.64,2.17-.62,4.81-2.32,6.37-1.55,1.54,.76,3.22,5.41,2.71,5.91-2.2,2.15-5.05,4.04-7.95,4.76-1.78,.45-4.07-1.37-6.13-2.18,.23-.56,.47-1.12,.7-1.68Zm8.63-5.93l-.23,.46,.38,.04-.14-.5Z"/>
  <path class="cls-27" d="M355.22,104.04c3.47,1.14,8.42-1.14,9.85,4.75-.48,2.49-.96,4.98-1.44,7.47-2.84-3.53-5.68-7.06-8.52-10.59,.04-.54,.08-1.08,.12-1.63Z"/>
  <path class="cls-27" d="M366.49,98.15c-2.99,.01-5.99,.02-8.99,.04-2.2-1.63-4.4-3.25-6.59-4.88,3.64,.02,7.27,.04,10.9,.06,1.56,1.59,3.12,3.19,4.68,4.78Z"/>
  <path class="cls-27" d="M373.67,104.03c-.93-.04-1.86-.08-2.79-.11-.03-.92-.06-1.85-.08-2.78,1-8.68,4.51-2.57,7.19-1.36-1.44,1.42-2.87,2.83-4.31,4.25Z"/>
  <path class="cls-16" d="M370.79,101.14c.03,.93,.06,1.85,.08,2.78-.92-.99-1.84-1.98-2.75-2.97,.89,.06,1.78,.13,2.67,.19Z"/>
  <path class="cls-27" d="M403.55,60.46c.03,.49,.06,.98,.09,1.48-.03-.49-.06-.98-.09-1.48Z"/>
  <path class="cls-13" d="M419.36,128.34c2.37-4.04,4.74-8.09,7.11-12.13,3.36-6.47,6.72-12.94,10.07-19.42,.88-.6,1.76-1.19,2.64-1.79,1.93-1,3.86-2,5.79-2.99,.47-.48,.93-.97,1.4-1.45,1.46-1.99,2.92-3.97,4.38-5.96h-.04c.46-.53,.93-1.05,1.39-1.58,.03-.44,.07-.89,.1-1.33,.91-.57,1.83-1.13,2.74-1.7,.5,.02,1,.04,1.5,.06,.43,2.03,.86,4.06,1.29,6.09-3.6,3.95-9.09,7.07-5.48,14.14-2.74,1.82-5.52,3.59-8.22,5.48-4.91,3.43-9.78,6.88-9.38,14.32,.04,.75-1.45,1.59-2.23,2.38-1.79,.57-3.94,.66-5.28,1.82-2.37,2.04-4.25,4.72-6.34,7.13-.48-1.02-.96-2.04-1.43-3.06Z"/>
  <path class="cls-1" d="M452.19,81.69c-.03,.44-.06,.89-.1,1.33-.46,.53-.93,1.05-1.39,1.58,0,0,.04,0,.04,0-1.45-.02-2.9-.04-4.35-.06-.31-.84-.63-1.68-1.82-4.87-2.26,6.4-3.83,10.87-5.4,15.33-.88,.6-1.76,1.19-2.64,1.79-1.94,.64-4.51,.67-5.71,2.04-2.95,3.36-5.26,7.34-8.63,12.23-.71-2.59-1.1-3.99-1.49-5.4,4.84-9.62,9.67-19.23,14.64-29.11-2.55-3.31-1.08-11.3-8.99-10.15,.03-.45,.08-.9,.14-1.34,6.12-.44,12.24-.89,18.36-1.33-2.1,1.92-4.36,3.68-6.16,5.86-.42,.51,.31,3,1.16,3.63,3.99,3,8.2,5.68,12.34,8.47Z"/>
  <path class="cls-30" d="M452.24,100.28c-3.61-7.07,1.89-10.19,5.48-14.14,1.29-1.4,2.59-2.8,3.88-4.21-1.23-.62-2.45-1.24-3.68-1.86-.51,0-1.03-.01-1.54-.02h.04c-.5-.03-1-.05-1.5-.07,.73-1.95,1.47-3.9,2.37-6.31,2.74,1.78,4.69,3.05,6.99,4.54,1.5-2.25,2.95-4.43,5.06-7.6,.33,2.49,.55,4.08,.84,6.27,2.35-1.51,4.4-2.82,6.44-4.14l1.07,1.15c-6.64,8.07-13.27,16.15-19.91,24.22-1.85,.72-3.71,1.43-5.56,2.15Z"/>
  <path class="cls-30" d="M480.02,69.04c-.17,.42-.34,.84-.51,1.26-.39-.18-1.02-.27-1.12-.57-.11-.31,.28-.82,.45-1.24,.4,.18,.79,.36,1.19,.54Z"/>
  <path class="cls-10" d="M362.22,36.35c-1.81,2.01-3.62,4.02-5.43,6.03-.17-.53-.34-1.05-.5-1.58,.04-1,.07-2.01,.11-3.01,1.94-.48,3.88-.96,5.82-1.44Z"/>
  <path class="cls-40" d="M355.19,43.89c-1.38,2.1-2.77,4.2-4.15,6.3,1.38-2.1,2.77-4.2,4.15-6.3Z"/>
  <path class="cls-37" d="M356.29,40.8c.17,.53,.34,1.05,.5,1.58-.55,.49-1.1,.99-1.65,1.48,.38-1.02,.76-2.04,1.14-3.06Z"/>
  <path class="cls-4" d="M420.79,131.41c2.09-2.41,3.96-5.09,6.34-7.13,1.34-1.15,3.49-1.25,5.28-1.82-.18,1.9-.36,3.81-.54,5.71-1.44,1.78-3.08,3.43-4.3,5.38-4.25,6.77-8.36,13.63-12.52,20.46-3.68-1.79-7.36-3.58-13.11-6.37,10.41-2.51,19.3-4.15,18.84-16.23Z"/>
  <path class="cls-21" d="M415.05,154.01c4.16-6.83,8.27-13.69,12.52-20.46,1.22-1.94,2.85-3.59,4.3-5.38,.27,3.56,.54,7.13,.82,10.69-.49,.02-.98,.03-1.47,.05-3.77,6.05-7.32,12.27-11.39,18.09-2.65,3.8-6.04,7.04-9.1,10.52,1.44-4.51,2.88-9.02,4.32-13.53Z"/>
  <path class="cls-27" d="M430.57,190.11c.59,3.03,1.17,6.07,1.76,9.1-.13,10.47-.54,10.89-12.04,12.17-1.74-.04-3.47-.08-5.2-.12-2.4-7.48-4.66-15.02-7.27-22.42-.81-2.3-2.55-4.23-3.87-6.33,.3-1.48,.59-2.97,.89-4.45,5.11,8.05,10.92,.49,17.43-.1v18.98c.91,.57,1.83,1.15,2.74,1.72,1.85-2.85,3.7-5.7,5.56-8.54Z"/>
  <path class="cls-21" d="M410.72,169c.01-.5,.03-.99,.04-1.49-.01,.5-.03,.99-.04,1.49Z"/>
  <path class="cls-19" d="M414.66,229.82c-6.7-.65-12.21-1.18-19.08-1.84,8.9-9.85,13.01-9.35,19.08,1.84Z"/>
  <path class="cls-4" d="M426.36,66.4c7.91-1.14,6.44,6.84,8.99,10.15-4.97,9.88-9.81,19.49-14.64,29.11-2.3,1.55-4.81,2.84-6.86,4.71-5.69,5.2-9.15,2.34-12.03-3.32,.03-2.7-.61-5.66,.21-8.05,3.81-11.03,8.03-21.91,12.1-32.84,4.07,.08,8.15,.17,12.22,.25Z"/>
  <path class="cls-15" d="M170.03,170.07c-1.41-.12-3.05-.8-4.2-.27-7.27,3.33-14.35,7.13-21.68,10.31-2.01,.87-4.64,.13-5.6,.13,5.58-4.12,11.52-8.5,17.45-12.89,2.82-1.54,5.63-3.09,8.45-4.63,0,0,.02-.03,.02-.03,1-.95,1.99-1.9,2.99-2.84,3.28-2.05,6.56-4.11,9.84-6.16,.44,0,.88,0,1.32,0,.03,.99,.07,1.97,.1,2.96-2.9,4.48-5.79,8.96-8.69,13.43Z"/>
  <path class="cls-18" d="M123.18,143.1c4.92,.17,10.6-.78,9.92,7.58-.11,.22-.21,.44-.32,.65,.11-.21,.23-.42,.34-.62,8.9-2.04,11.16-.23,11.46,9.16-.75,1.67-1.5,3.34-2.14,4.75-2.53-1.29-4.5-2.3-6.48-3.31,.5-3.62,3.38-7.67-4.41-6.94-3.46,.32-8.82-4.73-8.39-11.26Z"/>
  <path class="cls-23" d="M148.78,149.26c3.8,.48,7.61,.96,11.41,1.44-.99,.49-2.11,1.58-2.95,1.37-4.52-1.13-7.36,1.26-9.85,4.68,.46-2.5,.92-4.99,1.38-7.49Z"/>
  <path class="cls-32" d="M164.45,162.72c-2.82,1.54-5.63,3.09-8.45,4.63-.08-7.44,5.38-3.6,8.45-4.63Z"/>
  <path class="cls-32" d="M167.46,159.85c-1,.95-1.99,1.9-2.99,2.84,1-.95,1.99-1.9,2.99-2.84Z"/>
  <path class="cls-31" d="M267.94,155.32c.51,.99,1.02,1.98,1.53,2.96-2.44,2.34-4.71,4.92-7.37,6.95-3.3,2.53-6.92,4.54-9.78-.83,3.66-2.06,7.34-4.09,10.98-6.18,1.58-.9,3.09-1.93,4.63-2.9Z"/>
  <path class="cls-22" d="M280.58,168.97c-.81-1.12-1.61-2.23-2.42-3.35,.81,1.11,1.61,2.23,2.42,3.35Z"/>
  <path class="cls-41" d="M250.94,57.37c-1.43-.05-2.86-.11-4.28-.16,1.43,.05,2.86,.11,4.28,.16Z"/>
  <path class="cls-2" d="M273.73,153.85c.17-.66,.34-1.32,.52-1.97-.17,.66-.35,1.31-.52,1.97h0Z"/>
  <path class="cls-2" d="M273.73,153.85c-.11,.21-.22,.43-.34,.64,.11-.21,.23-.43,.34-.64,0,0,0,0,0,0Z"/>
  <path class="cls-4" d="M397.9,72.46c-.2-.11-.4-.23-.6-.34,.2,.12,.4,.23,.59,.35,0,0,0,0,0,0Z"/>
  <polygon class="cls-4" points="384.31 51.73 384.45 52.23 384.07 52.19 384.31 51.73"/>
  <path class="cls-16" d="M439.18,95.01c1.57-4.46,3.15-8.93,5.4-15.33,1.19,3.19,1.51,4.03,1.82,4.87-.44,2-.89,4-1.33,6-.05,.49-.09,.98-.1,1.47-1.93,1-3.86,2-5.79,2.99Z"/>
  <path class="cls-4" d="M457.93,80.08c1.23,.62,2.45,1.24,3.68,1.86-1.29,1.4-2.59,2.8-3.88,4.21-.43-2.03-.86-4.06-1.29-6.08,0,0-.04,0-.04,0,.51,0,1.03,.01,1.54,.02Z"/>
  <path class="cls-4" d="M445.07,90.54c.44-2,.88-4,1.33-6,1.45,.02,2.9,.04,4.35,.06-1.46,1.99-2.92,3.97-4.38,5.96-.43,0-.86,0-1.29-.02Z"/>
  <path class="cls-1" d="M445.07,90.54c.43,.01,.86,.02,1.29,.02-.47,.48-.93,.97-1.4,1.45,.02-.49,.05-.98,.1-1.47Z"/>
  <path class="cls-4" d="M450.7,84.6c.46-.53,.93-1.05,1.39-1.58-.46,.53-.93,1.05-1.39,1.58Z"/>
  <path class="cls-13" d="M457.93,80.08c-.51,0-1.03-.01-1.54-.02,.51,0,1.03,.01,1.54,.02Z"/>
  <path class="cls-15" d="M133.13,150.71c-.11,.21-.23,.42-.34,.62,.11-.22,.21-.44,.32-.65,0,0,.03,.03,.03,.03Z"/>
</svg>